<?xml version="1.0" encoding="utf-8"?>
<!-- Generator: Adobe Illustrator 19.0.0, SVG Export Plug-In . SVG Version: 6.00 Build 0)  -->
<svg version="1.1" id="Ñëîé_1" xmlns="http://www.w3.org/2000/svg" xmlns:xlink="http://www.w3.org/1999/xlink" x="0px" y="0px"
	 viewBox="0 0 1190.5 841.9" enable-background="new 0 0 1190.5 841.9" xml:space="preserve">
<path fill="#CCCCCC" d="M1052.3,637.6v-56l-0.1-0.1l-48.4-27.9l-48.2,27.8l-47.9-27.7v-55.7l-0.1-0.1L859,470.1l-48.2,27.8
	l-47.9-27.7v-55.7l-0.1-0.1l-48.1-27.8V331l-0.1-0.1L666.1,303l-48.2,27.8l-47.9-27.7v-55.4l47.9-27.7l48.2,27.8l48.5-28v-56
	l-48.5-28l-48.2,27.8l-48.2-27.8l-48.5,28v55.7l-47.9,27.7L425,219.4l-48.5,28v55.7l-47.9,27.7l-47.9-27.7v-55.4l48.2-27.8v-56
	l-48.5-28l-48.5,28v55.7l-47.9,27.7l-47.9-27.7v-55.7l-48.2-27.8V80.7l48.2-27.8v-56l-48.5-28l-48.5,28v55.7L-9.4,80.4v55.7l0.3,0.5
	l47.9,27.7v55.3l-47.9,27.7l-0.3,0.5v55.3l0.6,0.3v-55.7l47.9-27.7L87,247.8v55.3L38.8,331v56l0.2,0.1L87.3,415l48.5-28v-55.7
	l47.9-27.7l47.9,27.7V387l0.1,0.1l48.1,27.8v55.4l-48.2,27.8v56l0.1,0.1l48.4,27.9l48.5-28v-55.7l48.2-27.8v-55.7l48.2-27.8v-55.7
	l47.9-27.7l47.9,27.7V387l0.1,0.1l48.1,27.8v55.4l-48.2,27.8v56l0.1,0.1l48.4,27.9l48.5-28v-55.7l47.9-27.7l47.9,27.7v55.7l0.1,0.1
	l48.4,27.9l48.2-27.8l47.9,27.7v55.7l0.1,0.1l48.4,27.9l48.2-27.8l48.2,27.8L1052.3,637.6z M87.3,303.7l47.9,27.7v55.4l-47.9,27.7
	l-47.9-27.7v-55.4L87.3,303.7z M39.1,53L87,80.7v55.4l-24,13.8l-24,13.8l-6-3.5l-41.9-24.2V80.7L39.1,53z M87.3,80.2L45.4,56l-6-3.5
	V-2.8l47.9-27.7l47.9,27.7v55.4L87.3,80.2z M135.3,219.6l-47.9,27.7l-47.9-27.7v-55.3l24-13.8l24-13.8l47.9,27.7V219.6z
	 M183.5,303.1l-47.9,27.7l-47.9-27.7v-55.3l39.7-22.9l8.2-4.8l47.9,27.7V303.1z M280.3,470.7l8.8,5.1l39.1,22.6v55.4l-47.9,27.7
	l-47.9-27.7v-55.4L280.3,470.7z M232,220.1l47.9,27.7v55.3L232,330.8l-47.9-27.7v-55.3L232,220.1z M280.3,247.3l-47.9-27.7v-55.4
	l47.9-27.7l47.9,27.7v55.4L280.3,247.3z M328.2,386.7l-47.9,27.7l-47.9-27.7v-55.4l24-13.8l24-13.8l47.9,27.7V386.7z M328.5,387.2
	l47.9,27.7v55.4l-47.9,27.7l-32.4-18.7l-15.5-9v-55.4l41.6-24L328.5,387.2z M376.7,303.7l47.9,27.7v55.4l-47.9,27.7l-47.9-27.7
	v-55.4L376.7,303.7z M472.9,303.1L425,330.8L377,303.1v-55.3l47.9-27.7l47.9,27.7V303.1z M618.2,164.3l47.9-27.7l47.9,27.7v55.4
	l-47.9,27.7l-47.9-27.7V164.3z M569.6,470.7l47.9,27.7v55.3l-47.9,27.7l-47.9-27.7v-55.3L569.6,470.7z M521.4,220.1l47.9,27.7v55.3
	l-24,13.8l-24,13.8l-47.9-27.7v-55.3L521.4,220.1z M569.6,247.3l-47.9-27.7v-55.4l47.9-27.7l47.9,27.7v55.4L569.6,247.3z
	 M617.6,386.7l-47.9,27.7l-47.9-27.7v-55.4l24-13.8l24-13.8l47.9,27.7V386.7z M617.9,387.2l47.9,27.7v55.4l-47.9,27.7l-47.9-27.7
	v-55.4l35.5-20.5L617.9,387.2z M714,386.7l-47.9,27.7l-47.9-27.7v-55.4l47.9-27.7l47.9,27.7V386.7z M762.3,470.2l-24,13.8l-24,13.8
	l-47.9-27.7v-55.4l24-13.8l24-13.8l47.9,27.7V470.2z M810.5,553.8l-47.9,27.7l-47.9-27.7v-55.3l47.9-27.7l47.9,27.7V553.8z
	 M907,553.8l-32.1,18.6l-15.8,9.1l-47.9-27.7v-55.3l47.9-27.7l47.9,27.7V553.8z M955.2,637.3L907.3,665l-47.9-27.7V582l28.8-16.6
	l19.1-11l47.9,27.7V637.3z M1051.7,637.3l-47.9,27.7l-47.9-27.7V582l47.9-27.7l47.9,27.7V637.3z"/>
<path fill="#D8D8D8" d="M1052.3,359.2v-56l-48.5-28l-48.5,28v55.7l-47.9,27.7l-47.9-27.7v-55.7l-48.5-28L762.6,303l-47.9-27.7v-55.7
	l-48.2-27.8v-55.7l-48.5-28l-48.5,28v55.7l-48.2,27.8v55.7L473.2,303l-47.9-27.7v-55.7L377,191.8v-55.7l-48.5-28l-48.5,28v55.7
	l-48.2,27.8v55.7L183.8,303l-47.9-27.7v-55.3l48.2-27.8v-56l-48.5-28l-48.5,28v55.7l-47.9,27.7l-47.9-27.7v-55.7l-0.6,0.3v55.4
	l0.3,0.5l47.9,27.7v55.4L-9.1,303l-0.3,0.5h0.6l47.9-27.7L87,303.5v55.7l48.2,27.8v55.4L87,470.2v56l48.5,28l48.5-28v-55.7
	l48.2-27.8V387l48.2-27.8v-55.7l47.9-27.7l47.9,27.7v55.7l48.2,27.8v55.4l-48.2,27.8v56l48.5,28l48.2-27.8l47.9,27.7v55.7l48.2,27.8
	v55.7l48.5,28l48.5-28v-55.7l48.2-27.8v-56l-48.5-28l-48.2,27.8l-47.9-27.7v-55.7l-48.2-27.8V387l48.2-27.8v-55.7l47.9-27.7
	l47.9,27.7v55.7l48.5,28l48.2-27.8l47.9,27.7v55.7l48.5,28l48.2-27.8l48.2,27.8l48.5-28V387L1052.3,359.2z M666.1,637.1l-41.9-24.2
	l-6-3.5v-55.3l47.9-27.7l47.9,27.7v55.3L666.1,637.1z M569.9,637.6l24-13.8l24-13.8l47.9,27.7V693l-47.9,27.7L569.9,693V637.6z
	 M521.7,554.1l9.4-5.4l38.5-22.2l47.9,27.7v55.3l-24,13.8l-24,13.8l-47.9-27.7V554.1z M473.5,470.6l6-3.5l41.9-24.2l47.9,27.7v55.4
	l-47.9,27.7l-47.9-27.7V470.6z M424.9,442.9l47.9,27.7v55.4L425,553.6L377,525.9v-55.4L424.9,442.9z M135.6,442.9l24,13.8l24,13.8
	v55.4l-47.9,27.7l-47.9-27.7v-55.4L135.6,442.9z M87.3,192.3l47.9,27.7v55.4L87.3,303l-47.9-27.7v-55.4L87.3,192.3z M135.6,219.4
	l-38.4-22.1l-9.6-5.5v-55.4l47.9-27.7l47.9,27.7v55.4L135.6,219.4z M183.5,358.8l-24,13.8l-24,13.8l-47.9-27.7v-55.4l9.6-5.5
	l38.4-22.1l47.9,27.7V358.8z M183.8,359.3l9.9,5.7l38.1,22v55.3L183.8,470l-24-13.8l-24-13.8V387L183.8,359.3z M232,275.8l24,13.8
	l24,13.8v55.4L232,386.5l-47.9-27.7v-55.4L232,275.8z M280.3,192.3l38.4,22.1l9.6,5.5v55.4L280.3,303l-24-13.8l-24-13.8v-55.4
	L280.3,192.3z M376.4,191.8l-24,13.8l-24,13.8l-47.9-27.7v-55.4l47.9-27.7l47.9,27.7V191.8z M424.7,275.3l-24,13.8l-24,13.8
	l-47.9-27.7v-55.4l24-13.8l24-13.8l47.9,27.7V275.3z M472.9,358.8l-47.9,27.7L377,358.8v-55.4l24-13.8l24-13.8l47.9,27.7V358.8z
	 M473.2,359.3l47.9,27.7v55.4L473.2,470l-4.3-2.5l-43.6-25.2V387L473.2,359.3z M521.4,275.8l47.9,27.7v55.4l-47.9,27.7l-41.8-24.1
	l-6.1-3.5v-55.4L521.4,275.8z M569.6,192.3l24,13.8l24,13.8v55.4L569.6,303l-24-13.8l-24-13.8v-55.4L569.6,192.3z M665.8,191.8
	l-47.9,27.7l-24-13.8l-24-13.8v-55.4l47.9-27.7l47.9,27.7V191.8z M714,275.3l-7.5,4.3L666.1,303l-47.9-27.7v-55.4l4.3-2.5l43.6-25.2
	l47.9,27.7V275.3z M762.3,358.8l-47.9,27.7l-47.9-27.7v-55.4l17-9.8l30.9-17.9l47.9,27.7V358.8z M858.7,358.8l-24,13.8l-24,13.8
	l-47.9-27.7v-55.4l47.9-27.7l47.9,27.7V358.8z M907,442.4L859,470l-47.9-27.7V387l24-13.8l24-13.8L907,387V442.4z M955.5,359.3
	l24,13.8l24,13.8v55.4L955.5,470l-47.9-27.7V387L955.5,359.3z M1051.7,358.8l-47.9,27.7l-24-13.8l-24-13.8v-55.4l47.9-27.7
	l47.9,27.7V358.8z"/>
<path fill="#FFFFFF" d="M1052.3,582v-56l-48.5-28l-45.5,26.3c-0.6-0.9-1.6-1.4-2.7-1.4c-1.1,0-2.1,0.6-2.7,1.4l-45.2-26.1v-52.2
	c1.7-0.2,3.1-1.6,3.1-3.3c0-1.8-1.5-3.3-3.4-3.3c-1.1,0-2.1,0.6-2.7,1.4L859,414.4l-48.2,27.8l-45.2-26.1c0.2-0.4,0.3-0.9,0.3-1.4
	c0-1.7-1.3-3.2-3.1-3.3v-52.5L714.6,331v-52.2c1.7-0.2,3.1-1.6,3.1-3.3c0-1.9-1.5-3.4-3.4-3.4c-1.1,0-2.1,0.6-2.7,1.4l-45.5-26.3
	l-45.5,26.3c-0.6-0.9-1.6-1.4-2.7-1.4c-1.1,0-2.1,0.6-2.7,1.4l-45.2-26.1v-55.4l45.2-26.1c0.6,0.9,1.6,1.4,2.7,1.4
	c1.1,0,2.1-0.6,2.7-1.4l45.5,26.3l48.5-28v-52.5c1.7-0.2,3.1-1.6,3.1-3.3c0-1.8-1.5-3.3-3.4-3.3c-1.1,0-2.1,0.6-2.7,1.4l-45.5-26.3
	L617.9,108L572.7,82c0.2-0.4,0.3-0.9,0.3-1.4c0-1.9-1.5-3.4-3.4-3.4c-1.8,0-3.3,1.5-3.3,3.4c0,0.5,0.1,1,0.3,1.4l-45.5,26.3v55.7
	L475.9,190c-0.6-0.9-1.6-1.4-2.7-1.4c-1.1,0-2.1,0.6-2.7,1.4L425,163.7l-48.5,28v52.5c-1.7,0.2-3.1,1.6-3.1,3.3c0,0.5,0.1,1,0.3,1.4
	l-45.2,26.1L283.3,249c0.2-0.4,0.3-0.9,0.3-1.4c0-1.7-1.3-3.2-3.1-3.3v-52.2l45.2-26.1c0.6,0.9,1.6,1.4,2.7,1.4
	c1.9,0,3.4-1.5,3.4-3.4c0-1.8-1.3-3.2-3.1-3.3v-52.5L283.3,82c0.2-0.4,0.3-0.9,0.3-1.4c0-1.9-1.5-3.4-3.4-3.4
	c-1.8,0-3.4,1.5-3.4,3.4c0,0.5,0.1,1,0.3,1.4l-45.5,26.3v55.7l-47.9,27.7l-47.9-27.7v-52.2c1.7-0.2,3.1-1.6,3.1-3.3
	c0-1.8-1.5-3.3-3.3-3.3c-1.1,0-2.1,0.6-2.7,1.4L87.6,80.4V28.2c1.7-0.2,3.1-1.6,3.1-3.3c0-0.5-0.1-1-0.3-1.4l45.5-26.3v-56l-0.1-0.1
	L90.4-85.1c0.2-0.4,0.3-0.9,0.3-1.4c0-1.9-1.5-3.4-3.4-3.4c-1.9,0-3.4,1.5-3.4,3.4c0,0.5,0.1,1,0.3,1.4L38.8-58.9v55.7L-6.4,22.9
	C-7,22.1-8,21.5-9.1,21.5c-1.9,0-3.4,1.5-3.4,3.4c0,1.8,1.3,3.2,3.1,3.3v52.2l0.3,0.5L36.1,107c-0.2,0.4-0.3,0.9-0.3,1.4
	c0,1.8,1.3,3.2,3.1,3.3v52.2L-6.4,190c-0.6-0.9-1.6-1.4-2.7-1.4s-2.1,0.6-2.7,1.4l-0.3,0.5c-0.2,0.4-0.3,0.9-0.3,1.4
	c0,1.8,1.3,3.2,3.1,3.3v52.2l0.6,0.3v-52.5c1.7-0.2,3.1-1.6,3.1-3.3c0-0.5-0.1-1-0.3-1.4l45.2-26.1l45.2,26.1
	c-0.2,0.4-0.3,0.9-0.3,1.4c0,1.8,1.3,3.2,3.1,3.3v52.2l-45.2,26.1c-0.6-0.9-1.6-1.4-2.7-1.4c-1.9,0-3.4,1.5-3.4,3.4
	c0,1.7,1.3,3.2,3.1,3.3v52.5l48.5,28l45.5-26.3c0.6,0.9,1.6,1.4,2.7,1.4c1.9,0,3.3-1.5,3.3-3.4c0-1.8-1.3-3.2-3.1-3.3v-52.2
	l45.2-26.1c0.6,0.9,1.6,1.4,2.7,1.4c1.1,0,2.1-0.6,2.7-1.4l45.2,26.1v55.7l45.5,26.3c-0.2,0.4-0.3,0.9-0.3,1.4
	c0,1.8,1.3,3.2,3.1,3.3v52.2l-45.2,26.1c-0.6-0.9-1.6-1.4-2.7-1.4c-1.8,0-3.4,1.5-3.4,3.4c0,1.8,1.3,3.2,3.1,3.3v52.5l45.5,26.3
	c-0.2,0.4-0.3,0.9-0.3,1.4c0,1.9,1.5,3.4,3.4,3.4c1.9,0,3.4-1.5,3.4-3.4c0-0.5-0.1-1-0.3-1.4l45.5-26.3v-52.5
	c1.7-0.2,3.1-1.6,3.1-3.3c0-0.5-0.1-1-0.3-1.4l45.5-26.3v-55.7l45.2-26.1c0.6,0.9,1.6,1.4,2.7,1.4c1.9,0,3.4-1.5,3.4-3.4
	c0-1.8-1.3-3.2-3.1-3.3v-52.2l47.9-27.7l45.2,26.1c-0.2,0.4-0.3,0.9-0.3,1.4c0,1.7,1.3,3.2,3.1,3.3v52.5l45.5,26.3
	c-0.2,0.4-0.3,0.9-0.3,1.4c0,1.8,1.3,3.2,3.1,3.3v52.2l-48.2,27.8v52.5c-1.7,0.2-3.1,1.6-3.1,3.3c0,1.9,1.5,3.4,3.3,3.4
	c1.1,0,2.1-0.6,2.7-1.4l45.5,26.3l48.5-28v-52.5c1.7-0.2,3.1-1.6,3.1-3.3c0-0.5-0.1-1-0.3-1.4l45.2-26.1l47.9,27.7v55.7l48.5,28
	l45.5-26.3c0.6,0.9,1.6,1.4,2.7,1.4c1.1,0,2.1-0.6,2.7-1.4l45.2,26.1v52.2c-1.7,0.1-3.1,1.6-3.1,3.3c0,1.9,1.5,3.4,3.4,3.4
	c1.1,0,2.1-0.6,2.7-1.4l45.5,26.3l48.2-27.8l45.2,26.1c-0.2,0.4-0.3,0.9-0.3,1.4c0,1.9,1.5,3.4,3.4,3.4c1.9,0,3.4-1.5,3.4-3.4
	c0-0.5-0.1-1-0.3-1.4L1052.3,582z M87.3,248l41.8,24.1l6.2,3.6v52.2c-1.7,0.2-3.1,1.6-3.1,3.3c0,0.5,0.1,1,0.3,1.4l-45.2,26.1
	L39.4,331v-52.2c1.7-0.2,3.1-1.6,3.1-3.3c0-0.5-0.1-1-0.3-1.4L87.3,248z M39.1-2.7l45.2,26.1c-0.2,0.4-0.3,0.9-0.3,1.4
	c0,1.8,1.3,3.2,3.1,3.3v52.2l-24,13.8l-21.2,12.3c-0.6-0.9-1.6-1.4-2.7-1.4c-1.1,0-2.1,0.6-2.7,1.4l-3.3-1.9L-8.8,80.4V28.2
	c1.7-0.2,3.1-1.6,3.1-3.3c0-0.5-0.1-1-0.3-1.4L39.1-2.7z M87.3,21.5c-1.1,0-2.1,0.6-2.7,1.4L39.4-3.2v-55.4l45.2-26.1
	c0.6,0.9,1.6,1.4,2.7,1.4c1.1,0,2.1-0.6,2.7-1.4l45.2,26.1v55.4L90.1,22.9C89.5,22.1,88.5,21.5,87.3,21.5z M135.3,163.9l-5.9,3.4
	L90.1,190c-0.6-0.9-1.6-1.4-2.7-1.4c-1.1,0-2.1,0.6-2.7,1.4l-45.2-26.1v-52.2c1.7-0.2,3.1-1.6,3.1-3.3c0-0.5-0.1-1-0.3-1.4
	l21.2-12.3l24-13.8l45.2,26.1c-0.2,0.4-0.3,0.9-0.3,1.4c0,1.8,1.3,3.2,3.1,3.3V163.9z M183.5,244.3c-1.7,0.2-3.1,1.6-3.1,3.3
	c0,0.5,0.1,1,0.3,1.4l-45.2,26.1l-47.9-27.7v-52.2c1.7-0.2,3.1-1.6,3.1-3.3c0-0.5-0.1-1-0.3-1.4l45.2-26.1l47.9,27.7V244.3z
	 M280.3,415l8.2,4.8l37,21.3c-0.2,0.4-0.3,0.9-0.3,1.4c0,1.8,1.3,3.2,3.1,3.3v52.2L283,524.2c-0.6-0.9-1.6-1.4-2.7-1.4
	c-1.1,0-2.1,0.6-2.7,1.4l-45.2-26.1v-52.2c1.7-0.2,3.1-1.6,3.1-3.3c0-0.5-0.1-1-0.3-1.4L280.3,415z M232,164.4l47.9,27.7v52.2
	c-1.7,0.2-3.1,1.6-3.1,3.3c0,0.5,0.1,1,0.3,1.4L256,261.3l-24,13.8L186.8,249c0.2-0.4,0.3-0.9,0.3-1.4c0-1.7-1.3-3.2-3.1-3.3v-52.2
	L232,164.4z M280.3,191.6L234,164.9l-1.7-1v-55.4l45.2-26.1c0.6,0.9,1.6,1.4,2.7,1.4c1.1,0,2.1-0.6,2.7-1.4l45.2,26.1v52.2
	c-1.7,0.1-3.1,1.6-3.1,3.3c0,0.5,0.1,1,0.3,1.4L280.3,191.6z M328.2,331l-4,2.3L283,357.1c-0.6-0.9-1.6-1.4-2.7-1.4
	c-1.1,0-2.1,0.6-2.7,1.4L232.3,331v-55.3l24-13.8l21.2-12.3c0.6,0.9,1.6,1.4,2.7,1.4c1.1,0,2.1-0.6,2.7-1.4l45.2,26.1V331z
	 M328.5,331.5l24,13.8l24,13.8v55.4l-45.2,26.1c-0.6-0.9-1.6-1.4-2.7-1.4c-1.1,0-2.1,0.6-2.7,1.4l-45.2-26.1v-52.2
	c1.7-0.2,3.1-1.6,3.1-3.3c0-0.5-0.1-1-0.3-1.4L328.5,331.5z M376.7,251c1.1,0,2.1-0.6,2.7-1.4l21.2,12.3l24,13.8v52.2
	c-1.7,0.2-3.1,1.6-3.1,3.3c0,0.5,0.1,1,0.3,1.4l-45.2,26.1l-24-13.8l-24-13.8v-55.3l45.2-26.1C374.6,250.4,375.6,251,376.7,251z
	 M472.9,247.5L425,275.1l-24-13.8L379.8,249c0.2-0.4,0.3-0.9,0.3-1.4c0-1.7-1.3-3.2-3.1-3.3v-52.2l47.9-27.7l45.2,26.1
	c-0.2,0.4-0.3,0.9-0.3,1.4c0,1.8,1.3,3.2,3.1,3.3V247.5z M618.2,108.6l47.9-27.7l45.2,26.1c-0.2,0.4-0.3,0.9-0.3,1.4
	c0,1.8,1.3,3.2,3.1,3.3v52.2l-47.9,27.7l-45.2-26.1c0.2-0.4,0.3-0.9,0.3-1.4c0-1.8-1.3-3.2-3.1-3.3V108.6z M569.6,415l24,13.8
	l21.2,12.3c-0.2,0.4-0.3,0.9-0.3,1.4c0,1.8,1.3,3.2,3.1,3.3v52.2l-47.9,27.7l-45.2-26.1c0.2-0.4,0.3-0.9,0.3-1.4
	c0-1.7-1.3-3.2-3.1-3.3v-52.2L569.6,415z M521.4,164.4l47.9,27.7v55.3l-24,13.8l-21.2,12.3c-0.6-0.9-1.6-1.4-2.7-1.4
	c-1.1,0-2.1,0.6-2.7,1.4l-45.2-26.1v-52.2c1.7-0.2,3.1-1.6,3.1-3.3c0-0.5-0.1-1-0.3-1.4L521.4,164.4z M569.6,191.6l-45.3-26.1
	l-2.7-1.5v-55.4l45.2-26.1c0.6,0.9,1.6,1.4,2.7,1.4c1.1,0,2.1-0.6,2.7-1.4l45.2,26.1v52.2c-1.7,0.1-3.1,1.6-3.1,3.3
	c0,0.5,0.1,1,0.3,1.4L569.6,191.6z M617.6,331l-9.3,5.4l-35.9,20.7c-0.6-0.9-1.6-1.4-2.7-1.4c-1.1,0-2.1,0.6-2.7,1.4L521.7,331
	v-52.2c1.7-0.2,3.1-1.6,3.1-3.3c0-0.5-0.1-1-0.3-1.4l21.2-12.3l24-13.8l45.2,26.1c-0.2,0.4-0.3,0.9-0.3,1.4c0,1.7,1.3,3.2,3.1,3.3
	V331z M617.9,331.5l24,13.8l21.2,12.3c-0.2,0.4-0.3,0.9-0.3,1.4c0,1.8,1.3,3.2,3.1,3.3v52.2l-45.2,26.1c-0.6-0.9-1.6-1.4-2.7-1.4
	c-1.1,0-2.1,0.6-2.7,1.4l-21.2-12.3l-24-13.8v-52.2c1.7-0.2,3.1-1.6,3.1-3.3c0-0.5-0.1-1-0.3-1.4L617.9,331.5z M714,331l-24,13.8
	l-21.2,12.3c-0.6-0.9-1.6-1.4-2.7-1.4c-1.1,0-2.1,0.6-2.7,1.4l-21.2-12.3l-24-13.8v-52.2c1.7-0.2,3.1-1.6,3.1-3.3
	c0-0.5-0.1-1-0.3-1.4l45.2-26.1l45.2,26.1c-0.2,0.4-0.3,0.9-0.3,1.4c0,1.8,1.3,3.2,3.1,3.3V331z M762.3,411.4
	c-1.7,0.1-3.1,1.6-3.1,3.3c0,0.5,0.1,1,0.3,1.4l-21.2,12.3l-24,13.8l-47.9-27.7v-52.2c1.7-0.2,3.1-1.6,3.1-3.3c0-0.5-0.1-1-0.3-1.4
	l21.2-12.3l24-13.8l47.9,27.7V411.4z M810.5,494.9c-1.7,0.2-3.1,1.6-3.1,3.3c0,0.5,0.1,1,0.3,1.4l-45.2,26.1l-47.9-27.7v-55.4
	l24-13.8l21.2-12.3c0.6,0.9,1.6,1.4,2.7,1.4c1.1,0,2.1-0.6,2.7-1.4l45.2,26.1V494.9z M907,498.1l-17.1,9.9L859,525.7l-45.2-26.1
	c0.2-0.4,0.3-0.9,0.3-1.4c0-1.7-1.3-3.2-3.1-3.3v-52.2L859,415l45.2,26.1c-0.2,0.4-0.3,0.9-0.3,1.4c0,1.8,1.3,3.2,3.1,3.3V498.1z
	 M955.2,581.6l-47.9,27.7l-45.2-26.1c0.2-0.4,0.3-0.9,0.3-1.4c0-1.8-1.3-3.2-3.1-3.3v-52.2l8-4.6l40-23.1l45.2,26.1
	c-0.2,0.4-0.3,0.9-0.3,1.4c0,1.7,1.3,3.2,3.1,3.3V581.6z M1051.7,581.6l-45.2,26.1c-0.6-0.9-1.6-1.4-2.7-1.4c-1.1,0-2.1,0.6-2.7,1.4
	l-45.2-26.1v-52.2c1.7-0.2,3.1-1.6,3.1-3.3c0-0.5-0.1-1-0.3-1.4l45.2-26.1l47.9,27.7V581.6z"/>
<rect x="30.4" y="67.1" fill="none" width="1160.8" height="820.9"/>
</svg>
