<?xml version="1.0" encoding="utf-8"?>
<!-- Generator: Adobe Illustrator 19.0.0, SVG Export Plug-In . SVG Version: 6.00 Build 0)  -->
<svg version="1.1" xmlns="http://www.w3.org/2000/svg" xmlns:xlink="http://www.w3.org/1999/xlink" x="0px" y="0px"
	 viewBox="-379 256 200 50" enable-background="new -379 256 200 50" xml:space="preserve">
<g id="Layer_1">
	<g id="Layer_2_1_">
		<g id="Layer_1-2">
			<path fill="#3B3B3B" d="M-302.3,283c0,0.2-0.2,0.3-0.3,0.3h-6.4c0.2,1.6,1.4,3,3,3c1.1,0,2-0.4,2.6-1.4c0.1-0.1,0.2-0.2,0.3-0.2
				c0.2,0,0.3,0.1,0.3,0.3c0,0,0,0,0,0c0,0.1,0,0.1,0,0.2c-0.6,1.1-1.9,1.7-3.2,1.7c-2.2,0-3.7-1.9-3.7-4c0-2.1,1.5-4,3.7-4
				S-302.4,281-302.3,283L-302.3,283z M-303,282.7c-0.1-1.6-1.4-3-3-3c-1.7,0-2.9,1.4-3,3H-303z"/>
			<path fill="#3B3B3B" d="M-294.6,279.2c0.2,0,0.3,0.1,0.3,0.3c0,0.2-0.1,0.3-0.3,0.3c0,0,0,0,0,0h-1.7v6.7c0,0.2-0.1,0.3-0.3,0.3
				c-0.2,0-0.3-0.1-0.3-0.3v-6.7h-1.6c-0.2,0-0.3-0.1-0.3-0.3c0,0,0,0,0,0c0-0.2,0.1-0.3,0.3-0.3h1.6v-2.5c0-0.2,0.1-0.3,0.3-0.3
				c0.2,0,0.3,0.1,0.4,0.3c0,0,0,0,0,0v2.5H-294.6z"/>
			<path fill="#3B3B3B" d="M-284.1,282.5v4.1c0,0.2-0.1,0.3-0.3,0.3c-0.2,0-0.3-0.1-0.3-0.3c0,0,0,0,0,0v-4.1c0-1.4-0.8-2.7-2.3-2.7
				c-2,0-2.8,1.7-2.7,3.5c0,0,0,0.3,0,0.3v3.1c0,0.2-0.1,0.3-0.3,0.3c-0.2,0-0.3-0.1-0.4-0.3c0,0,0,0,0,0v-13.4
				c0-0.2,0.1-0.3,0.3-0.3c0.2,0,0.3,0.1,0.3,0.3v7.6c0.5-1,1.5-1.6,2.7-1.6C-285.2,279.1-284.1,280.7-284.1,282.5z"/>
			<path fill="#3B3B3B" d="M-272.6,283c0,0.2-0.2,0.3-0.3,0.3h-6.4c0.2,1.6,1.4,3,3,3c1.1,0,2-0.4,2.6-1.4c0.1-0.1,0.2-0.2,0.3-0.2
				c0.2,0,0.3,0.1,0.3,0.3c0,0,0,0,0,0c0,0.1,0,0.1,0,0.2c-0.6,1.1-1.9,1.7-3.2,1.7c-2.2,0-3.7-1.9-3.7-4c0-2.1,1.5-4,3.7-4
				C-274.2,279.1-272.6,281-272.6,283L-272.6,283z M-273.3,282.7c-0.1-1.6-1.4-3-3-3s-2.9,1.4-3,3H-273.3z"/>
			<path fill="#3B3B3B" d="M-264.7,279.5c0,0.2-0.1,0.3-0.3,0.3c-1.9,0.3-2.7,1.8-2.7,3.6v3.1c0,0.2-0.1,0.3-0.3,0.3
				c-0.2,0-0.3-0.1-0.4-0.3c0,0,0,0,0,0v-7c0-0.2,0.1-0.3,0.3-0.3c0.2,0,0.3,0.1,0.4,0.3c0,0,0,0,0,0v1.4c0.5-0.9,1.6-1.7,2.7-1.7
				C-264.9,279.2-264.7,279.3-264.7,279.5z"/>
			<path fill="#3B3B3B" d="M-254.2,283c0,0.2-0.2,0.3-0.3,0.3h-6.4c0.2,1.6,1.4,3,3,3c1.1,0,2-0.4,2.6-1.4c0.1-0.1,0.2-0.2,0.3-0.2
				c0.2,0,0.3,0.1,0.3,0.3c0,0,0,0,0,0c0,0.1,0,0.1,0,0.2c-0.6,1.1-1.9,1.7-3.2,1.7c-2.2,0-3.7-1.9-3.7-4c0-2.1,1.5-4,3.7-4
				C-255.8,279.1-254.2,281-254.2,283L-254.2,283z M-254.9,282.7c-0.1-1.6-1.4-3-3-3c-1.7,0-2.9,1.4-3,3H-254.9z"/>
			<path fill="#3B3B3B" d="M-243.9,279.6v7c0,0.2-0.1,0.3-0.3,0.3c-0.2,0-0.3-0.1-0.3-0.3c0,0,0,0,0,0v-1.3
				c-0.5,1.1-1.5,1.8-2.7,1.8c-1.9,0-3-1.6-3-3.4v-4.1c0-0.2,0.1-0.3,0.3-0.3c0.2,0,0.3,0.1,0.3,0.3v4.1c0,1.4,0.8,2.7,2.3,2.7
				c2.2,0,2.7-2,2.7-4.2v-2.6c0-0.2,0.1-0.3,0.3-0.3c0,0,0.1,0,0.1,0C-244,279.3-243.9,279.5-243.9,279.6z"/>
			<path fill="#3B3B3B" d="M-227.7,282.4v4.1c0,0.2-0.1,0.3-0.3,0.3c-0.2,0-0.3-0.1-0.3-0.3c0,0,0,0,0,0v-4.1c0-1.4-0.8-2.7-2.3-2.7
				c-1.9,0-2.7,2.1-2.7,3.7v3.2c0,0.2-0.1,0.3-0.3,0.3c-0.2,0-0.3-0.1-0.3-0.3c0,0,0,0,0,0v-4.1c0-1.4-0.8-2.7-2.3-2.7
				c-1.9,0-2.7,1.5-2.7,3.6c0,0,0,0.1,0,0.2v3.1c0,0.2-0.1,0.3-0.3,0.3c-0.2,0-0.3-0.1-0.4-0.3c0,0,0,0,0,0v-7
				c0-0.2,0.1-0.3,0.3-0.3c0.2,0,0.3,0.1,0.4,0.3c0,0,0,0,0,0v1.2c0.6-1,1.5-1.6,2.7-1.6c1.3,0,2.3,0.8,2.7,2c0.5-1.2,1.6-2,2.9-2
				C-228.8,279.1-227.7,280.7-227.7,282.4L-227.7,282.4z"/>
			<path opacity="0.6" enable-background="new    " d="M-323.9,277.7l-8,3.6l8,4.7l8-4.7L-323.9,277.7z"/>
			<path opacity="0.45" enable-background="new    " d="M-331.9,281.3l8,4.7v-18L-331.9,281.3z"/>
			<path opacity="0.8" enable-background="new    " d="M-323.9,268v18l8-4.7L-323.9,268z"/>
			<path opacity="0.45" enable-background="new    " d="M-331.9,282.8l8,11.3v-6.6L-331.9,282.8z"/>
			<path opacity="0.8" enable-background="new    " d="M-323.9,287.6v6.6l8-11.3L-323.9,287.6z"/>
		</g>
	</g>
</g>
<g id="Layer_2">
</g>
</svg>
