<?xml version="1.0" encoding="utf-8"?>
<!-- Generator: Adobe Illustrator 19.0.0, SVG Export Plug-In . SVG Version: 6.00 Build 0)  -->
<svg version="1.1" id="Layer_1" xmlns="http://www.w3.org/2000/svg" xmlns:xlink="http://www.w3.org/1999/xlink" x="0px" y="0px"
	 viewBox="0 0 200 50" enable-background="new 0 0 200 50" xml:space="preserve">
<g id="XMLID_156_">
	<path id="XMLID_6401_" fill="#2F3030" d="M32.2,5C32.3,5,32.3,4.9,32.2,5C32.3,4.9,32.3,4.9,32.2,5c0.1,0,0.1,0,0.1,0l0,0l0,0
		c0,0,0,0.1,0.1,0.1l0,0c0.1,0,0,0.1,0.1,0.1l0,0c0,0,0.1,0.1,0.1,0.1l0,0l0,0c0,0,0,0.1,0.1,0.1l0,0c0.1,0,0,0.1,0.1,0.1l0,0
		c0,0,0.1,0.1,0.1,0.1c0,0,0,0,0,0c0,0,0,0.1,0.1,0.1l0,0c0.1,0,0,0.1,0.1,0.1l0,0C33,6,33,6,33,6.1c0,0,0,0,0,0c0,0,0,0.1,0.1,0.1
		l0,0c0.1,0,0,0.1,0.1,0.1l0,0c0,0,0.1,0,0.1,0.1l0,0c0.1,0,0.1,0.1,0.1,0.1l0,0c0.1,0,0,0.1,0.1,0.1l0,0c0,0,0.1,0,0.1,0.1l0,0
		c0.1,0,0.1,0.1,0.1,0.1l0,0c0.1,0,0,0.1,0.1,0.1l0,0c0,0,0.1,0,0.1,0.1l0,0c0.1,0,0,0.1,0.1,0.1l0,0c0.1,0,0,0.1,0.1,0.1l0,0
		c0,0,0.1,0,0.1,0.1l0,0c0.1,0,0,0.1,0.1,0.1l0,0c0,0,0,0.1,0.1,0.1l0,0c0,0,0.1,0,0.1,0.1l0,0c0.1,0,0,0.1,0.1,0.1l0,0
		c0,0,0,0.1,0.1,0.1l0,0c0,0,0.1,0,0.1,0.1l0,0c0.1,0,0,0.1,0.1,0.1l0,0c0,0,0,0.1,0.1,0.1l0,0c0,0,0.1,0,0.1,0.1l0,0
		c0.1,0,0,0.1,0.1,0.1l0,0c0,0,0,0.1,0.1,0.1l0,0c0,0,0.1,0,0.1,0.1l0,0c0.1,0,0,0.1,0.1,0.1l0,0c0,0,0,0.1,0.1,0.1l0,0
		c0,0,0.1,0,0.1,0.1l0,0c0.1,0,0,0.1,0.1,0.1l0,0c0,0,0,0.1,0.1,0.1l0,0c0,0,0,0,0.1,0.1l0,0c0.1,0,0,0.1,0.1,0.1l0,0
		c0,0,0,0.1,0.1,0.1l0,0c0,0,0,0,0.1,0.1l0,0c0.1,0,0,0.1,0.1,0.1l0,0c0,0,0,0.1,0.1,0.1l0,0c0,0,0,0,0.1,0.1l0,0
		c0.1,0,0,0.1,0.1,0.1l0,0c0,0,0.1,0.1,0.1,0.1l0,0l0,0c0,0,0,0.1,0.1,0.1l0,0c0.1,0,0,0.1,0.1,0.1l0,0c0,0,0.1,0.1,0.1,0.1l0,0l0,0
		c0,0,0,0.1,0.1,0.1l0,0c0.1,0,0,0.1,0.1,0.1l0,0c0,0,0.1,0.1,0.1,0.1c0,0,0,0,0,0c0,0,0,0.1,0.1,0.1l0,0c0.1,0,0,0.1,0.1,0.1l0,0
		c0,0,0.1,0,0.1,0.1l0,0c0.1,0,0.1,0.1,0.1,0.1l0,0c0.1,0,0,0.1,0.1,0.1l0,0c0,0,0.1,0,0.1,0.1l0,0c0.1,0,0.1,0.1,0.1,0.1l0,0
		c0.1,0,0,0.1,0.1,0.1l0,0c0,0,0.1,0,0.1,0.1l0,0c0.1,0,0,0.1,0.1,0.1l0,0c0.1,0,0,0.1,0.1,0.1l0,0c0,0,0.1,0,0.1,0.1l0,0
		c0.1,0,0,0.1,0.1,0.1l0,0c0.1,0,0,0.1,0.1,0.1l0,0c0,0,0.1,0,0.1,0.1l0,0c0.1,0,0,0.1,0.1,0.1l0,0c0,0,0,0.1,0.1,0.1l0,0
		c0,0,0.1,0,0.1,0.1l0,0c0.1,0,0,0.1,0.1,0.1l0,0c0,0,0,0.1,0.1,0.1l0,0c0,0,0.1,0,0.1,0.1l0,0c0.1,0,0,0.1,0.1,0.1l0,0
		c0,0,0,0.1,0.1,0.1l0,0c0,0,0.1,0,0.1,0.1l0,0c0.1,0,0,0.1,0.1,0.1l0,0c0,0,0,0.1,0.1,0.1l0,0c0,0,0.1,0,0.1,0.1l0,0
		c0.1,0,0,0.1,0.1,0.1l0,0c0,0,0,0.1,0.1,0.1l0,0c0,0,0.1,0,0.1,0.1l0,0c0.1,0,0,0.1,0.1,0.1l0,0c0,0,0,0.1,0.1,0.1l0,0
		c0,0,0,0,0.1,0.1l0,0c0.1,0,0,0.1,0.1,0.1l0,0c0,0,0,0.1,0.1,0.1l0,0c0,0,0,0,0.1,0.1l0,0c0.1,0,0,0.1,0.1,0.1l0,0
		c0,0,0.1,0.1,0.1,0.1l0,0l0,0c0,0,0,0.1,0.1,0.1l0,0c0.1,0,0,0.1,0.1,0.1l0,0c0,0,0.1,0.1,0.1,0.1l0,0l0,0c0,0,0,0.1,0.1,0.1l0,0
		c0.1,0,0,0.1,0.1,0.1l0,0c0,0,0.1,0.1,0.1,0.1c0,0,0,0,0,0c0,0,0,0.1,0.1,0.1l0,0c0.1,0,0,0.1,0.1,0.1l0,0c0,0,0.1,0.1,0.1,0.1
		c0,0,0,0,0,0c0,0,0,0.1,0.1,0.1l0,0c0.1,0,0,0.1,0.1,0.1l0,0c0,0,0.1,0,0.1,0.1l0,0c0.1,0,0.1,0.1,0.1,0.1l0,0c0.1,0,0,0.1,0.1,0.1
		l0,0c0,0,0.1,0,0.1,0.1l0,0c0.1,0,0,0.1,0.1,0.1l0,0c0.1,0,0,0.1,0.1,0.1l0,0c0,0,0.1,0,0.1,0.1l0,0c0.1,0,0,0.1,0.1,0.1l0,0
		c0.1,0,0,0.1,0.1,0.1l0,0c0,0,0.1,0,0.1,0.1l0,0c0.1,0,0,0.1,0.1,0.1l0,0c0,0,0,0.1,0.1,0.1l0,0c0,0,0.1,0,0.1,0.1l0,0
		c0.1,0,0,0.1,0.1,0.1l0,0c0,0,0,0.1,0.1,0.1l0,0c0,0,0.1,0,0.1,0.1l0,0c0.1,0,0,0.1,0.1,0.1l0,0c0,0,0,0.1,0.1,0.1l0,0
		c0,0,0.1,0,0.1,0.1l0,0c0.1,0,0,0.1,0.1,0.1l0,0c0,0,0,0.1,0.1,0.1l0,0c0,0,0.1,0,0.1,0.1l0,0c0.1,0,0,0.1,0.1,0.1l0,0
		c0,0,0,0.1,0.1,0.1l0,0c0,0,0.1,0,0.1,0.1l0,0c0.1,0,0,0.1,0.1,0.1l0,0c0,0,0,0.1,0.1,0.1l0,0c0,0,0,0,0.1,0.1l0,0
		c0.1,0,0,0.1,0.1,0.1l0,0c0,0,0,0.1,0.1,0.1l0,0c0,0,0,0,0.1,0.1l0,0c0.1,0,0,0.1,0.1,0.1l0,0c0,0,0.1,0.1,0.1,0.1l0,0l0,0
		c0,0,0,0.1,0.1,0.1l0,0c0.1,0,0,0.1,0.1,0.1l0,0c0,0,0.1,0.1,0.1,0.1l0,0l0,0c0,0,0,0.1,0.1,0.1l0,0c0.1,0,0,0.1,0.1,0.1l0,0
		c0,0,0.1,0.1,0.1,0.1c0,0,0,0,0,0c0,0,0,0.1,0.1,0.1l0,0c0.1,0,0,0.1,0.1,0.1l0,0c0,0,0.1,0.1,0.1,0.1c0,0,0,0,0,0
		c0,0,0,0.1,0.1,0.1l0,0c0.1,0,0,0.1,0.1,0.1l0,0c0,0,0.1,0,0.1,0.1l0,0c0.1,0,0.1,0.1,0.1,0.1l0,0c0.1,0,0,0.1,0.1,0.1l0,0
		c0,0,0.1,0,0.1,0.1l0,0c0.1,0,0.1,0.1,0.1,0.1l0,0c0.1,0,0,0.1,0.1,0.1l0,0c0,0,0.1,0,0.1,0.1l0,0c0.1,0,0,0.1,0.1,0.1l0,0
		c0.1,0,0,0.1,0.1,0.1l0,0c0,0,0.1,0,0.1,0.1l0,0c0.1,0,0,0.1,0.1,0.1l0,0c0,0,0,0.1,0.1,0.1l0,0c0,0,0.1,0,0.1,0.1l0,0
		c0.1,0,0,0.1,0.1,0.1l0,0c0,0,0,0.1,0.1,0.1l0,0c0,0,0.1,0,0.1,0.1l0,0c0.1,0,0,0.1,0.1,0.1l0,0c0,0,0,0.1,0.1,0.1l0,0
		c0,0,0.1,0,0.1,0.1l0,0c0.1,0,0,0.1,0.1,0.1l0,0c0,0,0,0.1,0.1,0.1l0,0c0,0,0.1,0,0.1,0.1l0,0c0.1,0,0,0.1,0.1,0.1l0,0
		c0,0,0,0.1,0.1,0.1l0,0c0,0,0,0.1,0,0.1c-0.1,0.1-0.3,0-0.4-0.1c-3.2-1.5-6.5-2.9-9.7-4.4c-0.6-0.3-1.2-0.6-1.8-0.8
		c-0.1,0-0.2-0.1-0.3-0.2c0,0,0-0.1,0-0.1c0-0.2,0-0.4,0-0.6c0-4.4,0-8.9,0-13.3C32.1,5.5,32.1,5.2,32.2,5z"/>
	<path id="XMLID_6400_" fill="#2F3030" d="M43.1,28.5L43.1,28.5L43.1,28.5c0.1,0,0.1-0.1,0.1-0.1l0,0c0-0.1,0.1,0,0.1-0.1l0,0
		c0,0,0.1,0,0.1-0.1l0,0c0,0,0-0.1,0.1-0.1l0,0c0-0.1,0.1,0,0.1-0.1l0,0c0,0,0.1,0,0.1-0.1l0,0c0,0,0.1-0.1,0.1-0.1c0,0,0,0,0,0
		c0,0,0.1,0,0.1-0.1l0,0c0-0.1,0.1,0,0.1-0.1l0,0c0,0,0.1,0,0.1,0c0.1,0,0.1,0,0.1,0.1c0,0.1-0.1,0.2-0.1,0.2l0,0c0,0,0,0.1-0.1,0.1
		l0,0c0,0,0,0.1-0.1,0.1l0,0c0,0,0,0.1-0.1,0.1l0,0c-0.1,0.1-0.1,0.2-0.1,0.2l0,0c0,0,0,0.1-0.1,0.1l0,0c0,0,0,0.1-0.1,0.1l0,0
		c0,0,0,0.1-0.1,0.1l0,0c-0.1,0.1-0.1,0.2-0.1,0.2l0,0c0,0.1-0.1,0.2-0.2,0.2l0,0c0,0,0,0.1-0.1,0.1l0,0c0,0,0,0.1-0.1,0.1l0,0
		c0,0,0,0.1-0.1,0.1l0,0c0,0.1-0.1,0.2-0.2,0.2l0,0c0,0,0,0.1-0.1,0.1l0,0c0,0,0,0.1-0.1,0.1l0,0c0,0,0,0.1-0.1,0.1l0,0
		c0,0.1-0.1,0.2-0.2,0.2l0,0c0,0,0,0.1-0.1,0.1l0,0c0,0,0,0.1-0.1,0.1l0,0c0,0,0,0.1-0.1,0.1l0,0c-0.1,0.1-0.1,0.2-0.2,0.2l0,0
		c0,0,0,0.1-0.1,0.1l0,0c0,0,0,0.1-0.1,0.1l0,0c0,0,0,0.1-0.1,0.1l0,0c-0.1,0.1-0.1,0.2-0.1,0.2l0,0c0,0,0,0.1-0.1,0.1l0,0
		c0,0,0,0.1-0.1,0.1l0,0c0,0,0,0.1-0.1,0.1l0,0c0,0,0,0.1-0.1,0.1l0,0c0,0,0,0.1-0.1,0.1l0,0c0,0.1-0.1,0.2-0.2,0.2l0,0
		c0,0,0,0.1-0.1,0.1l0,0c0,0,0,0.1-0.1,0.1l0,0c0,0,0,0.1-0.1,0.1l0,0c0,0.1-0.1,0.2-0.2,0.2l0,0c0,0,0,0.1-0.1,0.1l0,0
		c0,0,0,0.1-0.1,0.1l0,0c0,0,0,0.1-0.1,0.1l0,0c0,0.1-0.1,0.2-0.2,0.2l0,0c0,0,0,0.1-0.1,0.1l0,0c0,0,0,0.1-0.1,0.1l0,0
		c0,0,0,0.1-0.1,0.1l0,0c-0.1,0.1-0.1,0.2-0.1,0.2l0,0c0,0,0,0.1-0.1,0.1l0,0c0,0,0,0.1-0.1,0.1l0,0c0,0,0,0.1-0.1,0.1l0,0
		c-0.1,0.1-0.1,0.2-0.1,0.2l0,0c0,0.1-0.1,0.2-0.2,0.2l0,0c0,0,0,0.1-0.1,0.1l0,0c0,0,0,0.1-0.1,0.1l0,0c0,0,0,0.1-0.1,0.1l0,0
		c0,0.1-0.1,0.2-0.2,0.2l0,0c0,0,0,0.1-0.1,0.1l0,0c0,0,0,0.1-0.1,0.1l0,0c0,0,0,0.1-0.1,0.1l0,0c0,0.1-0.1,0.2-0.1,0.2l0,0
		c0,0,0,0.1-0.1,0.1l0,0c0,0,0,0.1-0.1,0.1l0,0c0,0,0,0.1-0.1,0.1l0,0c-0.1,0.1-0.1,0.2-0.2,0.2l0,0c0,0,0,0.1-0.1,0.1l0,0
		c0,0,0,0.1-0.1,0.1l0,0c0,0,0,0.1-0.1,0.1l0,0c-0.1,0.1-0.1,0.2-0.1,0.2l0,0c0,0,0,0.1-0.1,0.1l0,0c0,0,0,0.1-0.1,0.1l0,0
		c0,0,0,0.1-0.1,0.1l0,0c0,0,0,0.1-0.1,0.1l0,0c0,0,0,0.1-0.1,0.1l0,0c0,0.1-0.1,0.2-0.2,0.2l0,0c0,0,0,0.1-0.1,0.1l0,0
		c0,0,0,0.1-0.1,0.1l0,0c0,0,0,0.1-0.1,0.1l0,0c0,0.1-0.1,0.2-0.2,0.2l0,0c0,0,0,0.1-0.1,0.1l0,0c0,0,0,0.1-0.1,0.1l0,0
		c0,0,0,0.1-0.1,0.1l0,0c0,0.1-0.1,0.2-0.2,0.2l0,0c0,0,0,0.1-0.1,0.1l0,0c0,0,0,0.1-0.1,0.1l0,0c0,0,0,0.1-0.1,0.1l0,0
		c-0.1,0.1-0.1,0.2-0.1,0.2l0,0c0,0,0,0.1-0.1,0.1l0,0c0,0,0,0.1-0.1,0.1l0,0c0,0,0,0.1-0.1,0.1l0,0c0,0,0,0.1-0.1,0.1l0,0
		c0,0,0,0.1-0.1,0.1l0,0c0,0.1-0.1,0.2-0.2,0.2l0,0c0,0,0,0.1-0.1,0.1l0,0c0,0,0,0.1-0.1,0.1l0,0c0,0,0,0.1-0.1,0.1l0,0
		c0,0.1-0.1,0.2-0.2,0.2l0,0c0,0,0,0.1-0.1,0.1l0,0c0,0,0,0.1-0.1,0.1l0,0c0,0,0,0.1-0.1,0.1l0,0c0,0.1-0.1,0.2-0.2,0.2l0,0
		c0,0,0,0.1-0.1,0.1l0,0c0,0,0,0.1-0.1,0.1l0,0c0,0,0,0.1-0.1,0.1l0,0c-0.1,0.1-0.1,0.2-0.1,0.2l0,0c0,0,0,0.1-0.1,0.1l0,0
		c0,0,0,0.1-0.1,0.1l0,0c0,0,0,0.1-0.1,0.1l0,0c-0.1,0.1-0.1,0.2-0.1,0.2l0,0c0,0.1-0.1,0.2-0.2,0.2l0,0c0,0,0,0.1-0.1,0.1l0,0
		c0,0,0,0.1-0.1,0.1l0,0c0,0,0,0.1-0.1,0.1l0,0c0,0.1-0.1,0.2-0.2,0.2l0,0c0,0,0,0.1-0.1,0.1l0,0c0,0,0,0.1-0.1,0.1l0,0
		c0,0,0,0.1-0.1,0.1l0,0c0,0.1-0.1,0.2-0.2,0.2l0,0c0,0,0,0.1-0.1,0.1l0,0c0,0,0,0.1-0.1,0.1l0,0c0,0,0,0.1-0.1,0.1l0,0
		c-0.1,0.1-0.1,0.2-0.2,0.2l0,0c0,0,0,0.1-0.1,0.1l0,0c0,0,0,0.1-0.1,0.1l0,0c0,0,0,0.1-0.1,0.1l0,0c-0.1,0.1-0.1,0.2-0.1,0.2l0,0
		c0,0,0,0.1-0.1,0.1l0,0c0,0,0,0.1-0.1,0.1l0,0c0,0,0,0.1-0.1,0.1l0,0c0,0,0,0.1-0.1,0.1l0,0c0,0,0,0.1-0.1,0.1l0,0
		c0,0.1-0.1,0.2-0.2,0.2l0,0c0,0,0,0.1-0.1,0.1l0,0c0,0,0,0.1-0.1,0.1l0,0c0,0,0,0.1-0.1,0.1l0,0c0,0.1-0.1,0.2-0.2,0.2
		c-0.1,0.1-0.1,0.2-0.2,0.3c0,0-0.1,0.1-0.1,0c-0.1-0.2-0.1-0.4-0.1-0.6c0-3,0-5.9,0-8.9c0-0.2,0-0.4,0.1-0.5c0-0.1,0.1-0.1,0.2-0.1
		l0,0c0,0,0.1-0.1,0.1-0.1c0,0,0,0,0,0c0,0,0.1,0,0.1-0.1l0,0c0-0.1,0.1,0,0.1-0.1l0,0c0,0,0.1,0,0.1-0.1l0,0c0,0,0,0,0.1-0.1l0,0
		c0-0.1,0.1,0,0.1-0.1l0,0c0,0,0.1,0,0.1-0.1l0,0c0,0,0.1-0.1,0.1-0.1c0,0,0,0,0,0c0,0,0.1,0,0.1-0.1l0,0c0-0.1,0.1,0,0.1-0.1l0,0
		c0,0,0.1-0.1,0.1-0.1c0,0,0,0,0,0c0,0,0.1,0,0.1-0.1l0,0c0-0.1,0.1,0,0.1-0.1l0,0c0,0,0.1-0.1,0.1-0.1l0,0l0,0c0,0,0.1,0,0.1-0.1
		l0,0c0-0.1,0.1,0,0.1-0.1l0,0c0,0,0.1,0,0.1-0.1l0,0c0,0,0,0,0.1-0.1l0,0c0-0.1,0.1,0,0.1-0.1l0,0c0,0,0.1,0,0.1-0.1l0,0
		c0,0,0.1-0.1,0.1-0.1c0,0,0,0,0,0c0,0,0.1,0,0.1-0.1l0,0c0-0.1,0.1,0,0.1-0.1l0,0c0,0,0.1-0.1,0.1-0.1c0,0,0,0,0,0
		c0,0,0.1,0,0.1-0.1l0,0c0-0.1,0.1,0,0.1-0.1l0,0c0,0,0.1-0.1,0.1-0.1l0,0l0,0c0,0,0.1,0,0.1-0.1l0,0c0-0.1,0.1,0,0.1-0.1l0,0
		c0,0,0.1,0,0.1-0.1l0,0c0,0,0-0.1,0.1-0.1l0,0c0-0.1,0.1,0,0.1-0.1l0,0c0,0,0.1,0,0.1-0.1l0,0c0,0,0.1-0.1,0.1-0.1c0,0,0,0,0,0
		c0,0,0.1,0,0.1-0.1l0,0c0-0.1,0.1,0,0.1-0.1l0,0c0,0,0.1-0.1,0.1-0.1c0,0,0,0,0,0c0,0,0.1,0,0.1-0.1l0,0c0-0.1,0.1,0,0.1-0.1l0,0
		c0,0,0.1,0,0.1-0.1l0,0c0,0,0,0,0.1-0.1l0,0c0-0.1,0.1,0,0.1-0.1l0,0c0,0,0.1,0,0.1-0.1l0,0c0,0,0-0.1,0.1-0.1l0,0
		c0-0.1,0.1,0,0.1-0.1l0,0c0,0,0.1,0,0.1-0.1l0,0c0,0,0.1-0.1,0.1-0.1c0,0,0,0,0,0c0,0,0.1,0,0.1-0.1l0,0c0-0.1,0.1,0,0.1-0.1l0,0
		c0,0,0.1-0.1,0.1-0.1c0,0,0,0,0,0c0,0,0.1,0,0.1-0.1l0,0c0-0.1,0.1,0,0.1-0.1l0,0c0,0,0.1,0,0.1-0.1l0,0c0,0,0,0,0.1-0.1l0,0
		c0-0.1,0.1,0,0.1-0.1l0,0c0,0,0.1,0,0.1-0.1l0,0c0,0,0.1,0,0.1-0.1c0,0,0,0,0.1,0c0,0,0.1,0,0.1-0.1l0,0c0,0,0.1,0,0.1-0.1l0,0
		c0,0,0.1-0.1,0.1-0.1c0,0,0,0,0,0c0,0,0.1,0,0.1-0.1l0,0c0-0.1,0.1,0,0.1-0.1l0,0c0,0,0.1-0.1,0.1-0.1c0,0,0,0,0,0
		c0,0,0.1,0,0.1-0.1l0,0c0-0.1,0.1,0,0.1-0.1l0,0c0,0,0.1,0,0.1-0.1l0,0c0,0,0,0,0.1-0.1l0,0c0-0.1,0.1,0,0.1-0.1l0,0
		c0,0,0.1,0,0.1-0.1l0,0c0,0,0.1-0.1,0.1-0.1c0,0,0,0,0,0c0,0,0.1,0,0.1-0.1l0,0c0-0.1,0.1,0,0.1-0.1l0,0c0,0,0.1-0.1,0.1-0.1
		c0,0,0,0,0,0c0,0,0.1,0,0.1-0.1l0,0c0-0.1,0.1,0,0.1-0.1l0,0c0,0,0.1-0.1,0.1-0.1l0,0l0,0c0,0,0.1,0,0.1-0.1l0,0
		c0-0.1,0.1,0,0.1-0.1l0,0c0,0,0.1,0,0.1-0.1l0,0c0,0,0,0,0.1-0.1l0,0c0-0.1,0.1,0,0.1-0.1l0,0c0,0,0.1,0,0.1-0.1l0,0
		c0,0,0.1-0.1,0.1-0.1c0,0,0,0,0,0c0,0,0.1,0,0.1-0.1l0,0c0-0.1,0.1,0,0.1-0.1l0,0c0,0,0.1-0.1,0.1-0.1c0,0,0,0,0,0
		c0,0,0.1,0,0.1-0.1l0,0c0-0.1,0.1,0,0.1-0.1l0,0C43,28.5,43.1,28.5,43.1,28.5z"/>
	<path id="XMLID_6399_" fill="#828384" d="M32.3,34.9c-0.1,0.1-0.1,0.3-0.1,0.4c0,3,0,6.1,0,9.1c0,0.1,0,0.3,0,0.4
		c-0.4-0.4-0.7-0.9-1-1.4c-1.8-2.5-3.5-5-5.3-7.5c-1.8-2.6-3.7-5.2-5.5-7.8c-0.1-0.1-0.2-0.2-0.2-0.4c0,0,0,0,0.1,0c0,0,0.1,0,0.1,0
		l0,0c0,0,0.1,0,0.1,0.1l0,0c0,0,0.1,0,0.1,0.1l0,0c0,0,0.1,0,0.1,0.1l0,0c0,0,0.1,0,0.1,0.1l0,0c0,0,0.1,0,0.1,0.1l0,0
		c0,0,0.1,0,0.1,0.1l0,0c0,0,0.1,0,0.1,0.1l0,0c0,0,0.1,0,0.1,0.1l0,0c0,0,0.1,0,0.1,0.1l0,0c0,0,0.1,0,0.1,0.1l0,0
		c0,0,0.1,0,0.1,0.1l0,0c0,0,0.1,0,0.1,0.1l0,0c0,0,0.1,0,0.1,0.1l0,0c0,0,0.1,0,0.1,0.1l0,0c0,0,0.1,0,0.1,0.1l0,0
		c0,0,0.1,0,0.1,0.1l0,0c0,0,0.1,0,0.1,0.1l0,0c0,0,0.1,0,0.1,0.1l0,0c0,0,0.1,0,0.1,0.1l0,0c0,0,0.1,0,0.1,0.1l0,0
		c0,0,0.1,0,0.1,0.1l0,0c0,0,0.1,0,0.1,0.1l0,0c0,0,0.1,0,0.1,0.1l0,0c0,0,0.1,0,0.1,0.1l0,0c0,0,0.1,0,0.1,0.1l0,0
		c0,0,0.1,0,0.1,0.1l0,0c0,0,0.1,0,0.1,0.1l0,0c0,0,0.1,0,0.1,0.1l0,0c0,0,0.1,0,0.1,0.1l0,0c0,0,0.1,0,0.1,0.1l0,0
		c0,0,0.1,0,0.1,0.1l0,0c0,0,0.1,0,0.1,0.1l0,0c0,0,0.1,0,0.1,0.1l0,0c0,0,0.1,0,0.1,0.1l0,0c0,0,0.1,0,0.1,0.1l0,0
		c0,0,0.1,0,0.1,0.1l0,0c0,0,0.1,0,0.1,0.1l0,0c0,0,0.1,0,0.1,0.1l0,0c0,0,0.1,0,0.1,0.1l0,0c0,0,0.1,0,0.1,0.1l0,0
		c0,0,0.1,0,0.1,0.1l0,0c0,0,0.1,0,0.1,0.1l0,0c0,0,0.1,0,0.1,0.1l0,0c0,0,0.1,0,0.1,0.1l0,0c0,0,0.1,0,0.1,0.1l0,0
		c0,0,0.1,0,0.1,0.1l0,0c0,0,0.1,0,0.1,0.1l0,0c0,0,0.1,0,0.1,0.1l0,0c0,0,0.1,0,0.1,0.1l0,0c0,0,0.1,0,0.1,0.1l0,0
		c0,0,0.1,0,0.1,0.1l0,0c0,0,0.1,0,0.1,0.1l0,0c0,0,0.1,0,0.1,0.1l0,0c0,0,0.1,0,0.1,0.1l0,0c0,0,0.1,0,0.1,0.1l0,0
		c0,0,0.1,0,0.1,0.1l0,0c0,0,0.1,0,0.1,0.1l0,0c0,0,0.1,0,0.1,0.1l0,0c0,0,0.1,0,0.1,0.1l0,0c0,0,0.1,0,0.1,0.1l0,0
		c0,0,0.1,0,0.1,0.1l0,0c0,0,0.1,0,0.1,0.1l0,0c0,0,0.1,0,0.1,0.1l0,0c0,0,0.1,0,0.1,0.1l0,0c0,0,0.1,0,0.1,0.1l0,0
		c0,0,0.1,0,0.1,0.1l0,0c0,0,0.1,0,0.1,0.1l0,0c0,0,0.1,0,0.1,0.1l0,0c0,0,0.1,0,0.1,0.1l0,0c0,0,0.1,0,0.1,0.1l0,0
		c0,0,0.1,0,0.1,0.1l0,0c0,0,0.1,0,0.1,0.1l0,0c0,0,0.1,0,0.1,0.1l0,0c0,0,0.1,0,0.1,0.1l0,0c0,0,0.1,0,0.1,0.1l0,0
		c0,0,0.1,0,0.1,0.1l0,0c0,0,0.1,0,0.1,0.1l0,0c0,0,0.1,0,0.1,0.1l0,0c0,0,0.1,0,0.1,0.1l0,0c0,0,0.1,0,0.1,0.1l0,0
		c0,0,0.1,0,0.1,0.1l0,0c0,0,0.1,0,0.1,0.1l0,0c0,0,0.1,0,0.1,0.1l0,0c0,0,0.1,0,0.1,0.1l0,0c0,0,0.1,0,0.1,0.1l0,0
		c0,0,0.1,0,0.1,0.1l0,0c0,0,0.1,0,0.1,0.1l0,0c0,0,0.1,0,0.1,0.1l0,0c0,0,0.1,0,0.1,0.1l0,0c0,0,0.1,0,0.1,0.1l0,0
		c0,0,0.1,0,0.1,0.1l0,0c0,0,0.1,0,0.1,0.1l0,0c0,0,0.1,0,0.1,0.1l0,0c0,0,0.1,0,0.1,0.1l0,0c0,0,0.1,0,0.1,0.1l0,0
		c0,0,0.1,0,0.1,0.1l0,0c0,0,0.1,0,0.1,0.1l0,0c0,0,0.1,0,0.1,0.1l0,0C32.2,34.9,32.3,34.8,32.3,34.9z"/>
	<path id="XMLID_6398_" fill="#3B3B3B" d="M180.2,26.8c0,0.6,0,1.3,0,1.9c0,1.6,0,3.2,0,4.7c0,0,0,0.1,0,0.1c0,0.1-0.1,0.2-0.2,0.2
		l0,0c-0.1,0.1-0.2,0-0.2,0.1c0,0-0.1,0-0.1,0c-0.1,0-0.2,0-0.3-0.2l0,0c-0.1,0,0-0.1-0.1-0.1l0,0c-0.1-0.1,0-0.3,0-0.4c0-2,0-4,0-6
		c0-0.1,0-0.3,0-0.4c0-0.1,0-0.2,0-0.3c-0.1-0.1,0-0.3-0.1-0.4c0,0,0,0,0-0.1c-0.1-0.1,0-0.2-0.1-0.3l0,0c-0.1-0.1,0-0.2-0.1-0.2
		c0,0,0,0,0,0c0-0.1,0-0.1-0.1-0.2c0,0,0,0,0,0c0,0,0-0.1-0.1-0.2l0,0c-0.1,0-0.1-0.1-0.1-0.2c0,0,0,0,0,0c0,0,0-0.1-0.1-0.1l0,0
		c0-0.1-0.1-0.1-0.1-0.2l0,0c-0.1,0,0-0.1-0.1-0.1l0,0c0,0-0.1,0-0.1-0.1l0,0c-0.1,0,0-0.1-0.1-0.1l0,0c0,0-0.1,0-0.1-0.1l0,0
		c0,0-0.1,0-0.1-0.1l0,0c-0.1-0.1-0.3-0.3-0.4-0.4l0,0c0,0-0.1,0-0.1-0.1l0,0c0,0-0.1,0-0.1-0.1l0,0c0,0-0.1,0-0.1-0.1l0,0
		c0,0-0.1,0-0.1-0.1l0,0c0,0-0.1,0-0.1-0.1l0,0c0,0-0.1,0-0.1-0.1l0,0c0,0-0.1,0-0.1-0.1l0,0c-0.1-0.1-0.2,0-0.2-0.1l0,0
		c-0.1-0.1-0.2,0-0.2-0.1l0,0l0,0c-0.1-0.1-0.2,0-0.3-0.1l0,0l0,0c-0.3,0-0.6,0-1,0l0,0l0,0c-0.1,0.1-0.2,0-0.4,0.1l0,0
		c-0.1,0.1-0.2,0-0.2,0.1l0,0c0,0.1-0.2,0-0.2,0.1l0,0c0,0.1-0.1,0-0.2,0.1l0,0c0,0.1-0.1,0.1-0.1,0.1l0,0c0,0.1-0.1,0.1-0.1,0.1
		l0,0c0,0.1-0.1,0-0.1,0.1l0,0c0,0,0,0.1-0.1,0.1l0,0c0,0.1-0.1,0.1-0.2,0.2l0,0c0,0,0,0.1-0.1,0.1l0,0c0,0,0,0.1-0.1,0.1l0,0
		c0,0,0,0.1-0.1,0.1l0,0c0,0,0,0.1-0.1,0.1l0,0c0,0,0,0.1-0.1,0.1l0,0c0,0,0,0.1-0.1,0.1l0,0c0,0,0,0.1-0.1,0.1l0,0
		c0,0,0,0.1-0.1,0.1l0,0c0,0,0,0.1-0.1,0.1l0,0c0,0,0,0.1-0.1,0.1l0,0c0,0,0,0.1-0.1,0.1l0,0c0,0,0,0.1-0.1,0.1l0,0
		c0,0,0,0.1-0.1,0.1l0,0c0,0,0,0.1-0.1,0.1l0,0c0,0,0,0.1-0.1,0.1l0,0c0,0.1,0,0.1-0.1,0.1l0,0c0,0.1,0,0.1-0.1,0.2l0,0
		c0,0.1,0,0.1-0.1,0.2l0,0c0,0,0,0.1-0.1,0.2l0,0c-0.1,0.1,0,0.2-0.1,0.2l0,0c0,0,0,0.1-0.1,0.2c0,0,0,0,0,0.1
		c-0.1,0.1,0,0.2-0.1,0.2l0,0c-0.1,0.1,0,0.2-0.1,0.2c0,0,0,0,0,0c0,0.1,0,0.2-0.1,0.2c0,0,0,0,0,0.1c-0.1,0.1,0,0.2-0.1,0.3
		c0,0,0,0.1,0,0.1c-0.1,0.1,0,0.3-0.1,0.4c0,0,0,0.1,0,0.1c-0.1,0.1,0,0.3,0,0.4c0,1.7,0,3.4,0,5.1c0,0.1,0,0.3,0,0.4l0,0
		c0,0,0,0.1-0.1,0.1l0,0c0,0,0,0.1-0.1,0.1l0,0c0,0,0,0.1-0.1,0.1l0,0c-0.1,0.1-0.2,0-0.2,0.1c0,0-0.1,0-0.1,0c-0.1,0-0.2,0-0.2-0.1
		l0,0c0,0-0.1,0-0.1-0.1l0,0c0,0-0.1,0-0.1-0.1l0,0c-0.1,0,0-0.2-0.1-0.2c0-2.2,0-4.3,0-6.5c0,0,0-0.1,0-0.1c-0.1-0.2,0-0.4-0.1-0.6
		c0,0,0,0,0-0.1c-0.1-0.1,0-0.2-0.1-0.3l0,0l0,0c-0.1-0.1,0-0.2-0.1-0.2c0,0,0,0,0,0c-0.1-0.1,0-0.2-0.1-0.2l0,0c0,0,0-0.1-0.1-0.2
		c0,0,0,0,0,0c0,0,0-0.1-0.1-0.1l0,0c0,0,0-0.1-0.1-0.1l0,0c-0.1,0,0-0.1-0.1-0.1l0,0c-0.1,0,0-0.1-0.1-0.1l0,0c0,0-0.1,0-0.1-0.1
		l0,0c-0.1,0-0.1-0.1-0.1-0.1l0,0c0,0-0.1,0-0.1-0.1l0,0c-0.1,0,0-0.1-0.1-0.1l0,0c0,0,0,0-0.1-0.1l0,0c0,0-0.1,0-0.1-0.1l0,0
		c0,0-0.1,0-0.1-0.1l0,0c0,0-0.1,0-0.1-0.1l0,0c0,0-0.1,0-0.1-0.1l0,0c0,0-0.1,0-0.1-0.1l0,0c0,0-0.1,0-0.1-0.1l0,0
		c0,0-0.1,0-0.1-0.1l0,0c-0.1-0.1-0.1-0.1-0.2-0.1l0,0c0,0-0.1,0-0.1-0.1l0,0c0,0-0.1,0-0.1-0.1l0,0c0,0-0.1,0-0.1-0.1l0,0
		c-0.1-0.1-0.2,0-0.2-0.1l0,0c-0.1,0-0.1,0-0.2-0.1l0,0c-0.1-0.1-0.2,0-0.3-0.1l0,0c-0.1-0.1-0.3,0-0.4-0.1l0,0c-0.3-0.1-0.7,0-1,0
		l0,0l0,0c-0.1,0.1-0.3,0-0.4,0.1l0,0c-0.1,0.1-0.2,0-0.3,0.1l0,0c-0.1,0.1-0.2,0-0.2,0.1l0,0c-0.1,0.1-0.2,0.1-0.4,0.1l0,0
		c0,0-0.1,0-0.1,0.1l0,0c-0.1,0.1-0.1,0.1-0.2,0.1l0,0c-0.1,0.1-0.1,0.1-0.2,0.1l0,0c0,0,0,0.1-0.1,0.1l0,0
		c-0.2,0.1-0.3,0.3-0.4,0.4l0,0c0,0,0,0.1-0.1,0.1l0,0c0,0,0,0.1-0.1,0.1l0,0c0,0.1-0.1,0.2-0.2,0.2l0,0c0,0,0,0.1-0.1,0.1l0,0
		c0,0,0,0.1-0.1,0.1l0,0c0,0,0,0.1-0.1,0.1l0,0c0,0,0,0.1-0.1,0.1l0,0c0,0,0,0.1-0.1,0.1l0,0c0,0,0,0.1-0.1,0.2l0,0
		c-0.1,0.1,0,0.2-0.1,0.2l0,0c-0.1,0.1,0,0.2-0.1,0.2l0,0c-0.1,0.1,0,0.2-0.1,0.2l0,0l0,0c0,0.1,0,0.2-0.1,0.2c0,0,0,0,0,0
		c-0.1,0.1,0,0.2-0.1,0.3c0,0,0,0,0,0.1c-0.1,0.1,0,0.3-0.1,0.4c0,0.1,0,0.1,0,0.2c-0.1,0.1,0,0.3,0,0.4c0,1.8,0,3.7,0,5.5
		c0,0.1,0,0.3,0,0.4l0,0c0,0,0,0.1-0.1,0.1l0,0c0,0,0,0.1-0.1,0.1l0,0c0,0,0,0.1-0.1,0.1l0,0c-0.1,0.1-0.2,0-0.2,0.1
		c0,0-0.1,0-0.1,0c-0.1,0-0.2,0-0.3-0.2l0,0c-0.1,0,0-0.1-0.1-0.1l0,0c-0.1-0.1,0-0.2,0-0.3c0-3.5,0-7,0-10.6c0-0.1,0-0.2,0-0.3l0,0
		c0,0,0-0.1,0.1-0.1l0,0c0,0,0,0,0.1-0.1l0,0c0,0,0.1,0,0.1-0.1l0,0c0,0,0.1,0,0.2-0.1c0,0,0.1,0,0.1,0c0.1,0.1,0.2,0,0.2,0.1l0,0
		c0,0,0,0,0.1,0.1l0,0c0,0,0,0,0.1,0.1l0,0c0,0,0,0,0.1,0.1l0,0c0.1,0.5,0,1,0.1,1.5c0,0.1-0.1,0.3,0.1,0.3l0,0c0,0,0-0.1,0.1-0.1
		l0,0c0,0,0-0.1,0.1-0.1l0,0c0,0,0-0.1,0.1-0.1l0,0c0.1,0,0-0.1,0.1-0.1l0,0c0,0,0-0.1,0.1-0.1l0,0c0,0,0-0.1,0.1-0.1l0,0
		c0,0,0,0,0.1-0.1l0,0c0.1-0.2,0.3-0.3,0.4-0.4l0,0c0,0,0,0,0.1-0.1l0,0c0,0,0.1,0,0.1-0.1l0,0c0,0,0-0.1,0.1-0.1l0,0
		c0,0,0-0.1,0.1-0.1l0,0c0-0.1,0.1,0,0.1-0.1l0,0c0,0,0-0.1,0.1-0.1l0,0c0-0.1,0.1,0,0.1-0.1l0,0c0,0,0.1-0.1,0.1-0.1c0,0,0,0,0,0
		c0,0,0.1,0,0.1-0.1l0,0c0-0.1,0.1,0,0.1-0.1l0,0c0,0,0.1,0,0.1-0.1l0,0c0-0.1,0.1,0,0.2-0.1c0,0,0,0,0.1,0c0,0,0.1,0,0.1-0.1l0,0
		c0.1-0.1,0.2,0,0.2-0.1c0,0,0,0,0.1,0c0,0,0.1,0,0.2-0.1c0,0,0,0,0.1,0c0.1-0.1,0.2,0,0.3-0.1c0,0,0.1,0,0.1,0
		c0.1-0.1,0.3,0,0.5-0.1c0.1,0,0.2,0,0.4,0c0.2,0.1,0.4,0,0.5,0.1c0,0,0.1,0,0.1,0c0.1,0,0.2,0,0.2,0.1c0,0,0,0,0.1,0
		c0.1,0.1,0.2,0,0.2,0.1c0,0,0,0,0,0c0.1,0,0.1,0,0.2,0.1l0,0c0,0,0.1,0,0.1,0.1c0,0,0,0,0.1,0c0,0,0.1,0,0.2,0.1l0,0
		c0,0,0.1,0,0.1,0.1l0,0c0,0,0.1,0,0.1,0.1c0,0,0,0,0.1,0c0,0,0.1,0,0.1,0.1l0,0c0,0,0.1,0,0.1,0.1l0,0c0,0,0.1,0,0.1,0.1l0,0
		c0,0,0.1,0,0.1,0.1l0,0c0,0,0.1,0,0.1,0.1l0,0c0,0,0.1,0,0.1,0.1l0,0c0,0,0,0,0.1,0.1l0,0c0,0,0,0,0.1,0.1l0,0
		c0.1,0.1,0.2,0.2,0.3,0.3l0,0c0,0,0,0,0.1,0.1l0,0c0,0,0,0.1,0.1,0.1l0,0c0,0,0.1,0,0.1,0.1l0,0c0,0,0.1,0,0.1,0.1l0,0
		c0.1,0,0,0.1,0.1,0.1l0,0c0,0,0.1,0,0.1,0.1l0,0c0.1,0,0,0.1,0.1,0.1l0,0c0,0,0.1,0,0.1,0.1l0,0c0.1,0,0,0.1,0.1,0.1l0,0
		c0.1,0,0,0.1,0.1,0.1l0,0c0,0,0,0.1,0.1,0.1l0,0c0,0,0,0.1,0.1,0.1l0,0c0.1,0,0,0.1,0.1,0.2c0,0,0,0,0,0c0,0,0.1,0.1,0.1,0.1l0,0
		c0,0,0-0.1,0.1-0.1l0,0c0,0,0-0.1,0.1-0.1l0,0c0,0,0-0.1,0.1-0.1l0,0c0,0,0-0.1,0.1-0.1l0,0c0,0,0-0.1,0.1-0.1l0,0
		c0,0,0-0.1,0.1-0.1l0,0c0,0,0-0.1,0.1-0.1l0,0c0,0,0-0.1,0.1-0.1l0,0c0,0,0-0.1,0.1-0.1l0,0c0,0,0-0.1,0.1-0.1l0,0
		c0.1-0.1,0.1-0.2,0.2-0.2l0,0c0,0,0-0.1,0.1-0.1l0,0c0,0,0-0.1,0.1-0.1l0,0c0,0,0-0.1,0.1-0.1l0,0c0,0,0-0.1,0.1-0.1l0,0
		c0,0,0-0.1,0.1-0.1l0,0c0,0,0-0.1,0.1-0.1l0,0c0,0,0-0.1,0.1-0.1l0,0c0,0,0-0.1,0.1-0.1l0,0c0-0.1,0.1,0,0.1-0.1l0,0
		c0,0,0.1,0,0.1-0.1l0,0c0,0,0-0.1,0.1-0.1l0,0c0-0.1,0.1,0,0.1-0.1l0,0c0,0,0-0.1,0.1-0.1l0,0c0-0.1,0.1,0,0.1-0.1l0,0
		c0,0,0.1,0,0.1-0.1l0,0c0,0,0.1,0,0.1-0.1c0,0,0,0,0,0c0,0,0.1,0,0.1-0.1c0,0,0,0,0,0c0,0,0.1,0,0.1-0.1l0,0c0,0,0.1,0,0.2-0.1
		c0,0,0,0,0.1,0c0,0,0.1,0,0.1-0.1c0,0,0,0,0.1,0c0.1,0,0.1,0,0.2-0.1c0,0,0.1,0,0.1,0c0.1,0,0.2,0,0.2-0.1c0,0,0.1,0,0.1,0
		c0.1-0.1,0.3,0,0.5-0.1c0.1,0,0.3,0,0.4,0c0.1,0.1,0.3,0,0.5,0.1c0,0,0.1,0,0.1,0c0.1,0.1,0.2,0,0.2,0.1c0,0,0.1,0,0.1,0
		c0.1,0,0.1,0,0.2,0.1c0,0,0,0,0.1,0c0,0,0.1,0,0.1,0.1c0,0,0,0,0.1,0c0,0,0.1,0,0.2,0.1l0,0c0,0,0.1,0,0.1,0.1l0,0
		c0,0,0.1,0,0.1,0.1l0,0c0,0,0.1,0,0.1,0.1l0,0c0,0,0.1,0,0.1,0.1l0,0c0,0,0.1,0,0.1,0.1l0,0c0,0,0.1,0,0.1,0.1l0,0
		c0,0,0.1,0,0.1,0.1l0,0c0,0,0,0,0.1,0.1l0,0c0,0.1,0.1,0,0.1,0.1l0,0c0,0,0.1,0,0.1,0.1l0,0c0,0,0.1,0,0.1,0.1l0,0
		c0,0,0.1,0,0.1,0.1l0,0c0,0,0.1,0,0.1,0.1l0,0c0,0,0.1,0,0.1,0.1l0,0c0,0,0.1,0,0.1,0.1l0,0c0,0,0.1,0,0.1,0.1l0,0
		c0.1,0,0,0.1,0.1,0.1l0,0c0,0,0,0.1,0.1,0.1l0,0c0,0,0.1,0,0.1,0.1l0,0c0.1,0,0,0.1,0.1,0.1l0,0c0,0,0,0,0.1,0.1l0,0
		c0.1,0,0,0.1,0.1,0.1l0,0c0,0,0.1,0,0.1,0.1l0,0c0.1,0,0.1,0.1,0.1,0.1l0,0c0.1,0,0,0.1,0.1,0.1l0,0c0.1,0,0,0.1,0.1,0.1l0,0
		c0.1,0,0.1,0.1,0.1,0.2c0,0,0,0,0,0c0,0,0,0.1,0.1,0.1l0,0c0,0,0,0.1,0.1,0.2l0,0l0,0c0,0.1,0,0.1,0.1,0.2l0,0l0,0
		c0.1,0.1,0,0.2,0.1,0.2c0,0,0,0,0,0.1c0.1,0.1,0,0.2,0.1,0.2c0,0,0,0.1,0,0.1c0.1,0.1,0,0.2,0.1,0.3
		C180.2,26.4,180.2,26.6,180.2,26.8z"/>
	<path id="XMLID_6394_" fill="#3B3B3B" d="M93.1,25.1C93.1,25.1,93.1,25.1,93.1,25.1c0,0.1,0.1,0.2,0.1,0.2l0,0l0,0
		c0.1,0.1,0,0.2,0.1,0.2c0,0,0,0,0,0.1c0.1,0.1,0,0.2,0.1,0.3c0,0,0,0,0,0.1c0.1,0.1,0,0.3,0.1,0.4c0,0,0,0.1,0,0.1
		c0.1,0.1,0,0.2,0,0.3c0,2.2,0,4.3,0,6.5c0,0.1,0,0.2,0,0.3l0,0c0,0,0,0.1-0.1,0.1l0,0c0,0,0,0.1-0.1,0.1l0,0c0,0,0,0.1-0.1,0.1l0,0
		c-0.1,0.1-0.2,0-0.2,0.1c0,0-0.1,0-0.1,0c-0.1,0-0.2,0-0.3-0.1l0,0c0,0-0.1,0-0.1-0.1l0,0c-0.1,0,0-0.2-0.1-0.2c0-0.8,0-1.6,0-2.4
		c0-1.3,0-2.6,0-3.9c0-0.1,0-0.3,0-0.4c-0.1-0.1,0-0.3-0.1-0.5c0,0,0-0.1,0-0.1c0-0.1,0-0.2-0.1-0.2l0,0l0,0c-0.1-0.1,0-0.2-0.1-0.2
		l0,0l0,0c-0.1-0.1,0-0.2-0.1-0.2l0,0c0,0,0-0.1-0.1-0.2c0,0,0,0,0,0c0,0,0-0.1-0.1-0.1l0,0c0,0,0-0.1-0.1-0.1l0,0
		c-0.1,0,0-0.1-0.1-0.1l0,0c0,0,0-0.1-0.1-0.1l0,0c0,0-0.1,0-0.1-0.1l0,0c-0.1,0,0-0.1-0.1-0.1l0,0c0,0-0.1,0-0.1-0.1l0,0
		c-0.1,0-0.1-0.1-0.2-0.2l0,0c0,0-0.1,0-0.1-0.1l0,0c0,0-0.1,0-0.1-0.1l0,0c0,0-0.1,0-0.1-0.1l0,0c0,0-0.1,0-0.1-0.1l0,0
		c0,0-0.1,0-0.1-0.1l0,0c0,0-0.1,0-0.1-0.1l0,0c0,0-0.1,0-0.1-0.1l0,0c0,0-0.1,0-0.1-0.1l0,0c0,0-0.1,0-0.1-0.1l0,0
		c0,0-0.1,0-0.1-0.1l0,0c-0.1,0-0.2-0.1-0.2-0.1l0,0c-0.1-0.1-0.2,0-0.2-0.1l0,0c-0.1,0-0.1,0-0.2-0.1l0,0c-0.1-0.1-0.2,0-0.3-0.1
		l0,0c-0.1-0.1-0.3,0-0.4-0.1v0c-0.3-0.1-0.7,0-1,0l0,0l0,0c-0.1,0.1-0.3,0-0.4,0.1l0,0c-0.1,0.1-0.2,0-0.3,0.1l0,0
		c-0.1,0.1-0.2,0-0.2,0.1l0,0c0,0.1-0.2,0-0.2,0.1l0,0c0,0-0.1,0-0.1,0.1l0,0c0,0.1-0.1,0-0.1,0.1l0,0c0,0.1-0.1,0-0.1,0.1l0,0
		c-0.1,0.1-0.1,0.1-0.2,0.1l0,0c0,0,0,0.1-0.1,0.1l0,0c0,0.1-0.1,0.1-0.2,0.2l0,0c0,0,0,0.1-0.1,0.1l0,0c0,0,0,0.1-0.1,0.1l0,0
		c0,0,0,0.1-0.1,0.1l0,0c0,0,0,0.1-0.1,0.1l0,0c0,0,0,0.1-0.1,0.1l0,0c0,0,0,0.1-0.1,0.1l0,0c-0.1,0.1-0.1,0.2-0.2,0.2l0,0
		c0,0,0,0.1-0.1,0.1l0,0c0,0,0,0.1-0.1,0.1l0,0c0,0,0,0.1-0.1,0.1l0,0c0,0,0,0.1-0.1,0.1l0,0c0,0,0,0.1-0.1,0.1l0,0
		c0,0.1,0,0.1-0.1,0.1l0,0c0,0.1,0,0.1-0.1,0.2l0,0c0,0,0,0.1-0.1,0.2l0,0c0,0,0,0.1-0.1,0.1c0,0,0,0,0,0c0,0.1,0,0.1-0.1,0.2
		c0,0,0,0,0,0c0,0.1,0,0.2-0.1,0.2l0,0c-0.1,0.1,0,0.2-0.1,0.3l0,0l0,0c-0.1,0.1,0,0.2-0.1,0.3c0,0,0,0.1,0,0.1
		c-0.1,0.2,0,0.4-0.1,0.5c0,0.3,0,0.5,0,0.8c0,0.1,0,0.2,0,0.3c0,1.6,0,3.3,0,4.9c0,0.1,0,0.2-0.1,0.3l0,0c0,0.1-0.1,0.2-0.2,0.2
		l0,0c-0.1,0.1-0.2,0-0.2,0.1l0,0c-0.1,0-0.2,0-0.2-0.1l0,0c0,0-0.1,0-0.1-0.1l0,0c-0.1,0-0.1-0.1-0.1-0.1l0,0c-0.1-0.1,0-0.2,0-0.3
		c0-6.8,0-13.6,0-20.4c0-0.1,0-0.2,0-0.3l0,0c0,0,0-0.1,0.1-0.1l0,0c0,0,0.1-0.1,0.1-0.1l0,0c0,0,0.1,0,0.2-0.1c0.1,0,0.1,0,0.2,0
		c0.1,0,0.1,0,0.2,0.1l0,0c0.1,0.1,0.2,0.1,0.2,0.2l0,0c0.1,0.1,0,0.3,0,0.4c0,3.6,0,7.3,0,10.9c0,0.1-0.1,0.3,0.1,0.4l0,0
		c0,0,0-0.1,0.1-0.1l0,0c0,0,0-0.1,0.1-0.1l0,0c0,0,0-0.1,0.1-0.1l0,0c0,0,0-0.1,0.1-0.1l0,0c0,0,0,0,0.1-0.1l0,0
		c0.1,0,0-0.1,0.1-0.1l0,0c0,0,0-0.1,0.1-0.1l0,0c0,0,0-0.1,0.1-0.1l0,0c0,0,0-0.1,0.1-0.1l0,0c0,0,0-0.1,0.1-0.1l0,0
		c0,0,0-0.1,0.1-0.1l0,0c0,0,0-0.1,0.1-0.1l0,0c0,0,0-0.1,0.1-0.1l0,0c0,0,0-0.1,0.1-0.1l0,0c0,0,0-0.1,0.1-0.1l0,0
		c0-0.1,0.1,0,0.1-0.1l0,0c0,0,0.1,0,0.1-0.1l0,0c0,0,0-0.1,0.1-0.1l0,0c0-0.1,0.1,0,0.1-0.1l0,0c0,0,0-0.1,0.1-0.1l0,0
		c0-0.1,0.1,0,0.1-0.1l0,0c0,0,0.1,0,0.1-0.1l0,0c0,0,0.1-0.1,0.1-0.1l0,0l0,0c0,0,0.1-0.1,0.1-0.1l0,0l0,0c0,0,0.1,0,0.1-0.1l0,0
		c0,0,0.1,0,0.2-0.1c0,0,0,0,0.1,0c0,0,0.1,0,0.2-0.1c0,0,0,0,0.1,0c0.1,0,0.1,0,0.2-0.1c0,0,0.1,0,0.1,0c0.1,0,0.2,0,0.2-0.1
		c0,0,0.1,0,0.1,0c0.1-0.1,0.3,0,0.5-0.1c0.1,0,0.2,0,0.4,0c0.2,0.1,0.4,0,0.5,0.1c0,0,0.1,0,0.1,0c0.1,0,0.2,0,0.2,0.1
		c0,0,0.1,0,0.1,0c0.1,0,0.1,0,0.2,0.1c0,0,0,0,0.1,0c0,0,0.1,0,0.2,0.1c0,0,0,0,0,0c0.1,0,0.1,0,0.2,0.1l0,0c0,0,0.1,0,0.1,0.1l0,0
		c0,0,0.1,0,0.1,0.1l0,0c0,0,0.1,0,0.1,0.1l0,0c0,0,0.1,0,0.1,0.1c0,0,0,0,0,0c0,0,0.1,0,0.1,0.1l0,0c0,0,0,0,0.1,0.1l0,0
		c0,0.1,0.1,0,0.1,0.1l0,0c0,0,0.1,0,0.1,0.1l0,0c0,0,0,0,0.1,0.1l0,0c0,0,0,0,0.1,0.1l0,0c0.1,0.1,0.3,0.3,0.4,0.4l0,0
		c0,0,0,0.1,0.1,0.1l0,0c0,0,0,0,0.1,0.1l0,0c0,0,0.1,0,0.1,0.1l0,0c0.1,0,0,0.1,0.1,0.1l0,0c0,0,0,0,0.1,0.1l0,0
		c0.1,0,0,0.1,0.1,0.1l0,0c0,0,0.1,0,0.1,0.1l0,0c0.1,0,0,0.1,0.1,0.1l0,0c0,0,0,0.1,0.1,0.1l0,0c0,0,0,0.1,0.1,0.1l0,0
		c0,0,0,0.1,0.1,0.1l0,0c0,0,0,0.1,0.1,0.2l0,0c0.1,0,0.1,0.1,0.1,0.2l0,0l0,0C93.1,25,93.1,25,93.1,25.1z"/>
	<path id="XMLID_6393_" fill="#3B3B3B" d="M154.2,28.5c0,0,0-0.1,0-0.1c0.1-0.2,0-0.5,0.1-0.7c0-0.1,0-0.2,0-0.3
		c0.1-0.1,0-0.3,0-0.4c0-1.4,0-2.8,0-4.2c0-0.1,0-0.3,0-0.4l0,0c0-0.1,0.1-0.2,0.2-0.2l0,0c0.1-0.1,0.2,0,0.2-0.1c0,0,0,0,0,0
		c0.1,0.1,0.2,0,0.2,0.1l0,0c0,0,0,0,0.1,0.1l0,0c0,0,0,0,0.1,0.1l0,0c0,0,0,0,0.1,0.1l0,0c0.1,0.1,0,0.2,0,0.3c0,3.5,0,7.1,0,10.6
		c0,0.1,0,0.2,0,0.3l0,0c0,0.1-0.1,0.2-0.2,0.2l0,0c-0.1,0.1-0.2,0-0.2,0.1l0,0c-0.1,0-0.2,0-0.2-0.1l0,0c0,0-0.1,0-0.1-0.1l0,0
		c-0.1,0-0.1-0.1-0.1-0.1l0,0c-0.1-0.6,0-1.1,0-1.7c0-0.1,0.1-0.3-0.1-0.3l0,0c0,0,0,0.1-0.1,0.1l0,0c0,0,0,0.1-0.1,0.1l0,0
		c0,0,0,0.1-0.1,0.1l0,0c0,0,0,0.1-0.1,0.1l0,0c0,0,0,0.1-0.1,0.1l0,0c0,0,0,0.1-0.1,0.1l0,0c0,0,0,0.1-0.1,0.1l0,0
		c-0.1,0.1-0.1,0.2-0.2,0.2l0,0c0,0,0,0.1-0.1,0.1l0,0c0,0,0,0.1-0.1,0.1l0,0c0,0,0,0.1-0.1,0.1l0,0c0,0,0,0.1-0.1,0.1l0,0
		c0,0,0,0.1-0.1,0.1l0,0c0,0,0,0.1-0.1,0.1l0,0c0,0,0,0.1-0.1,0.1l0,0c0,0,0,0.1-0.1,0.1l0,0c0,0.1-0.1,0.1-0.2,0.2l0,0
		c0,0,0,0.1-0.1,0.1l0,0c-0.1,0.1-0.1,0.1-0.2,0.1l0,0c-0.1,0.1-0.1,0.1-0.2,0.1l0,0c0,0.1-0.1,0-0.1,0.1l0,0c0,0.1-0.1,0-0.1,0.1
		l0,0c0,0.1-0.1,0-0.1,0.1l0,0c0,0.1-0.2,0-0.2,0.1l0,0c-0.1,0.1-0.2,0-0.2,0.1l0,0c-0.1,0.1-0.2,0-0.3,0.1l0,0
		c-0.1,0.1-0.3,0-0.4,0.1l0,0l0,0c-0.3,0.1-0.7,0.1-1,0l0,0l0,0c-0.1-0.1-0.3,0-0.4-0.1l0,0c-0.1-0.1-0.2,0-0.3-0.1l0,0
		c-0.1-0.1-0.2,0-0.2-0.1l0,0c-0.1-0.1-0.2,0-0.2-0.1l0,0c-0.1,0-0.1,0-0.1-0.1l0,0c0,0-0.1,0-0.1-0.1l0,0c0,0-0.1,0-0.1-0.1l0,0
		c-0.1,0-0.2-0.1-0.2-0.1l0,0c-0.1,0-0.2-0.1-0.2-0.1l0,0c0,0-0.1,0-0.1-0.1l0,0c-0.1-0.1-0.2-0.1-0.2-0.2l0,0c0,0-0.1,0-0.1-0.1
		l0,0c0,0-0.1,0-0.1-0.1l0,0c0,0-0.1,0-0.1-0.1l0,0c0,0-0.1,0-0.1-0.1l0,0c0,0-0.1,0-0.1-0.1l0,0c0,0-0.1,0-0.1-0.1l0,0
		c-0.1,0-0.1-0.1-0.2-0.2l0,0c0,0-0.1,0-0.1-0.1l0,0c-0.1-0.1-0.1-0.1-0.1-0.2l0,0c-0.1,0,0-0.1-0.1-0.1l0,0c0,0-0.1,0-0.1-0.1l0,0
		c-0.1,0,0-0.1-0.1-0.1l0,0c-0.1,0,0-0.1-0.1-0.1l0,0c-0.1,0,0-0.1-0.1-0.1l0,0c-0.1,0,0-0.1-0.1-0.1l0,0c-0.1,0-0.1-0.1-0.1-0.2
		l0,0l0,0c0,0,0-0.1-0.1-0.2l0,0c-0.1-0.1,0-0.2-0.1-0.2l0,0c-0.1-0.1,0-0.2-0.1-0.2c0,0,0,0,0,0c-0.1-0.1,0-0.2-0.1-0.2
		c0,0,0,0,0,0c-0.1-0.1,0-0.3-0.1-0.4c0,0,0,0,0-0.1c-0.1-0.2,0-0.4-0.1-0.6c0-0.4,0-0.7,0-1.1c0-1.8,0-3.5,0-5.3c0-0.1,0-0.3,0-0.4
		c0,0,0-0.1,0.1-0.2l0,0c0,0,0-0.1,0.1-0.1l0,0c0-0.1,0.1,0,0.1-0.1l0,0c0,0,0.1,0,0.2-0.1c0,0,0.1,0,0.1,0c0.1,0.1,0.2,0,0.2,0.1
		l0,0c0,0,0.1,0,0.1,0.1l0,0c0,0,0.1,0,0.1,0.1l0,0c0.1,0,0,0.1,0.1,0.1l0,0c0.1,0.1,0,0.3,0,0.4c0,2.1,0,4.2,0,6.3
		c0,0.1,0,0.3,0,0.4c0,0,0,0.1,0,0.1c0.1,0.1,0,0.3,0.1,0.4c0,0,0,0,0,0.1c0.1,0.1,0,0.2,0.1,0.2c0,0,0,0,0,0c0.1,0.1,0,0.2,0.1,0.2
		l0,0c0.1,0.1,0,0.2,0.1,0.2l0,0c0,0,0,0.1,0.1,0.2c0,0,0,0,0,0c0,0,0,0.1,0.1,0.1l0,0l0,0c0,0,0.1,0.1,0.1,0.1l0,0l0,0
		c0,0,0.1,0.1,0.1,0.1c0,0,0,0,0,0c0,0,0,0.1,0.1,0.1l0,0c0.1,0,0,0.1,0.1,0.1l0,0c0,0,0.1,0,0.1,0.1l0,0c0.1,0,0,0.1,0.1,0.1l0,0
		c0,0,0,0.1,0.1,0.1l0,0c0,0,0.1,0,0.1,0.1l0,0c0,0,0.1,0,0.1,0.1l0,0c0,0,0.1,0,0.1,0.1l0,0c0,0,0.1,0,0.1,0.1l0,0
		c0,0,0.1,0,0.1,0.1l0,0c0,0,0.1,0,0.1,0.1l0,0c0,0,0.1,0,0.1,0.1l0,0c0,0,0,0,0.1,0.1l0,0c0,0,0.1,0,0.1,0.1l0,0c0,0,0.1,0,0.1,0.1
		l0,0c0,0,0.1,0,0.1,0.1l0,0c0,0,0.1,0,0.1,0.1c0,0,0,0,0.1,0c0,0,0.1,0,0.1,0c0,0,0,0,0.1,0c0,0,0.1,0,0.2,0.1l0,0
		c0.1,0.1,0.2,0,0.2,0.1l0,0l0,0c0.1,0,0.1,0,0.2,0.1c0,0,0.1,0,0.1,0c0.1,0.1,0.2,0,0.3,0.1c0.2,0,0.5,0,0.7,0
		c0.1-0.1,0.3,0,0.4-0.1c0,0,0,0,0.1,0c0.1-0.1,0.2,0,0.2-0.1c0,0,0.1,0,0.1,0c0,0,0.1,0,0.1-0.1c0,0,0,0,0.1,0c0,0,0.1,0,0.1-0.1
		l0,0c0,0,0.1,0,0.1-0.1l0,0c0,0,0.1,0,0.1-0.1l0,0c0,0,0.1,0,0.1-0.1l0,0c0,0,0,0,0.1-0.1l0,0c0-0.1,0.1,0,0.1-0.1l0,0
		c0,0,0.1,0,0.1-0.1l0,0c0,0,0-0.1,0.1-0.1l0,0c0,0,0-0.1,0.1-0.1l0,0c0,0,0-0.1,0.1-0.1l0,0c0-0.1,0.1-0.1,0.1-0.2l0,0
		c0,0,0-0.1,0.1-0.1l0,0c0,0,0-0.1,0.1-0.1l0,0c0,0,0-0.1,0.1-0.1l0,0c0,0,0,0,0.1-0.1l0,0c0.1,0,0-0.1,0.1-0.1l0,0
		c0,0,0-0.1,0.1-0.1l0,0c0.1,0,0-0.1,0.1-0.1l0,0c0,0,0-0.1,0.1-0.1l0,0c0,0,0-0.1,0.1-0.1l0,0c0,0,0-0.1,0.1-0.2l0,0
		c0,0,0-0.1,0.1-0.2l0,0c0,0,0-0.1,0.1-0.1c0,0,0,0,0,0c0-0.1,0-0.1,0.1-0.2l0,0l0,0c0-0.1,0-0.1,0.1-0.2l0,0l0,0
		c0-0.1,0-0.1,0.1-0.2c0,0,0,0,0-0.1c0.1-0.1,0-0.2,0.1-0.2c0,0,0,0,0-0.1c0.1-0.1,0-0.2,0.1-0.3c0,0,0,0,0,0c0.1-0.1,0-0.2,0.1-0.3
		c0,0,0-0.1,0-0.1C154.2,28.9,154.1,28.7,154.2,28.5z"/>
	<path id="XMLID_6392_" fill="#3B3B3B" d="M77.8,22.5C77.8,22.5,77.8,22.5,77.8,22.5c0.1,0.1,0.1,0.2,0,0.3l0,0
		c0,0.2-0.1,0.3-0.3,0.4l0,0c-0.1,0.1-0.2,0-0.4,0c-0.8,0-1.6,0-2.5,0c0,0.1,0,0.2,0,0.3c0,3.4,0,6.7,0,10.1c0,0.1,0,0.1-0.1,0.2
		l0,0c0,0,0,0.1-0.1,0.1l0,0c-0.1,0.1-0.2,0.1-0.3,0.1c0,0-0.1,0-0.1,0c-0.1,0-0.2,0-0.2-0.1l0,0c0,0-0.1,0-0.1-0.1l0,0
		c0,0-0.1,0-0.1-0.1l0,0c-0.1,0,0-0.1-0.1-0.2c0,0,0,0,0-0.1c-0.1-0.1,0-0.3,0-0.4c0-3.2,0-6.4,0-9.7c0-0.4,0-0.4-0.4-0.4
		c-0.7,0-1.4,0-2,0c-0.2,0-0.4,0-0.5-0.3l0,0c-0.1-0.2-0.1-0.3,0-0.5l0,0c0-0.1,0.1-0.2,0.2-0.2l0,0c0.1-0.1,0.2,0,0.2-0.1
		c0.8,0,1.7,0,2.5,0c0.1-0.1,0-0.3,0-0.4c0-1,0-2.1,0-3.1c0-0.1,0-0.2,0-0.3c0,0,0,0,0-0.1c0,0,0-0.1,0.1-0.2l0,0c0,0,0-0.1,0.1-0.1
		l0,0c0,0,0,0,0.1-0.1l0,0c0,0,0.1,0,0.1-0.1c0,0,0,0,0.1,0c0,0,0.1,0,0.1,0c0,0,0,0,0.1,0c0,0,0.1,0,0.1,0.1l0,0c0,0,0,0,0.1,0.1
		l0,0c0,0,0,0.1,0.1,0.1l0,0c0,0,0,0.1,0.1,0.2c0,1.2,0,2.4,0,3.7c0,0.3,0,0.3,0.2,0.3c0.8,0,1.6,0,2.4,0c0.1,0,0.1,0,0.2,0.1
		c0,0,0,0,0,0c0,0,0.1,0,0.1,0.1l0,0c0,0,0.1,0,0.1,0.1l0,0C77.8,22.3,77.8,22.4,77.8,22.5z"/>
	<path id="XMLID_6391_" fill="#3B3B3B" d="M122.9,22.1L122.9,22.1L122.9,22.1c0.1,0,0.1,0,0.1,0.1l0,0c0,0,0.1,0,0.1,0.1l0,0
		c0.1,0,0,0.1,0.1,0.1l0,0c0.1,0.1,0.1,0.2,0,0.3l0,0c0,0.2-0.1,0.3-0.3,0.3l0,0c-0.1,0.1-0.2,0-0.4,0.1l0,0c-0.1,0.1-0.2,0-0.4,0.1
		l0,0c-0.1,0.1-0.2,0-0.2,0.1l0,0l0,0c-0.1,0.1-0.2,0-0.2,0.1l0,0c0,0-0.1,0-0.1,0.1l0,0c-0.1,0.1-0.2,0.1-0.3,0.2l0,0
		c-0.1,0-0.1,0.1-0.2,0.1l0,0c0,0.1-0.1,0.1-0.1,0.1l0,0c-0.1,0.1-0.1,0.1-0.2,0.1l0,0c-0.1,0.1-0.1,0.1-0.2,0.2l0,0
		c0,0,0,0-0.1,0.1l0,0c0,0,0,0.1-0.1,0.1l0,0c0,0,0,0.1-0.1,0.1l0,0c0,0,0,0.1-0.1,0.1l0,0c0,0,0,0.1-0.1,0.1l0,0c0,0,0,0.1-0.1,0.1
		l0,0c0,0,0,0.1-0.1,0.1l0,0c0,0,0,0.1-0.1,0.1l0,0c0,0,0,0.1-0.1,0.1l0,0c-0.1,0.1-0.1,0.2-0.2,0.2l0,0c0,0,0,0.1-0.1,0.1l0,0
		c0,0,0,0.1-0.1,0.1l0,0c0,0,0,0.1-0.1,0.1l0,0c0,0,0,0.1-0.1,0.1l0,0c0,0,0,0.1-0.1,0.1l0,0c0,0,0,0.1-0.1,0.1l0,0
		c0,0.1,0,0.1-0.1,0.2l0,0c0,0,0,0.1-0.1,0.2l0,0c0,0,0,0.1-0.1,0.1c0,0,0,0,0,0c0,0.1,0,0.1-0.1,0.2l0,0c-0.1,0.1,0,0.2-0.1,0.2
		c0,0,0,0,0,0c0,0.1,0,0.2-0.1,0.2l0,0c-0.1,0.1,0,0.2-0.1,0.3c0,0,0,0,0,0c-0.1,0.1,0,0.2-0.1,0.3c0,0,0,0.1,0,0.1
		c-0.1,0.2,0,0.4-0.1,0.5c0,0.2,0,0.3,0,0.5c-0.1,0.1,0,0.3,0,0.4c0,1.4,0,2.9,0,4.3c0,0.1,0.1,0.3-0.1,0.4l0,0c0,0,0,0.1-0.1,0.1
		l0,0c0,0,0,0.1-0.1,0.1l0,0c0,0.1-0.1,0-0.1,0.1l0,0c-0.1,0.1-0.2,0.1-0.3,0l0,0c0,0-0.1,0-0.1-0.1l0,0c0,0-0.1,0-0.1-0.1l0,0
		c-0.1,0,0-0.1-0.1-0.1l0,0c-0.1-0.1,0-0.2,0-0.3c0-3.5,0-7,0-10.5c0-0.1,0-0.2,0-0.3l0,0c0,0,0-0.1,0.1-0.1l0,0c0,0,0-0.1,0.1-0.1
		l0,0c0,0,0-0.1,0.1-0.1l0,0c0.1-0.1,0.2,0,0.2-0.1c0,0,0.1,0,0.1,0c0.1,0,0.1,0,0.2,0.1l0,0c0,0,0.1,0,0.1,0.1l0,0
		c0.1,0,0,0.1,0.1,0.1l0,0c0.1,0.6,0,1.3,0,1.9c0,0.1-0.1,0.3,0.1,0.3l0,0c0,0,0-0.1,0.1-0.1l0,0c0,0,0-0.1,0.1-0.1l0,0
		c0,0,0-0.1,0.1-0.1l0,0c0.1-0.1,0.1-0.2,0.2-0.2l0,0c0,0,0-0.1,0.1-0.1l0,0c0,0,0-0.1,0.1-0.1l0,0c0,0,0,0,0.1-0.1l0,0
		c0.1-0.2,0.3-0.3,0.5-0.5l0,0c0,0,0,0,0.1-0.1l0,0c0,0,0-0.1,0.1-0.1l0,0c0,0,0-0.1,0.1-0.1l0,0c0-0.1,0.1,0,0.1-0.1l0,0
		c0,0,0.1,0,0.1-0.1l0,0c0,0,0-0.1,0.1-0.1l0,0c0-0.1,0.1,0,0.1-0.1l0,0c0,0,0,0,0.1-0.1l0,0c0-0.1,0.1,0,0.1-0.1l0,0
		c0,0,0.1-0.1,0.1-0.1c0,0,0,0,0,0c0,0,0.1,0,0.1-0.1c0,0,0,0,0.1,0c0,0,0.1,0,0.1-0.1c0,0,0,0,0.1,0c0,0,0.1,0,0.1-0.1c0,0,0,0,0,0
		c0,0,0.1,0,0.1-0.1l0,0c0,0,0.1,0,0.2-0.1c0,0,0,0,0,0c0.1,0,0.1,0,0.2-0.1c0,0,0.1,0,0.1,0c0.1,0,0.1,0,0.2,0c0,0,0.1,0,0.1,0
		c0.2-0.1,0.3,0,0.5-0.1c0.1,0,0.1,0,0.2,0C122.8,22.1,122.8,22.1,122.9,22.1z"/>
	<path id="XMLID_4332_" fill="#828384" d="M32.2,5c0,1.3,0,2.6,0,3.9c0,3.5,0,6.9,0,10.4c0,0.2,0,0.3,0,0.5
		c-0.1,0.2-0.4,0.3-0.6,0.4c-1.7,0.8-3.5,1.6-5.2,2.4c-2,0.9-4,1.8-6,2.7c-0.1,0.1-0.2,0.2-0.4,0c0,0,0-0.1,0-0.1
		c0.6-0.9,1.1-1.8,1.6-2.6c2.4-3.9,4.7-7.9,7.1-11.8C29.9,8.8,31,7,32.1,5.2C32.1,5.1,32.1,5,32.2,5C32.2,5,32.2,5,32.2,5z"/>
	<path id="XMLID_4331_" fill="#343535" d="M20.1,25.2c0.2,0,0.4-0.2,0.7-0.3c1.7-0.8,3.4-1.6,5.1-2.3c2.1-1,4.3-1.9,6.4-2.9
		c0,0,0,0,0,0c0.1,0.1,0.1,0.3,0.1,0.5c0,3.9,0,7.9,0,11.8c0,0.2,0,0.4-0.1,0.5c0,0-0.1,0-0.1,0c0,0,0-0.1-0.1-0.1
		c0-0.1-0.1-0.1-0.1-0.1c0-0.1-0.1-0.1-0.1-0.1c-0.1-0.1-0.1-0.1-0.2-0.1c0-0.1-0.1-0.1-0.1-0.1C31.3,32,31.3,32,31.2,32
		c0-0.1-0.1-0.1-0.1-0.1c-0.1-0.1-0.1-0.1-0.2-0.1c0-0.1-0.1-0.1-0.1-0.1c0-0.1-0.1-0.1-0.1-0.1c0,0,0-0.1-0.1-0.1
		c0-0.1-0.1-0.1-0.1-0.1c0-0.1-0.1-0.1-0.1-0.1c-0.1-0.1-0.1-0.1-0.2-0.1c0-0.1-0.1-0.1-0.1-0.1c-0.1-0.1-0.1-0.1-0.2-0.1
		c0-0.1-0.1-0.1-0.1-0.1c-0.1-0.1-0.1-0.1-0.2-0.1c0-0.1-0.1-0.1-0.1-0.1c0-0.1-0.1-0.1-0.1-0.1c0,0,0-0.1-0.1-0.1
		c0-0.1-0.1-0.1-0.1-0.1c0-0.1-0.1-0.1-0.1-0.1c-0.1-0.1-0.1-0.1-0.2-0.1c0-0.1-0.1-0.1-0.1-0.1c-0.1-0.1-0.1-0.1-0.2-0.1
		c0-0.1-0.1-0.1-0.1-0.1c-0.1-0.1-0.1-0.1-0.2-0.1c0-0.1-0.1-0.1-0.1-0.1c0-0.1-0.1-0.1-0.1-0.1c0,0,0-0.1-0.1-0.1
		c0-0.1-0.1-0.1-0.1-0.1c0-0.1-0.1-0.1-0.1-0.1c-0.1-0.1-0.1-0.1-0.2-0.1c0-0.1-0.1-0.1-0.1-0.1c-0.1-0.1-0.1-0.1-0.2-0.1
		c0-0.1-0.1-0.1-0.1-0.1C26.3,29,26.2,29,26.1,29c0-0.1-0.1-0.1-0.1-0.1c0-0.1-0.1-0.1-0.1-0.1c0,0,0-0.1-0.1-0.1
		c0-0.1-0.1-0.1-0.1-0.1c0-0.1-0.1-0.1-0.1-0.1c-0.1-0.1-0.1-0.1-0.2-0.1c0-0.1-0.1-0.1-0.1-0.1c-0.1-0.1-0.1-0.1-0.2-0.1
		c0-0.1-0.1-0.1-0.1-0.1c-0.1-0.1-0.1-0.1-0.2-0.1c0-0.1-0.1-0.1-0.1-0.1c0-0.1-0.1-0.1-0.1-0.1c0,0,0-0.1-0.1-0.1
		c0-0.1-0.1-0.1-0.1-0.1c0-0.1-0.1-0.1-0.1-0.1c-0.1-0.1-0.1-0.1-0.2-0.1c0-0.1-0.1-0.1-0.1-0.1c-0.1-0.1-0.1-0.1-0.2-0.1
		c0-0.1-0.1-0.1-0.1-0.1c-0.1-0.1-0.1-0.1-0.2-0.1c0-0.1-0.1-0.1-0.1-0.1c0-0.1-0.1-0.1-0.1-0.1c0,0,0-0.1-0.1-0.1
		c0-0.1-0.1-0.1-0.1-0.1c0-0.1-0.1-0.1-0.1-0.1c-0.1-0.1-0.1-0.1-0.2-0.1c0-0.1-0.1-0.1-0.1-0.1c-0.1-0.1-0.1-0.1-0.2-0.1
		c0-0.1-0.1-0.1-0.1-0.1c-0.1-0.1-0.1-0.1-0.2-0.1c0-0.1-0.1-0.1-0.1-0.1C21.2,26,21.2,26,21.1,26c0-0.1-0.1-0.1-0.1-0.1
		c0-0.1-0.1-0.1-0.1-0.1c-0.1-0.1-0.1-0.1-0.2-0.1c0-0.1-0.1-0.1-0.1-0.1c-0.1-0.1-0.1-0.1-0.2-0.1c0-0.1-0.1-0.1-0.1-0.1
		C20,25.3,20,25.3,20.1,25.2z"/>
	<path id="XMLID_4330_" fill="#131313" d="M32.2,32.5c0-4.1,0-8.2,0-12.3c0-0.2,0-0.3,0-0.5c0.5,0.1,0.9,0.4,1.4,0.6
		c1.5,0.7,2.9,1.3,4.4,2c1,0.5,2,0.9,3.1,1.4c1.1,0.5,2.1,1,3.2,1.4c0.1,0,0.2,0.1,0.3,0.1c0,0,0,0,0.1,0c0,0,0,0.1,0,0.1
		c-0.1,0-0.1,0-0.1,0.1c0,0-0.1,0-0.1,0.1c-0.1,0-0.1,0-0.1,0.1c-0.1,0-0.1,0-0.1,0.1c0,0-0.1,0-0.1,0.1c-0.1,0-0.1,0-0.1,0.1
		c-0.1,0-0.1,0-0.1,0.1c-0.1,0-0.2,0.1-0.2,0.1c-0.1,0-0.1,0-0.1,0.1c-0.1,0-0.2,0.1-0.2,0.1c-0.1,0-0.1,0-0.1,0.1
		c-0.1,0-0.1,0-0.1,0.1c0,0-0.1,0-0.1,0.1c-0.1,0-0.1,0-0.1,0.1c-0.1,0-0.1,0-0.1,0.1c0,0-0.1,0-0.1,0.1c-0.1,0-0.1,0-0.1,0.1
		c-0.1,0-0.1,0-0.1,0.1c-0.1,0-0.2,0.1-0.2,0.1c-0.1,0-0.1,0-0.1,0.1c-0.1,0-0.2,0.1-0.2,0.1c-0.1,0-0.1,0-0.1,0.1
		c-0.1,0-0.1,0-0.1,0.1c0,0-0.1,0-0.1,0.1c-0.1,0-0.1,0-0.1,0.1c-0.1,0-0.1,0-0.1,0.1c0,0-0.1,0-0.1,0.1c-0.1,0-0.1,0-0.1,0.1
		c-0.1,0-0.1,0-0.1,0.1c-0.1,0-0.2,0.1-0.2,0.1c-0.1,0-0.1,0-0.1,0.1c-0.1,0-0.2,0.1-0.2,0.1c-0.1,0-0.1,0-0.1,0.1
		c-0.1,0-0.1,0-0.1,0.1c0,0-0.1,0-0.1,0.1c-0.1,0-0.1,0-0.1,0.1c-0.1,0-0.1,0-0.1,0.1c0,0-0.1,0-0.1,0.1c-0.1,0-0.1,0-0.1,0.1
		c-0.1,0-0.1,0-0.1,0.1c-0.1,0-0.2,0.1-0.2,0.1c-0.1,0-0.1,0-0.1,0.1c-0.1,0-0.2,0.1-0.2,0.1c-0.1,0-0.1,0-0.1,0.1
		c-0.1,0-0.1,0-0.1,0.1c0,0-0.1,0-0.1,0.1c-0.1,0-0.1,0-0.1,0.1c-0.1,0-0.1,0-0.1,0.1c0,0-0.1,0-0.1,0.1c-0.1,0-0.1,0-0.1,0.1
		c-0.1,0-0.1,0-0.1,0.1c-0.1,0-0.2,0.1-0.2,0.1c-0.1,0-0.1,0-0.1,0.1c-0.1,0-0.2,0.1-0.2,0.1c-0.1,0-0.1,0-0.1,0.1
		c-0.1,0-0.1,0-0.1,0.1c0,0-0.1,0-0.1,0.1c-0.1,0-0.1,0-0.1,0.1c-0.1,0-0.1,0-0.1,0.1c0,0-0.1,0-0.1,0.1c-0.1,0-0.1,0-0.1,0.1
		c-0.1,0-0.1,0-0.1,0.1c-0.1,0-0.2,0.1-0.2,0.1c-0.1,0-0.1,0-0.1,0.1c-0.1,0-0.2,0.1-0.2,0.1c-0.1,0-0.1,0-0.1,0.1
		c-0.1,0-0.1,0-0.1,0.1c0,0-0.1,0-0.1,0.1c-0.1,0-0.1,0-0.1,0.1c-0.1,0-0.1,0-0.1,0.1c0,0-0.1,0-0.1,0.1c-0.1,0-0.1,0-0.1,0.1
		c-0.1,0-0.1,0-0.1,0.1c-0.1,0-0.2,0.1-0.2,0.1c-0.1,0-0.1,0-0.1,0.1c-0.1,0-0.2,0.1-0.2,0.1c-0.1,0-0.1,0-0.1,0.1
		c-0.1,0-0.2,0.1-0.2,0.1c-0.1,0-0.1,0-0.1,0.1c-0.1,0-0.1,0-0.1,0.1c0,0-0.1,0-0.1,0.1c-0.1,0-0.1,0-0.1,0.1c-0.1,0-0.1,0-0.1,0.1
		c0,0-0.1,0-0.1,0.1c-0.1,0-0.1,0-0.1,0.1c-0.1,0-0.1,0-0.1,0.1C32.3,32.5,32.3,32.5,32.2,32.5z"/>
	<path id="XMLID_158_" fill="#3B3B3B" d="M134.9,33C135,33,135,33,134.9,33c0.1,0,0.2,0,0.2-0.1c0,0,0.1,0,0.1,0c0,0,0.1,0,0.1-0.1
		l0,0c0,0,0.1,0,0.2-0.1c0,0,0,0,0,0c0,0,0.1,0,0.1-0.1l0,0c0,0,0.1,0,0.1-0.1l0,0c0,0,0.1,0,0.1-0.1l0,0c0,0,0.1,0,0.1-0.1l0,0
		c0,0,0,0,0.1-0.1l0,0c0-0.1,0.1,0,0.1-0.1l0,0c0,0,0,0,0.1-0.1l0,0c0-0.1,0.1,0,0.1-0.1l0,0c0,0,0,0,0.1-0.1l0,0c0,0,0,0,0.1-0.1
		l0,0c0,0,0-0.1,0.1-0.1l0,0c0,0,0-0.1,0.1-0.1l0,0c0,0,0-0.1,0.1-0.1l0,0c0,0,0-0.1,0.1-0.1l0,0c0,0,0-0.1,0.1-0.1l0,0
		c0,0,0-0.1,0.1-0.1l0,0c0,0,0-0.1,0.1-0.1l0,0c0,0,0-0.1,0.1-0.1l0,0c0,0,0,0,0.1-0.1l0,0c0,0,0-0.1,0.1-0.1l0,0c0,0,0-0.1,0.1-0.1
		l0,0c0,0,0-0.1,0.1-0.1l0,0c0,0,0-0.1,0.1-0.1l0,0c0,0,0-0.1,0.1-0.1l0,0c0-0.1,0.1,0,0.1-0.1l0,0c0.1-0.1,0.3-0.1,0.4,0l0,0
		c0,0,0.1,0,0.1,0.1l0,0c0.1,0,0,0.1,0.1,0.1l0,0c0,0,0,0.1,0.1,0.2c0,0.1,0,0.1,0,0.2c0,0.1,0,0.1-0.1,0.2l0,0c0,0,0,0.1-0.1,0.1
		l0,0c0,0,0,0.1-0.1,0.1l0,0c0,0,0,0.1-0.1,0.1l0,0c0,0.1-0.1,0.2-0.2,0.2l0,0c0,0,0,0.1-0.1,0.1l0,0c0,0,0,0.1-0.1,0.1l0,0
		c-0.2,0.2-0.3,0.4-0.6,0.6l0,0c0,0,0,0.1-0.1,0.1l0,0c0,0.1-0.1,0.1-0.2,0.2l0,0c0,0,0,0.1-0.1,0.1l0,0c0,0.1-0.1,0-0.1,0.1l0,0
		c0,0,0,0.1-0.1,0.1l0,0c0,0.1-0.1,0-0.1,0.1l0,0c0,0-0.1,0-0.1,0.1l0,0c-0.1,0.1-0.3,0.1-0.4,0.2l0,0c0,0-0.1,0-0.1,0.1l0,0
		c0,0.1-0.2,0-0.2,0.1l0,0c0,0-0.1,0-0.2,0.1l0,0l0,0c-0.1,0.1-0.2,0-0.2,0.1l0,0c-0.1,0.1-0.2,0-0.2,0.1l0,0l0,0
		c-0.1,0.1-0.2,0-0.3,0.1l0,0l0,0c-0.1,0.1-0.3,0-0.5,0.1l0,0l0,0c-0.4,0.1-0.8,0.1-1.2,0l0,0l0,0c-0.1-0.1-0.3,0-0.4-0.1l0,0
		c-0.1-0.1-0.2,0-0.3-0.1l0,0c-0.1-0.1-0.2,0-0.3-0.1l0,0c-0.1-0.1-0.2,0-0.2-0.1l0,0c0,0-0.1,0-0.2-0.1l0,0c-0.1-0.1-0.2,0-0.2-0.1
		l0,0c-0.1,0-0.1,0-0.1-0.1l0,0c0,0-0.1,0-0.1-0.1l0,0c0,0-0.1,0-0.1-0.1l0,0c-0.1,0-0.2-0.1-0.2-0.1l0,0c-0.1,0-0.2-0.1-0.2-0.1
		l0,0c-0.1,0-0.2-0.1-0.2-0.2l0,0c0,0-0.1,0-0.1-0.1l0,0c-0.1-0.1-0.2-0.1-0.3-0.2l0,0c0,0-0.1,0-0.1-0.1l0,0c0,0-0.1,0-0.1-0.1l0,0
		c0,0-0.1,0-0.1-0.1l0,0c0,0-0.1,0-0.1-0.1l0,0c0,0-0.1,0-0.1-0.1l0,0c0,0-0.1,0-0.1-0.1l0,0c-0.1-0.1-0.2-0.2-0.2-0.3l0,0
		c0,0-0.1,0-0.1-0.1l0,0c0,0-0.1,0-0.1-0.1l0,0c-0.1,0,0-0.1-0.1-0.1l0,0c0,0-0.1,0-0.1-0.1l0,0c-0.1,0,0-0.1-0.1-0.1l0,0
		c0,0-0.1,0-0.1-0.1l0,0c-0.1,0,0-0.1-0.1-0.1l0,0c0,0,0-0.1-0.1-0.1l0,0c0,0-0.1,0-0.1-0.1l0,0c-0.1,0-0.1-0.1-0.1-0.1l0,0
		c-0.1,0-0.1-0.1-0.1-0.1l0,0c-0.1,0-0.1-0.1-0.1-0.2c0,0,0,0,0,0c0,0,0-0.1-0.1-0.1l0,0c0,0,0-0.1-0.1-0.2l0,0
		c-0.1-0.1,0-0.2-0.1-0.2l0,0c-0.1-0.1,0-0.2-0.1-0.2l0,0c-0.1-0.1,0-0.2-0.1-0.2c0,0,0,0,0,0c-0.1-0.1,0-0.2-0.1-0.2l0,0l0,0
		c-0.1-0.1,0-0.3-0.1-0.4c0,0,0,0,0-0.1c-0.1-0.2,0-0.4-0.1-0.6c0-0.2,0-0.4,0-0.6c0.1-0.2,0-0.4,0.1-0.6c0,0,0,0,0-0.1
		c0.1-0.1,0-0.3,0.1-0.4l0,0l0,0c0-0.1,0-0.2,0.1-0.2l0,0l0,0c0-0.1,0-0.2,0.1-0.2l0,0c0.1-0.1,0-0.2,0.1-0.2l0,0c0,0,0-0.1,0.1-0.1
		c0,0,0,0,0-0.1c0-0.1,0-0.1,0.1-0.2l0,0c0,0,0-0.1,0.1-0.1c0,0,0,0,0,0c0-0.1,0-0.1,0.1-0.2l0,0c0,0,0-0.1,0.1-0.1l0,0
		c0,0,0-0.1,0.1-0.1c0,0,0,0,0,0c0,0,0-0.1,0.1-0.1l0,0c0,0,0-0.1,0.1-0.1l0,0c0,0,0-0.1,0.1-0.1l0,0c0,0,0-0.1,0.1-0.1l0,0
		c0,0,0-0.1,0.1-0.1l0,0c0,0,0-0.1,0.1-0.1l0,0c0,0,0-0.1,0.1-0.1l0,0c0,0,0-0.1,0.1-0.1l0,0c0,0,0-0.1,0.1-0.1l0,0c0,0,0,0,0.1-0.1
		l0,0c0.1-0.1,0.1-0.2,0.2-0.2l0,0c0,0,0-0.1,0.1-0.1l0,0c0,0,0-0.1,0.1-0.1l0,0c0,0,0-0.1,0.1-0.1l0,0c0,0,0-0.1,0.1-0.1l0,0
		c0,0,0-0.1,0.1-0.1l0,0c0,0,0-0.1,0.1-0.1l0,0c0-0.1,0.1,0,0.1-0.1l0,0c0,0,0,0,0.1-0.1l0,0c0,0,0,0,0.1-0.1l0,0c0,0,0-0.1,0.1-0.1
		l0,0c0-0.1,0.1,0,0.1-0.1l0,0c0,0,0.1,0,0.1-0.1l0,0c0,0,0.1-0.1,0.1-0.1c0,0,0,0,0,0c0,0,0.1,0,0.1-0.1l0,0c0,0,0.1,0,0.1-0.1l0,0
		c0,0,0.1-0.1,0.1-0.1c0,0,0,0,0,0c0,0,0.1,0,0.1-0.1c0,0,0,0,0.1,0c0,0,0.1,0,0.1-0.1c0,0,0,0,0.1,0c0,0,0.1,0,0.1,0c0,0,0,0,0.1,0
		c0,0,0.1,0,0.1-0.1l0,0c0,0,0.1,0,0.2-0.1c0,0,0,0,0.1,0c0,0,0.1,0,0.2-0.1c0,0,0,0,0.1,0c0.1,0,0.1,0,0.2-0.1c0,0,0.1,0,0.1,0
		c0.1,0,0.2,0,0.2-0.1c0,0,0,0,0.1,0c0.1-0.1,0.3,0,0.4-0.1c0.1,0,0.1,0,0.2,0c0.3,0,0.6,0,0.9,0c0.1,0,0.1,0,0.2,0
		c0.1,0.1,0.3,0,0.4,0.1c0,0,0,0,0.1,0c0.1,0.1,0.2,0,0.2,0.1c0,0,0,0,0.1,0c0.1,0.1,0.2,0,0.2,0.1c0,0,0,0,0.1,0c0,0,0.1,0,0.2,0.1
		c0,0,0,0,0.1,0c0.1,0,0.1,0,0.2,0.1l0,0c0,0,0.1,0,0.1,0.1c0,0,0,0,0.1,0c0,0,0.1,0,0.1,0c0,0,0,0,0.1,0c0,0,0.1,0,0.1,0.1
		c0,0,0,0,0.1,0c0,0,0.1,0,0.1,0.1c0,0,0,0,0,0c0,0,0.1,0,0.1,0.1l0,0c0,0,0.1,0,0.1,0.1l0,0c0,0,0,0,0.1,0.1c0,0,0,0,0,0
		c0,0,0.1,0,0.1,0.1l0,0c0,0,0,0,0.1,0.1l0,0c0,0.1,0.1,0,0.1,0.1l0,0c0,0,0.1,0,0.1,0.1l0,0c0,0,0,0,0.1,0.1l0,0
		c0.1,0.1,0.1,0.1,0.2,0.2l0,0c0,0,0.1,0,0.1,0.1l0,0c0,0,0.1,0,0.1,0.1l0,0c0,0,0.1,0,0.1,0.1l0,0c0,0,0.1,0,0.1,0.1l0,0
		c0,0,0.1,0,0.1,0.1l0,0c0,0,0.1,0,0.1,0.1l0,0c0,0,0.1,0,0.1,0.1l0,0c0.1,0,0.1,0.1,0.2,0.2l0,0c0,0,0,0.1,0.1,0.1l0,0
		c0,0,0.1,0,0.1,0.1l0,0c0.1,0.1,0.1,0.1,0.2,0.2l0,0c0,0,0.1,0,0.1,0.1l0,0c0.1,0,0,0.1,0.1,0.1l0,0c0,0,0.1,0,0.1,0.1l0,0
		c0.1,0,0.1,0.1,0.1,0.1l0,0c0.1,0,0,0.1,0.1,0.1l0,0c0,0,0,0.1,0.1,0.1l0,0c0,0,0,0.1,0.1,0.1l0,0c0,0,0,0.1,0.1,0.1l0,0
		c0,0,0,0.1,0.1,0.1l0,0c0,0,0,0.1,0.1,0.2c0,0,0,0,0,0c0,0,0,0.1,0.1,0.1l0,0c0.1,0.1,0,0.2,0.1,0.2l0,0c0.1,0.1,0,0.2,0.1,0.2
		c0,0,0,0,0,0.1c0.1,0.1,0,0.2,0.1,0.2c0,0,0,0,0,0.1c0,0.1,0,0.2,0.1,0.2c0,0,0,0.1,0,0.1c0.1,0.1,0,0.3,0.1,0.4c0,0,0,0.1,0,0.1
		c0.1,0.2,0.1,0.5,0,0.7l0,0c0,0,0,0.1-0.1,0.1l0,0c0,0,0,0.1-0.1,0.1l0,0c0,0,0,0.1-0.1,0.1l0,0c0,0.1-0.1,0-0.1,0.1l0,0
		c-0.1,0.1-0.3,0-0.4,0c-3,0-6.1,0-9.1,0c-0.4,0-0.4,0-0.4,0.4c0,0,0,0.1,0,0.1c0.1,0.1,0,0.2,0.1,0.2c0,0,0,0,0,0.1
		c0.1,0.1,0,0.2,0.1,0.2l0,0c0.1,0.1,0,0.2,0.1,0.2l0,0c0.1,0.1,0,0.2,0.1,0.2l0,0c0,0,0,0.1,0.1,0.2l0,0c0.1,0,0.1,0.1,0.1,0.2
		c0,0,0,0,0,0c0,0,0.1,0.1,0.1,0.1l0,0l0,0c0,0,0.1,0.1,0.1,0.1c0,0,0,0,0,0c0,0,0,0,0.1,0.1l0,0c0.1,0,0,0.1,0.1,0.1l0,0
		c0,0,0,0.1,0.1,0.1l0,0c0,0,0,0,0.1,0.1l0,0c0.1,0,0,0.1,0.1,0.1l0,0c0,0,0,0.1,0.1,0.1l0,0c0,0,0.1,0,0.1,0.1l0,0
		c0.1,0,0.1,0.1,0.2,0.2l0,0c0,0,0,0,0.1,0.1l0,0c0,0,0,0,0.1,0.1l0,0c0,0,0.1,0,0.1,0.1l0,0c0,0,0.1,0,0.1,0.1l0,0
		c0,0,0.1,0,0.1,0.1l0,0c0,0,0,0,0.1,0.1l0,0c0,0,0,0,0.1,0.1l0,0c0,0,0,0,0.1,0.1l0,0c0,0.1,0.1,0,0.1,0.1l0,0c0,0,0.1,0,0.1,0.1
		l0,0c0,0,0,0,0.1,0.1l0,0c0,0.1,0.1,0,0.1,0.1l0,0c0,0,0.1,0,0.1,0.1c0,0,0,0,0,0c0,0,0.1,0,0.1,0.1l0,0c0,0,0.1,0,0.1,0.1l0,0
		c0,0,0.1,0,0.1,0.1l0,0c0,0,0.1,0,0.1,0.1l0,0c0,0,0.1,0,0.1,0.1c0,0,0,0,0.1,0c0.1,0,0.1,0,0.2,0.1l0,0l0,0c0.1,0,0.1,0,0.2,0.1
		c0,0,0,0,0.1,0c0.1,0.1,0.2,0,0.2,0.1c0,0,0.1,0,0.1,0c0.1,0.1,0.3,0,0.4,0.1c0.3,0,0.5,0,0.8,0c0.1-0.1,0.3,0,0.4-0.1
		c0,0,0.1,0,0.1,0C134.7,33,134.9,33,134.9,33z M138.3,27.3c0-0.1,0-0.1,0-0.2c-0.2-1.3-0.8-2.4-1.8-3.3c-1.4-1.2-3.3-1.4-4.9-0.5
		c-1.4,0.8-2.1,2-2.5,3.5c0,0.2-0.1,0.4-0.1,0.6c3.1,0,6.1,0,9.2,0C138.3,27.4,138.3,27.4,138.3,27.3z"/>
	<path id="XMLID_157_" fill="#3B3B3B" d="M100.3,30.7L100.3,30.7L100.3,30.7c-0.1-0.1,0-0.1-0.1-0.2l0,0c0,0,0-0.1-0.1-0.2
		c0,0,0,0,0,0c0,0,0-0.1-0.1-0.2l0,0c-0.1-0.1,0-0.2-0.1-0.2l0,0c-0.1-0.1,0-0.2-0.1-0.2l0,0l0,0c-0.1-0.1,0-0.2-0.1-0.2l0,0l0,0
		c-0.1-0.1,0-0.3-0.1-0.4c0,0,0,0,0-0.1c-0.1-0.2,0-0.4-0.1-0.7c0-0.2,0-0.4,0-0.5c0.1-0.2,0-0.4,0.1-0.7c0,0,0,0,0-0.1
		c0.1-0.1,0-0.2,0.1-0.3c0,0,0-0.1,0-0.1c0-0.1,0-0.2,0.1-0.2l0,0l0,0c0-0.1,0-0.1,0.1-0.2c0,0,0,0,0-0.1c0.1-0.1,0-0.2,0.1-0.2l0,0
		c0,0,0-0.1,0.1-0.2c0,0,0,0,0-0.1c0-0.1,0-0.1,0.1-0.2l0,0c0,0,0-0.1,0.1-0.1l0,0l0,0c0,0,0-0.1,0.1-0.1c0,0,0,0,0,0
		c0-0.1,0-0.1,0.1-0.2l0,0c0,0,0-0.1,0.1-0.1c0,0,0,0,0,0c0,0,0-0.1,0.1-0.1l0,0c0,0,0-0.1,0.1-0.1l0,0c0,0,0-0.1,0.1-0.1l0,0
		c0,0,0-0.1,0.1-0.1l0,0c0,0,0-0.1,0.1-0.1l0,0c0,0,0-0.1,0.1-0.1l0,0c0.1-0.1,0.1-0.2,0.2-0.2l0,0c0,0,0-0.1,0.1-0.1l0,0
		c0,0,0,0,0.1-0.1l0,0c0,0,0,0,0.1-0.1l0,0c0.1,0,0-0.1,0.1-0.1l0,0c0,0,0-0.1,0.1-0.1l0,0c0,0,0-0.1,0.1-0.1l0,0c0,0,0-0.1,0.1-0.1
		l0,0c0,0,0-0.1,0.1-0.1l0,0c0,0,0-0.1,0.1-0.1l0,0c0-0.1,0.1-0.1,0.2-0.2l0,0c0,0,0,0,0.1-0.1l0,0c0,0,0,0,0.1-0.1l0,0
		c0,0,0-0.1,0.1-0.1l0,0c0-0.1,0.1,0,0.1-0.1l0,0c0,0,0.1,0,0.1-0.1l0,0c0,0,0.1,0,0.1-0.1l0,0c0,0,0.1,0,0.1-0.1l0,0
		c0-0.1,0.1,0,0.1-0.1l0,0c0,0,0.1-0.1,0.1-0.1c0,0,0,0,0,0c0,0,0.1,0,0.1-0.1c0,0,0,0,0.1,0c0,0,0.1,0,0.1-0.1c0,0,0,0,0.1,0
		c0,0,0.1,0,0.1,0c0,0,0,0,0.1,0c0,0,0.1,0,0.1-0.1l0,0c0,0,0.1,0,0.2-0.1c0,0,0,0,0.1,0c0,0,0.1,0,0.2-0.1c0,0,0,0,0.1,0
		c0.1,0,0.1,0,0.2-0.1c0,0,0.1,0,0.1,0c0.1,0,0.2,0,0.2-0.1c0,0,0,0,0.1,0c0.1-0.1,0.3,0,0.4-0.1c0.1,0,0.1,0,0.2,0
		c0.3,0,0.6,0,0.9,0c0.1,0,0.1,0,0.2,0c0.1,0.1,0.3,0,0.4,0.1c0,0,0,0,0.1,0c0.1,0.1,0.2,0,0.2,0.1c0,0,0.1,0,0.1,0
		c0.1,0,0.1,0,0.2,0.1c0,0,0,0,0.1,0c0,0,0.1,0,0.2,0.1c0,0,0,0,0.1,0c0,0,0.1,0,0.2,0.1l0,0c0,0,0.1,0,0.1,0.1c0,0,0,0,0.1,0
		c0,0,0.1,0,0.1,0c0,0,0,0,0.1,0c0,0,0.1,0,0.1,0.1c0,0,0,0,0.1,0c0,0,0.1,0,0.1,0.1c0,0,0,0,0,0c0,0,0.1,0,0.1,0.1l0,0
		c0,0,0.1,0,0.1,0.1l0,0c0,0,0.1,0,0.1,0.1l0,0c0,0,0.1,0,0.1,0.1l0,0c0,0,0,0,0.1,0.1l0,0c0,0.1,0.1,0,0.1,0.1l0,0
		c0,0,0.1,0,0.1,0.1l0,0c0,0,0,0,0.1,0.1l0,0c0,0.1,0.1,0,0.1,0.1l0,0c0,0,0.1,0,0.1,0.1l0,0c0,0,0.1,0,0.1,0.1l0,0
		c0,0,0.1,0,0.1,0.1l0,0c0,0,0.1,0,0.1,0.1l0,0c0,0,0.1,0,0.1,0.1l0,0c0,0,0.1,0,0.1,0.1l0,0c0,0,0.1,0,0.1,0.1l0,0
		c0,0,0.1,0,0.1,0.1l0,0c0,0,0.1,0,0.1,0.1l0,0c0.1,0,0,0.1,0.1,0.1l0,0c0,0,0,0.1,0.1,0.1l0,0c0,0,0.1,0,0.1,0.1l0,0
		c0.1,0.1,0.1,0.1,0.1,0.2l0,0c0,0,0.1,0,0.1,0.1l0,0c0.1,0,0,0.1,0.1,0.1l0,0c0,0,0.1,0,0.1,0.1l0,0c0.1,0,0.1,0.1,0.1,0.1l0,0
		c0.1,0,0,0.1,0.1,0.1l0,0c0,0,0,0.1,0.1,0.1l0,0c0,0,0,0.1,0.1,0.1l0,0c0,0,0,0.1,0.1,0.1l0,0c0,0,0,0.1,0.1,0.1l0,0
		c0,0,0,0.1,0.1,0.2c0,0,0,0,0,0c0,0,0,0.1,0.1,0.1l0,0c0.1,0.1,0,0.2,0.1,0.2l0,0c0.1,0.1,0,0.2,0.1,0.2c0,0,0,0,0,0.1
		c0.1,0.1,0,0.2,0.1,0.2c0,0,0,0,0,0.1c0,0.1,0,0.2,0.1,0.2c0,0,0,0,0,0c0.1,0.1,0,0.3,0.1,0.4c0,0,0,0.1,0,0.1c0,0.2,0.1,0.5,0,0.7
		l0,0c0,0,0,0.1-0.1,0.1l0,0c0,0.1-0.1,0.1-0.1,0.1l0,0c0,0.1-0.1,0-0.1,0.1l0,0c-0.1,0.1-0.3,0-0.4,0c-3.1,0-6.1,0-9.2,0
		c-0.4,0-0.4,0-0.3,0.4c0,0,0,0.1,0,0.1c0,0.1,0,0.2,0.1,0.2c0,0,0,0,0,0.1c0.1,0.1,0,0.2,0.1,0.2l0,0c0.1,0.1,0,0.2,0.1,0.2l0,0
		c0.1,0.1,0,0.2,0.1,0.2l0,0c0,0,0,0.1,0.1,0.2l0,0c0.1,0,0,0.1,0.1,0.2c0,0,0,0,0,0c0,0,0,0.1,0.1,0.1c0,0,0,0,0,0
		c0,0,0,0.1,0.1,0.1c0,0,0,0,0,0c0,0,0,0.1,0.1,0.1l0,0c0.1,0,0,0.1,0.1,0.1l0,0c0,0,0,0.1,0.1,0.1l0,0c0,0,0,0.1,0.1,0.1l0,0
		c0,0,0.1,0,0.1,0.1l0,0c0.1,0,0.1,0.1,0.1,0.1l0,0c0,0,0.1,0,0.1,0.1l0,0c0,0,0.1,0,0.1,0.1l0,0c0.1,0,0,0.1,0.1,0.1l0,0
		c0,0,0,0,0.1,0.1l0,0c0,0,0,0,0.1,0.1l0,0c0,0,0,0,0.1,0.1l0,0c0,0,0.1,0,0.1,0.1l0,0c0,0,0.1,0,0.1,0.1l0,0c0,0,0,0,0.1,0.1l0,0
		c0,0,0,0,0.1,0.1l0,0c0.1,0.1,0.1,0.1,0.2,0.2l0,0c0,0,0.1,0,0.1,0.1l0,0c0,0,0,0,0.1,0.1l0,0c0,0.1,0.1,0,0.1,0.1l0,0
		c0,0,0.1,0,0.1,0.1c0,0,0,0,0,0c0,0,0.1,0,0.1,0.1l0,0c0,0,0.1,0,0.1,0.1l0,0c0,0,0.1,0,0.1,0.1l0,0c0,0,0.1,0,0.1,0.1l0,0
		c0,0,0.1,0,0.1,0.1c0,0,0,0,0.1,0c0.1,0,0.1,0,0.2,0.1c0,0,0,0,0,0c0.1,0,0.1,0,0.2,0.1c0,0,0,0,0.1,0c0.1,0.1,0.2,0,0.2,0.1
		c0,0,0.1,0,0.1,0c0.1,0.1,0.3,0,0.4,0.1c0.3,0,0.5,0,0.8,0c0.1-0.1,0.3,0,0.5-0.1c0,0,0.1,0,0.1,0c0.1-0.1,0.2,0,0.3-0.1
		c0,0,0,0,0.1,0c0.1-0.1,0.2,0,0.2-0.1c0,0,0,0,0.1,0c0,0,0.1,0,0.1-0.1l0,0c0,0,0.1,0,0.2-0.1c0,0,0,0,0,0c0,0,0.1,0,0.1-0.1l0,0
		c0,0,0.1,0,0.1-0.1l0,0c0,0,0.1,0,0.1-0.1l0,0c0,0,0.1,0,0.1-0.1l0,0c0,0,0,0,0.1-0.1l0,0c0-0.1,0.1,0,0.1-0.1l0,0
		c0,0,0-0.1,0.1-0.1l0,0c0-0.1,0.1,0,0.1-0.1l0,0c0,0,0.1,0,0.1-0.1l0,0c0,0,0,0,0.1-0.1l0,0c0,0,0-0.1,0.1-0.1l0,0
		c0,0,0-0.1,0.1-0.1l0,0c0,0,0-0.1,0.1-0.1l0,0c0,0,0-0.1,0.1-0.1l0,0c0,0,0-0.1,0.1-0.1l0,0c0,0,0-0.1,0.1-0.1l0,0
		c0,0,0-0.1,0.1-0.1l0,0c0,0,0-0.1,0.1-0.1l0,0c0,0,0-0.1,0.1-0.1l0,0c0,0,0-0.1,0.1-0.1l0,0c0,0,0-0.1,0.1-0.1l0,0
		c0,0,0-0.1,0.1-0.1l0,0c0,0,0-0.1,0.1-0.1l0,0c0,0,0-0.1,0.1-0.1l0,0c0-0.1,0.1,0,0.1-0.1l0,0c0.1-0.1,0.3-0.1,0.4,0l0,0
		c0,0,0.1,0,0.1,0.1l0,0c0.1,0,0,0.1,0.1,0.1l0,0c0,0,0,0.1,0.1,0.2c0,0.1,0,0.1,0,0.2c0,0.1,0,0.1-0.1,0.2l0,0c0,0,0,0.1-0.1,0.1
		l0,0c0,0,0,0.1-0.1,0.1l0,0c0,0,0,0.1-0.1,0.1l0,0c-0.1,0.1-0.1,0.2-0.2,0.2l0,0c0,0,0,0.1-0.1,0.1l0,0c0,0,0,0.1-0.1,0.1l0,0
		c-0.2,0.2-0.3,0.4-0.6,0.6l0,0c0,0,0,0.1-0.1,0.1l0,0c0,0,0,0.1-0.1,0.1l0,0c0,0.1-0.1,0-0.1,0.1l0,0c0,0,0,0.1-0.1,0.1l0,0
		c-0.1,0.1-0.1,0.1-0.2,0.1l0,0c0,0.1-0.1,0-0.1,0.1l0,0c-0.2,0.1-0.4,0.2-0.6,0.3l0,0c0,0-0.1,0-0.1,0.1l0,0c0,0.1-0.2,0-0.2,0.1
		l0,0c-0.1,0-0.1,0-0.2,0.1l0,0l0,0c-0.1,0.1-0.2,0-0.2,0.1l0,0c-0.1,0.1-0.2,0-0.2,0.1l0,0l0,0c-0.1,0.1-0.2,0-0.3,0.1l0,0l0,0
		c-0.1,0.1-0.3,0-0.5,0.1l0,0l0,0c-0.4,0.1-0.8,0.1-1.2,0l0,0l0,0c-0.1-0.1-0.3,0-0.4-0.1l0,0c-0.1-0.1-0.2,0-0.3-0.1l0,0
		c-0.1-0.1-0.2,0-0.3-0.1l0,0c-0.1,0-0.2,0-0.2-0.1l0,0c0,0-0.1,0-0.2-0.1l0,0c-0.1-0.1-0.2,0-0.2-0.1l0,0c-0.1,0-0.1,0-0.1-0.1l0,0
		c0,0-0.1,0-0.1-0.1l0,0c0,0-0.1,0-0.1-0.1l0,0c0,0-0.1,0-0.1-0.1l0,0c0,0-0.1,0-0.1-0.1l0,0c-0.1,0-0.2-0.1-0.2-0.1l0,0
		c-0.1,0-0.2-0.1-0.2-0.2l0,0c0,0-0.1,0-0.1-0.1l0,0c-0.1-0.1-0.2-0.1-0.3-0.2l0,0c0,0-0.1,0-0.1-0.1l0,0c0,0-0.1,0-0.1-0.1l0,0
		c0,0-0.1,0-0.1-0.1l0,0c0,0-0.1,0-0.1-0.1l0,0c0,0-0.1,0-0.1-0.1l0,0c0,0-0.1,0-0.1-0.1l0,0c-0.1-0.1-0.2-0.2-0.2-0.3l0,0
		c0,0-0.1,0-0.1-0.1l0,0c-0.1-0.1-0.1-0.1-0.2-0.2l0,0c0,0-0.1,0-0.1-0.1l0,0c-0.1,0,0-0.1-0.1-0.1l0,0c0,0-0.1,0-0.1-0.1l0,0
		c-0.1,0,0-0.1-0.1-0.1l0,0c0,0,0-0.1-0.1-0.1l0,0c0,0-0.1,0-0.1-0.1l0,0c-0.1,0-0.1-0.1-0.1-0.1l0,0c-0.1,0-0.1-0.1-0.1-0.1l0,0
		C100.3,30.8,100.3,30.7,100.3,30.7z M110,27.1c-0.2-1.2-0.8-2.3-1.7-3.1c-1.4-1.3-3.5-1.5-5.1-0.5c-1.3,0.8-2,2-2.4,3.4
		c0,0.2-0.1,0.4-0.1,0.6c3.1,0,6.2,0,9.3,0C110,27.3,110,27.2,110,27.1z"/>
	<path id="XMLID_155_" fill="#3B3B3B" d="M61.2,32.9C61.3,32.9,61.3,32.9,61.2,32.9c0.1,0,0.2,0,0.2-0.1l0,0c0,0,0.1,0,0.2-0.1
		c0,0,0,0,0,0c0,0,0.1,0,0.1-0.1l0,0c0,0,0.1,0,0.1-0.1l0,0c0,0,0.1,0,0.1-0.1l0,0c0,0,0.1,0,0.1-0.1l0,0c0,0,0,0,0.1-0.1l0,0
		c0-0.1,0.1,0,0.1-0.1l0,0c0,0,0-0.1,0.1-0.1l0,0c0-0.1,0.1,0,0.1-0.1l0,0c0,0,0.1,0,0.1-0.1l0,0c0,0,0,0,0.1-0.1l0,0
		c0,0,0-0.1,0.1-0.1l0,0c0,0,0-0.1,0.1-0.1l0,0c0,0,0-0.1,0.1-0.1l0,0c0,0,0-0.1,0.1-0.1l0,0c0,0,0-0.1,0.1-0.1l0,0
		c0,0,0-0.1,0.1-0.1l0,0c0,0,0-0.1,0.1-0.1l0,0c0,0,0-0.1,0.1-0.1l0,0c0,0,0-0.1,0.1-0.1l0,0c0.1-0.1,0.1-0.1,0.2-0.2l0,0
		c0,0,0-0.1,0.1-0.1l0,0c0,0,0-0.1,0.1-0.1l0,0c0,0,0-0.1,0.1-0.1l0,0c0-0.1,0.1,0,0.1-0.1l0,0c0.1-0.1,0.3-0.1,0.4,0l0,0
		c0,0,0.1,0,0.1,0.1l0,0c0.1,0,0,0.1,0.1,0.1l0,0c0,0,0,0.1,0.1,0.2c0,0.1,0,0.1,0,0.2c0,0.1,0,0.1-0.1,0.2l0,0c0,0,0,0.1-0.1,0.1
		l0,0c0,0,0,0.1-0.1,0.1l0,0c0,0,0,0.1-0.1,0.1l0,0c-0.1,0.1-0.1,0.2-0.2,0.2l0,0c0,0,0,0.1-0.1,0.1l0,0c0,0,0,0.1-0.1,0.1l0,0
		c-0.2,0.2-0.3,0.4-0.6,0.6l0,0c0,0,0,0.1-0.1,0.1l0,0c0,0,0,0.1-0.1,0.1l0,0c0,0.1-0.1,0-0.1,0.1l0,0c0,0,0,0.1-0.1,0.1l0,0
		c-0.1,0.1-0.1,0.1-0.2,0.1l0,0c0,0.1-0.1,0-0.1,0.1l0,0c-0.2,0.1-0.4,0.2-0.6,0.3l0,0c0,0-0.1,0-0.1,0.1l0,0
		c-0.1,0.1-0.2,0-0.2,0.1l0,0c-0.1,0-0.1,0-0.2,0.1l0,0l0,0c-0.1,0.1-0.2,0-0.2,0.1l0,0c-0.1,0.1-0.2,0-0.2,0.1l0,0l0,0
		c-0.1,0.1-0.2,0-0.3,0.1l0,0l0,0c-0.1,0.1-0.3,0-0.5,0.1l0,0l0,0c-0.4,0.1-0.8,0.1-1.2,0l0,0l0,0c-0.1-0.1-0.3,0-0.5-0.1l0,0
		c-0.1-0.1-0.2,0-0.3-0.1l0,0c-0.1-0.1-0.2,0-0.3-0.1l0,0c-0.1,0-0.2,0-0.2-0.1l0,0c0,0-0.1,0-0.2-0.1l0,0c-0.1-0.1-0.2,0-0.2-0.1
		l0,0c-0.1,0-0.1,0-0.1-0.1l0,0c0,0-0.1,0-0.1-0.1l0,0c0,0-0.1,0-0.1-0.1l0,0c0,0-0.1,0-0.1-0.1l0,0c0,0-0.1,0-0.1-0.1l0,0
		c-0.1,0-0.2-0.1-0.2-0.1l0,0c-0.1,0-0.2-0.1-0.2-0.2l0,0c0,0-0.1,0-0.1-0.1l0,0c0,0-0.1,0-0.1-0.1l0,0c-0.1-0.1-0.2-0.1-0.3-0.2
		l0,0c0,0-0.1,0-0.1-0.1l0,0c0,0-0.1,0-0.1-0.1l0,0c0,0-0.1,0-0.1-0.1l0,0c0,0-0.1,0-0.1-0.1l0,0c0,0-0.1,0-0.1-0.1l0,0
		c-0.1-0.1-0.2-0.2-0.2-0.3l0,0c0,0-0.1,0-0.1-0.1l0,0c-0.1-0.1-0.1-0.1-0.2-0.2l0,0c0,0-0.1,0-0.1-0.1l0,0c-0.1,0,0-0.1-0.1-0.1
		l0,0c0,0-0.1,0-0.1-0.1l0,0c-0.1,0,0-0.1-0.1-0.1l0,0c0,0,0-0.1-0.1-0.1l0,0c0,0-0.1,0-0.1-0.1l0,0c-0.1,0-0.1-0.1-0.1-0.1l0,0
		c-0.1,0-0.1-0.1-0.1-0.1l0,0c-0.1,0-0.1-0.1-0.1-0.2l0,0l0,0c0,0,0-0.1-0.1-0.1l0,0c0,0,0-0.1-0.1-0.2c0,0,0,0,0,0
		c0,0,0-0.1-0.1-0.2l0,0c-0.1-0.1,0-0.2-0.1-0.2c0,0,0,0,0-0.1c0-0.1,0-0.1-0.1-0.2l0,0l0,0c-0.1-0.1,0-0.2-0.1-0.3l0,0
		c-0.1-0.1,0-0.3-0.1-0.4c0,0,0,0,0-0.1c-0.1-0.2,0-0.4-0.1-0.7c0-0.2,0-0.3,0-0.5c0.1-0.2,0-0.4,0.1-0.7c0,0,0,0,0-0.1
		c0.1-0.1,0-0.2,0.1-0.3c0,0,0-0.1,0-0.1c0-0.1,0-0.2,0.1-0.2l0,0l0,0c0-0.1,0-0.1,0.1-0.2c0,0,0,0,0-0.1c0.1-0.1,0-0.2,0.1-0.2l0,0
		c0,0,0-0.1,0.1-0.2c0,0,0,0,0,0c0-0.1,0-0.1,0.1-0.2l0,0c0,0,0-0.1,0.1-0.1l0,0l0,0c0,0,0-0.1,0.1-0.1c0,0,0,0,0,0
		c0,0,0-0.1,0.1-0.1c0,0,0,0,0,0c0,0,0-0.1,0.1-0.1c0,0,0,0,0,0c0,0,0-0.1,0.1-0.1l0,0c0,0,0-0.1,0.1-0.1l0,0c0,0,0-0.1,0.1-0.1l0,0
		c0,0,0-0.1,0.1-0.1l0,0c0,0,0-0.1,0.1-0.1l0,0c0,0,0-0.1,0.1-0.1l0,0c0.1-0.1,0.1-0.2,0.2-0.2l0,0c0,0,0-0.1,0.1-0.1l0,0
		c0,0,0-0.1,0.1-0.1l0,0c0,0,0,0,0.1-0.1l0,0c0.1,0,0-0.1,0.1-0.1l0,0c0,0,0-0.1,0.1-0.1l0,0c0,0,0-0.1,0.1-0.1l0,0
		c0,0,0-0.1,0.1-0.1l0,0c0,0,0-0.1,0.1-0.1l0,0c0,0,0-0.1,0.1-0.1l0,0c0-0.1,0.1-0.1,0.2-0.2l0,0c0,0,0,0,0.1-0.1l0,0
		c0,0,0,0,0.1-0.1l0,0c0,0,0-0.1,0.1-0.1l0,0c0-0.1,0.1,0,0.1-0.1l0,0c0,0,0.1,0,0.1-0.1l0,0c0,0,0.1,0,0.1-0.1l0,0
		c0,0,0.1,0,0.1-0.1l0,0c0-0.1,0.1,0,0.1-0.1l0,0c0,0,0.1-0.1,0.1-0.1c0,0,0,0,0,0c0,0,0.1,0,0.1-0.1c0,0,0,0,0.1,0
		c0,0,0.1,0,0.1-0.1c0,0,0,0,0.1,0c0,0,0.1,0,0.1-0.1c0,0,0,0,0,0c0,0,0.1,0,0.1-0.1l0,0c0,0,0.1,0,0.2-0.1c0,0,0,0,0.1,0
		c0,0,0.1,0,0.2-0.1c0,0,0,0,0.1,0c0.1-0.1,0.2,0,0.2-0.1c0,0,0,0,0.1,0c0.1,0,0.2,0,0.2-0.1c0,0,0,0,0.1,0c0.1-0.1,0.3,0,0.4-0.1
		c0.1,0,0.1,0,0.2,0c0.3,0,0.6,0,0.9,0c0.1,0,0.1,0,0.2,0c0.1,0.1,0.3,0,0.4,0.1c0,0,0,0,0.1,0c0.1,0.1,0.2,0,0.2,0.1
		c0,0,0.1,0,0.1,0c0.1,0,0.1,0,0.2,0.1c0,0,0,0,0.1,0c0,0,0.1,0,0.2,0.1c0,0,0,0,0.1,0c0,0,0.1,0,0.2,0.1l0,0c0,0,0.1,0,0.1,0.1
		c0,0,0,0,0.1,0c0,0,0.1,0,0.1,0c0,0,0,0,0.1,0c0,0,0.1,0,0.2,0.1l0,0c0,0,0.1,0,0.1,0.1c0,0,0,0,0,0c0,0,0.1,0,0.1,0.1l0,0
		c0,0,0.1,0,0.1,0.1l0,0c0,0,0.1,0,0.1,0.1l0,0c0,0,0.1,0,0.1,0.1l0,0c0,0,0,0,0.1,0.1l0,0c0,0.1,0.1,0,0.1,0.1l0,0
		c0,0,0.1,0,0.1,0.1l0,0c0,0,0,0,0.1,0.1l0,0c0,0.1,0.1,0,0.1,0.1l0,0c0,0,0.1,0,0.1,0.1l0,0c0,0,0.1,0,0.1,0.1l0,0
		c0,0,0.1,0,0.1,0.1l0,0c0,0,0.1,0,0.1,0.1l0,0c0,0,0.1,0,0.1,0.1l0,0c0,0,0.1,0,0.1,0.1l0,0c0,0,0.1,0,0.1,0.1l0,0
		c0,0,0.1,0,0.1,0.1l0,0c0,0,0.1,0,0.1,0.1l0,0c0.1,0,0,0.1,0.1,0.1l0,0c0,0,0,0.1,0.1,0.1l0,0c0,0,0.1,0,0.1,0.1l0,0
		c0,0,0.1,0,0.1,0.1l0,0c0.1,0,0.1,0.1,0.1,0.1l0,0c0,0,0.1,0,0.1,0.1l0,0c0.1,0,0,0.1,0.1,0.1l0,0c0,0,0.1,0,0.1,0.1l0,0
		c0.1,0,0.1,0.1,0.1,0.1l0,0c0.1,0,0,0.1,0.1,0.1l0,0c0,0,0,0.1,0.1,0.1l0,0c0,0,0,0.1,0.1,0.1l0,0c0,0,0,0.1,0.1,0.1l0,0
		c0,0,0,0.1,0.1,0.1l0,0c0,0,0,0.1,0.1,0.2c0,0,0,0,0,0c0,0,0,0.1,0.1,0.1l0,0c0.1,0.1,0,0.2,0.1,0.2l0,0c0.1,0.1,0,0.2,0.1,0.2
		c0,0,0,0,0,0.1c0,0.1,0,0.2,0.1,0.2l0,0c0.1,0.1,0,0.2,0.1,0.3c0,0,0,0,0,0c0.1,0.1,0,0.3,0.1,0.4c0,0,0,0.1,0,0.1
		c0,0.2,0.1,0.5,0,0.7l0,0c0,0,0,0.1-0.1,0.1l0,0c0,0.1-0.1,0.1-0.1,0.1l0,0c0,0.1-0.1,0-0.1,0.1l0,0c-0.1,0.1-0.3,0-0.4,0
		c-3.1,0-6.1,0-9.2,0c-0.4,0-0.4,0-0.4,0.4c0,0,0,0.1,0,0.1c0,0.1,0,0.2,0.1,0.2c0,0,0,0,0,0.1c0.1,0.1,0,0.2,0.1,0.2l0,0
		c0.1,0.1,0,0.2,0.1,0.2l0,0c0,0,0,0.1,0.1,0.2l0,0l0,0c0,0,0,0.1,0.1,0.2l0,0c0.1,0,0,0.1,0.1,0.2c0,0,0,0,0,0c0,0,0,0.1,0.1,0.1
		c0,0,0,0,0,0c0,0,0,0,0,0.1l0,0c0.1,0,0.1,0.1,0.1,0.1l0,0c0.1,0,0,0.1,0.1,0.1l0,0c0,0,0,0.1,0.1,0.1l0,0c0,0,0,0.1,0.1,0.1l0,0
		c0,0,0.1,0,0.1,0.1l0,0c0.1,0,0.1,0.1,0.1,0.1l0,0c0,0,0.1,0,0.1,0.1l0,0c0,0,0.1,0,0.1,0.1l0,0c0.1,0,0,0.1,0.1,0.1l0,0
		c0,0,0,0,0.1,0.1l0,0c0,0,0,0,0.1,0.1l0,0c0,0,0,0,0.1,0.1l0,0c0,0,0.1,0,0.1,0.1l0,0c0,0,0.1,0,0.1,0.1l0,0c0,0,0,0,0.1,0.1l0,0
		c0,0,0,0,0.1,0.1l0,0c0.1,0.1,0.1,0.1,0.2,0.2l0,0c0,0,0.1,0,0.1,0.1l0,0c0,0,0,0,0.1,0.1l0,0c0,0.1,0.1,0,0.1,0.1l0,0
		c0,0,0,0,0.1,0.1c0,0,0,0,0,0c0,0,0.1,0,0.1,0.1l0,0c0,0,0.1,0,0.1,0.1l0,0c0,0,0.1,0,0.1,0.1l0,0c0,0,0.1,0,0.1,0.1l0,0
		c0,0,0.1,0,0.1,0.1c0,0,0,0,0.1,0c0.1,0,0.1,0,0.2,0.1c0,0,0,0,0,0c0.1,0,0.1,0,0.2,0.1c0,0,0,0,0.1,0c0.1,0.1,0.2,0,0.2,0.1
		c0,0,0.1,0,0.1,0c0.1,0.1,0.3,0,0.4,0.1c0.3,0,0.5,0,0.8,0c0.1-0.1,0.3,0,0.5-0.1c0,0,0.1,0,0.1,0c0.1-0.1,0.2,0,0.3-0.1
		c0,0,0,0,0.1,0C61.1,32.9,61.2,33,61.2,32.9z M63.1,24.5c-1.6-2-4.4-2.2-6.3-0.6c-0.9,0.8-1.4,1.8-1.7,2.9c0,0.2-0.1,0.4-0.1,0.6
		c0.4,0,8.9,0,9.3,0C64.2,26.3,63.8,25.3,63.1,24.5z"/>
</g>
</svg>
