<?xml version="1.0" encoding="utf-8"?>
<!-- Generator: Adobe Illustrator 19.0.0, SVG Export Plug-In . SVG Version: 6.00 Build 0)  -->
<svg version="1.1" id="Layer_1" xmlns="http://www.w3.org/2000/svg" xmlns:xlink="http://www.w3.org/1999/xlink" x="0px" y="0px"
	 viewBox="-379 256 200 50" style="enable-background:new -379 256 200 50;" xml:space="preserve">
<style type="text/css">
	.st0{fill:#3B3B3B;}
	.st1{opacity:0.6;enable-background:new    ;}
	.st2{opacity:0.45;enable-background:new    ;}
	.st3{opacity:0.8;enable-background:new    ;}
</style>
<g id="Layer_1_1_">
	<g id="Layer_2_1_">
		<g id="Layer_1-2">
			<path class="st0" d="M-308.9,283.2c0,0.3-0.3,0.4-0.4,0.4h-8.5c0.3,2.1,1.9,4,4,4c1.5,0,2.7-0.5,3.5-1.9c0.1-0.1,0.3-0.3,0.4-0.3
				c0.3,0,0.4,0.1,0.4,0.4l0,0c0,0.1,0,0.1,0,0.3c-0.8,1.5-2.5,2.3-4.3,2.3c-2.9,0-4.9-2.5-4.9-5.3s2-5.3,4.9-5.3
				S-309.1,280.6-308.9,283.2L-308.9,283.2z M-309.9,282.8c-0.1-2.1-1.9-4-4-4c-2.3,0-3.9,1.9-4,4H-309.9z"/>
			<path class="st0" d="M-298.7,278.2c0.3,0,0.4,0.1,0.4,0.4c0,0.3-0.1,0.4-0.4,0.4l0,0h-2.3v8.9c0,0.3-0.1,0.4-0.4,0.4
				s-0.4-0.1-0.4-0.4V279h-2.1c-0.3,0-0.4-0.1-0.4-0.4l0,0c0-0.3,0.1-0.4,0.4-0.4h2.1v-3.3c0-0.3,0.1-0.4,0.4-0.4
				c0.3,0,0.4,0.1,0.5,0.4l0,0v3.3H-298.7z"/>
			<path class="st0" d="M-284.7,282.6v5.5c0,0.3-0.1,0.4-0.4,0.4c-0.3,0-0.4-0.1-0.4-0.4l0,0v-5.5c0-1.9-1.1-3.6-3.1-3.6
				c-2.7,0-3.7,2.3-3.6,4.7v0.4v4.1c0,0.3-0.1,0.4-0.4,0.4s-0.4-0.1-0.5-0.4l0,0v-17.8c0-0.3,0.1-0.4,0.4-0.4c0.3,0,0.4,0.1,0.4,0.4
				v10.1c0.7-1.3,2-2.1,3.6-2.1C-286.2,278.1-284.7,280.2-284.7,282.6z"/>
			<path class="st0" d="M-269.4,283.2c0,0.3-0.3,0.4-0.4,0.4h-8.5c0.3,2.1,1.9,4,4,4c1.5,0,2.7-0.5,3.5-1.9c0.1-0.1,0.3-0.3,0.4-0.3
				c0.3,0,0.4,0.1,0.4,0.4l0,0c0,0.1,0,0.1,0,0.3c-0.8,1.5-2.5,2.3-4.3,2.3c-2.9,0-4.9-2.5-4.9-5.3s2-5.3,4.9-5.3
				C-271.6,278.1-269.4,280.6-269.4,283.2L-269.4,283.2z M-270.4,282.8c-0.1-2.1-1.9-4-4-4c-2.1,0-3.9,1.9-4,4H-270.4z"/>
			<path class="st0" d="M-258.9,278.6c0,0.3-0.1,0.4-0.4,0.4c-2.5,0.4-3.6,2.4-3.6,4.8v4.1c0,0.3-0.1,0.4-0.4,0.4
				c-0.3,0-0.4-0.1-0.5-0.4l0,0v-9.3c0-0.3,0.1-0.4,0.4-0.4c0.3,0,0.4,0.1,0.5,0.4l0,0v1.9c0.7-1.2,2.1-2.3,3.6-2.3
				C-259.2,278.2-258.9,278.3-258.9,278.6z"/>
			<path class="st0" d="M-245,283.2c0,0.3-0.3,0.4-0.4,0.4h-8.5c0.3,2.1,1.9,4,4,4c1.5,0,2.7-0.5,3.5-1.9c0.1-0.1,0.3-0.3,0.4-0.3
				c0.3,0,0.4,0.1,0.4,0.4l0,0c0,0.1,0,0.1,0,0.3c-0.8,1.5-2.5,2.3-4.3,2.3c-2.9,0-4.9-2.5-4.9-5.3s2-5.3,4.9-5.3
				C-247.1,278.1-245,280.6-245,283.2L-245,283.2z M-245.9,282.8c-0.1-2.1-1.9-4-4-4c-2.3,0-3.9,1.9-4,4H-245.9z"/>
			<path class="st0" d="M-231.3,278.7v9.3c0,0.3-0.1,0.4-0.4,0.4s-0.4-0.1-0.4-0.4l0,0v-1.7c-0.7,1.5-2,2.4-3.6,2.4
				c-2.5,0-4-2.1-4-4.5v-5.5c0-0.3,0.1-0.4,0.4-0.4s0.4,0.1,0.4,0.4v5.5c0,1.9,1.1,3.6,3.1,3.6c2.9,0,3.6-2.7,3.6-5.6v-3.5
				c0-0.3,0.1-0.4,0.4-0.4h0.1C-231.4,278.3-231.3,278.6-231.3,278.7z"/>
			<path class="st0" d="M-209.7,282.4v5.5c0,0.3-0.1,0.4-0.4,0.4s-0.4-0.1-0.4-0.4l0,0v-5.5c0-1.9-1.1-3.6-3.1-3.6
				c-2.5,0-3.6,2.8-3.6,4.9v4.3c0,0.3-0.1,0.4-0.4,0.4s-0.4-0.1-0.4-0.4l0,0v-5.5c0-1.9-1.1-3.6-3.1-3.6c-2.5,0-3.6,2-3.6,4.8
				c0,0,0,0.1,0,0.3v4.1c0,0.3-0.1,0.4-0.4,0.4s-0.4-0.1-0.5-0.4l0,0v-9.3c0-0.3,0.1-0.4,0.4-0.4s0.4,0.1,0.5,0.4l0,0v1.6
				c0.8-1.3,2-2.1,3.6-2.1c1.7,0,3.1,1.1,3.6,2.7c0.7-1.6,2.1-2.7,3.9-2.7C-211.2,278.1-209.7,280.2-209.7,282.4L-209.7,282.4z"/>
			<path class="st1" d="M-337.7,276.2l-10.6,4.8l10.6,6.3l10.6-6.3L-337.7,276.2z"/>
			<path class="st2" d="M-348.3,281l10.6,6.3v-23.9L-348.3,281z"/>
			<path class="st3" d="M-337.7,263.3v23.9l10.6-6.3L-337.7,263.3z"/>
			<path class="st2" d="M-348.3,283l10.6,15v-8.8L-348.3,283z"/>
			<path class="st3" d="M-337.7,289.4v8.8l10.6-15L-337.7,289.4z"/>
		</g>
	</g>
</g>
<g id="Layer_2">
</g>
</svg>
