<?xml version="1.0" encoding="utf-8"?>
<!-- Generator: Adobe Illustrator 19.0.0, SVG Export Plug-In . SVG Version: 6.00 Build 0)  -->
<svg version="1.1" id="Hap" xmlns="http://www.w3.org/2000/svg" xmlns:xlink="http://www.w3.org/1999/xlink" x="0px" y="0px"
	 viewBox="0 0 32 32" style="enable-background:new 0 0 32 32;" xml:space="preserve">
<style type="text/css">
	.st0{fill:url(#Circle_1_);}
	.st1{fill:#FFFFFF;}
</style>
<linearGradient id="Circle_1_" gradientUnits="userSpaceOnUse" x1="26.2094" y1="26.1906" x2="5.8439" y2="5.8251" gradientTransform="matrix(1 0 0 -1 0 32)">
	<stop  offset="0" style="stop-color:#2F68FB"/>
	<stop  offset="1" style="stop-color:#3723C3"/>
</linearGradient>
<path id="Circle" class="st0" d="M16,30.4L16,30.4C8,30.4,1.6,24,1.6,16l0,0C1.6,8.1,8,1.6,16,1.6l0,0C24,1.6,30.4,8,30.4,16l0,0
	C30.4,24,24,30.4,16,30.4z"/>
<path id="Icon" class="st1" d="M19.1,24.8V14.6c0-0.6,0-1.1-0.1-1.6s-0.2-0.9-0.5-1.2c-0.2-0.3-0.5-0.6-0.9-0.7
	c-0.4-0.2-0.8-0.3-1.3-0.3c-0.6,0-1,0.1-1.5,0.3c-0.4,0.2-0.8,0.5-1,0.9c-0.3,0.4-0.5,0.7-0.6,1.2c-0.1,0.4-0.2,0.9-0.2,1.3v6.1h-1
	V10.1h0.9v2l0,0c0.2-0.5,0.5-0.9,0.8-1.2s0.6-0.5,0.9-0.7c0.3-0.2,0.6-0.3,1-0.3c0.3,0,0.6-0.1,0.9-0.1c0.6,0,1.1,0.1,1.5,0.3
	s0.8,0.5,1.1,0.8c0.3,0.4,0.5,0.8,0.7,1.3c0.1,0.5,0.2,1.1,0.2,1.8v10.7L19.1,24.8L19.1,24.8z"/>
</svg>
