<?xml version="1.0" encoding="utf-8"?>
<!-- Generator: Adobe Illustrator 19.0.0, SVG Export Plug-In . SVG Version: 6.00 Build 0)  -->
<svg version="1.1" xmlns="http://www.w3.org/2000/svg" xmlns:xlink="http://www.w3.org/1999/xlink" x="0px" y="0px"
	 viewBox="0 0 32 32" style="enable-background:new 0 0 32 32;" xml:space="preserve">
<g id="Hap" style="display:none;">
	<linearGradient id="XMLID_83_" gradientUnits="userSpaceOnUse" x1="26.1833" y1="5.8209" x2="5.8178" y2="26.1864">
		<stop  offset="0" style="stop-color:#2F68FB"/>
		<stop  offset="1" style="stop-color:#3723C3"/>
	</linearGradient>
	<path id="XMLID_411_" style="fill:url(#XMLID_83_);" d="M16,30.4L16,30.4C8,30.4,1.6,24,1.6,16v0C1.6,8.1,8,1.6,16,1.6h0
		c8,0,14.4,6.4,14.4,14.4v0C30.4,24,24,30.4,16,30.4z"/>
	<g id="XMLID_1027_">
		<path id="XMLID_1028_" style="display:inline;fill:#FFFFFF;" d="M19.1,24.8V14.6c0-0.6,0-1.1-0.1-1.6c-0.1-0.5-0.2-0.9-0.5-1.2
			c-0.2-0.3-0.5-0.6-0.9-0.7c-0.4-0.2-0.8-0.3-1.3-0.3c-0.6,0-1,0.1-1.5,0.3c-0.4,0.2-0.8,0.5-1,0.9c-0.3,0.4-0.5,0.7-0.6,1.2
			c-0.1,0.4-0.2,0.9-0.2,1.3v6.1H12V10.1l0.9,0c0,0,0,2,0,2h0c0.2-0.5,0.5-0.9,0.8-1.2c0.3-0.3,0.6-0.5,0.9-0.7
			c0.3-0.2,0.6-0.3,1-0.3c0.3,0,0.6-0.1,0.9-0.1c0.6,0,1.1,0.1,1.5,0.3c0.4,0.2,0.8,0.5,1.1,0.8c0.3,0.4,0.5,0.8,0.7,1.3
			c0.1,0.5,0.2,1.1,0.2,1.8v10.7H19.1z"/>
	</g>
</g>
<g id="OP" style="display:none;">
	<circle id="XMLID_58_" style="fill:#FF0420;" cx="16" cy="16" r="15.2"/>
	<linearGradient id="XMLID_84_" gradientUnits="userSpaceOnUse" x1="26.7083" y1="5.2917" x2="5.2455" y2="26.7545">
		<stop  offset="8.000197e-008" style="stop-color:#FF0420"/>
		<stop  offset="1" style="stop-color:#9F0420"/>
	</linearGradient>
	<path id="XMLID_9_" style="display:inline;fill:url(#XMLID_84_);" d="M16,31.2L16,31.2C7.6,31.2,0.8,24.4,0.8,16v0
		C0.8,7.6,7.6,0.8,16,0.8h0c8.4,0,15.2,6.8,15.2,15.2v0C31.2,24.4,24.4,31.2,16,31.2z"/>
	<path id="XMLID_67_" style="display:inline;fill:#FFFFFF;" d="M11.5,20.1c-0.9,0-1.6-0.2-2.2-0.6c-0.6-0.4-0.9-1.1-0.9-1.8
		c0-0.2,0-0.4,0.1-0.6c0.1-0.5,0.2-1.2,0.4-2c0.5-2.1,1.9-3.1,4-3.1c0.6,0,1.1,0.1,1.6,0.3c0.5,0.2,0.8,0.5,1.1,0.9
		c0.3,0.4,0.4,0.8,0.4,1.4c0,0.2,0,0.4-0.1,0.6c-0.1,0.7-0.2,1.3-0.4,2c-0.3,1-0.7,1.8-1.4,2.3C13.5,19.8,12.6,20.1,11.5,20.1z
		 M11.7,18.4c0.4,0,0.8-0.1,1.1-0.4c0.3-0.2,0.5-0.6,0.6-1.2c0.2-0.7,0.3-1.3,0.4-1.9c0-0.2,0-0.3,0-0.5c0-0.7-0.4-1-1.1-1
		c-0.4,0-0.8,0.1-1.1,0.4c-0.3,0.2-0.5,0.6-0.6,1.2c-0.1,0.5-0.3,1.1-0.4,1.9c0,0.2,0,0.3,0,0.5C10.6,18.1,11,18.4,11.7,18.4z"/>
	<path id="XMLID_60_" style="display:inline;fill:#FFFFFF;" d="M16.5,20c-0.1,0-0.1,0-0.2-0.1c0-0.1,0-0.1,0-0.2l1.6-7.4
		c0-0.1,0.1-0.2,0.1-0.2c0.1-0.1,0.1-0.1,0.2-0.1h3c0.8,0,1.5,0.2,2,0.5c0.5,0.4,0.8,0.9,0.8,1.5c0,0.2,0,0.4-0.1,0.6
		c-0.2,0.9-0.6,1.5-1.2,1.9c-0.6,0.4-1.4,0.6-2.3,0.6h-1.5l-0.5,2.5c0,0.1-0.1,0.2-0.1,0.2c-0.1,0.1-0.1,0.1-0.2,0.1H16.5z
		 M20.6,15.6c0.3,0,0.6-0.1,0.8-0.3c0.2-0.2,0.4-0.4,0.5-0.8c0-0.1,0-0.2,0-0.3c0-0.2-0.1-0.4-0.2-0.5c-0.1-0.1-0.4-0.2-0.7-0.2
		h-1.4l-0.4,2H20.6z"/>
</g>
<g id="DAI" style="display:none;">
	<linearGradient id="XMLID_85_" gradientUnits="userSpaceOnUse" x1="26.7083" y1="5.2917" x2="5.2455" y2="26.7545">
		<stop  offset="0" style="stop-color:#F5AC37"/>
		<stop  offset="1" style="stop-color:#CF8037"/>
	</linearGradient>
	<path id="XMLID_59_" style="display:inline;fill:url(#XMLID_85_);" d="M16,31.2L16,31.2C7.6,31.2,0.8,24.4,0.8,16v0
		C0.8,7.6,7.6,0.8,16,0.8h0c8.4,0,15.2,6.8,15.2,15.2v0C31.2,24.4,24.4,31.2,16,31.2z"/>
	<path id="XMLID_69_" style="fill:#F5AC37;" d="M16,0.9c8.4,0,15.2,6.8,15.2,15.2c0,8.4-6.8,15.2-15.2,15.2
		c-8.4,0-15.2-6.8-15.2-15.2C0.9,7.7,7.7,0.9,16,0.9z"/>
	<path id="XMLID_61_" style="display:inline;fill:#FEFEFD;" d="M16.6,17.1h5.8c0.1,0,0.2,0,0.2-0.2c0-0.6,0-1.2,0-1.8
		c0-0.1-0.1-0.2-0.2-0.2H10.9c-0.1,0-0.2,0-0.2,0.2v1.7c0,0.2,0,0.2,0.2,0.2C10.9,17.1,16.6,17.1,16.6,17.1z M21.9,13.1
		c0,0,0-0.1,0-0.1c-0.1-0.2-0.2-0.4-0.3-0.6c-0.2-0.3-0.4-0.6-0.7-0.9c-0.1-0.2-0.3-0.3-0.4-0.4c-0.8-0.7-1.8-1.2-2.8-1.4
		c-0.5-0.1-1.1-0.2-1.6-0.2h-5.1c-0.1,0-0.2,0.1-0.2,0.2V13c0,0.1,0,0.2,0.2,0.2L21.9,13.1C21.8,13.1,21.9,13.1,21.9,13.1L21.9,13.1
		L21.9,13.1z M21.9,19.1c-0.2,0-0.3,0-0.5,0H10.9c-0.1,0-0.2,0-0.2,0.2v3.3c0,0.2,0,0.2,0.2,0.2h4.9c0.2,0,0.5,0,0.7,0
		c0.7-0.1,1.4-0.2,2.1-0.5c0.2-0.1,0.5-0.2,0.7-0.3h0.1c1.1-0.6,2.1-1.5,2.6-2.7C21.9,19.3,22,19.1,21.9,19.1L21.9,19.1z M8.8,24.5
		L8.8,24.5v-2.3v-0.7v-2.2c0-0.1,0-0.1-0.2-0.1H6.6c-0.1,0-0.2,0-0.2-0.2v-1.8h2.2c0.1,0,0.2,0,0.2-0.2v-1.8c0-0.1,0-0.1-0.2-0.1
		H6.6c-0.1,0-0.2,0-0.2-0.2v-1.7c0-0.1,0-0.1,0.2-0.1h2c0.1,0,0.2,0,0.2-0.2V7.8c0-0.2,0-0.2,0.2-0.2h7.1c0.5,0,1,0.1,1.5,0.2
		c1,0.2,2,0.6,3,1.1c0.6,0.4,1.2,0.8,1.7,1.3c0.4,0.4,0.7,0.8,1,1.3c0.3,0.5,0.5,0.9,0.7,1.5c0,0.1,0.2,0.2,0.3,0.2H26
		c0.2,0,0.2,0,0.2,0.2v1.6c0,0.2-0.1,0.2-0.2,0.2h-1.3c-0.1,0-0.2,0-0.2,0.2c0.1,0.6,0.1,1.2,0,1.7c0,0.2,0,0.2,0.2,0.2h1.5
		c0.1,0.1,0,0.2,0,0.3c0,0.1,0,0.2,0,0.3v1.1c0,0.2,0,0.2-0.2,0.2h-1.8c-0.1,0-0.2,0.1-0.3,0.2c-0.4,1.1-1.1,2.1-2,2.9
		c-0.3,0.3-0.7,0.6-1,0.8c-0.4,0.2-0.7,0.4-1.1,0.6c-0.7,0.3-1.5,0.6-2.2,0.7c-0.7,0.1-1.5,0.2-2.2,0.2L8.8,24.5L8.8,24.5L8.8,24.5z
		"/>
</g>
<g id="wETH">
	<path id="Path_848" d="M9.2,31.1c7.7,0,7.7-0.1,9.1-0.5c1.7-0.5-4.8-5-9.1-5s-7.6,1.2-7.6,2.8S5,31.1,9.2,31.1"/>
	<path id="Path_849" d="M26.8,7.5l0.4,0.4l-0.3,0.4C16.8,21.9,11,28.1,8.5,27.3c-1.5-0.5-3-2-4.5-4.2c-0.5-0.8-1-1.6-1.5-2.4
		c-0.3-0.5-0.6-1-0.7-1.3c-0.1-0.3-0.2-0.6-0.3-0.9l0,0c0-0.1,0-0.2,0-0.2c-1.9-7.3,2.4-14.9,9.8-16.8c3.4-0.9,7.1-0.5,10.2,1.3
		l0.1,0C23.2,3.8,24.9,5.4,26.8,7.5 M20.8,3.7c-6-3.3-13.7-1.2-17,4.9c-1.6,2.8-2,6.1-1.1,9.3c0,0.1,0,0.2,0.1,0.3l0,0
		c0,0.2,0.1,0.4,0.2,0.6C3.1,19,3.3,19.5,3.6,20C4,20.8,4.5,21.6,5,22.3c1.4,2,2.7,3.4,3.9,3.7c1.6,0.5,7.4-5.7,16.7-18.1
		C24.1,6.4,22.5,5,20.8,3.7"/>
	<path id="Path_850" style="fill:#EC1C79;" d="M20.8,3.7c-6-3.3-13.7-1.2-17,4.9c-1.6,2.8-2,6.1-1.1,9.3c0,0.1,0,0.2,0.1,0.3l0,0
		c0,0.2,0.1,0.4,0.2,0.6C3.1,19,3.3,19.5,3.6,20C4,20.8,4.5,21.6,5,22.3c1.4,2,2.7,3.4,3.9,3.7c1.6,0.5,7.4-5.7,16.7-18.1
		C24.1,6.4,22.5,5,20.8,3.7"/>
	<path id="Path_851" d="M17.3,30.9c-7.6,0-13.8-6.2-13.8-13.8S9.7,3.4,17.3,3.4S31,9.6,31,17.2l0,0C31,24.8,24.9,30.9,17.3,30.9
		C17.3,30.9,17.3,30.9,17.3,30.9 M17.3,29.7c6.9,0,12.5-5.6,12.5-12.5c0-6.9-5.6-12.5-12.5-12.5c-6.9,0-12.5,5.6-12.5,12.5
		C4.8,24.1,10.4,29.7,17.3,29.7"/>
	<path id="Path_852" style="fill:#FFFFFF;" d="M17.3,29.7c6.9,0,12.5-5.6,12.5-12.5S24.2,4.7,17.3,4.7c-6.9,0-12.5,5.6-12.5,12.5
		C4.8,24.1,10.4,29.7,17.3,29.7"/>
	<path id="Path_853" d="M7.9,19.7l-1.7-5h1.4l0.9,2.9l1-2.9h1.2l1,2.9l0.9-2.9h1.4l-1.7,5h-1.2l-1-2.8l-1,2.8H7.9z M14.5,19.7v-4.9
		h4v1.2h-2.6v0.7h2.4v1.1h-2.4v0.8h2.7v1.2L14.5,19.7z M20.4,19.7V16h-1.5v-1.2h4.3V16h-1.5v3.7L20.4,19.7z M23.9,19.7v-4.9h1.4v1.9
		H27v-1.9h1.4v4.9H27v-1.9h-1.8v1.9L23.9,19.7z"/>
	<path id="Path_854" d="M1.8,13.3c-0.3-0.2-0.5-0.6-0.3-0.9s0.6-0.5,0.9-0.3l2,1c0.3,0.2,0.5,0.6,0.3,0.9c-0.2,0.3-0.6,0.5-0.9,0.3
		L1.8,13.3z"/>
	<path id="Path_855" d="M1.6,16.6c-0.4-0.2-0.5-0.6-0.3-0.9c0.2-0.4,0.6-0.5,0.9-0.3l2,0.9c0.4,0.2,0.5,0.6,0.3,0.9
		c-0.2,0.3-0.6,0.5-0.9,0.3L1.6,16.6z"/>
</g>
</svg>
