<?xml version="1.0" encoding="utf-8"?>
<!-- Generator: Adobe Illustrator 19.0.0, SVG Export Plug-In . SVG Version: 6.00 Build 0)  -->
<svg version="1.1" id="SNX" xmlns="http://www.w3.org/2000/svg" xmlns:xlink="http://www.w3.org/1999/xlink" x="0px" y="0px"
	 viewBox="0 0 32 32" style="enable-background:new 0 0 32 32;" xml:space="preserve">
<style type="text/css">
	.st0{fill:url(#Circle_1_);}
	.st1{fill:#00D1FF;}
</style>
<linearGradient id="Circle_1_" gradientUnits="userSpaceOnUse" x1="1218.3226" y1="-188.5722" x2="1218.3226" y2="-148.1627" gradientTransform="matrix(0.1984 0 0 0.1984 -225.7585 38.3945)">
	<stop  offset="0" style="stop-color:#090220"/>
	<stop  offset="1" style="stop-color:#170659"/>
</linearGradient>
<circle id="Circle" class="st0" cx="16" cy="16.1" r="15.2"/>
<path id="Logo" class="st1" d="M11,12.4c-0.1-0.2-0.3-0.2-0.5-0.2h-4c0,0-0.1,0-0.1,0c0,0,0,0,0-0.1V9.3c0,0,0-0.1,0-0.1
	c0,0,0.1,0,0.1,0h4.3c1.1,0,2,0.4,2.8,1.3l1,1.3l-2,2.5L11,12.4z M18.5,10.5c0.8-0.9,1.7-1.3,2.8-1.3h4.3c0,0,0.1,0,0.1,0
	c0,0,0,0.1,0,0.1V12c0,0,0,0.1,0,0.1c0,0-0.1,0-0.1,0h-4c-0.2,0-0.4,0.1-0.5,0.2L18,16l3,3.7c0.1,0.1,0.3,0.2,0.5,0.2h4
	c0,0,0.1,0,0.1,0c0,0,0,0.1,0,0.1v2.7c0,0,0,0.1,0,0.1c0,0-0.1,0-0.1,0h-4.3c-1.1,0-2-0.4-2.8-1.3l-2.5-3l-2.5,3
	c-0.8,0.9-1.7,1.3-2.8,1.3H6.5c0,0-0.1,0-0.1,0c0,0,0-0.1,0-0.1V20c0,0,0-0.1,0-0.1c0,0,0.1,0,0.1,0h4c0.2,0,0.4-0.1,0.5-0.2
	l2.9-3.6L18.5,10.5z"/>
</svg>
