<?xml version="1.0" encoding="utf-8"?>
<!-- Generator: Adobe Illustrator 19.0.0, SVG Export Plug-In . SVG Version: 6.00 Build 0)  -->
<svg version="1.1" xmlns="http://www.w3.org/2000/svg" xmlns:xlink="http://www.w3.org/1999/xlink" x="0px" y="0px"
	 viewBox="0 0 32 32" style="enable-background:new 0 0 32 32;" xml:space="preserve">
<g id="Hap" style="display:none;">
	<linearGradient id="XMLID_72_" gradientUnits="userSpaceOnUse" x1="26.1833" y1="5.8209" x2="5.8178" y2="26.1864">
		<stop  offset="0" style="stop-color:#2F68FB"/>
		<stop  offset="1" style="stop-color:#3723C3"/>
	</linearGradient>
	<path id="XMLID_411_" style="fill:url(#XMLID_72_);" d="M16,30.4L16,30.4C8,30.4,1.6,24,1.6,16v0C1.6,8.1,8,1.6,16,1.6h0
		c8,0,14.4,6.4,14.4,14.4v0C30.4,24,24,30.4,16,30.4z"/>
	<g id="XMLID_1027_">
		<path id="XMLID_1028_" style="display:inline;fill:#FFFFFF;" d="M19.1,24.8V14.6c0-0.6,0-1.1-0.1-1.6c-0.1-0.5-0.2-0.9-0.5-1.2
			c-0.2-0.3-0.5-0.6-0.9-0.7c-0.4-0.2-0.8-0.3-1.3-0.3c-0.6,0-1,0.1-1.5,0.3c-0.4,0.2-0.8,0.5-1,0.9c-0.3,0.4-0.5,0.7-0.6,1.2
			c-0.1,0.4-0.2,0.9-0.2,1.3v6.1H12V10.1l0.9,0c0,0,0,2,0,2h0c0.2-0.5,0.5-0.9,0.8-1.2c0.3-0.3,0.6-0.5,0.9-0.7
			c0.3-0.2,0.6-0.3,1-0.3c0.3,0,0.6-0.1,0.9-0.1c0.6,0,1.1,0.1,1.5,0.3c0.4,0.2,0.8,0.5,1.1,0.8c0.3,0.4,0.5,0.8,0.7,1.3
			c0.1,0.5,0.2,1.1,0.2,1.8v10.7H19.1z"/>
	</g>
</g>
<g id="OP" style="display:none;">
	<circle id="XMLID_58_" style="fill:#FF0420;" cx="16" cy="16" r="15.2"/>
	<linearGradient id="XMLID_74_" gradientUnits="userSpaceOnUse" x1="26.7083" y1="5.2917" x2="5.2455" y2="26.7545">
		<stop  offset="8.000197e-008" style="stop-color:#FF0420"/>
		<stop  offset="1" style="stop-color:#9F0420"/>
	</linearGradient>
	<path id="XMLID_9_" style="display:inline;fill:url(#XMLID_74_);" d="M16,31.2L16,31.2C7.6,31.2,0.8,24.4,0.8,16v0
		C0.8,7.6,7.6,0.8,16,0.8h0c8.4,0,15.2,6.8,15.2,15.2v0C31.2,24.4,24.4,31.2,16,31.2z"/>
	<path id="XMLID_67_" style="display:inline;fill:#FFFFFF;" d="M11.5,20.1c-0.9,0-1.6-0.2-2.2-0.6c-0.6-0.4-0.9-1.1-0.9-1.8
		c0-0.2,0-0.4,0.1-0.6c0.1-0.5,0.2-1.2,0.4-2c0.5-2.1,1.9-3.1,4-3.1c0.6,0,1.1,0.1,1.6,0.3c0.5,0.2,0.8,0.5,1.1,0.9
		c0.3,0.4,0.4,0.8,0.4,1.4c0,0.2,0,0.4-0.1,0.6c-0.1,0.7-0.2,1.3-0.4,2c-0.3,1-0.7,1.8-1.4,2.3C13.5,19.8,12.6,20.1,11.5,20.1z
		 M11.7,18.4c0.4,0,0.8-0.1,1.1-0.4c0.3-0.2,0.5-0.6,0.6-1.2c0.2-0.7,0.3-1.3,0.4-1.9c0-0.2,0-0.3,0-0.5c0-0.7-0.4-1-1.1-1
		c-0.4,0-0.8,0.1-1.1,0.4c-0.3,0.2-0.5,0.6-0.6,1.2c-0.1,0.5-0.3,1.1-0.4,1.9c0,0.2,0,0.3,0,0.5C10.6,18.1,11,18.4,11.7,18.4z"/>
	<path id="XMLID_60_" style="display:inline;fill:#FFFFFF;" d="M16.5,20c-0.1,0-0.1,0-0.2-0.1c0-0.1,0-0.1,0-0.2l1.6-7.4
		c0-0.1,0.1-0.2,0.1-0.2c0.1-0.1,0.1-0.1,0.2-0.1h3c0.8,0,1.5,0.2,2,0.5c0.5,0.4,0.8,0.9,0.8,1.5c0,0.2,0,0.4-0.1,0.6
		c-0.2,0.9-0.6,1.5-1.2,1.9c-0.6,0.4-1.4,0.6-2.3,0.6h-1.5l-0.5,2.5c0,0.1-0.1,0.2-0.1,0.2c-0.1,0.1-0.1,0.1-0.2,0.1H16.5z
		 M20.6,15.6c0.3,0,0.6-0.1,0.8-0.3c0.2-0.2,0.4-0.4,0.5-0.8c0-0.1,0-0.2,0-0.3c0-0.2-0.1-0.4-0.2-0.5c-0.1-0.1-0.4-0.2-0.7-0.2
		h-1.4l-0.4,2H20.6z"/>
</g>
<g id="DAI">
	<linearGradient id="XMLID_75_" gradientUnits="userSpaceOnUse" x1="26.7083" y1="5.2917" x2="5.2455" y2="26.7545">
		<stop  offset="0" style="stop-color:#F5AC37"/>
		<stop  offset="1" style="stop-color:#CF8037"/>
	</linearGradient>
	<path id="XMLID_59_" style="fill:url(#XMLID_75_);" d="M16,31.2L16,31.2C7.6,31.2,0.8,24.4,0.8,16v0C0.8,7.6,7.6,0.8,16,0.8h0
		c8.4,0,15.2,6.8,15.2,15.2v0C31.2,24.4,24.4,31.2,16,31.2z"/>
	<path id="XMLID_69_" style="display:none;fill:#F5AC37;" d="M16,0.9c8.4,0,15.2,6.8,15.2,15.2c0,8.4-6.8,15.2-15.2,15.2
		c-8.4,0-15.2-6.8-15.2-15.2C0.9,7.7,7.7,0.9,16,0.9z"/>
	<path id="XMLID_61_" style="fill:#FEFEFD;" d="M16.6,17.1h5.8c0.1,0,0.2,0,0.2-0.2c0-0.6,0-1.2,0-1.8c0-0.1-0.1-0.2-0.2-0.2H10.9
		c-0.1,0-0.2,0-0.2,0.2v1.7c0,0.2,0,0.2,0.2,0.2C10.9,17.1,16.6,17.1,16.6,17.1z M21.9,13.1c0,0,0-0.1,0-0.1
		c-0.1-0.2-0.2-0.4-0.3-0.6c-0.2-0.3-0.4-0.6-0.7-0.9c-0.1-0.2-0.3-0.3-0.4-0.4c-0.8-0.7-1.8-1.2-2.8-1.4c-0.5-0.1-1.1-0.2-1.6-0.2
		h-5.1c-0.1,0-0.2,0.1-0.2,0.2V13c0,0.1,0,0.2,0.2,0.2L21.9,13.1C21.8,13.1,21.9,13.1,21.9,13.1L21.9,13.1L21.9,13.1z M21.9,19.1
		c-0.2,0-0.3,0-0.5,0H10.9c-0.1,0-0.2,0-0.2,0.2v3.3c0,0.2,0,0.2,0.2,0.2h4.9c0.2,0,0.5,0,0.7,0c0.7-0.1,1.4-0.2,2.1-0.5
		c0.2-0.1,0.5-0.2,0.7-0.3h0.1c1.1-0.6,2.1-1.5,2.6-2.7C21.9,19.3,22,19.1,21.9,19.1L21.9,19.1z M8.8,24.5L8.8,24.5v-2.3v-0.7v-2.2
		c0-0.1,0-0.1-0.2-0.1H6.6c-0.1,0-0.2,0-0.2-0.2v-1.8h2.2c0.1,0,0.2,0,0.2-0.2v-1.8c0-0.1,0-0.1-0.2-0.1H6.6c-0.1,0-0.2,0-0.2-0.2
		v-1.7c0-0.1,0-0.1,0.2-0.1h2c0.1,0,0.2,0,0.2-0.2V7.8c0-0.2,0-0.2,0.2-0.2h7.1c0.5,0,1,0.1,1.5,0.2c1,0.2,2,0.6,3,1.1
		c0.6,0.4,1.2,0.8,1.7,1.3c0.4,0.4,0.7,0.8,1,1.3c0.3,0.5,0.5,0.9,0.7,1.5c0,0.1,0.2,0.2,0.3,0.2H26c0.2,0,0.2,0,0.2,0.2v1.6
		c0,0.2-0.1,0.2-0.2,0.2h-1.3c-0.1,0-0.2,0-0.2,0.2c0.1,0.6,0.1,1.2,0,1.7c0,0.2,0,0.2,0.2,0.2h1.5c0.1,0.1,0,0.2,0,0.3
		c0,0.1,0,0.2,0,0.3v1.1c0,0.2,0,0.2-0.2,0.2h-1.8c-0.1,0-0.2,0.1-0.3,0.2c-0.4,1.1-1.1,2.1-2,2.9c-0.3,0.3-0.7,0.6-1,0.8
		c-0.4,0.2-0.7,0.4-1.1,0.6c-0.7,0.3-1.5,0.6-2.2,0.7c-0.7,0.1-1.5,0.2-2.2,0.2L8.8,24.5L8.8,24.5L8.8,24.5z"/>
</g>
</svg>
