<?xml version="1.0" encoding="utf-8"?>
<!-- Generator: Adobe Illustrator 19.0.0, SVG Export Plug-In . SVG Version: 6.00 Build 0)  -->
<svg version="1.1" id="Layer_1" xmlns="http://www.w3.org/2000/svg" xmlns:xlink="http://www.w3.org/1999/xlink" x="0px" y="0px"
	 viewBox="0 0 32 32" enable-background="new 0 0 32 32" xml:space="preserve">
<linearGradient id="XMLID_11_" gradientUnits="userSpaceOnUse" x1="26.1856" y1="5.8202" x2="5.8186" y2="26.1872">
	<stop  offset="0" style="stop-color:#2F68FB"/>
	<stop  offset="1" style="stop-color:#3723C3"/>
</linearGradient>
<path id="XMLID_411_" fill="url(#XMLID_11_)" d="M16,30.4L16,30.4C8,30.4,1.6,24,1.6,16v0C1.6,8.1,8,1.6,16,1.6h0
	c8,0,14.4,6.4,14.4,14.4v0C30.4,24,24,30.4,16,30.4z"/>
<g id="XMLID_1027_">
	<path id="XMLID_1028_" fill="#FFFFFF" d="M20.1,27.1V13.2c0-0.8-0.1-1.6-0.2-2.2c-0.1-0.6-0.3-1.2-0.6-1.6c-0.3-0.4-0.7-0.8-1.2-1
		C17.7,8.1,17.1,8,16.4,8c-0.8,0-1.4,0.2-2,0.5c-0.6,0.3-1,0.7-1.4,1.2c-0.4,0.5-0.7,1-0.9,1.6c-0.2,0.6-0.3,1.2-0.3,1.8v8.3h-1.3
		V7.1l1.2,0c0,0,0,2.7,0,2.7h0.1c0.3-0.7,0.7-1.2,1.1-1.6c0.4-0.4,0.8-0.7,1.3-0.9C14.6,7,15,6.9,15.4,6.8c0.4-0.1,0.8-0.1,1.2-0.1
		c0.8,0,1.5,0.1,2.1,0.4c0.6,0.3,1.1,0.6,1.5,1.1c0.4,0.5,0.7,1.1,0.9,1.8c0.2,0.7,0.3,1.5,0.3,2.4v14.6H20.1z"/>
</g>
</svg>
