<?xml version="1.0" encoding="utf-8"?>
<!-- Generator: Adobe Illustrator 19.0.0, SVG Export Plug-In . SVG Version: 6.00 Build 0)  -->
<svg version="1.1" id="OP" xmlns="http://www.w3.org/2000/svg" xmlns:xlink="http://www.w3.org/1999/xlink" x="0px" y="0px"
	 viewBox="0 0 32 32" style="enable-background:new 0 0 32 32;" xml:space="preserve">
<style type="text/css">
	.st0{fill:url(#Circle_1_);}
	.st1{fill:#FFFFFF;}
</style>
<linearGradient id="Circle_1_" gradientUnits="userSpaceOnUse" x1="26.7083" y1="26.7083" x2="5.2455" y2="5.2455" gradientTransform="matrix(1 0 0 -1 0 32)">
	<stop  offset="8.000197e-008" style="stop-color:#FF0420"/>
	<stop  offset="1" style="stop-color:#9F0420"/>
</linearGradient>
<path id="Circle" class="st0" d="M16,31.2L16,31.2C7.6,31.2,0.8,24.4,0.8,16l0,0C0.8,7.6,7.6,0.8,16,0.8l0,0
	c8.4,0,15.2,6.8,15.2,15.2l0,0C31.2,24.4,24.4,31.2,16,31.2z"/>
<path id="P" class="st1" d="M11.5,20.1c-0.9,0-1.6-0.2-2.2-0.6c-0.6-0.4-0.9-1.1-0.9-1.8c0-0.2,0-0.4,0.1-0.6c0.1-0.5,0.2-1.2,0.4-2
	c0.5-2.1,1.9-3.1,4-3.1c0.6,0,1.1,0.1,1.6,0.3s0.8,0.5,1.1,0.9S16,14,16,14.6c0,0.2,0,0.4-0.1,0.6c-0.1,0.7-0.2,1.3-0.4,2
	c-0.3,1-0.7,1.8-1.4,2.3C13.5,19.8,12.6,20.1,11.5,20.1z M11.7,18.4c0.4,0,0.8-0.1,1.1-0.4c0.3-0.2,0.5-0.6,0.6-1.2
	c0.2-0.7,0.3-1.3,0.4-1.9c0-0.2,0-0.3,0-0.5c0-0.7-0.4-1-1.1-1c-0.4,0-0.8,0.1-1.1,0.4C11.3,14,11.1,14.4,11,15
	c-0.1,0.5-0.3,1.1-0.4,1.9c0,0.2,0,0.3,0,0.5C10.6,18.1,11,18.4,11.7,18.4z"/>
<path id="O" class="st1" d="M16.5,20c-0.1,0-0.1,0-0.2-0.1c0-0.1,0-0.1,0-0.2l1.6-7.4c0-0.1,0.1-0.2,0.1-0.2
	c0.1-0.1,0.1-0.1,0.2-0.1h3c0.8,0,1.5,0.2,2,0.5c0.5,0.4,0.8,0.9,0.8,1.5c0,0.2,0,0.4-0.1,0.6c-0.2,0.9-0.6,1.5-1.2,1.9
	c-0.6,0.4-1.4,0.6-2.3,0.6h-1.5l-0.5,2.5c0,0.1-0.1,0.2-0.1,0.2c-0.1,0.1-0.1,0.1-0.2,0.1L16.5,20L16.5,20z M20.6,15.6
	c0.3,0,0.6-0.1,0.8-0.3c0.2-0.2,0.4-0.4,0.5-0.8c0-0.1,0-0.2,0-0.3c0-0.2-0.1-0.4-0.2-0.5s-0.4-0.2-0.7-0.2h-1.4l-0.4,2h1.4V15.6z"
	/>
</svg>
