<?xml version="1.0" encoding="utf-8"?>
<!-- Generator: Adobe Illustrator 19.0.0, SVG Export Plug-In . SVG Version: 6.00 Build 0)  -->
<svg version="1.1" id="sUSD_1_" xmlns="http://www.w3.org/2000/svg" xmlns:xlink="http://www.w3.org/1999/xlink" x="0px" y="0px"
	 viewBox="0 0 32 32" style="enable-background:new 0 0 32 32;" xml:space="preserve">
<style type="text/css">
	.st0{fill:#31D8A4;}
	.st1{fill:#FFFFFF;}
	.st2{fill:#0E052F;}
</style>
<ellipse id="Background" class="st0" cx="15.9" cy="16" rx="15.3" ry="15.2"/>
<ellipse id="Path" class="st1" cx="15.9" cy="16" rx="13.2" ry="13.2"/>
<ellipse id="sUSD" class="st2" cx="15.9" cy="16" rx="11.7" ry="11.6"/>
<path id="Logo" class="st1" d="M15.5,21.2c-0.5,0-1-0.1-1.4-0.3c-0.4-0.2-0.8-0.4-1.2-0.7c-0.3-0.3-0.6-0.7-0.8-1
	c-0.2-0.4-0.3-0.8-0.3-1.3h1.9c0,0.5,0.2,0.9,0.5,1.2c0.3,0.3,0.8,0.5,1.3,0.6v-3l-0.7-0.1c-0.8-0.1-1.5-0.4-2-0.9
	c-0.5-0.5-0.7-1.1-0.7-1.9c0-0.4,0.1-0.8,0.3-1.1c0.2-0.4,0.4-0.7,0.7-1c0.3-0.3,0.7-0.5,1.1-0.7c0.4-0.2,0.9-0.3,1.3-0.3V9.1h1.1
	v1.4c0.5,0.1,0.9,0.2,1.3,0.4c0.4,0.2,0.7,0.4,1,0.7s0.5,0.6,0.7,0.9c0.2,0.4,0.3,0.7,0.3,1.1H18c0-0.4-0.2-0.7-0.4-0.9
	c-0.3-0.3-0.6-0.5-0.9-0.6V15l0.5,0.1c0.4,0.1,0.8,0.2,1.1,0.3c0.3,0.2,0.6,0.3,0.9,0.6c0.3,0.2,0.5,0.5,0.6,0.9
	c0.2,0.3,0.2,0.7,0.2,1.1c0,0.8-0.3,1.6-1,2.2c-0.3,0.3-0.7,0.5-1.1,0.7c-0.4,0.2-0.9,0.3-1.3,0.3v1.6h-1.1
	C15.5,22.8,15.5,21.2,15.5,21.2z M16.7,19.6c0.5-0.1,0.9-0.3,1.1-0.5c0.3-0.3,0.4-0.6,0.4-1c0-0.4-0.1-0.7-0.4-0.9
	c-0.3-0.2-0.6-0.3-0.9-0.4l-0.3,0V19.6z M15.5,12.1c-0.4,0.1-0.8,0.2-1.1,0.5c-0.3,0.2-0.4,0.6-0.4,1c0,0.4,0.1,0.6,0.3,0.8
	c0.2,0.2,0.5,0.3,0.8,0.3l0.5,0.1C15.5,14.8,15.5,12.1,15.5,12.1z"/>
</svg>
