<?xml version="1.0" encoding="utf-8"?>
<!-- Generator: Adobe Illustrator 19.0.0, SVG Export Plug-In . SVG Version: 6.00 Build 0)  -->
<svg version="1.1" id="wETH" xmlns="http://www.w3.org/2000/svg" xmlns:xlink="http://www.w3.org/1999/xlink" x="0px" y="0px"
	 viewBox="0 0 32 32" style="enable-background:new 0 0 32 32;" xml:space="preserve">
<style type="text/css">
	.st0{fill:#EC1C79;}
	.st1{fill:#FFFFFF;}
</style>
<path id="Path_848" d="M9.2,31.1c7.7,0,7.7-0.1,9.1-0.5c1.7-0.5-4.8-5-9.1-5s-7.6,1.2-7.6,2.8S5,31.1,9.2,31.1"/>
<path id="Path_849" d="M26.8,7.5l0.4,0.4l-0.3,0.4C16.8,21.9,11,28.1,8.5,27.3c-1.5-0.5-3-2-4.5-4.2c-0.5-0.8-1-1.6-1.5-2.4
	c-0.3-0.5-0.6-1-0.7-1.3s-0.2-0.6-0.3-0.9l0,0c0-0.1,0-0.2,0-0.2C-0.4,11,3.9,3.4,11.3,1.5c3.4-0.9,7.1-0.5,10.2,1.3h0.1
	C23.2,3.8,24.9,5.4,26.8,7.5 M20.8,3.7c-6-3.3-13.7-1.2-17,4.9c-1.6,2.8-2,6.1-1.1,9.3c0,0.1,0,0.2,0.1,0.3l0,0
	c0,0.2,0.1,0.4,0.2,0.6C3.1,19,3.3,19.5,3.6,20C4,20.8,4.5,21.6,5,22.3c1.4,2,2.7,3.4,3.9,3.7c1.6,0.5,7.4-5.7,16.7-18.1
	C24.1,6.4,22.5,5,20.8,3.7"/>
<path id="Path_850" class="st0" d="M20.8,3.7c-6-3.3-13.7-1.2-17,4.9c-1.6,2.8-2,6.1-1.1,9.3c0,0.1,0,0.2,0.1,0.3l0,0
	c0,0.2,0.1,0.4,0.2,0.6C3.1,19,3.3,19.5,3.6,20C4,20.8,4.5,21.6,5,22.3c1.4,2,2.7,3.4,3.9,3.7c1.6,0.5,7.4-5.7,16.7-18.1
	C24.1,6.4,22.5,5,20.8,3.7"/>
<path id="Path_851" d="M17.3,30.9c-7.6,0-13.8-6.2-13.8-13.8S9.7,3.4,17.3,3.4S31,9.6,31,17.2l0,0C31,24.8,24.9,30.9,17.3,30.9
	L17.3,30.9 M17.3,29.7c6.9,0,12.5-5.6,12.5-12.5S24.2,4.7,17.3,4.7S4.8,10.3,4.8,17.2C4.8,24.1,10.4,29.7,17.3,29.7"/>
<path id="Path_852" class="st1" d="M17.3,29.7c6.9,0,12.5-5.6,12.5-12.5S24.2,4.7,17.3,4.7S4.8,10.3,4.8,17.2
	C4.8,24.1,10.4,29.7,17.3,29.7"/>
<path id="Path_853" d="M7.9,19.7l-1.7-5h1.4l0.9,2.9l1-2.9h1.2l1,2.9l0.9-2.9H14l-1.7,5h-1.2l-1-2.8l-1,2.8H7.9z M14.5,19.7v-4.9h4
	V16h-2.6v0.7h2.4v1.1h-2.4v0.8h2.7v1.2L14.5,19.7z M20.4,19.7V16h-1.5v-1.2h4.3V16h-1.5v3.7H20.4z M23.9,19.7v-4.9h1.4v1.9H27v-1.9
	h1.4v4.9H27v-1.9h-1.8v1.9H23.9z"/>
<path id="Path_854" d="M1.8,13.3c-0.3-0.2-0.5-0.6-0.3-0.9s0.6-0.5,0.9-0.3l2,1c0.3,0.2,0.5,0.6,0.3,0.9c-0.2,0.3-0.6,0.5-0.9,0.3
	L1.8,13.3z"/>
<path id="Path_855" d="M1.6,16.6c-0.4-0.2-0.5-0.6-0.3-0.9c0.2-0.4,0.6-0.5,0.9-0.3l2,0.9c0.4,0.2,0.5,0.6,0.3,0.9s-0.6,0.5-0.9,0.3
	L1.6,16.6z"/>
</svg>
