<?xml version="1.0" encoding="utf-8"?>
<!-- Generator: Adobe Illustrator 19.0.0, SVG Export Plug-In . SVG Version: 6.00 Build 0)  -->
<svg version="1.1" id="USDC" xmlns="http://www.w3.org/2000/svg" xmlns:xlink="http://www.w3.org/1999/xlink" x="0px" y="0px"
	 viewBox="0 0 32 32" style="enable-background:new 0 0 32 32;" xml:space="preserve">
<style type="text/css">
	.st0{fill:#2775CA;}
	.st1{fill:#FFFFFF;}
</style>
<path id="Circle" class="st0" d="M15.9,31.2c8.4,0,15.2-6.8,15.2-15.2S24.3,0.9,15.9,0.9S0.8,7.7,0.8,16.1S7.5,31.2,15.9,31.2z"/>
<path id="Icon" class="st1" d="M20.1,18.5c0-2.2-1.3-3-4-3.3c-1.9-0.3-2.3-0.8-2.3-1.6c0-0.9,0.6-1.5,1.9-1.5c1.1,0,1.8,0.4,2.1,1.3
	c0.1,0.2,0.3,0.3,0.4,0.3h1c0.3,0,0.4-0.2,0.4-0.4v-0.1c-0.3-1.4-1.4-2.5-2.8-2.6V9.1c0-0.3-0.2-0.4-0.5-0.5h-0.9
	c-0.3,0-0.4,0.2-0.5,0.5v1.5c-1.9,0.3-3.1,1.5-3.1,3.1c0,2.1,1.3,2.9,3.9,3.2c1.8,0.3,2.3,0.7,2.3,1.7c0,1-0.9,1.7-2.1,1.7
	c-1.6,0-2.2-0.7-2.4-1.6c-0.1-0.3-0.3-0.4-0.4-0.4h-1.1c-0.3,0-0.4,0.2-0.4,0.4v0.1c0.3,1.6,1.3,2.7,3.3,3v1.5
	c0,0.3,0.2,0.4,0.5,0.5h0.9c0.3,0,0.4-0.2,0.5-0.5v-1.5C18.8,21.5,20.1,20.2,20.1,18.5L20.1,18.5z"/>
<path id="Path" class="st1" d="M12.7,25.1C7.8,23.3,5.3,17.8,7.1,13c0.9-2.7,3-4.7,5.6-5.6C13,7.2,13.1,7,13.1,6.7V5.8
	c0-0.3-0.1-0.4-0.4-0.5c-0.1,0-0.2,0-0.3,0.1c-6,1.9-9.3,8.3-7.4,14.3c1.1,3.5,3.9,6.3,7.4,7.4c0.3,0.1,0.5,0,0.6-0.3
	c0.1-0.1,0.1-0.1,0.1-0.3v-0.9C13.1,25.5,12.9,25.2,12.7,25.1z M19.4,5.4c-0.3-0.1-0.5,0-0.6,0.3c-0.1,0.1-0.1,0.1-0.1,0.3v0.9
	c0,0.3,0.2,0.5,0.4,0.6c4.9,1.8,7.5,7.3,5.6,12.1c-0.9,2.7-3,4.7-5.6,5.6c-0.3,0.1-0.4,0.3-0.4,0.6v0.9c0,0.3,0.1,0.4,0.4,0.5
	c0.1,0,0.2,0,0.3-0.1c6-1.9,9.3-8.3,7.4-14.3C25.7,9.2,22.9,6.5,19.4,5.4L19.4,5.4z"/>
</svg>
