<?xml version="1.0" encoding="utf-8"?>
<!-- Generator: Adobe Illustrator 19.0.0, SVG Export Plug-In . SVG Version: 6.00 Build 0)  -->
<svg version="1.1" id="HAP" xmlns="http://www.w3.org/2000/svg" xmlns:xlink="http://www.w3.org/1999/xlink" x="0px" y="0px"
	 viewBox="0 0 32 32" style="enable-background:new 0 0 32 32;" xml:space="preserve">
<style type="text/css">
	.st0{fill:url(#Circle_1_);}
	.st1{fill:#FFFFFF;stroke:#FFFFFF;stroke-width:0.5;stroke-miterlimit:10;}
</style>
<linearGradient id="Circle_1_" gradientUnits="userSpaceOnUse" x1="26.7083" y1="26.7083" x2="5.2455" y2="5.2455" gradientTransform="matrix(1 0 0 -1 0 32)">
	<stop  offset="0" style="stop-color:#2F68FB"/>
	<stop  offset="1" style="stop-color:#3723C3"/>
</linearGradient>
<path id="Circle" class="st0" d="M16,31.2L16,31.2C7.6,31.2,0.8,24.4,0.8,16l0,0C0.8,7.6,7.6,0.8,16,0.8l0,0
	c8.4,0,15.2,6.8,15.2,15.2l0,0C31.2,24.4,24.4,31.2,16,31.2z"/>
<path id="Hapticity" class="st1" d="M19.3,25.5V14.4c0-0.7,0-1.2-0.1-1.8c-0.1-0.5-0.3-0.9-0.5-1.3c-0.2-0.4-0.5-0.6-0.9-0.8
	c-0.4-0.2-0.9-0.3-1.4-0.3c-0.6,0-1.1,0.1-1.6,0.4c-0.5,0.2-0.8,0.6-1.1,0.9c-0.3,0.4-0.5,0.8-0.7,1.3c-0.2,0.5-0.2,0.9-0.2,1.4v6.6
	h-1V9.5l0.9,0c0,0,0,2.2,0,2.2h0c0.3-0.5,0.5-1,0.9-1.3c0.3-0.3,0.7-0.6,1-0.7c0.4-0.2,0.7-0.3,1-0.3c0.3-0.1,0.7-0.1,0.9-0.1
	c0.6,0,1.2,0.1,1.7,0.3c0.5,0.2,0.9,0.5,1.2,0.9c0.3,0.4,0.6,0.9,0.7,1.4c0.2,0.6,0.2,1.2,0.2,1.9v11.6H19.3z"/>
</svg>
