<?xml version="1.0" encoding="utf-8"?>
<!-- Generator: Adobe Illustrator 19.0.0, SVG Export Plug-In . SVG Version: 6.00 Build 0)  -->
<svg version="1.1" id="DAI" xmlns="http://www.w3.org/2000/svg" xmlns:xlink="http://www.w3.org/1999/xlink" x="0px" y="0px"
	 viewBox="0 0 32 32" style="enable-background:new 0 0 32 32;" xml:space="preserve">
<style type="text/css">
	.st0{fill:url(#Circle_1_);}
	.st1{fill:#FEFEFD;}
</style>
<linearGradient id="Circle_1_" gradientUnits="userSpaceOnUse" x1="26.7083" y1="26.7083" x2="5.2455" y2="5.2455" gradientTransform="matrix(1 0 0 -1 0 32)">
	<stop  offset="0" style="stop-color:#F5AC37"/>
	<stop  offset="1" style="stop-color:#CF8037"/>
</linearGradient>
<path id="Circle" class="st0" d="M16,31.2L16,31.2C7.6,31.2,0.8,24.4,0.8,16l0,0C0.8,7.6,7.6,0.8,16,0.8l0,0
	c8.4,0,15.2,6.8,15.2,15.2l0,0C31.2,24.4,24.4,31.2,16,31.2z"/>
<path id="Logo" class="st1" d="M16.6,17.1h5.8c0.1,0,0.2,0,0.2-0.2c0-0.6,0-1.2,0-1.8c0-0.1-0.1-0.2-0.2-0.2H10.9
	c-0.1,0-0.2,0-0.2,0.2v1.7c0,0.2,0,0.2,0.2,0.2C10.9,17.1,16.6,17.1,16.6,17.1z M21.9,13.1V13c-0.1-0.2-0.2-0.4-0.3-0.6
	c-0.2-0.3-0.4-0.6-0.7-0.9c-0.1-0.2-0.3-0.3-0.4-0.4c-0.8-0.7-1.8-1.2-2.8-1.4c-0.5-0.1-1.1-0.2-1.6-0.2H11c-0.1,0-0.2,0.1-0.2,0.2
	V13c0,0.1,0,0.2,0.2,0.2L21.9,13.1C21.8,13.1,21.9,13.1,21.9,13.1L21.9,13.1L21.9,13.1z M21.9,19.1c-0.2,0-0.3,0-0.5,0H10.9
	c-0.1,0-0.2,0-0.2,0.2v3.3c0,0.2,0,0.2,0.2,0.2h4.9c0.2,0,0.5,0,0.7,0c0.7-0.1,1.4-0.2,2.1-0.5c0.2-0.1,0.5-0.2,0.7-0.3h0.1
	c1.1-0.6,2.1-1.5,2.6-2.7C21.9,19.3,22,19.1,21.9,19.1L21.9,19.1z M8.8,24.5L8.8,24.5v-2.3v-0.7v-2.2c0-0.1,0-0.1-0.2-0.1h-2
	c-0.1,0-0.2,0-0.2-0.2v-1.8h2.2c0.1,0,0.2,0,0.2-0.2v-1.8c0-0.1,0-0.1-0.2-0.1h-2c-0.1,0-0.2,0-0.2-0.2v-1.7c0-0.1,0-0.1,0.2-0.1h2
	c0.1,0,0.2,0,0.2-0.2V7.8c0-0.2,0-0.2,0.2-0.2h7.1c0.5,0,1,0.1,1.5,0.2c1,0.2,2,0.6,3,1.1c0.6,0.4,1.2,0.8,1.7,1.3
	c0.4,0.4,0.7,0.8,1,1.3s0.5,0.9,0.7,1.5c0,0.1,0.2,0.2,0.3,0.2H26c0.2,0,0.2,0,0.2,0.2V15c0,0.2-0.1,0.2-0.2,0.2h-1.3
	c-0.1,0-0.2,0-0.2,0.2c0.1,0.6,0.1,1.2,0,1.7c0,0.2,0,0.2,0.2,0.2h1.5c0.1,0.1,0,0.2,0,0.3c0,0.1,0,0.2,0,0.3V19
	c0,0.2,0,0.2-0.2,0.2h-1.8c-0.1,0-0.2,0.1-0.3,0.2c-0.4,1.1-1.1,2.1-2,2.9c-0.3,0.3-0.7,0.6-1,0.8c-0.4,0.2-0.7,0.4-1.1,0.6
	c-0.7,0.3-1.5,0.6-2.2,0.7s-1.5,0.2-2.2,0.2L8.8,24.5L8.8,24.5L8.8,24.5z"/>
</svg>
