<?xml version="1.0" encoding="utf-8"?>
<!-- Generator: Adobe Illustrator 19.0.0, SVG Export Plug-In . SVG Version: 6.00 Build 0)  -->
<svg version="1.1" id="wBTC" xmlns="http://www.w3.org/2000/svg" xmlns:xlink="http://www.w3.org/1999/xlink" x="0px" y="0px"
	 viewBox="0 0 32 32" style="enable-background:new 0 0 32 32;" xml:space="preserve">
<style type="text/css">
	.st0{fill:#FFFFFF;}
	.st1{fill:#5A5564;}
	.st2{fill:#282138;}
	.st3{fill:#F09242;}
</style>
<path id="Circle" class="st0" d="M16,30.3L16,30.3C8.1,30.3,1.6,23.9,1.6,16l0,0C1.6,8.1,8.1,1.6,16,1.6l0,0
	c7.9,0,14.3,6.4,14.3,14.3l0,0C30.3,23.9,23.9,30.3,16,30.3z"/>
<path id="Shape-4" class="st1" d="M24,24.7c-4.5,4.1-11.4,4.1-15.9,0l-0.8,0.8c5,4.6,12.6,4.6,17.6,0L24,24.7z"/>
<path id="Shape-3" class="st1" d="M7.3,23.9C3.2,19.4,3.2,12.5,7.3,8L6.5,7.2c-4.6,5-4.6,12.6,0,17.6L7.3,23.9z"/>
<path id="Shape-2" class="st1" d="M8.1,7.3c4.5-4.1,11.4-4.1,15.9,0l0.8-0.8c-5-4.6-12.6-4.6-17.6,0L8.1,7.3z"/>
<path id="Shape" class="st1" d="M25.6,7.2L24.7,8c4.1,4.5,4.1,11.4,0,15.9l0.8,0.8C30.1,19.8,30.1,12.1,25.6,7.2L25.6,7.2z"/>
<path id="Outer" class="st2" d="M16,31.1C7.7,31.1,0.9,24.3,0.9,16C0.9,7.6,7.7,0.8,16,0.8c8.4,0,15.1,6.8,15.1,15.1
	C31.2,24.3,24.4,31.1,16,31.1C16,31.1,16,31.1,16,31.1z M16,2C8.3,2,2.1,8.3,2.1,16c0,7.7,6.3,13.9,14,13.9C23.7,29.9,30,23.7,30,16
	C30,8.3,23.7,2,16,2C16,2,16,2,16,2z"/>
<path id="BTC" class="st3" d="M21.3,13.2c-0.2-1.7-1.7-2.3-3.6-2.5V8.3h-1.5v2.3c-0.4,0-0.8,0-1.2,0V8.3h-1.5v2.4h-3v1.6
	c0,0,1.1,0,1.1,0c0.4,0,0.8,0.2,0.8,0.6v6.6c0,0.1-0.1,0.3-0.2,0.4C12.3,20,12.1,20,12,20c0,0-1.1,0-1.1,0l-0.3,1.7h2.9v2.4h1.5
	v-2.4h1.2v2.4h1.5v-2.4c2.5-0.1,4.2-0.8,4.4-3.1c0.2-1.9-0.7-2.7-2.1-3C20.9,15.2,21.4,14.5,21.3,13.2z M19.2,18.4
	c0,1.8-3.1,1.6-4.1,1.6v-3.2C16.1,16.8,19.2,16.5,19.2,18.4z M18.5,13.9c0,1.7-2.6,1.5-3.4,1.5v-2.9C15.9,12.4,18.5,12.1,18.5,13.9z
	"/>
</svg>
