<?xml version="1.0" encoding="utf-8"?>
<!-- Generator: Adobe Illustrator 19.0.0, SVG Export Plug-In . SVG Version: 6.00 Build 0)  -->
<svg version="1.1" id="Layer_1" xmlns="http://www.w3.org/2000/svg" xmlns:xlink="http://www.w3.org/1999/xlink" x="0px" y="0px"
	 viewBox="0 0 32 32" enable-background="new 0 0 32 32" xml:space="preserve">
<linearGradient id="XMLID_55_" gradientUnits="userSpaceOnUse" x1="26.7083" y1="5.2917" x2="5.2455" y2="26.7545">
	<stop  offset="0" style="stop-color:#2F68FB"/>
	<stop  offset="1" style="stop-color:#3723C3"/>
</linearGradient>
<path id="XMLID_9_" fill="url(#XMLID_55_)" d="M16,31.2L16,31.2C7.6,31.2,0.8,24.4,0.8,16v0C0.8,7.6,7.6,0.8,16,0.8h0
	c8.4,0,15.2,6.8,15.2,15.2v0C31.2,24.4,24.4,31.2,16,31.2z"/>
<g id="XMLID_1027_">
	<path id="XMLID_1028_" fill="#FFFFFF" d="M20.1,27.1V13.2c0-0.8-0.1-1.6-0.2-2.2c-0.1-0.6-0.3-1.2-0.6-1.6c-0.3-0.4-0.7-0.8-1.2-1
		C17.7,8.1,17.1,8,16.4,8c-0.8,0-1.4,0.2-2,0.5c-0.6,0.3-1,0.7-1.4,1.2c-0.4,0.5-0.7,1-0.9,1.6c-0.2,0.6-0.3,1.2-0.3,1.8v8.3h-1.3
		V7.1l1.2,0c0,0,0,2.7,0,2.7h0.1c0.3-0.7,0.7-1.2,1.1-1.6c0.4-0.4,0.8-0.7,1.3-0.9C14.6,7,15,6.9,15.4,6.8c0.4-0.1,0.8-0.1,1.2-0.1
		c0.8,0,1.5,0.1,2.1,0.4c0.6,0.3,1.1,0.6,1.5,1.1c0.4,0.5,0.7,1.1,0.9,1.8c0.2,0.7,0.3,1.5,0.3,2.4v14.6H20.1z"/>
</g>
</svg>
