<?xml version="1.0" encoding="utf-8"?>
<!-- Generator: Adobe Illustrator 19.0.0, SVG Export Plug-In . SVG Version: 6.00 Build 0)  -->
<svg version="1.1" id="Layer_1" xmlns="http://www.w3.org/2000/svg" xmlns:xlink="http://www.w3.org/1999/xlink" x="0px" y="0px"
	 viewBox="-399 476 200 50" style="enable-background:new -399 476 200 50;" xml:space="preserve">
<style type="text/css">
	.st0{fill:#FFFFFF;}
</style>
<g id="XMLID_300_">
	<path id="XMLID_301_" class="st0" d="M-320,525v-31.8c0-1.9-0.1-3.6-0.4-5c-0.3-1.5-0.8-2.7-1.4-3.7c-0.7-1-1.6-1.8-2.7-2.3
		s-2.5-0.8-4.1-0.8c-1.7,0-3.2,0.3-4.5,1c-1.4,0.6-2.5,1.5-3.4,2.6s-1.5,2.3-2,3.7c-0.4,1.4-0.7,2.7-0.7,4v18.9h-2.8v-32.3h2.7v6.2
		h0.1c0.7-1.5,1.6-2.8,2.5-3.7c0.9-0.9,1.9-1.6,2.9-2.1s2-0.8,3-0.9c1-0.1,1.9-0.2,2.7-0.2c1.8,0,3.4,0.3,4.7,0.9
		c1.4,0.5,2.6,1.4,3.5,2.5s1.6,2.5,2.1,4.1s0.7,3.5,0.7,5.5V525H-320z"/>
</g>
<g id="XMLID_285_">
	<g id="XMLID_161_">
		<path id="XMLID_174_" class="st0" d="M-302.8,504.4h-1.1v-3.1h-3.1v3.1h-1.1V498h1.1v2.8h3.1V498h1.1V504.4z"/>
		<path id="XMLID_171_" class="st0" d="M-292.3,504.4h-1.1l-0.4-1.4h-2.5l-0.4,1.4h-1.1l0,0l2.3-6.4h1.1L-292.3,504.4z M-294,502.5
			l-1.1-3.5l-1.1,3.5H-294z"/>
		<path id="XMLID_168_" class="st0" d="M-282.4,501.4c0,0.1-0.1,0.2-0.3,0.3c-0.2,0.1-0.4,0.1-0.7,0.1h-3v2.5h-1.1V498h4.1
			c0.3,0,0.5,0,0.7,0.1c0.2,0.1,0.3,0.2,0.3,0.3V501.4z M-283.5,501.4v-2.8h-2.8v2.8H-283.5z"/>
		<path id="XMLID_166_" class="st0" d="M-272.8,498.5h-2v5.9h-1.1v-5.9h-2V498h5.1V498.5z"/>
		<path id="XMLID_164_" class="st0" d="M-267,504.4h-1.1V498h1.1V504.4z"/>
		<path id="XMLID_162_" class="st0" d="M-256.4,504c0,0.1-0.1,0.2-0.3,0.3c-0.2,0.1-0.4,0.1-0.7,0.1h-3.3c-0.3,0-0.5,0-0.7-0.1
			c-0.2-0.1-0.3-0.2-0.3-0.3v-5.5c0-0.1,0.1-0.2,0.3-0.3c0.2-0.1,0.4-0.1,0.7-0.1h3.3c0.3,0,0.5,0,0.7,0.1c0.2,0.1,0.3,0.2,0.3,0.3
			v1.5h-1.1v-1.4h-2.8v5.4h2.8v-1.6h1.1V504z"/>
	</g>
</g>
</svg>
