<?xml version="1.0" encoding="utf-8"?>
<!-- Generator: Adobe Illustrator 19.0.0, SVG Export Plug-In . SVG Version: 6.00 Build 0)  -->
<svg version="1.1" id="Layer_1" xmlns="http://www.w3.org/2000/svg" xmlns:xlink="http://www.w3.org/1999/xlink" x="0px" y="0px"
	 viewBox="0 0 1038 193" style="enable-background:new 0 0 1038 193;" xml:space="preserve">
<style type="text/css">
	.st0{fill:#33429A;}
</style>
<g id="XMLID_256_">
	<path id="XMLID_257_" class="st0" d="M143.9,174.1V67.9c0-6.3-0.5-11.9-1.4-16.8c-0.9-4.9-2.5-9.1-4.8-12.4c-2.2-3.4-5.2-6-8.9-7.8
		c-3.7-1.8-8.3-2.7-13.8-2.7c-5.7,0-10.8,1.2-15.1,3.5c-4.4,2.3-8,5.3-10.9,8.9c-2.9,3.6-5.1,7.7-6.6,12.2c-1.5,4.5-2.2,9-2.2,13.4
		v63.2h-9.7V21.5l9.1,0c0,0,0,20.6,0,20.6H80c2.4-5.1,5.2-9.2,8.3-12.3c3.2-3.1,6.4-5.4,9.8-7c3.3-1.6,6.7-2.7,9.9-3.2
		c3.3-0.5,6.3-0.7,9-0.7c6,0,11.3,1,15.8,3c4.6,2,8.4,4.9,11.5,8.6c3.1,3.7,5.3,8.3,6.9,13.8c1.5,5.5,2.3,11.6,2.3,18.3v111.4H143.9
		z"/>
</g>
<g id="XMLID_56_">
	<path id="XMLID_57_" class="st0" d="M267.8,115.2c0,0.2,0,0.3-0.1,0.4c-0.1,0.1-0.2,0.2-0.4,0.3c-0.2,0.1-0.5,0.1-0.8,0.2
		s-0.7,0.1-1.2,0.1c-0.5,0-0.9,0-1.2-0.1c-0.3,0-0.6-0.1-0.8-0.2c-0.2-0.1-0.3-0.2-0.4-0.3c-0.1-0.1-0.1-0.3-0.1-0.4V98.4h-17.3
		v16.8c0,0.2,0,0.3-0.1,0.4c-0.1,0.1-0.2,0.2-0.4,0.3c-0.2,0.1-0.5,0.1-0.8,0.2s-0.7,0.1-1.2,0.1c-0.5,0-0.9,0-1.2-0.1
		c-0.3,0-0.6-0.1-0.8-0.2c-0.2-0.1-0.3-0.2-0.4-0.3c-0.1-0.1-0.1-0.3-0.1-0.4V78.9c0-0.2,0-0.3,0.1-0.4c0.1-0.1,0.2-0.2,0.4-0.3
		c0.2-0.1,0.5-0.1,0.8-0.2c0.3,0,0.7-0.1,1.2-0.1c0.5,0,0.9,0,1.2,0.1c0.3,0,0.6,0.1,0.8,0.2c0.2,0.1,0.3,0.2,0.4,0.3
		c0.1,0.1,0.1,0.3,0.1,0.4V94h17.3V78.9c0-0.2,0-0.3,0.1-0.4c0.1-0.1,0.2-0.2,0.4-0.3c0.2-0.1,0.4-0.1,0.8-0.2
		c0.3,0,0.7-0.1,1.2-0.1c0.5,0,0.9,0,1.2,0.1c0.3,0,0.6,0.1,0.8,0.2c0.2,0.1,0.3,0.2,0.4,0.3c0.1,0.1,0.1,0.3,0.1,0.4V115.2z"/>
	<path id="XMLID_59_" class="st0" d="M330.2,114.2c0.2,0.4,0.2,0.8,0.2,1c0,0.3-0.1,0.5-0.2,0.6c-0.2,0.1-0.4,0.2-0.8,0.3
		c-0.4,0-0.8,0.1-1.5,0.1c-0.6,0-1.1,0-1.5,0c-0.4,0-0.6-0.1-0.8-0.1c-0.2-0.1-0.3-0.2-0.4-0.3s-0.2-0.3-0.2-0.4l-3.3-9.2h-15.8
		l-3.1,9.1c-0.1,0.2-0.1,0.3-0.2,0.5c-0.1,0.1-0.2,0.2-0.4,0.3c-0.2,0.1-0.4,0.2-0.8,0.2c-0.3,0-0.8,0.1-1.3,0.1c-0.6,0-1,0-1.4-0.1
		c-0.4,0-0.6-0.1-0.8-0.3c-0.1-0.1-0.2-0.3-0.2-0.6c0-0.3,0.1-0.6,0.2-1L310.8,79c0.1-0.2,0.2-0.4,0.3-0.5c0.1-0.1,0.3-0.2,0.6-0.3
		c0.2-0.1,0.6-0.1,0.9-0.2s0.9,0,1.5,0c0.6,0,1.1,0,1.6,0s0.7,0.1,1,0.2c0.3,0.1,0.4,0.2,0.6,0.3c0.1,0.1,0.2,0.3,0.3,0.5
		L330.2,114.2z M313.9,83.1L313.9,83.1l-6.6,18.9h13.2L313.9,83.1z"/>
	<path id="XMLID_62_" class="st0" d="M383.9,89.2c0,1.9-0.3,3.6-0.9,5.1s-1.5,2.8-2.7,3.9c-1.2,1.1-2.6,1.9-4.3,2.5
		c-1.7,0.6-3.7,0.9-6.1,0.9h-4.3v13.7c0,0.2,0,0.3-0.1,0.4s-0.2,0.2-0.4,0.3c-0.2,0.1-0.4,0.1-0.8,0.2s-0.7,0.1-1.2,0.1
		c-0.5,0-0.9,0-1.2-0.1s-0.6-0.1-0.8-0.2c-0.2-0.1-0.3-0.2-0.4-0.3c-0.1-0.1-0.1-0.3-0.1-0.4v-35c0-0.8,0.2-1.3,0.6-1.7
		c0.4-0.3,0.9-0.5,1.4-0.5h8.1c0.8,0,1.6,0,2.4,0.1c0.8,0.1,1.6,0.2,2.7,0.4c1,0.2,2.1,0.6,3.1,1.3s2,1.4,2.7,2.3
		c0.7,0.9,1.3,1.9,1.7,3.1C383.7,86.5,383.9,87.8,383.9,89.2z M378.5,89.6c0-1.5-0.3-2.8-0.9-3.9c-0.6-1-1.3-1.8-2.1-2.3
		c-0.8-0.5-1.7-0.8-2.6-1c-0.9-0.1-1.8-0.2-2.7-0.2h-4.7v15.2h4.5c1.5,0,2.8-0.2,3.8-0.6c1-0.4,1.9-0.9,2.5-1.6
		c0.7-0.7,1.2-1.5,1.6-2.5S378.5,90.7,378.5,89.6z"/>
	<path id="XMLID_65_" class="st0" d="M439.1,80.3c0,0.4,0,0.7-0.1,1c0,0.3-0.1,0.5-0.2,0.7c-0.1,0.2-0.2,0.3-0.3,0.4
		c-0.1,0.1-0.3,0.1-0.4,0.1h-10.7v32.9c0,0.2,0,0.3-0.1,0.4s-0.2,0.2-0.4,0.3c-0.2,0.1-0.5,0.1-0.8,0.2s-0.7,0.1-1.2,0.1
		c-0.5,0-0.9,0-1.2-0.1s-0.6-0.1-0.8-0.2c-0.2-0.1-0.3-0.2-0.4-0.3s-0.1-0.3-0.1-0.4V82.4h-10.7c-0.2,0-0.3,0-0.4-0.1
		c-0.1-0.1-0.2-0.2-0.3-0.4c-0.1-0.2-0.1-0.4-0.2-0.7c0-0.3-0.1-0.6-0.1-1c0-0.4,0-0.7,0.1-1c0-0.3,0.1-0.5,0.2-0.7s0.2-0.3,0.3-0.4
		c0.1-0.1,0.3-0.1,0.4-0.1h26.4c0.2,0,0.3,0,0.4,0.1c0.1,0.1,0.2,0.2,0.3,0.4s0.2,0.4,0.2,0.7C439,79.6,439.1,79.9,439.1,80.3z"/>
	<path id="XMLID_67_" class="st0" d="M473.6,115.2c0,0.2,0,0.3-0.1,0.4s-0.2,0.2-0.4,0.3c-0.2,0.1-0.5,0.1-0.8,0.2s-0.7,0.1-1.2,0.1
		c-0.5,0-0.9,0-1.2-0.1s-0.6-0.1-0.8-0.2c-0.2-0.1-0.3-0.2-0.4-0.3s-0.1-0.3-0.1-0.4V78.9c0-0.2,0-0.3,0.1-0.4s0.2-0.2,0.4-0.3
		c0.2-0.1,0.5-0.1,0.8-0.2c0.3,0,0.7-0.1,1.2-0.1c0.5,0,0.9,0,1.2,0.1c0.3,0,0.6,0.1,0.8,0.2c0.2,0.1,0.3,0.2,0.4,0.3
		s0.1,0.3,0.1,0.4V115.2z"/>
	<path id="XMLID_69_" class="st0" d="M533,110.6c0,0.3,0,0.6,0,0.8s-0.1,0.4-0.1,0.6s-0.1,0.3-0.2,0.5c-0.1,0.1-0.2,0.3-0.4,0.5
		c-0.2,0.2-0.6,0.5-1.2,0.9c-0.6,0.4-1.4,0.8-2.3,1.2s-2,0.7-3.2,1s-2.5,0.4-3.9,0.4c-2.5,0-4.7-0.4-6.7-1.2s-3.7-2-5.1-3.6
		c-1.4-1.6-2.5-3.6-3.2-5.9c-0.8-2.4-1.1-5.1-1.1-8.1c0-3.1,0.4-5.9,1.2-8.4s1.9-4.5,3.4-6.3c1.5-1.7,3.2-3,5.3-3.9
		c2-0.9,4.3-1.3,6.8-1.3c1.1,0,2.2,0.1,3.2,0.3s2,0.5,2.9,0.8c0.9,0.3,1.7,0.7,2.3,1.1s1.2,0.7,1.4,1s0.4,0.5,0.5,0.6
		c0.1,0.1,0.1,0.3,0.2,0.5c0,0.2,0.1,0.4,0.1,0.7c0,0.3,0,0.6,0,0.9c0,0.4,0,0.7-0.1,1c0,0.3-0.1,0.5-0.2,0.7
		c-0.1,0.2-0.2,0.3-0.3,0.4c-0.1,0.1-0.2,0.1-0.4,0.1c-0.3,0-0.7-0.2-1.1-0.6c-0.5-0.4-1.1-0.8-1.9-1.3c-0.8-0.5-1.7-0.9-2.8-1.3
		s-2.4-0.6-4-0.6c-1.7,0-3.2,0.3-4.6,1c-1.4,0.7-2.6,1.7-3.5,3c-1,1.3-1.7,2.9-2.3,4.8c-0.5,1.9-0.8,4-0.8,6.5
		c0,2.4,0.3,4.5,0.8,6.4s1.3,3.4,2.2,4.6c1,1.2,2.2,2.2,3.6,2.8c1.4,0.6,3,1,4.8,1c1.5,0,2.8-0.2,4-0.6c1.1-0.4,2.1-0.8,2.9-1.2
		c0.8-0.5,1.4-0.9,2-1.2c0.5-0.4,0.9-0.6,1.2-0.6c0.1,0,0.3,0,0.4,0.1c0.1,0.1,0.2,0.2,0.2,0.3c0.1,0.2,0.1,0.4,0.1,0.7
		S533,110.2,533,110.6z"/>
	<path id="XMLID_71_" class="st0" d="M621.1,80.3c0,0.4,0,0.7-0.1,1c0,0.3-0.1,0.5-0.2,0.7c-0.1,0.2-0.2,0.3-0.3,0.4
		c-0.1,0.1-0.3,0.1-0.4,0.1h-13.9v12.9h13.1c0.1,0,0.3,0,0.4,0.1c0.1,0.1,0.2,0.2,0.3,0.3c0.1,0.2,0.2,0.4,0.2,0.6s0.1,0.6,0.1,1
		c0,0.4,0,0.7-0.1,1s-0.1,0.5-0.2,0.6c-0.1,0.2-0.2,0.3-0.3,0.4s-0.3,0.1-0.4,0.1h-13.1v15.8c0,0.1,0,0.3-0.1,0.4
		c-0.1,0.1-0.2,0.2-0.4,0.3c-0.2,0.1-0.4,0.1-0.8,0.2s-0.7,0.1-1.2,0.1c-0.5,0-0.9,0-1.2-0.1s-0.6-0.1-0.8-0.2
		c-0.2-0.1-0.3-0.2-0.4-0.3c-0.1-0.1-0.1-0.3-0.1-0.4V80.1c0-0.8,0.2-1.3,0.6-1.6c0.4-0.3,0.8-0.5,1.3-0.5h17.1c0.1,0,0.3,0,0.4,0.1
		c0.1,0.1,0.2,0.2,0.3,0.4s0.2,0.4,0.2,0.7C621.1,79.6,621.1,79.9,621.1,80.3z"/>
	<path id="XMLID_73_" class="st0" d="M657.8,115.2c0,0.2,0,0.3-0.1,0.4s-0.2,0.2-0.4,0.3c-0.2,0.1-0.5,0.1-0.8,0.2s-0.7,0.1-1.2,0.1
		c-0.5,0-0.9,0-1.2-0.1s-0.6-0.1-0.8-0.2c-0.2-0.1-0.3-0.2-0.4-0.3s-0.1-0.3-0.1-0.4V78.9c0-0.2,0-0.3,0.1-0.4s0.2-0.2,0.4-0.3
		c0.2-0.1,0.5-0.1,0.8-0.2c0.3,0,0.7-0.1,1.2-0.1c0.5,0,0.9,0,1.2,0.1c0.3,0,0.6,0.1,0.8,0.2c0.2,0.1,0.3,0.2,0.4,0.3
		s0.1,0.3,0.1,0.4V115.2z"/>
	<path id="XMLID_75_" class="st0" d="M720.5,113.9c0,0.4-0.1,0.7-0.2,1c-0.1,0.3-0.3,0.5-0.5,0.7s-0.4,0.3-0.7,0.4
		c-0.3,0.1-0.5,0.1-0.8,0.1h-1.7c-0.5,0-1-0.1-1.4-0.2c-0.4-0.1-0.8-0.3-1.1-0.6c-0.4-0.3-0.7-0.7-1.1-1.2c-0.4-0.5-0.7-1.1-1.1-1.9
		l-11.6-21.6c-0.6-1.1-1.2-2.3-1.8-3.5c-0.6-1.2-1.2-2.4-1.7-3.6h-0.1c0,1.4,0.1,2.8,0.1,4.3s0,2.9,0,4.4v22.9c0,0.1,0,0.3-0.1,0.4
		c-0.1,0.1-0.2,0.2-0.4,0.3c-0.2,0.1-0.5,0.1-0.8,0.2s-0.7,0.1-1.2,0.1c-0.5,0-0.9,0-1.2-0.1c-0.3,0-0.6-0.1-0.8-0.2
		c-0.2-0.1-0.3-0.2-0.4-0.3c-0.1-0.1-0.1-0.3-0.1-0.4v-35c0-0.8,0.2-1.3,0.7-1.7c0.4-0.3,0.9-0.5,1.5-0.5h2.5c0.6,0,1.1,0,1.5,0.1
		c0.4,0.1,0.7,0.3,1.1,0.5c0.3,0.2,0.6,0.5,0.9,0.9c0.3,0.4,0.6,0.9,0.9,1.5l8.9,16.6c0.5,1,1.1,2,1.6,3s1,1.9,1.5,2.9
		c0.5,0.9,0.9,1.9,1.4,2.8c0.5,0.9,0.9,1.8,1.4,2.7h0c0-1.5-0.1-3.1-0.1-4.8s0-3.3,0-4.8V78.9c0-0.1,0-0.3,0.1-0.4
		c0.1-0.1,0.2-0.2,0.4-0.3c0.2-0.1,0.5-0.2,0.8-0.2c0.3,0,0.7-0.1,1.3-0.1c0.5,0,0.8,0,1.2,0.1c0.3,0,0.6,0.1,0.8,0.2
		s0.3,0.2,0.4,0.3c0.1,0.1,0.1,0.2,0.1,0.4V113.9z"/>
	<path id="XMLID_77_" class="st0" d="M783,114.2c0.2,0.4,0.2,0.8,0.2,1s-0.1,0.5-0.2,0.6c-0.2,0.1-0.4,0.2-0.8,0.3s-0.8,0.1-1.5,0.1
		s-1.1,0-1.5,0s-0.6-0.1-0.8-0.1s-0.3-0.2-0.4-0.3s-0.2-0.3-0.2-0.4l-3.3-9.2h-15.8l-3.1,9.1c-0.1,0.2-0.1,0.3-0.2,0.5
		c-0.1,0.1-0.2,0.2-0.4,0.3s-0.4,0.2-0.8,0.2s-0.8,0.1-1.3,0.1c-0.6,0-1,0-1.4-0.1s-0.6-0.1-0.8-0.3c-0.1-0.1-0.2-0.3-0.2-0.6
		s0.1-0.6,0.2-1L763.6,79c0.1-0.2,0.2-0.4,0.3-0.5c0.1-0.1,0.3-0.2,0.6-0.3c0.2-0.1,0.6-0.1,0.9-0.2s0.9,0,1.5,0c0.6,0,1.1,0,1.6,0
		s0.7,0.1,1,0.2c0.3,0.1,0.4,0.2,0.6,0.3s0.2,0.3,0.3,0.5L783,114.2z M766.7,83.1L766.7,83.1l-6.6,18.9h13.2L766.7,83.1z"/>
	<path id="XMLID_80_" class="st0" d="M842,113.9c0,0.4-0.1,0.7-0.2,1c-0.1,0.3-0.3,0.5-0.5,0.7s-0.4,0.3-0.7,0.4
		c-0.3,0.1-0.5,0.1-0.8,0.1h-1.7c-0.5,0-1-0.1-1.4-0.2c-0.4-0.1-0.8-0.3-1.1-0.6c-0.4-0.3-0.7-0.7-1.1-1.2c-0.4-0.5-0.7-1.1-1.1-1.9
		l-11.6-21.6c-0.6-1.1-1.2-2.3-1.8-3.5c-0.6-1.2-1.2-2.4-1.7-3.6h-0.1c0,1.4,0.1,2.8,0.1,4.3s0,2.9,0,4.4v22.9c0,0.1,0,0.3-0.1,0.4
		c-0.1,0.1-0.2,0.2-0.4,0.3c-0.2,0.1-0.5,0.1-0.8,0.2s-0.7,0.1-1.2,0.1c-0.5,0-0.9,0-1.2-0.1c-0.3,0-0.6-0.1-0.8-0.2
		c-0.2-0.1-0.3-0.2-0.4-0.3c-0.1-0.1-0.1-0.3-0.1-0.4v-35c0-0.8,0.2-1.3,0.7-1.7c0.4-0.3,0.9-0.5,1.5-0.5h2.5c0.6,0,1.1,0,1.5,0.1
		c0.4,0.1,0.7,0.3,1.1,0.5c0.3,0.2,0.6,0.5,0.9,0.9c0.3,0.4,0.6,0.9,0.9,1.5l8.9,16.6c0.5,1,1.1,2,1.6,3s1,1.9,1.5,2.9
		c0.5,0.9,0.9,1.9,1.4,2.8c0.5,0.9,0.9,1.8,1.4,2.7h0c0-1.5-0.1-3.1-0.1-4.8s0-3.3,0-4.8V78.9c0-0.1,0-0.3,0.1-0.4
		c0.1-0.1,0.2-0.2,0.4-0.3c0.2-0.1,0.5-0.2,0.8-0.2c0.3,0,0.7-0.1,1.3-0.1c0.5,0,0.8,0,1.2,0.1c0.3,0,0.6,0.1,0.8,0.2
		s0.3,0.2,0.4,0.3c0.1,0.1,0.1,0.2,0.1,0.4V113.9z"/>
	<path id="XMLID_82_" class="st0" d="M901.4,110.6c0,0.3,0,0.6,0,0.8s-0.1,0.4-0.1,0.6s-0.1,0.3-0.2,0.5c-0.1,0.1-0.2,0.3-0.4,0.5
		c-0.2,0.2-0.6,0.5-1.2,0.9c-0.6,0.4-1.4,0.8-2.3,1.2s-2,0.7-3.2,1s-2.5,0.4-3.9,0.4c-2.5,0-4.7-0.4-6.7-1.2s-3.7-2-5.1-3.6
		c-1.4-1.6-2.5-3.6-3.2-5.9c-0.8-2.4-1.1-5.1-1.1-8.1c0-3.1,0.4-5.9,1.2-8.4s1.9-4.5,3.4-6.3c1.5-1.7,3.2-3,5.3-3.9
		c2-0.9,4.3-1.3,6.8-1.3c1.1,0,2.2,0.1,3.2,0.3s2,0.5,2.9,0.8c0.9,0.3,1.7,0.7,2.3,1.1s1.2,0.7,1.4,1s0.4,0.5,0.5,0.6
		c0.1,0.1,0.1,0.3,0.2,0.5c0,0.2,0.1,0.4,0.1,0.7c0,0.3,0,0.6,0,0.9c0,0.4,0,0.7-0.1,1c0,0.3-0.1,0.5-0.2,0.7
		c-0.1,0.2-0.2,0.3-0.3,0.4c-0.1,0.1-0.2,0.1-0.4,0.1c-0.3,0-0.7-0.2-1.1-0.6c-0.5-0.4-1.1-0.8-1.9-1.3c-0.8-0.5-1.7-0.9-2.8-1.3
		s-2.4-0.6-4-0.6c-1.7,0-3.2,0.3-4.6,1c-1.4,0.7-2.6,1.7-3.5,3c-1,1.3-1.7,2.9-2.3,4.8c-0.5,1.9-0.8,4-0.8,6.5
		c0,2.4,0.3,4.5,0.8,6.4s1.3,3.4,2.2,4.6c1,1.2,2.2,2.2,3.6,2.8c1.4,0.6,3,1,4.8,1c1.5,0,2.8-0.2,4-0.6c1.1-0.4,2.1-0.8,2.9-1.2
		c0.8-0.5,1.4-0.9,2-1.2c0.5-0.4,0.9-0.6,1.2-0.6c0.1,0,0.3,0,0.4,0.1c0.1,0.1,0.2,0.2,0.2,0.3c0.1,0.2,0.1,0.4,0.1,0.7
		S901.4,110.2,901.4,110.6z"/>
	<path id="XMLID_84_" class="st0" d="M953.2,113.9c0,0.4,0,0.7-0.1,0.9s-0.1,0.5-0.2,0.7s-0.2,0.3-0.3,0.4c-0.1,0.1-0.3,0.1-0.4,0.1
		h-18.2c-0.4,0-0.9-0.2-1.3-0.5c-0.4-0.3-0.6-0.8-0.6-1.6V80.1c0-0.8,0.2-1.3,0.6-1.6c0.4-0.3,0.8-0.5,1.3-0.5h18
		c0.2,0,0.3,0,0.4,0.1c0.1,0.1,0.2,0.2,0.3,0.4s0.1,0.4,0.2,0.7s0.1,0.6,0.1,1c0,0.4,0,0.7-0.1,0.9s-0.1,0.5-0.2,0.6
		c-0.1,0.2-0.2,0.3-0.3,0.4c-0.1,0.1-0.3,0.1-0.4,0.1h-14.8v11.9h12.7c0.2,0,0.3,0,0.4,0.1s0.2,0.2,0.3,0.4c0.1,0.2,0.2,0.4,0.2,0.6
		c0,0.3,0.1,0.6,0.1,1c0,0.4,0,0.7-0.1,0.9c0,0.3-0.1,0.5-0.2,0.6c-0.1,0.2-0.2,0.3-0.3,0.3c-0.1,0.1-0.3,0.1-0.4,0.1h-12.7v13.6h15
		c0.2,0,0.3,0,0.4,0.1c0.1,0.1,0.2,0.2,0.3,0.4c0.1,0.2,0.2,0.4,0.2,0.6S953.2,113.5,953.2,113.9z"/>
</g>
</svg>
