<?xml version="1.0" encoding="utf-8"?>
<!-- Generator: Adobe Illustrator 19.0.0, SVG Export Plug-In . SVG Version: 6.00 Build 0)  -->
<svg version="1.1" id="Layer_1" xmlns="http://www.w3.org/2000/svg" xmlns:xlink="http://www.w3.org/1999/xlink" x="0px" y="0px"
	 viewBox="0 0 100 50" style="enable-background:new 0 0 100 50;" xml:space="preserve">
<style type="text/css">
	.st0{fill:#33429A;}
</style>
<g id="XMLID_300_">
	<path id="XMLID_301_" class="st0" d="M29,49V17.2c0-1.9-0.1-3.6-0.4-5c-0.3-1.5-0.8-2.7-1.4-3.7c-0.7-1-1.6-1.8-2.7-2.3
		c-1.1-0.5-2.5-0.8-4.1-0.8c-1.7,0-3.2,0.3-4.5,1C14.5,7,13.4,7.9,12.5,9c-0.9,1.1-1.5,2.3-2,3.7c-0.4,1.4-0.7,2.7-0.7,4v18.9H7V3.3
		l2.7,0c0,0,0,6.2,0,6.2h0.1c0.7-1.5,1.6-2.8,2.5-3.7c0.9-0.9,1.9-1.6,2.9-2.1c1-0.5,2-0.8,3-0.9c1-0.1,1.9-0.2,2.7-0.2
		c1.8,0,3.4,0.3,4.7,0.9C27,4,28.2,4.9,29.1,6c0.9,1.1,1.6,2.5,2.1,4.1c0.5,1.6,0.7,3.5,0.7,5.5V49H29z"/>
</g>
<g id="XMLID_285_">
	<g id="XMLID_161_">
		<path id="XMLID_174_" class="st0" d="M46.2,28.4h-1.1v-3.1H42v3.1h-1.1V22H42v2.8h3.1V22h1.1V28.4z"/>
		<path id="XMLID_171_" class="st0" d="M56.7,28.4h-1.1L55.2,27h-2.5l-0.4,1.4h-1.1v0l2.3-6.4h1.1L56.7,28.4z M55,26.5L53.9,23
			l-1.1,3.5H55z"/>
		<path id="XMLID_168_" class="st0" d="M66.6,25.4c0,0.1-0.1,0.2-0.3,0.3c-0.2,0.1-0.4,0.1-0.7,0.1h-3v2.5h-1.1V22h4.1
			c0.3,0,0.5,0,0.7,0.1c0.2,0.1,0.3,0.2,0.3,0.3V25.4z M65.5,25.4v-2.8h-2.8v2.8H65.5z"/>
		<path id="XMLID_166_" class="st0" d="M76.2,22.5h-2v5.9h-1.1v-5.9h-2V22h5.1V22.5z"/>
		<path id="XMLID_164_" class="st0" d="M82,28.4h-1.1V22H82V28.4z"/>
		<path id="XMLID_162_" class="st0" d="M92.6,28c0,0.1-0.1,0.2-0.3,0.3c-0.2,0.1-0.4,0.1-0.7,0.1h-3.3c-0.3,0-0.5,0-0.7-0.1
			c-0.2-0.1-0.3-0.2-0.3-0.3v-5.5c0-0.1,0.1-0.2,0.3-0.3c0.2-0.1,0.4-0.1,0.7-0.1h3.3c0.3,0,0.5,0,0.7,0.1c0.2,0.1,0.3,0.2,0.3,0.3
			V24h-1.1v-1.4h-2.8v5.4h2.8v-1.6h1.1V28z"/>
	</g>
</g>
</svg>
