<?xml version="1.0" encoding="utf-8"?>
<!-- Generator: Adobe Illustrator 19.0.0, SVG Export Plug-In . SVG Version: 6.00 Build 0)  -->
<svg version="1.1" id="Layer_1" xmlns:serif="http://www.serif.com/"
	 xmlns="http://www.w3.org/2000/svg" xmlns:xlink="http://www.w3.org/1999/xlink" x="0px" y="0px" viewBox="200 0 560 560"
	 style="enable-background:new 200 0 560 560;" xml:space="preserve">
<style type="text/css">
	.st0{fill:none;stroke:url(#SVGID_1_);stroke-width:0.75;stroke-miterlimit:10;}
	.st1{fill:none;stroke:url(#SVGID_2_);stroke-width:0.75;stroke-miterlimit:10;}
	.st2{fill:none;stroke:url(#SVGID_3_);stroke-width:0.75;stroke-miterlimit:10;}
	.st3{fill:none;stroke:url(#SVGID_4_);stroke-width:0.75;stroke-miterlimit:10;}
	.st4{fill:none;stroke:url(#SVGID_5_);stroke-width:0.75;stroke-miterlimit:10;}
	.st5{fill:none;stroke:url(#SVGID_6_);stroke-width:0.75;stroke-miterlimit:10;}
	.st6{fill:none;stroke:url(#SVGID_7_);stroke-width:0.75;stroke-miterlimit:10;}
	.st7{fill:none;stroke:url(#SVGID_8_);stroke-width:0.75;stroke-miterlimit:10;}
	.st8{fill:url(#SVGID_9_);}
	.st9{fill:#FFFFFF;}
	.st10{fill:url(#SVGID_10_);}
	.st11{fill:url(#SVGID_11_);}
	.st12{fill:url(#SVGID_12_);}
</style>
<linearGradient id="SVGID_1_" gradientUnits="userSpaceOnUse" x1="606.3294" y1="419.6349" x2="338.2403" y2="151.5458">
	<stop  offset="0" style="stop-color:#0031BF"/>
	<stop  offset="1" style="stop-color:#300094"/>
</linearGradient>
<ellipse class="st0" cx="472.3" cy="285.6" rx="76.6" ry="256.3"/>
<linearGradient id="SVGID_2_" gradientUnits="userSpaceOnUse" x1="606.3207" y1="419.6267" x2="338.2489" y2="151.5549">
	<stop  offset="0" style="stop-color:#0031BF"/>
	<stop  offset="1" style="stop-color:#300094"/>
</linearGradient>
<path class="st1" d="M472.3,29.3c42.3,0,76.6,114.8,76.6,256.3c0,141.5-34.3,256.3-76.6,256.3S395.7,427,395.7,285.6
	C395.7,144.1,430,29.3,472.3,29.3z"/>
<linearGradient id="SVGID_3_" gradientUnits="userSpaceOnUse" x1="603.5625" y1="416.8678" x2="341.0069" y2="154.3122">
	<stop  offset="0" style="stop-color:#0031BF"/>
	<stop  offset="1" style="stop-color:#300094"/>
</linearGradient>
<path class="st2" d="M472.3,33.3c11.6,0,22.1,9.9,31.7,26.6c24.4,42.3,40.9,127.5,40.9,225.7c0,98.1-16.5,183.4-40.9,225.7
	c-9.6,16.7-20.2,26.6-31.7,26.6c-11.6,0-22.1-9.9-31.7-26.6c-24.4-42.3-40.9-127.5-40.9-225.7c0-98.1,16.5-183.4,40.9-225.7
	C450.2,43.2,460.7,33.3,472.3,33.3z"/>
<g transform="matrix(0.604508,0,0,2.25234,366.088,-531.29)">
	<linearGradient id="SVGID_4_" gradientUnits="userSpaceOnUse" x1="397.4299" y1="422.1908" x2="129.3245" y2="154.0853">
		<stop  offset="0" style="stop-color:#0031BF"/>
		<stop  offset="1" style="stop-color:#300094"/>
	</linearGradient>
	<ellipse class="st3" cx="175.7" cy="362.7" rx="126.7" ry="113.8"/>
</g>
<linearGradient id="SVGID_5_" gradientUnits="userSpaceOnUse" x1="648.7687" y1="459.936" x2="296.4805" y2="107.6478">
	<stop  offset="0" style="stop-color:#0031BF"/>
	<stop  offset="1" style="stop-color:#300094"/>
</linearGradient>
<path class="st4" d="M251.4,154.3c21.4-36.5,137.8-8.1,259.9,63.4c122.1,71.5,203.9,159.1,182.5,195.6
	c-21.4,36.5-137.8,8.1-259.9-63.4C311.9,278.4,230.1,190.8,251.4,154.3z"/>
<linearGradient id="SVGID_6_" gradientUnits="userSpaceOnUse" x1="645.9706" y1="457.1383" x2="299.2762" y2="110.444">
	<stop  offset="0" style="stop-color:#0031BF"/>
	<stop  offset="1" style="stop-color:#300094"/>
</linearGradient>
<path class="st5" d="M254.9,156.3c5.9-10,19.7-14.1,39-13.9c48.8,0.3,130.7,29.2,215.4,78.7C594,270.7,659.2,328,683.4,370.4
	c9.6,16.7,12.8,30.8,7,40.8c-5.9,10-19.7,14.1-39,13.9c-48.8-0.3-130.7-29.2-215.4-78.7C351.2,296.9,286,239.6,261.8,197.2
	C252.3,180.4,249,166.3,254.9,156.3z"/>
<linearGradient id="SVGID_7_" gradientUnits="userSpaceOnUse" x1="544.5097" y1="352.9034" x2="404.1178" y2="212.5115">
	<stop  offset="0" style="stop-color:#0031BF"/>
	<stop  offset="1" style="stop-color:#300094"/>
</linearGradient>
<path class="st6" d="M252.7,411.5c-21.2-36.5,60.8-123.9,183.1-195c122.3-71.1,238.8-99.1,260.1-62.6
	c21.2,36.5-60.8,123.9-183.1,195C390.5,420,274,448.1,252.7,411.5z"/>
<linearGradient id="SVGID_8_" gradientUnits="userSpaceOnUse" x1="541.7186" y1="350.1144" x2="406.9068" y2="215.3026">
	<stop  offset="0" style="stop-color:#0031BF"/>
	<stop  offset="1" style="stop-color:#300094"/>
</linearGradient>
<path class="st7" d="M256.2,409.5c-5.8-10-2.5-24.1,7.1-40.8c24.3-42.3,89.7-99.4,174.6-148.8c84.8-49.3,166.8-77.9,215.7-78.1
	c19.3-0.1,33.2,4,39,14c5.8,10,2.5,24.1-7.1,40.8c-24.3,42.3-89.7,99.4-174.6,148.8C426,394.8,344,423.4,295.1,423.6
	C275.9,423.6,262,419.5,256.2,409.5L256.2,409.5z"/>
<g transform="matrix(-0.328975,0.150332,-0.261227,-0.685404,2177.79,3407.63)">
	
		<radialGradient id="SVGID_9_" cx="2829.2632" cy="4774.9561" r="0.9155" gradientTransform="matrix(29.2844 15.5553 56.3155 -29.2844 -350474.4375 100447.1484)" gradientUnits="userSpaceOnUse">
		<stop  offset="0" style="stop-color:#FFFFFF"/>
		<stop  offset="1" style="stop-color:#9E9E9E"/>
	</radialGradient>
	
		<ellipse transform="matrix(0.9095 0.4156 -0.4156 0.9095 2043.7236 -136.6389)" class="st8" cx="1335.7" cy="4626.5" rx="52.7" ry="26"/>
	<path class="st9" d="M1333.3,4587.4c-43.7-0.7-78.1,16.2-76.8,37.8c1.4,21.6,38,39.6,81.7,40.4s78.1-16.2,76.8-37.8
		C1413.6,4606.2,1377,4588.1,1333.3,4587.4z M1334.1,4600.4c29.1,0.5,53.5,12.5,54.4,26.9c0.9,14.4-22,25.6-51.1,25.2
		c-29.1-0.5-53.5-12.5-54.4-26.9S1305,4600,1334.1,4600.4z"/>
</g>
<g transform="matrix(-0.328975,0.150332,-0.261227,-0.685404,2415.37,1718.48)">
	
		<radialGradient id="SVGID_10_" cx="5110.6123" cy="2811.803" r="0.9155" gradientTransform="matrix(29.2844 15.5553 56.3155 -29.2844 -304842.8438 5838.481)" gradientUnits="userSpaceOnUse">
		<stop  offset="0" style="stop-color:#FFFFFF"/>
		<stop  offset="1" style="stop-color:#9E9E9E"/>
	</radialGradient>
	
		<ellipse transform="matrix(0.9095 0.4156 -0.4156 0.9095 1535.8361 -1067.088)" class="st10" cx="3219.2" cy="2994.5" rx="52.7" ry="26"/>
	<path class="st9" d="M3216.7,2955.5c-43.7-0.7-78.1,16.2-76.8,37.8c1.4,21.6,38,39.6,81.7,40.4s78.1-16.2,76.8-37.8
		C3297.1,2974.3,3260.4,2956.2,3216.7,2955.5z M3217.5,2968.5c29.1,0.5,53.5,12.5,54.4,26.9c0.9,14.4-22,25.6-51.1,25.2
		c-29.1-0.5-53.5-12.5-54.4-26.9C3165.5,2979.3,3188.4,2968,3217.5,2968.5z"/>
</g>
<g transform="matrix(-0.328975,0.150332,-0.261227,-0.685404,985.412,2356.79)">
	
		<radialGradient id="SVGID_11_" cx="777.5507" cy="2792.3567" r="0.9155" gradientTransform="matrix(29.2844 15.5553 56.3155 -29.2844 -180391.4219 72668.5547)" gradientUnits="userSpaceOnUse">
		<stop  offset="0" style="stop-color:#FFFFFF"/>
		<stop  offset="1" style="stop-color:#9E9E9E"/>
	</radialGradient>
	
		<ellipse transform="matrix(0.9095 0.4156 -0.4156 0.9095 1215.0358 401.808)" class="st11" cx="-315.5" cy="2992" rx="52.7" ry="26"/>
	<path class="st9" d="M-318,2953c-43.7-0.7-78.1,16.2-76.8,37.8c1.4,21.6,38,39.6,81.7,40.4s78.1-16.2,76.8-37.8
		C-237.6,2971.8-274.3,2953.7-318,2953z M-317.2,2966c29.1,0.5,53.5,12.5,54.4,26.9c0.9,14.4-22,25.6-51.1,25.2
		c-29.1-0.5-53.5-12.5-54.4-26.9S-346.3,2965.5-317.2,2966z"/>
</g>
<image style="overflow:visible;" width="2000" height="2000" xlink:href="D:\Work\Design\Haptic\Assets\synthetix.png"  transform="matrix(1.890656e-002 0 0 1.890656e-002 555.2248 131.2114)">
</image>
<g id="Protons-and-Neutrons" transform="matrix(0.713755,0,0,0.781551,162.158,169.408)" serif:id="Protons and Neutrons">
	<g transform="matrix(-0.628765,0.262403,-0.49928,-1.19637,2718.41,3443.41)">
		
			<linearGradient id="SVGID_12_" gradientUnits="userSpaceOnUse" x1="2325.8862" y1="2971.2881" x2="2325.2388" y2="2970.6406" gradientTransform="matrix(39.9494 21.2204 76.8252 -39.9496 -319977.75 72349.3594)">
			<stop  offset="0" style="stop-color:#2A50FF"/>
			<stop  offset="1" style="stop-color:#2196F3"/>
		</linearGradient>
		
			<ellipse transform="matrix(0.9095 0.4156 -0.4156 0.9095 1370.0103 -237.9459)" class="st12" cx="1231.6" cy="3028.2" rx="52.7" ry="26"/>
	</g>
</g>
<image style="overflow:visible;" width="400" height="400" xlink:href="D:\Work\Design\Haptic\Assets\lyra.png"  transform="matrix(9.529891e-002 0 0 9.529891e-002 510.9947 418.5841)">
</image>
<image style="overflow:visible;" width="400" height="400" xlink:href="D:\Work\Design\Haptic\Assets\uniswap.png"  transform="matrix(9.700973e-002 0 0 9.700973e-002 287.7406 239.721)">
</image>
<g>
	<path class="st9" d="M464.9,273.9c1.1-1.4,2.2-2.6,3.9-3c3.9-1,7.6,0.4,8.2,5.3c0.1,1.1,0.1,2.1,0.1,3.2c0,5.3,0,10.6,0,15.9
		c0,0.6,0,1-0.8,1c-0.9,0-0.9-0.4-0.9-1c0-5.5,0-11,0-16.5c0-1.1,0-2.2-0.3-3.2c-0.8-3.1-4.1-4.4-7-2.8c-2.3,1.3-3.2,3.3-3.2,5.8
		c0,3.1,0,6.2,0,9.4c0,0.6-0.1,1-0.8,1c-0.8,0-0.8-0.4-0.8-1c0-5.3,0-10.7,0-16c0-0.6,0-1,0.8-1c0.8,0,0.8,0.4,0.8,0.9
		C464.9,272.5,464.9,273.2,464.9,273.9z"/>
</g>
</svg>
