<?xml version="1.0" encoding="utf-8"?>
<!-- Generator: Adobe Illustrator 19.0.0, SVG Export Plug-In . SVG Version: 6.00 Build 0)  -->
<svg version="1.1" id="Layer_1" xmlns="http://www.w3.org/2000/svg" xmlns:xlink="http://www.w3.org/1999/xlink" x="0px" y="0px"
	 viewBox="-379 256 200 50" style="enable-background:new -379 256 200 50;" xml:space="preserve">
<style type="text/css">
	.st0{fill:#293147;}
	.st1{fill:#2EB6EA;}
	.st2{fill:#1542CD;}
	.st3{fill:#745DDF;}
</style>
<path id="XMLID_118_" class="st0" d="M-293.6,288.6h8.3v-2.1h-5.8v-12.1h-2.4v14.2H-293.6z"/>
<path id="XMLID_132_" class="st0" d="M-281,278.1h-2.3v10.5h2.3V278.1z M-282.2,276.3c0.7,0,1.5-0.6,1.5-1.5c0-0.8-0.6-1.5-1.5-1.5
	c-0.8,0-1.5,0.6-1.5,1.5C-283.6,275.7-283,276.3-282.2,276.3z"/>
<path id="XMLID_129_" class="st0" d="M-268.8,278.5c-1-0.4-2.5-0.7-4.1-0.7c-3.8,0-6.2,2.1-6.2,5.6c0,3.6,2.3,5.5,5.8,5.5
	c0.8,0,1.6-0.2,2-0.3v4.4h2.3v-14.4H-268.8z M-271.2,286.5c-0.6,0.2-1,0.3-1.9,0.3c-2.1,0-3.6-1.4-3.6-3.5c0-2.2,1.5-3.5,3.7-3.5
	c0.6,0,1.2,0.1,1.7,0.2C-271.2,280.2-271.2,286.5-271.2,286.5z"/>
<path id="XMLID_113_" class="st0" d="M-257.4,278.1h-2.3v8.7c-0.6,0.1-1.3,0.2-1.9,0.2c-1.6,0-2.5-0.6-2.5-2.1v-6.6h-2.3v6.7
	c0,2.9,1.9,4,4.9,4c1.3,0,2.8-0.2,4.1-0.5V278.1L-257.4,278.1z"/>
<path id="XMLID_125_" class="st0" d="M-252,278.1h-2.4v10.5h2.3L-252,278.1L-252,278.1z M-253.1,276.3c0.7,0,1.5-0.6,1.5-1.5
	c0-0.8-0.6-1.5-1.5-1.5c-0.8,0-1.5,0.6-1.5,1.5C-254.6,275.7-254,276.3-253.1,276.3z"/>
<path id="XMLID_110_" class="st0" d="M-250.2,280h1.6v5.6c0,2.4,1.5,3.2,3.2,3.2c1,0,1.9-0.2,2.5-0.6v-2.1c-0.6,0.4-1.3,0.6-1.9,0.6
	c-0.9,0-1.5-0.4-1.5-1.7v-5h3v-1.9h-3v-2.6h-2.3v2.6h-1.6v1.9H-250.2z"/>
<path id="XMLID_109_" class="st0" d="M-239.8,278.1h-2.5l4.4,11l-1.5,3.8h2.3l5.8-14.8h-2.4l-2.9,8.4L-239.8,278.1z"/>
<circle id="XMLID_108_" class="st1" cx="-315.3" cy="282.4" r="10.9"/>
<path id="XMLID_107_" class="st2" d="M-315.4,293.4c-10.9,0-15.2-14.4-5.6-20.3c-1.2,11.9,4.9,12.2,10.6,11.9
	c9.4-0.4,9.4,8.4,9.4,8.4H-315.4z"/>
<path id="XMLID_1_" class="st3" d="M-304.9,286.1c-1.7,4.2-5.8,7.2-10.5,7.4c0.1,0,0.2,0,0.3,0h14.4
	C-300.7,293.5-300.7,288.3-304.9,286.1z"/>
</svg>
