<?xml version="1.0" encoding="utf-8"?>
<!-- Generator: Adobe Illustrator 19.0.0, SVG Export Plug-In . SVG Version: 6.00 Build 0)  -->
<svg version="1.1" id="Layer_1" xmlns="http://www.w3.org/2000/svg" xmlns:xlink="http://www.w3.org/1999/xlink" x="0px" y="0px"
	 viewBox="0 0 200 50" enable-background="new 0 0 200 50" xml:space="preserve">
<path id="XMLID_118_" fill="#293147" d="M85.5,31.3h7.9v-2h-5.5V17.8h-2.3V31.3z"/>
<path id="XMLID_132_" fill="#293147" d="M97.5,21.3h-2.2v10h2.2V21.3z M96.4,19.6c0.7,0,1.4-0.6,1.4-1.4c0-0.8-0.6-1.4-1.4-1.4
	s-1.4,0.6-1.4,1.4S95.6,19.6,96.4,19.6z"/>
<path id="XMLID_129_" fill="#293147" d="M109.2,21.7c-1-0.4-2.4-0.7-3.9-0.7c-3.6,0-5.9,2-5.9,5.3c0,3.4,2.2,5.2,5.5,5.2
	c0.8,0,1.5-0.2,1.9-0.3v4.2h2.2V21.7z M106.9,29.3c-0.6,0.2-1,0.3-1.8,0.3c-2,0-3.4-1.3-3.4-3.3c0-2.1,1.4-3.3,3.5-3.3
	c0.6,0,1.1,0.1,1.6,0.2C106.9,23.3,106.9,29.3,106.9,29.3z"/>
<path id="XMLID_113_" fill="#293147" d="M120,21.3h-2.2v8.3c-0.6,0.1-1.2,0.2-1.8,0.2c-1.5,0-2.4-0.6-2.4-2v-6.3h-2.2v6.4
	c0,2.8,1.8,3.8,4.7,3.8c1.2,0,2.7-0.2,3.9-0.5L120,21.3L120,21.3z"/>
<path id="XMLID_125_" fill="#293147" d="M125.2,21.3h-2.3v10h2.2L125.2,21.3L125.2,21.3z M124.1,19.6c0.7,0,1.4-0.6,1.4-1.4
	c0-0.8-0.6-1.4-1.4-1.4c-0.8,0-1.4,0.6-1.4,1.4S123.3,19.6,124.1,19.6z"/>
<path id="XMLID_110_" fill="#293147" d="M126.9,23.1h1.5v5.3c0,2.3,1.4,3.1,3.1,3.1c1,0,1.8-0.2,2.4-0.6v-2
	c-0.6,0.4-1.2,0.6-1.8,0.6c-0.9,0-1.4-0.4-1.4-1.6v-4.8h2.9v-1.8h-2.9v-2.5h-2.2v2.5h-1.5V23.1z"/>
<path id="XMLID_109_" fill="#293147" d="M136.8,21.3h-2.4l4.2,10.5l-1.4,3.6h2.2l5.5-14.1h-2.3l-2.8,8L136.8,21.3z"/>
<circle id="XMLID_108_" fill="#2EB6EA" cx="64.8" cy="25.4" r="10.4"/>
<path id="XMLID_107_" fill="#1542CD" d="M64.7,35.9c-10.4,0-14.5-13.7-5.3-19.4c-1.1,11.4,4.7,11.6,10.1,11.4c9-0.4,9,8,9,8H64.7z"
	/>
<path id="XMLID_1_" fill="#745DDF" d="M74.7,28.9c-1.6,4-5.5,6.9-10,7.1c0.1,0,0.2,0,0.3,0h13.7C78.7,36,78.7,31,74.7,28.9z"/>
</svg>
