<?xml version="1.0" encoding="utf-8"?>
<!-- Generator: Adobe Illustrator 19.0.0, SVG Export Plug-In . SVG Version: 6.00 Build 0)  -->
<svg version="1.1" id="Layer_1" xmlns="http://www.w3.org/2000/svg" xmlns:xlink="http://www.w3.org/1999/xlink" x="0px" y="0px"
	 viewBox="0 0 200 50" enable-background="new 0 0 200 50" xml:space="preserve">
<path id="XMLID_118_" fill="#293147" d="M82.5,32.4h9.8v-2.5h-6.9V15.6h-2.9V32.4z"/>
<path id="XMLID_132_" fill="#293147" d="M97.4,19.9h-2.8v12.5h2.8V19.9z M96,17.8c0.9,0,1.8-0.8,1.8-1.8s-0.8-1.7-1.8-1.7
	c-1,0-1.8,0.8-1.8,1.7S95,17.8,96,17.8z"/>
<path id="XMLID_129_" fill="#293147" d="M111.9,20.5c-1.3-0.5-3-0.9-4.8-0.9c-4.5,0-7.3,2.5-7.3,6.6c0,4.2,2.8,6.5,6.9,6.5
	c1,0,1.9-0.2,2.4-0.4v5.2h2.8V20.5z M109.1,29.9c-0.7,0.3-1.3,0.4-2.2,0.4c-2.5,0-4.2-1.6-4.2-4.1c0-2.6,1.7-4.1,4.4-4.1
	c0.8,0,1.4,0.1,2,0.3V29.9z"/>
<path id="XMLID_113_" fill="#293147" d="M125.4,19.9h-2.8v10.3c-0.7,0.1-1.5,0.2-2.2,0.2c-1.9,0-3-0.7-3-2.5v-7.9h-2.8V28
	c0,3.5,2.2,4.7,5.8,4.7c1.5,0,3.4-0.2,4.9-0.6V19.9z"/>
<path id="XMLID_125_" fill="#293147" d="M131.9,19.9H129v12.5h2.8V19.9z M130.5,17.8c0.9,0,1.8-0.8,1.8-1.8s-0.8-1.7-1.8-1.7
	c-1,0-1.8,0.8-1.8,1.7S129.5,17.8,130.5,17.8z"/>
<path id="XMLID_110_" fill="#293147" d="M134,22.2h1.9v6.6c0,2.9,1.7,3.9,3.8,3.9c1.2,0,2.2-0.3,3-0.7v-2.5
	c-0.8,0.5-1.5,0.7-2.3,0.7c-1.1,0-1.7-0.5-1.7-2v-6h3.6v-2.3h-3.6v-3.1h-2.8v3.1H134V22.2z"/>
<path id="XMLID_109_" fill="#293147" d="M146.3,19.9h-3l5.2,13.1l-1.8,4.5h2.8l6.8-17.6h-2.9l-3.5,9.9L146.3,19.9z"/>
<circle id="XMLID_108_" fill="#2EB6EA" cx="56.7" cy="25.1" r="13"/>
<path id="XMLID_107_" fill="#1542CD" d="M56.6,38.1c-12.9,0-18-17-6.6-24.2c-1.4,14.2,5.9,14.5,12.6,14.2c11.2-0.5,11.2,10,11.2,10
	H56.6z"/>
<path id="XMLID_106_" fill="#745DDF" d="M69,29.4c-2,5-6.8,8.6-12.4,8.8c0.1,0,0.3,0,0.4,0H74C74,38.2,74,32,69,29.4z"/>
</svg>
