<?xml version="1.0" encoding="utf-8"?>
<!-- Generator: Adobe Illustrator 19.0.0, SVG Export Plug-In . SVG Version: 6.00 Build 0)  -->
<svg version="1.1" id="Layer_1" xmlns="http://www.w3.org/2000/svg" xmlns:xlink="http://www.w3.org/1999/xlink" x="0px" y="0px"
	 viewBox="0 0 132 40" enable-background="new 0 0 132 40" xml:space="preserve">
<g id="XMLID_256_">
	<path id="XMLID_257_" fill="#33429A" d="M30.2,38.2V13.4c0-1.5-0.1-2.8-0.3-3.9c-0.2-1.1-0.6-2.1-1.1-2.9c-0.5-0.8-1.2-1.4-2.1-1.8
		c-0.9-0.4-1.9-0.6-3.2-0.6C22.2,4.2,21,4.5,20,5c-1,0.5-1.9,1.2-2.5,2.1c-0.7,0.8-1.2,1.8-1.5,2.9C15.6,11,15.4,12,15.4,13v14.7
		h-2.2V2.6l2.1,0c0,0,0,4.8,0,4.8h0.1c0.6-1.2,1.2-2.2,1.9-2.9c0.7-0.7,1.5-1.3,2.3-1.6c0.8-0.4,1.6-0.6,2.3-0.7
		C22.7,2.1,23.4,2,24,2c1.4,0,2.6,0.2,3.7,0.7c1.1,0.5,2,1.1,2.7,2C31.1,5.6,31.6,6.7,32,8c0.4,1.3,0.5,2.7,0.5,4.3v25.9H30.2z"/>
</g>
<path id="XMLID_57_" fill="#33429A" d="M57,24.5C57,24.5,57,24.5,57,24.5c0,0.1-0.1,0.1-0.1,0.2c0,0-0.1,0-0.2,0c-0.1,0-0.2,0-0.3,0
	c-0.1,0-0.2,0-0.3,0c-0.1,0-0.1,0-0.2,0c0,0-0.1,0-0.1-0.1c0,0,0-0.1,0-0.1v-3.9h-4v3.9c0,0,0,0.1,0,0.1c0,0-0.1,0-0.1,0.1
	c0,0-0.1,0-0.2,0c-0.1,0-0.2,0-0.3,0c-0.1,0-0.2,0-0.3,0c-0.1,0-0.1,0-0.2,0c0,0-0.1,0-0.1-0.1c0,0,0-0.1,0-0.1V16c0,0,0-0.1,0-0.1
	c0,0,0.1,0,0.1-0.1c0,0,0.1,0,0.2,0c0.1,0,0.2,0,0.3,0c0.1,0,0.2,0,0.3,0c0.1,0,0.1,0,0.2,0c0,0,0.1,0,0.1,0.1c0,0,0,0.1,0,0.1v3.5
	h4V16c0,0,0-0.1,0-0.1c0,0,0.1,0,0.1-0.1c0,0,0.1,0,0.2,0c0.1,0,0.2,0,0.3,0c0.1,0,0.2,0,0.3,0c0.1,0,0.1,0,0.2,0c0,0,0.1,0,0.1,0.1
	c0,0,0,0.1,0,0.1V24.5z"/>
<path id="XMLID_59_" fill="#33429A" d="M71.6,24.2c0,0.1,0.1,0.2,0.1,0.2c0,0.1,0,0.1-0.1,0.1c0,0-0.1,0.1-0.2,0.1
	c-0.1,0-0.2,0-0.3,0c-0.1,0-0.3,0-0.3,0c-0.1,0-0.1,0-0.2,0c0,0-0.1,0-0.1-0.1c0,0,0-0.1-0.1-0.1l-0.8-2.1H66l-0.7,2.1
	c0,0,0,0.1-0.1,0.1c0,0-0.1,0.1-0.1,0.1c0,0-0.1,0-0.2,0c-0.1,0-0.2,0-0.3,0c-0.1,0-0.2,0-0.3,0c-0.1,0-0.1,0-0.2-0.1
	c0,0-0.1-0.1,0-0.1c0-0.1,0-0.1,0.1-0.2l3-8.2c0-0.1,0-0.1,0.1-0.1c0,0,0.1-0.1,0.1-0.1c0.1,0,0.1,0,0.2,0c0.1,0,0.2,0,0.3,0
	c0.1,0,0.3,0,0.4,0c0.1,0,0.2,0,0.2,0c0.1,0,0.1,0,0.1,0.1c0,0,0.1,0.1,0.1,0.1L71.6,24.2z M67.8,17L67.8,17l-1.5,4.4h3.1L67.8,17z"
	/>
<path id="XMLID_62_" fill="#33429A" d="M84.1,18.4c0,0.4-0.1,0.8-0.2,1.2c-0.1,0.4-0.4,0.7-0.6,0.9c-0.3,0.3-0.6,0.4-1,0.6
	c-0.4,0.1-0.9,0.2-1.4,0.2h-1v3.2c0,0,0,0.1,0,0.1c0,0-0.1,0-0.1,0.1c0,0-0.1,0-0.2,0c-0.1,0-0.2,0-0.3,0c-0.1,0-0.2,0-0.3,0
	c-0.1,0-0.1,0-0.2,0c0,0-0.1,0-0.1-0.1c0,0,0-0.1,0-0.1v-8.1c0-0.2,0-0.3,0.1-0.4c0.1-0.1,0.2-0.1,0.3-0.1H81c0.2,0,0.4,0,0.5,0
	c0.2,0,0.4,0.1,0.6,0.1c0.2,0.1,0.5,0.2,0.7,0.3c0.2,0.1,0.5,0.3,0.6,0.5c0.2,0.2,0.3,0.5,0.4,0.7C84,17.8,84.1,18.1,84.1,18.4z
	 M82.8,18.5c0-0.4-0.1-0.7-0.2-0.9c-0.1-0.2-0.3-0.4-0.5-0.5c-0.2-0.1-0.4-0.2-0.6-0.2c-0.2,0-0.4,0-0.6,0h-1.1v3.5h1.1
	c0.4,0,0.6,0,0.9-0.1c0.2-0.1,0.4-0.2,0.6-0.4c0.2-0.2,0.3-0.4,0.4-0.6C82.8,19,82.8,18.8,82.8,18.5z"/>
<path id="XMLID_65_" fill="#33429A" d="M96.9,16.3c0,0.1,0,0.2,0,0.2c0,0.1,0,0.1,0,0.2c0,0,0,0.1-0.1,0.1c0,0-0.1,0-0.1,0h-2.5v7.7
	c0,0,0,0.1,0,0.1c0,0-0.1,0-0.1,0.1c0,0-0.1,0-0.2,0c-0.1,0-0.2,0-0.3,0c-0.1,0-0.2,0-0.3,0c-0.1,0-0.1,0-0.2,0c0,0-0.1,0-0.1-0.1
	c0,0,0-0.1,0-0.1v-7.7h-2.5c0,0-0.1,0-0.1,0c0,0-0.1,0-0.1-0.1c0,0,0-0.1,0-0.2c0-0.1,0-0.1,0-0.2c0-0.1,0-0.2,0-0.2
	c0-0.1,0-0.1,0-0.2c0,0,0-0.1,0.1-0.1c0,0,0.1,0,0.1,0h6.1c0,0,0.1,0,0.1,0c0,0,0.1,0,0.1,0.1c0,0,0,0.1,0,0.2
	C96.9,16.2,96.9,16.2,96.9,16.3z"/>
<path id="XMLID_67_" fill="#33429A" d="M105,24.5C105,24.5,105,24.5,105,24.5c0,0.1-0.1,0.1-0.1,0.2c0,0-0.1,0-0.2,0
	c-0.1,0-0.2,0-0.3,0c-0.1,0-0.2,0-0.3,0c-0.1,0-0.1,0-0.2,0c0,0-0.1,0-0.1-0.1c0,0,0-0.1,0-0.1V16c0,0,0-0.1,0-0.1
	c0,0,0.1,0,0.1-0.1c0,0,0.1,0,0.2,0c0.1,0,0.2,0,0.3,0c0.1,0,0.2,0,0.3,0c0.1,0,0.1,0,0.2,0c0,0,0.1,0,0.1,0.1s0,0.1,0,0.1V24.5z"/>
<path id="XMLID_69_" fill="#33429A" d="M118.8,23.4c0,0.1,0,0.1,0,0.2s0,0.1,0,0.1s0,0.1,0,0.1c0,0-0.1,0.1-0.1,0.1
	c0,0-0.1,0.1-0.3,0.2c-0.1,0.1-0.3,0.2-0.5,0.3s-0.5,0.2-0.7,0.2c-0.3,0.1-0.6,0.1-0.9,0.1c-0.6,0-1.1-0.1-1.6-0.3s-0.9-0.5-1.2-0.8
	c-0.3-0.4-0.6-0.8-0.8-1.4c-0.2-0.5-0.3-1.2-0.3-1.9c0-0.7,0.1-1.4,0.3-2c0.2-0.6,0.5-1.1,0.8-1.5c0.3-0.4,0.7-0.7,1.2-0.9
	c0.5-0.2,1-0.3,1.6-0.3c0.3,0,0.5,0,0.7,0.1s0.5,0.1,0.7,0.2c0.2,0.1,0.4,0.2,0.5,0.3c0.2,0.1,0.3,0.2,0.3,0.2s0.1,0.1,0.1,0.1
	c0,0,0,0.1,0,0.1c0,0,0,0.1,0,0.2c0,0.1,0,0.1,0,0.2c0,0.1,0,0.2,0,0.2c0,0.1,0,0.1,0,0.2c0,0,0,0.1-0.1,0.1c0,0-0.1,0-0.1,0
	c-0.1,0-0.2,0-0.3-0.1c-0.1-0.1-0.3-0.2-0.4-0.3c-0.2-0.1-0.4-0.2-0.7-0.3c-0.3-0.1-0.6-0.1-0.9-0.1c-0.4,0-0.8,0.1-1.1,0.2
	c-0.3,0.2-0.6,0.4-0.8,0.7c-0.2,0.3-0.4,0.7-0.5,1.1c-0.1,0.4-0.2,0.9-0.2,1.5c0,0.6,0.1,1.1,0.2,1.5c0.1,0.4,0.3,0.8,0.5,1.1
	c0.2,0.3,0.5,0.5,0.8,0.7c0.3,0.1,0.7,0.2,1.1,0.2c0.4,0,0.7,0,0.9-0.1c0.3-0.1,0.5-0.2,0.7-0.3c0.2-0.1,0.3-0.2,0.5-0.3
	c0.1-0.1,0.2-0.1,0.3-0.1c0,0,0.1,0,0.1,0c0,0,0,0,0.1,0.1c0,0,0,0.1,0,0.2C118.8,23.2,118.8,23.3,118.8,23.4z"/>
</svg>
