<?xml version="1.0" encoding="utf-8"?>
<!-- Generator: Adobe Illustrator 19.0.0, SVG Export Plug-In . SVG Version: 6.00 Build 0)  -->
<svg version="1.1" id="Layer_1" xmlns="http://www.w3.org/2000/svg" xmlns:xlink="http://www.w3.org/1999/xlink" x="0px" y="0px"
	 viewBox="-379 256 200 50" style="enable-background:new -379 256 200 50;" xml:space="preserve">
<style type="text/css">
	.st0{fill:#FDFDFD;}
	.st1{fill:#66DAA2;}
	.st2{fill:#60D9A3;}
	.st3{fill:#6CDBA0;}
	.st4{fill:#73DC9F;}
	.st5{fill:#70DCA0;}
	.st6{fill:#44D4A8;}
	.st7{fill:#5AD8A4;}
	.st8{fill:#78DD9F;}
	.st9{fill:#77DD9F;}
	.st10{fill:#56D8A5;}
	.st11{fill:#50D6A6;}
	.st12{fill:#4CD5A7;}
	.st13{fill:#050505;}
	.st14{fill:#F9F9F9;}
	.st15{fill:#F8F8F8;}
	.st16{fill:#70DFBD;}
	.st17{fill:#4ED6A6;}
	.st18{fill:#FEFEFE;}
	.st19{fill:#49D5A7;}
	.st20{fill:#6BDBA0;}
	.st21{fill:#51D7A6;}
	.st22{fill:#62DAA3;}
	.st23{fill:#5FD9A3;}
	.st24{fill:#4FD6A6;}
</style>
<g>
	<path class="st0" d="M-279,304.2c-12.7,0-25.5,0-38.2,0c-0.3,0-0.4-0.1-0.4-0.4c0-14.5,0-28.9,0-43.4c0-0.3,0.1-0.4,0.4-0.4
		c25.5,0,50.9,0,76.4,0c0.3,0,0.4,0.1,0.4,0.4c0,14.5,0,28.9,0,43.4c0,0.3-0.1,0.4-0.4,0.4C-253.6,304.2-266.3,304.2-279,304.2z"/>
	<path d="M-269.1,284.1c0.3,1.2,0.9,1.7,2,1.8c1.3,0.1,2.3-0.8,2.3-2.1c0-1.4,0-2.9,0-4.3c0-0.3,0.1-0.4,0.4-0.4c0.5,0,1,0,1.5,0
		c0.2,0,0.3,0,0.3,0.3c0,3,0,6,0,8.9c0,2.2-1.5,3.8-3.7,4.1c-2.5,0.3-4.3-0.7-5.1-2.9c-0.2-0.5-0.2-0.5,0.3-0.5c0.5,0,1.1,0,1.6,0
		c0.2,0,0.3,0,0.4,0.2c0.5,0.9,1.5,1.3,2.6,1c1-0.2,1.6-1,1.7-2c0-0.4,0-0.8,0-1.3c-1.3,1.4-2.8,1.3-4.3,0.7c-1.4-0.6-2-1.8-2.2-3.2
		c-0.1-0.2,0-0.5,0-0.7c0-1.4,0-2.8,0-4.2c0-0.3,0.1-0.4,0.4-0.4c0.4,0,0.9,0,1.3,0c0.2,0,0.3,0,0.3,0.2c0,1.5,0,2.9,0,4.4
		c0,0,0,0,0,0c0-0.8,0-1.5,0-2.3c0-0.8,0-1.6,0-2.4c0.2,0.2,0.1,0.3,0.1,0.5c0,1.4,0,2.7,0,4.1
		C-269.1,283.8-269.2,283.9-269.1,284.1z"/>
	<path d="M-245.4,286.7c-1,1.5-2.4,1.9-4,1.5c-1.8-0.4-2.9-1.6-3.4-3.3c-0.6-2.1,0.2-4.4,1.9-5.5c1.8-1.1,4.3-1,5.9,0.4
		c1,0.9,1.5,2.1,1.6,3.4c0,1.5,0,3.1,0,4.6c0,0.2-0.1,0.3-0.3,0.3c-0.5,0-1,0-1.5,0c-0.2,0-0.3-0.1-0.3-0.3
		C-245.4,287.6-245.4,287.2-245.4,286.7z"/>
	<path d="M-281.2,280.6c0-1.9,0-3.9,0-5.8c0-0.3,0.1-0.4,0.3-0.3c0.5,0,1,0,1.6,0c0.4,0,0.5,0.1,0.5,0.4c0,3.4,0,6.8,0,10.3
		c0,0.1,0,0.3,0,0.4c0,0.5,0.2,0.7,0.7,0.7c1.8,0,3.7,0,5.5,0c0.3,0,0.4,0.1,0.4,0.4c0,0.5,0,1,0,1.5c0,0.2,0,0.3-0.3,0.3
		c-2.2,0-4.5,0-6.7,0c-1.2,0-2-0.8-2-2.1C-281.2,284.4-281.2,282.5-281.2,280.6C-281.2,280.6-281.2,280.6-281.2,280.6z"/>
	<path d="M-257.8,285.9c0,0.7,0,1.5,0,2.2c0,0.2,0,0.3-0.3,0.3c-0.6,0-1.1,0-1.7,0c-0.1,0-0.3,0-0.2-0.2c0-1.8-0.1-3.6,0.1-5.3
		c0.3-2.3,1.7-3.6,4-3.8c0.5,0,1,0,1.6,0c0.2,0,0.3,0.1,0.3,0.3c0,0.6,0,1.1,0,1.7c0,0.2-0.1,0.3-0.3,0.3c-0.3,0-0.6,0-1,0
		c-1.3,0.1-2.3,0.9-2.4,2.2C-257.8,284.3-257.8,285.1-257.8,285.9C-257.8,285.9-257.8,285.9-257.8,285.9z"/>
	<path class="st1" d="M-304.9,275.7c0.6-0.7,1.2-1.3,1.8-1.9c0.1,0,0.1,0,0.1,0.1c-0.2,0.3,0,0.5,0.1,0.7c0.4,0.8,0.8,1.7,1.1,2.5
		c0.5,1.1,1,2.2,1.5,3.4c0.5,1,0.9,2.1,1.4,3.1c0,0.1,0.1,0.2,0,0.3l0,0c-0.2,0.3-0.6,0.5-0.8,0.8c-0.1,0.2-0.2,0.2-0.4,0.2
		c-3.5,0-7,0-10.5,0c-0.1,0-0.2,0-0.3,0c0.1-0.1,0.3-0.1,0.5-0.1c0.8,0,1.6,0,2.4,0c0.6,0,1.2,0,1.8,0c0.9,0,1.9,0,2.8,0
		c0.1,0,0.2,0,0.3,0c0.8,0,1.6-0.1,2.3,0.1c-0.2,0-0.3-0.1-0.4-0.3c-0.4-1-0.8-2-1.3-3c-0.4-0.7-0.7-1.5-1-2.2
		c-0.3-0.7-0.5-1.3-0.9-1.9c-0.1-0.2-0.2-0.4-0.2-0.6c-0.1-0.3-0.1-0.5-0.4-0.7C-304.9,275.9-304.9,275.8-304.9,275.7z"/>
	<path class="st2" d="M-304.9,275.7c0.1,0,0,0.2,0.1,0.2c0.4,0.1,0.4,0.5,0.5,0.8c0.2,0.5,0.5,0.9,0.7,1.4c0.3,1,0.9,1.9,1.2,2.9
		c0.1,0.3,0.3,0.6,0.5,0.9c0.4,0.8,0.8,1.7,1,2.5c0.1,0.3,0.3,0.1,0.5,0.2c-0.9,0-1.7,0-2.5,0c-0.2-0.1-0.5,0-0.7,0
		c-0.2,0-0.3,0-0.2-0.3c0.1-0.1,0-0.3,0-0.4c-0.6-1.4-1.2-2.8-1.8-4.3c-0.2-0.5-0.6-1-0.8-1.6c-0.1-0.2-0.3-0.3-0.4-0.4
		C-306.2,277-305.6,276.4-304.9,275.7z"/>
	<path class="st3" d="M-298.8,283.8c-0.3-0.7-0.6-1.5-1-2.3c-0.3-0.7-0.6-1.4-1-2.1c-0.4-0.9-0.8-1.8-1.2-2.7
		c-0.3-0.6-0.5-1.3-0.8-1.9c0-0.1-0.1-0.1-0.1-0.2c-0.1-0.1-0.2-0.7-0.2-0.8c0.1-0.2,0.3-0.3,0.4-0.5c0.2-0.2,0.3-0.3,0.5-0.5
		c0.3-0.3,0.5-0.2,0.7,0.1c0.3,0.5,0.4,1.1,0.7,1.6c0.6,1.2,1.1,2.4,1.6,3.6c0.5,1.2,1.1,2.4,1.6,3.6c0.2,0.5,0.2,0.5-0.2,1
		c-0.1,0.1-0.2,0.2-0.3,0.3C-298.3,283.3-298.5,283.6-298.8,283.8z"/>
	<path class="st4" d="M-295.1,279.9c-0.5,0.5-0.9,1.1-1.5,1.5c0,0,0,0,0,0c0.2-0.6-0.2-1.1-0.4-1.7c-0.3-0.7-0.6-1.4-0.9-2.1
		c-0.2-0.5-0.4-0.9-0.6-1.4c-0.4-0.6-0.5-1.3-0.8-1.9c-0.4-0.8-0.7-1.6-1.1-2.4c0-0.1-0.1-0.1-0.1-0.2c-0.3-0.2-0.3-0.4-0.1-0.6
		c0.3-0.5,0.8-0.8,1.2-1.2c0.3,0.1,0.3,0.3,0.5,0.6c0.2,0.4,0.3,0.9,0.6,1.4c0.3,0.6,0.5,1.3,0.8,1.9c0.7,1.3,1.2,2.8,1.9,4.1
		c0.2,0.4,0.4,0.8,0.5,1.2C-295,279.4-294.9,279.6-295.1,279.9z"/>
	<path class="st5" d="M-300.5,271.2c0.1,0.2-0.1,0.2-0.1,0.4c0.5,0.1,0.5,0.6,0.7,0.9c0.5,0.9,0.8,1.9,1.2,2.8
		c0.2,0.4,0.3,0.8,0.6,1.2c0.2,0.3,0.3,0.6,0.4,1c0.2,0.4,0.4,0.8,0.5,1.3c0.3,0.7,0.6,1.3,0.9,2c0.2,0.3-0.1,0.5-0.2,0.7
		c-0.5,0.5-1,1.1-1.5,1.6c0-0.2,0.2-0.3,0.4-0.5c0.2-0.2,0.2-0.4,0.1-0.6c-0.3-0.8-0.7-1.5-1-2.3c-0.6-1.5-1.2-3-1.9-4.4
		c-0.3-0.7-0.6-1.4-1-2.1c0-0.1,0-0.1-0.1-0.2c-0.1-0.4-0.3-0.4-0.6-0.1c-0.2,0.2-0.3,0.4-0.5,0.4
		C-302,272.6-301.2,271.9-300.5,271.2z"/>
	<path class="st6" d="M-313.9,286.2c0.5,0.4,1.2,0.5,1.8,0.6c0.3,0.1,0.6,0,0.9,0c0.3,0,0.5,0,0.8,0c0,0,0.1,0.1,0,0.1
		c-0.1,0.1-0.3,0.1-0.4,0.1c-0.6,0-1.2,0.1-1.8-0.2c0.2,0.1,0.4,0.3,0.5,0.5c0.3,0.8,0.7,1.5,1,2.3c0.6,1.3,1.1,2.5,1.7,3.8
		c0.4,0.8,0.8,1.6,1.1,2.5c0.1,0.2,0.2,0.4,0,0.5c-0.3,0-0.6-0.1-0.8-0.2c-0.5-0.2-0.9-0.5-1.2-1c-1.3-3-2.6-6-3.9-9
		c0-0.1,0-0.1,0-0.2C-314,286.1-313.9,286.2-313.9,286.2z"/>
	<path class="st7" d="M-306.9,277.8c0.3,0.1,0.4,0.2,0.5,0.5c0.4,0.9,0.8,1.7,1.2,2.6c0.4,0.9,0.8,1.8,1.2,2.8
		c0.1,0.2,0.2,0.4,0.3,0.6c0.1,0.2,0.1,0.3-0.2,0.4c0.4,0.1,0.7-0.1,1,0.1c-0.1,0-0.2,0-0.3,0c-0.6,0.1-1.3,0-1.9,0
		c-0.5,0.1-0.7-0.2-0.9-0.7c-0.3-1-0.8-2-1.3-3c-0.2-0.5-0.3-1-0.6-1.4c-0.1-0.2-0.3-0.3-0.5-0.1c-0.1,0.1-0.2,0.2-0.4,0.1
		C-308.2,279.1-307.5,278.4-306.9,277.8z"/>
	<path class="st8" d="M-295.1,279.9c0-0.6-0.2-1-0.5-1.5c-0.2-0.5-0.4-0.9-0.6-1.4c-0.4-1-0.9-2-1.3-3c-0.5-1.1-1-2.2-1.4-3.4
		c-0.1-0.2-0.2-0.5-0.4-0.7c0.4-0.5,1.2-0.5,1.5,0.3c0.9,2.1,1.8,4.2,2.7,6.3c0.2,0.6,0.6,1.1,0.6,1.8
		C-294.5,278.9-294.6,279.5-295.1,279.9z"/>
	<path class="st9" d="M-291.7,286.9c0.8,0.1,1.3,0.6,1.6,1.3c0.8,1.9,1.6,3.7,2.4,5.6c0.3,0.6,0.5,1.2,0.7,1.8
		c0.3,0.6,0,1.1-0.7,1.2c-0.1,0-0.3,0-0.4,0c-6.4,0-12.8,0-19.2,0c-0.2,0-0.3,0-0.5-0.1c0.2-0.2,0.4-0.1,0.7-0.1c0.2,0,0.4,0,0.6,0
		c0.9,0,1.7,0,2.6,0c0.5,0,1.1,0,1.6,0c0.8,0,1.6,0,2.4,0c0.4,0,0.8,0,1.2,0c0.7,0,1.3,0,2,0c0.8,0,1.6,0,2.4,0c0.6,0,1.1,0,1.7,0
		c0.6,0,1.2,0,1.8,0c0.4,0,0.8,0,1.1,0c0.1,0,0.3,0,0.4,0c0.4,0,0.9,0,1.3,0c0.2,0,0.2,0,0.2-0.2c-0.6-1.3-1.1-2.6-1.7-3.8
		c-0.4-0.8-0.7-1.7-1.1-2.6c-0.3-0.7-0.6-1.4-0.9-2.2c-0.1-0.3-0.3-0.5-0.6-0.6c-0.1,0-0.1-0.1-0.1-0.1c0.1-0.1,0.3-0.1,0.4-0.1
		C-291.8,286.9-291.8,286.9-291.7,286.9z"/>
	<path class="st10" d="M-308.8,279.8c0.2,0,0.3-0.2,0.4-0.3c0.2-0.2,0.3-0.2,0.4,0c0.2,0.3,0.3,0.6,0.4,0.9c0.3,0.9,0.8,1.6,1.1,2.5
		c0.2,0.5,0.6,1,0.6,1.6c0,0.1,0.1,0.2,0.2,0.2c0.1,0,0.2,0,0.3,0.1c-0.3,0.1-0.5,0-0.8,0c-0.5,0-1,0-1.4,0c-0.1,0-0.1,0-0.2,0
		c-0.3,0-0.4-0.1-0.5-0.4c-0.1-0.4-0.3-0.8-0.4-1.2c-0.3-0.6-0.5-1.2-0.8-1.8c-0.1-0.2-0.2-0.4-0.2-0.6
		C-309.4,280.3-309.1,280-308.8,279.8z"/>
	<path class="st11" d="M-309.7,280.7c0.3,0.6,0.6,1.1,0.8,1.7c0.2,0.6,0.5,1.1,0.7,1.7c0,0,0,0.1,0.1,0.1c0.2,0.4,0.2,0.4,0.5,0.5
		c-0.1,0.1-0.2,0-0.3,0c-0.5,0-1,0-1.5,0c-0.3-0.1-0.5,0-0.8,0c-0.1,0-0.3,0-0.2-0.2c0.1-0.2,0-0.3,0-0.5c-0.2-0.4-0.4-0.8-0.6-1.2
		c-0.1-0.3-0.4-0.1-0.5-0.3C-310.9,281.9-310.3,281.3-309.7,280.7z"/>
	<path class="st12" d="M-311.5,282.5c0.1,0,0.1,0.1,0.2,0c0.2-0.1,0.3,0,0.4,0.2c0.1,0.5,0.5,0.9,0.7,1.4c0.1,0.2,0.1,0.4-0.2,0.4
		c0.3,0.1,0.6-0.1,0.9,0.1c-0.6,0.1-1.2,0.1-1.8,0c-0.9-0.1-1.2-0.7-0.7-1.5C-311.9,283-311.7,282.7-311.5,282.5z"/>
	<path class="st4" d="M-291.7,286.9C-291.7,286.9-291.8,286.9-291.7,286.9c-0.6,0-1.1,0.2-1.5,0.1c-0.1,0-0.3,0-0.5,0
		c-0.7,0-1.5,0-2.2,0c-0.7,0-1.3,0-2,0c-0.4,0-0.9,0-1.3,0c-0.5,0-1,0-1.5,0c-0.7,0-1.4,0-2.1,0c-0.6,0-1.2,0-1.8,0
		c-0.6,0-1.2,0-1.8,0c-0.6,0-1.2,0-1.8,0c-0.6,0-1.1,0-1.7,0c-0.2,0-0.3,0-0.5-0.1c-0.3,0-0.6,0-0.8,0c0,0,0,0,0,0c0,0,0,0,0,0
		c0.1,0,0.3,0,0.4,0c6.2,0,12.3,0,18.5,0C-292,286.8-291.9,286.8-291.7,286.9z"/>
	<path class="st13" d="M-269.1,284.1c-0.1-0.1-0.1-0.3-0.1-0.4c0-1.3,0-2.7,0-4c0-0.1,0-0.2-0.1-0.4c0,1.6,0,3.2,0,4.8
		c-0.1-0.2-0.1-0.3-0.1-0.4c0-1.3,0-2.7,0-4c0-0.4-0.1-0.5-0.5-0.5c-0.4,0-0.7,0-1.1,0c-0.3,0-0.3,0.1-0.3,0.4c0,1.6,0,3.1,0,4.7
		c0,0.1,0,0.2,0,0.2c-0.1-0.2-0.1-0.5-0.1-0.7c0-1.4,0-2.9,0-4.3c0-0.3,0.1-0.4,0.4-0.4c0.5,0,1,0,1.5,0c0.3,0,0.3,0.1,0.3,0.3
		C-269.1,280.9-269.1,282.5-269.1,284.1z"/>
	<path class="st14" d="M-281.4,286.5c0-4,0-8,0-11.9c0,0,0,0,0,0C-281.3,278.5-281.3,282.5-281.4,286.5
		C-281.4,286.5-281.4,286.5-281.4,286.5z"/>
	<path class="st15" d="M-257.6,283.8c0,1.5,0,3,0,4.5c0,0,0,0,0,0C-257.7,286.8-257.7,285.3-257.6,283.8
		C-257.7,283.8-257.6,283.8-257.6,283.8z"/>
	<path class="st10" d="M-311.4,284.7c0.6,0,1.2,0,1.8,0c0.5,0,1.1,0,1.6,0c0,0,0,0,0,0c0,0,0,0,0,0c-0.9,0-1.9,0-2.8,0
		C-311,284.8-311.2,284.9-311.4,284.7z"/>
	<path class="st12" d="M-306.5,296.7c-0.4,0-0.9,0-1.3,0c-0.5,0-0.9-0.1-1.3-0.3c0.3,0,0.6,0.2,0.9,0.1c0.6,0,1.1-0.1,1.7,0
		C-306.5,296.6-306.4,296.6-306.5,296.7z"/>
	<path class="st3" d="M-299.6,284.7c0.2-0.4,0.5-0.6,0.8-0.8C-299,284.2-299.3,284.4-299.6,284.7z"/>
	<path class="st16" d="M-313.9,286.2c-0.1,0-0.2-0.1-0.2,0.1c-0.1-0.1-0.1-0.2-0.2-0.4C-314.1,285.9-314,286.1-313.9,286.2z"/>
	<path class="st17" d="M-311.1,286.8C-311.1,286.8-311.1,286.9-311.1,286.8c-0.3,0-0.6,0.2-0.9,0
		C-311.7,286.8-311.4,286.8-311.1,286.8z"/>
	<path class="st18" d="M-250.8,283.6c0-1.5,1.1-2.6,2.6-2.7c1.5,0,2.7,1.1,2.7,2.6c0,1.5-1.1,2.7-2.6,2.7
		C-249.6,286.2-250.8,285.1-250.8,283.6z"/>
	<path class="st2" d="M-306.1,284.7c0.3,0,0.5,0,0.8,0c0.7,0,1.4,0,2.1,0c-0.1,0.1-0.2,0.1-0.3,0.1
		C-304.4,284.8-305.2,284.8-306.1,284.7C-306.1,284.8-306.1,284.8-306.1,284.7C-306.1,284.7-306.1,284.7-306.1,284.7z"/>
	<path class="st7" d="M-306.1,284.7C-306.1,284.8-306.1,284.8-306.1,284.7c-0.6,0.1-1.2,0.1-1.8,0.1c0,0,0,0,0-0.1
		c0.1,0,0.2,0,0.3,0C-307.1,284.7-306.6,284.7-306.1,284.7z"/>
	<path class="st19" d="M-306.5,296.6c-0.5,0-0.9,0-1.4,0c-0.1,0-0.3,0-0.4-0.1c0.1-0.4-0.2-0.8-0.3-1.2c-0.6-1.2-1.1-2.5-1.7-3.7
		c-0.5-1.1-1-2.2-1.5-3.3c-0.1-0.3-0.3-0.6-0.4-0.9c-0.1-0.2-0.2-0.4-0.5-0.5c0.6,0.1,1.2,0.1,1.8,0.1c0.2,0.1,0.3,0.3,0.4,0.5
		c0.4,0.9,0.7,1.8,1.2,2.6c0.4,0.8,0.6,1.6,1.1,2.4c0.3,0.6,0.5,1.2,0.8,1.8c0.3,0.6,0.6,1.3,0.8,1.9
		C-306.4,296.3-306.3,296.4-306.5,296.6C-306.4,296.6-306.4,296.6-306.5,296.6z"/>
	<path class="st12" d="M-306.4,296.6c-0.2-0.5-0.4-0.9-0.6-1.4c-0.3-0.6-0.5-1.2-0.8-1.8c-0.6-1.3-1.1-2.5-1.7-3.8
		c-0.3-0.6-0.5-1.3-0.8-1.9c-0.1-0.3-0.3-0.5-0.5-0.8c0.2,0,0.3,0,0.5,0c0.2-0.1,0.4,0,0.6,0c0.1,0,0.2,0,0.3,0.1
		c0.4,0.7,0.6,1.5,1,2.2c0.4,0.9,0.8,1.9,1.3,2.8c0.3,0.5,0.5,1,0.7,1.6c0.3,0.9,0.8,1.6,1.1,2.5c0.1,0.1,0.2,0.3,0.2,0.4
		c0,0.1,0,0.1-0.1,0.2C-305.6,296.6-306,296.7-306.4,296.6z"/>
	<path class="st19" d="M-309.7,287c-0.2,0-0.4,0-0.6,0c0,0,0-0.1,0-0.1c0.7,0,1.4,0,2.1,0c0,0,0,0,0,0.1c0,0-0.1,0.1-0.1,0.1
		C-308.7,287.1-309.2,287.1-309.7,287z"/>
	<path class="st1" d="M-297.9,286.9c0.7,0,1.3,0,2,0c0,0.2-0.2,0.2-0.4,0.2c-0.3,0-0.6,0-0.9,0c1.5,3.2,2.8,6.4,4.3,9.5
		c-0.4,0.1-0.9,0-1.4,0.1c-0.8,0-1.6,0-2.4,0c0-0.1,0-0.1,0.1-0.1c0.1,0,0.2,0,0.4,0c0.3,0,0.6,0.1,0.7-0.1c0.1-0.2-0.1-0.4-0.2-0.6
		c-0.2-0.5-0.4-1-0.6-1.4c-0.3-0.6-0.6-1.3-0.9-1.9c-0.7-1.7-1.5-3.4-2.2-5.1c-0.1-0.1-0.2-0.3-0.1-0.5c0.1,0,0.2,0,0.3,0
		C-298.7,286.9-298.3,287-297.9,286.9z"/>
	<path class="st20" d="M-294.3,296.7c0.4-0.2,0.9,0,1.4-0.1c-0.4-0.1-0.4-0.5-0.5-0.8c-0.5-1-0.9-2.1-1.4-3.1
		c-0.3-0.8-0.7-1.6-1-2.4c-0.5-1.1-1-2.2-1.5-3.3c0.3-0.1,0.7,0,1,0c0.1,0,0.3,0.1,0.4-0.1c0.7,0,1.5,0,2.2,0c0,0.2-0.1,0.2-0.2,0.2
		c-0.5,0-1,0.1-1.5-0.1c0.2,0,0.3,0.1,0.3,0.2c0.3,0.9,0.8,1.8,1.2,2.7c0.5,1.1,1,2.3,1.5,3.4c0.4,0.9,0.8,1.7,1.1,2.6
		c0,0.1,0.1,0.2,0.1,0.3c0,0.2-0.1,0.3-0.3,0.3c-0.4,0-0.8,0-1.1,0C-293.2,296.7-293.7,296.7-294.3,296.7z"/>
	<path class="st10" d="M-302.3,296.7c-0.5,0-1.1,0-1.6,0c0-0.2,0.2-0.1,0.3-0.2c0.2,0,0.4,0,0.6,0c0.4,0,0.5-0.1,0.3-0.5
		c-0.2-0.6-0.5-1.2-0.8-1.8c-0.5-1.2-1.1-2.4-1.6-3.6c-0.3-0.8-0.7-1.5-1-2.3c-0.2-0.5-0.3-1-0.7-1.3c0,0-0.1-0.1,0-0.2
		c0.2,0,0.3,0,0.5,0c0.5,0,1,0,1.5,0c0.2,0,0.3,0.2,0.4,0.4c0.7,1.5,1.3,3,1.9,4.4c0.7,1.4,1.3,2.9,1.9,4.3c0,0.1,0.1,0.1,0.1,0.2
		c0.1,0.4,0.1,0.4-0.3,0.4C-301.2,296.6-301.7,296.6-302.3,296.7z"/>
	<path class="st7" d="M-302.3,296.7c0.4-0.1,0.8,0,1.1-0.1c0.2,0,0.5,0,0.8,0c-0.3-0.8-0.7-1.5-1-2.3c-0.7-1.5-1.4-3.1-2.1-4.6
		c-0.3-0.8-0.8-1.6-1.1-2.5c0-0.1-0.1-0.2-0.2-0.3c0.1,0,0.1,0,0.2,0c0.5,0,1.1,0,1.6,0c0,0,0.1,0,0.1,0c0.2,0.1,0.3,0.3,0.4,0.5
		c0.7,1.6,1.4,3.2,2.1,4.8c0.5,1.3,1.2,2.5,1.7,3.8c0.1,0.2,0.2,0.4,0,0.5c0,0-0.1,0-0.1,0c-0.4,0-0.8,0-1.2,0
		C-300.7,296.7-301.5,296.7-302.3,296.7z"/>
	<path class="st5" d="M-292.6,296.7c0.3-0.2,0.7-0.1,1-0.1c0.3,0,0.4-0.2,0.3-0.4c-0.1-0.4-0.3-0.9-0.5-1.3
		c-0.4-0.8-0.7-1.6-1.1-2.4c-0.2-0.4-0.4-0.9-0.6-1.3c-0.2-0.5-0.5-0.9-0.6-1.4c-0.1-0.4-0.4-0.8-0.6-1.2c-0.2-0.4-0.4-0.8-0.5-1.1
		c-0.1-0.2-0.2-0.4-0.4-0.5c0.5,0,1,0,1.4,0c0.1,0,0.3,0.1,0.4-0.1c0.5,0,1,0,1.6,0c0.1,0,0.3,0,0.4,0.1c-0.2,0-0.3,0-0.5,0
		c-0.3,0.2-0.7,0-1.1,0.1c0.1,0.5,0.4,1,0.6,1.5c0.4,0.8,0.7,1.6,1.1,2.4c0.5,1.1,1.1,2.3,1.5,3.4c0.3,0.7,0.6,1.3,0.8,2
		c0,0.1,0.1,0.1,0,0.2c-0.1,0-0.3,0-0.4,0c-0.4,0.1-0.8,0-1.1,0.1C-291.4,296.7-292,296.7-292.6,296.7z"/>
	<path class="st4" d="M-289.3,296.6c-0.3-0.6-0.6-1.3-0.8-1.9c-0.4-0.9-0.7-1.7-1.1-2.6c-0.5-0.9-0.8-1.9-1.2-2.8
		c-0.4-0.8-0.7-1.6-1-2.4c0.4,0,0.8,0,1.2,0c0.6,0.1,0.7,0.6,0.9,1.1c0.3,0.8,0.7,1.5,1,2.3c0.3,0.6,0.6,1.3,0.8,1.9
		c0.2,0.5,0.4,0.9,0.6,1.3c0.4,0.8,0.7,1.7,1.1,2.5c0,0,0,0.1,0.1,0.1c0.2,0.4,0.2,0.4-0.3,0.4
		C-288.5,296.6-288.9,296.6-289.3,296.6z"/>
	<path class="st21" d="M-306.8,287c0.5,0.4,0.6,1,0.9,1.6c0.5,1,0.9,2.1,1.4,3.2c0.4,0.8,0.6,1.5,1,2.3c0.3,0.7,0.6,1.3,0.9,2
		c0,0.1,0.1,0.2,0.1,0.3c0,0.2,0,0.3-0.3,0.3c-0.4,0-0.7-0.1-1.1,0.1c-0.9,0-1.7,0-2.6,0c0,0,0,0,0-0.1c0,0,0.1,0,0.1,0
		c0.4,0,0.8,0,1.2,0c0.1-0.1,0.3-0.1,0.5-0.1c0.7,0,0.7,0,0.4-0.7c-0.4-1-0.9-2-1.4-3c-0.4-0.9-0.7-1.8-1.2-2.7
		c-0.1-0.2-0.2-0.5-0.3-0.7c-0.3-0.7-0.6-1.5-1-2.2c0-0.1-0.1-0.2,0-0.2h0C-307.7,286.9-307.2,286.9-306.8,287z"/>
	<path class="st22" d="M-298.7,296.6C-298.6,296.6-298.6,296.6-298.7,296.6c0.4-0.2,0.8-0.1,1.2-0.1c0.7,0,0.7,0,0.4-0.7
		c-0.3-0.8-0.7-1.6-1-2.3c-0.4-1-0.9-2-1.3-3c-0.2-0.4-0.4-0.8-0.5-1.3c-0.3-0.7-0.6-1.4-1.1-2c-0.1-0.1-0.1-0.1,0-0.2
		c0.1,0,0.3,0,0.4,0c0.4,0,0.8,0,1.2,0c0.4,0.7,0.7,1.4,1,2.2c0.4,1,0.9,1.9,1.3,2.9c0.5,1.1,1,2.3,1.5,3.4c0.2,0.3,0.2,0.7,0.4,1
		c0.1,0.1,0.1,0.2-0.1,0.2c-0.3,0-0.5,0-0.8,0c-0.1-0.1-0.3-0.1-0.4,0c0,0,0,0-0.1,0.1C-297.3,296.7-298,296.7-298.7,296.6
		C-298.7,296.6-298.7,296.6-298.7,296.6C-298.7,296.6-298.7,296.6-298.7,296.6z"/>
	<path class="st23" d="M-298.7,296.6C-298.7,296.6-298.7,296.6-298.7,296.6c-0.4,0.1-0.8,0.1-1.2,0.1
		C-299.5,296.5-299.1,296.6-298.7,296.6z"/>
	<path class="st4" d="M-290.8,296.7c0.4-0.2,0.8,0,1.1-0.1C-290,296.8-290.4,296.6-290.8,296.7z"/>
	<path class="st7" d="M-300.7,287c-0.1,0-0.3,0-0.4,0c-0.6,0.2-1.1,0.2-1.7,0l0,0c0,0,0,0,0-0.1c0,0,0,0,0,0
		C-302.1,286.9-301.4,286.9-300.7,287C-300.7,286.9-300.7,286.9-300.7,287C-300.7,286.9-300.7,287-300.7,287z"/>
	<path class="st17" d="M-306.8,287c-0.5,0-0.9,0-1.4,0c0,0,0-0.1,0-0.1c0.6,0,1.2,0,1.8,0c0,0,0,0,0,0.1c0,0,0,0,0,0
		C-306.5,287-306.6,287-306.8,287z"/>
	<path class="st21" d="M-306.3,287C-306.3,286.9-306.3,286.9-306.3,287c0.6-0.1,1.2-0.1,1.8-0.1c0,0,0,0,0,0.1c0,0,0,0,0,0
		c-0.1,0-0.1,0-0.2,0C-305.2,287-305.8,287-306.3,287z"/>
	<path class="st10" d="M-304.5,287C-304.5,286.9-304.5,286.9-304.5,287c0.6-0.1,1.2-0.1,1.8-0.1c0,0,0,0.1,0,0.1
		C-303.4,287-304,287-304.5,287z"/>
	<path class="st23" d="M-300.7,287C-300.7,286.9-300.7,286.9-300.7,287c0.5-0.1,1-0.1,1.5-0.1c0,0,0,0,0,0s0,0,0,0
		c-0.1,0-0.2,0-0.3,0C-299.9,287-300.3,287-300.7,287z"/>
	<path class="st22" d="M-299.2,287C-299.2,286.9-299.2,286.9-299.2,287c0.4-0.1,0.9-0.1,1.3-0.1C-298.3,287-298.8,286.9-299.2,287z"
		/>
	<path class="st24" d="M-308.1,287c0.4,0.5,0.5,1.1,0.8,1.6c0.2,0.2,0.2,0.5,0.3,0.8c0.3,0.8,0.8,1.5,1.1,2.4c0.3,1,0.8,1.9,1.2,2.8
		c0.2,0.5,0.4,1,0.7,1.4c0.1,0.1,0.1,0.2,0.1,0.3c0,0.2,0,0.4-0.3,0.4c-0.1,0-0.3,0-0.4,0c-0.2,0-0.3-0.1-0.3-0.4
		c0-0.3-0.2-0.7-0.3-0.9c-0.4-0.7-0.6-1.4-1-2.1c-0.3-0.5-0.5-1.1-0.7-1.7c-0.4-1-0.9-2-1.3-3c-0.1-0.1-0.1-0.3-0.2-0.4
		c-0.2-0.5-0.3-1-0.9-1c-0.1,0-0.2,0-0.2-0.1C-309.2,287-308.7,287-308.1,287z"/>
	<path class="st17" d="M-309.4,287c0.5-0.1,0.7,0.2,0.9,0.6c0.4,1.1,1,2.2,1.4,3.3c0.3,0.6,0.5,1.1,0.8,1.7c0.4,1.1,1,2.1,1.4,3.2
		c0.1,0.2,0.1,0.3,0.1,0.5c0,0.2,0.1,0.3,0.2,0.4c-0.2,0-0.4,0-0.5,0c-0.4-0.4-0.5-0.9-0.7-1.4c-0.6-1.3-1.2-2.7-1.8-4.1
		c-0.6-1.3-1.1-2.6-1.7-3.9C-309.4,287.2-309.4,287.1-309.4,287z"/>
	<path class="st23" d="M-296.6,296.6c0.1-0.1,0.3-0.1,0.4,0C-296.3,296.6-296.5,296.6-296.6,296.6z"/>
	<path class="st23" d="M-302.8,287c0.6,0,1.1,0,1.7,0c0.8,0.8,1,1.8,1.5,2.8c0.3,0.7,0.6,1.3,0.9,2c0.2,0.4,0.3,0.8,0.5,1.2
		c0.2,0.6,0.5,1.2,0.8,1.8c0.2,0.5,0.4,1,0.7,1.5c0.1,0.2,0,0.4-0.3,0.4c-0.5,0-1,0-1.5,0c0-0.5-0.2-0.9-0.4-1.4
		c-0.4-0.9-0.8-1.7-1.2-2.6c-0.7-1.5-1.3-3-2-4.5C-302.4,287.8-302.5,287.3-302.8,287z"/>
</g>
</svg>
