<?xml version="1.0" encoding="utf-8"?>
<!-- Generator: Adobe Illustrator 19.0.0, SVG Export Plug-In . SVG Version: 6.00 Build 0)  -->
<svg version="1.1" id="Layer_1" xmlns="http://www.w3.org/2000/svg" xmlns:xlink="http://www.w3.org/1999/xlink" x="0px" y="0px"
	 viewBox="0 0 200 50" enable-background="new 0 0 200 50" xml:space="preserve">
<g id="XMLID_106_">
	<path id="XMLID_154_" d="M113.5,28.6c-1,1.2-2.2,1.2-3.5,0.9c-1.4-0.4-2.2-1.3-2.5-2.7c-0.1-0.4-0.2-0.8-0.2-1.3c0-1.4,0-2.7,0-4.1
		c0-0.2,0-0.3,0.3-0.3c0.5,0,0.9,0,1.4,0c0.3,0,0.4,0.1,0.4,0.4c0,1.3,0,2.7,0,4c0,1.5,1.2,2.4,2.7,2c0.9-0.2,1.5-1,1.5-2
		c0-1.3,0-2.7,0-4c0-0.3,0.1-0.4,0.4-0.4c0.5,0,0.9,0,1.4,0c0.3,0,0.3,0.1,0.3,0.3c0,2.2,0,4.4,0,6.6c0,0.6,0,1.2,0,1.8
		c0,2.2-1.4,3.7-3.6,4c-2.3,0.3-4.2-0.7-4.9-2.8c-0.1-0.4-0.1-0.4,0.3-0.4c0.5,0,1.1,0,1.6,0c0.2,0,0.3,0,0.4,0.2
		c0.5,0.9,1.5,1.2,2.5,0.9c0.9-0.2,1.5-0.9,1.5-1.9C113.5,29.4,113.5,29,113.5,28.6z"/>
	<path id="XMLID_153_" d="M97.8,22.5c0-1.9,0-3.7,0-5.6c0-0.3,0.1-0.4,0.3-0.3c0.5,0,1.1,0,1.6,0c0.3,0,0.3,0.1,0.3,0.4
		c0,3.3,0,6.6,0,9.9c0,0.1,0,0.2,0,0.3c0,0.5,0.1,0.7,0.7,0.7c1.8,0,3.5,0,5.3,0c0.3,0,0.4,0.1,0.4,0.4c0,0.5,0,1,0,1.5
		c0,0.2,0,0.3-0.2,0.3c-2.2,0-4.3,0-6.5,0c-1.1,0-1.9-0.8-1.9-2C97.8,26.2,97.8,24.4,97.8,22.5C97.8,22.5,97.8,22.5,97.8,22.5z"/>
	<path id="XMLID_151_" d="M118,27.3c0-0.8-0.1-1.7,0.1-2.6c0.3-2,1.5-3.2,3.5-3.5c0.6-0.1,1.2-0.1,1.8-0.1c0.2,0,0.2,0.1,0.2,0.2
		c0,0.6,0,1.1,0,1.7c0,0.2-0.1,0.2-0.2,0.2c-0.3,0-0.5,0-0.8,0c-1.4,0-2.3,0.9-2.4,2.3c-0.1,1.3,0,2.6,0,3.8c0,0.7,0,0.7-0.7,0.7
		c-0.4,0-0.8,0-1.2,0c-0.3,0-0.3-0.1-0.3-0.3C118,28.9,118,28.2,118,27.3z"/>
	<path id="XMLID_150_" fill="#66DAA2" d="M75.3,17.8c0.5-0.6,1-1.1,1.6-1.6c0.1,0,0.1,0.1,0.2,0.2c0.6,1.3,1.2,2.6,1.7,3.9
		c0.6,1.3,1.1,2.6,1.7,3.8c0.2,0.4,0.3,0.8,0.5,1.2c0,0.1,0.1,0.2,0,0.3c-0.3,0.3-0.5,0.7-0.9,0.9c-0.7,0-1.3,0-2,0
		c-0.2-0.1-0.1-0.1,0-0.2c0.1-0.1,0.3,0,0.5,0c0.2,0,0.3-0.1,0.2-0.3c-0.2-0.5-0.5-0.9-0.6-1.4c-0.3-0.8-0.7-1.5-1-2.3
		c-0.3-0.7-0.6-1.4-0.9-2.1c-0.3-0.6-0.6-1.1-0.8-1.7c0-0.1-0.1-0.2-0.2-0.3C75,18.1,75.2,17.9,75.3,17.8z"/>
	<path id="XMLID_149_" fill="#60D9A3" d="M75.3,17.8c0.1,0.1-0.1,0.1-0.1,0.3c0.3,0,0.4,0.2,0.5,0.4c0.1,0.3,0.3,0.6,0.4,1
		c0.3,0.7,0.6,1.4,0.9,2c0.2,0.6,0.4,1.2,0.7,1.7c0.3,0.5,0.5,0.9,0.7,1.4c0.2,0.5,0.4,0.9,0.6,1.4c0.1,0.3,0,0.3-0.2,0.3
		c-0.2,0-0.4-0.1-0.6,0.1c-0.2,0.1-0.4,0.1-0.6,0.1c-0.4,0-0.8,0-1.3,0c-0.3,0-0.5,0-0.8,0c-0.2-0.1-0.1-0.1,0-0.2
		c0.1-0.1,0.3,0,0.4,0c0.3,0,0.4-0.1,0.2-0.4c-0.2-0.4-0.3-0.7-0.5-1.1c-0.7-1.5-1.3-3-2-4.5c-0.1-0.1-0.1-0.2-0.3-0.2
		c-0.1,0-0.2-0.1-0.1-0.2C73.9,19.2,74.6,18.5,75.3,17.8z"/>
	<path id="XMLID_148_" fill="#6BDBA0" d="M81.1,25.6c-0.4-1-0.9-2-1.3-3c-0.3-0.7-0.6-1.5-1-2.2c-0.3-0.5-0.5-1.1-0.7-1.7
		c-0.3-0.8-0.7-1.5-1-2.2c-0.1-0.1-0.1-0.3-0.1-0.4c0.4-0.4,0.8-0.8,1.2-1.2c0.4,0.2,0.6,0.7,0.7,1.1c0.3,0.8,0.7,1.5,1,2.2
		c0.5,1.3,1.1,2.6,1.7,3.9c0.3,0.7,0.6,1.4,0.9,2.1C82,24.7,81.5,25.2,81.1,25.6z"/>
	<path id="XMLID_147_" fill="#49D5A7" d="M72.3,37.9c-0.2,0-0.3,0-0.5-0.1c0,0,0.1,0,0-0.1c-0.1-0.2,0-0.4-0.1-0.6
		c-0.3-0.9-0.8-1.8-1.2-2.8C70,33.2,69.5,32,69,30.8c-0.3-0.6-0.5-1.2-0.8-1.8c-0.1-0.1-0.1-0.2-0.2-0.3c-0.1,0-0.2-0.1-0.1-0.2
		c0-0.1,0.2-0.1,0.3-0.1c0.3,0.1,0.5,0.1,0.8,0.1c0.1,0,0.2,0,0.3,0c0.5,0,0.7,0.3,0.9,0.7c0.2,0.4,0.3,0.9,0.5,1.2
		c0.3,0.6,0.6,1.2,0.8,1.9c0.4,1,0.9,2,1.3,3c0.2,0.6,0.5,1.1,0.7,1.7c0,0.1,0.1,0.2,0.1,0.3c0.1,0.4,0,0.5-0.4,0.6
		c-0.2,0-0.4,0-0.6,0C72.6,37.9,72.4,37.8,72.3,37.9z"/>
	<path id="XMLID_146_" fill="#44D4A8" d="M68.9,28.6c-0.3,0.1-0.7-0.1-1.1-0.1c0.3,0.1,0.4,0.3,0.5,0.5c0.9,2,1.8,4,2.7,6
		c0.2,0.5,0.5,1,0.7,1.5c0.1,0.3,0.3,0.6,0.2,1c-0.1,0.2,0.2,0,0.2,0.2c-0.1,0-0.2,0-0.3,0c-0.9-0.1-1.5-0.6-1.9-1.5
		c-1.1-2.7-2.3-5.3-3.4-8c-0.1-0.2-0.2-0.5-0.3-0.8c0.7,0.7,1.6,0.8,2.4,0.9C68.7,28.5,68.8,28.5,68.9,28.6
		C68.9,28.5,68.9,28.5,68.9,28.6z"/>
	<path id="XMLID_145_" fill="#74DC9F" d="M79.4,13.5c0.4-0.4,0.8-0.9,1.2-1.3c0.3,0.4,0.5,0.8,0.6,1.2c0.5,1.1,0.9,2.2,1.4,3.2
		c0.3,0.6,0.5,1.3,0.8,1.9c0.3,0.8,0.7,1.5,1,2.3c0.1,0.2,0.2,0.4,0.2,0.6c0-0.2,0.1-0.3,0.2-0.5c0,0,0.1-0.1,0.1,0c0,0,0,0.1,0,0.1
		c0,0.3-0.2,0.6-0.5,0.8c-0.3,0.3-0.6,0.6-0.8,0.8c-0.1,0-0.2,0-0.2,0c0-0.5-0.2-0.9-0.4-1.3c-0.6-1.3-1.1-2.7-1.7-4
		c-0.6-1.2-1.1-2.4-1.6-3.7C79.7,13.7,79.5,13.7,79.4,13.5z"/>
	<path id="XMLID_144_" fill="#5AD8A4" d="M73.3,19.9c0.1,0,0,0.2,0.1,0.1c0.3-0.2,0.3,0,0.4,0.2c0.5,1,0.9,2,1.3,3
		c0.3,0.7,0.7,1.4,0.9,2.1c0.1,0.3,0.3,0.4,0.3,0.7c0,0.2,0,0.3-0.2,0.3c-0.2,0-0.5-0.1-0.7,0.1c-0.2,0.1-0.5,0.1-0.7,0.1
		c-0.3,0-0.6,0-1,0c-0.2,0-0.4,0-0.6,0c-0.2-0.1,0-0.2,0-0.2c0.2-0.1,0.3,0,0.5,0c0.4,0,0.5,0,0.3-0.4c-0.4-0.9-0.7-1.8-1.1-2.6
		c-0.3-0.6-0.5-1.2-0.8-1.7c-0.1-0.1-0.1-0.2,0-0.3C72.4,20.8,72.8,20.3,73.3,19.9z"/>
	<path id="XMLID_142_" fill="#6FDCA0" d="M82.4,24.2c-0.3-0.3-0.4-0.7-0.6-1c-0.3-0.7-0.6-1.4-0.9-2.1c-0.3-0.8-0.7-1.6-1-2.4
		c-0.3-0.7-0.6-1.3-0.9-2c-0.2-0.4-0.3-0.9-0.6-1.3c-0.1-0.2-0.3-0.3-0.3-0.5c0,0,0.1-0.1,0.1-0.1c0.2-0.1,0.3-0.2,0.5-0.4
		c0.2-0.2,0.3-0.2,0.5,0.1c0.3,0.5,0.5,1,0.7,1.5c0.5,1.2,1,2.4,1.6,3.6c0.5,1.1,0.9,2.2,1.4,3.3c0.2,0.3,0.1,0.3,0.5,0.1
		c0.1,0,0.1-0.1,0.2,0C83.2,23.4,82.8,23.8,82.4,24.2z"/>
	<path id="XMLID_141_" fill="#78DD9F" d="M85,21.2C85,21.1,85,21,85,21.2c-0.2,0.1-0.2,0.3-0.3,0.4c-0.6-1.6-1.4-3.1-2-4.6
		c-0.1-0.4-0.4-0.7-0.6-1.1c-0.4-1-0.9-2-1.3-3c-0.1-0.2-0.3-0.3-0.2-0.5c0.5-0.4,1-0.3,1.3,0.3c0.4,0.8,0.7,1.7,1.1,2.5
		c0.7,1.5,1.3,3.1,2,4.6C85.2,20.2,85.2,20.7,85,21.2z"/>
	<path id="XMLID_140_" fill="#71DCA0" d="M83.6,23c0,0-0.1,0-0.1,0c-0.2,0.1-0.3,0.4-0.4,0.3c-0.2-0.1-0.2-0.4-0.3-0.6
		c-0.3-0.7-0.7-1.4-0.9-2.1c-0.2-0.6-0.6-1.1-0.8-1.7c-0.1-0.4-0.3-0.7-0.4-1c-0.4-1-0.9-2-1.4-3c0,0,0-0.1,0-0.1
		c-0.3-0.6-0.3-0.6-0.7-0.1c-0.1,0.1-0.2,0.2-0.3,0.1c0.4-0.4,0.8-0.8,1.2-1.2c0.2,0,0.4,0.1,0.5,0.4c0.4,0.8,0.7,1.7,1.1,2.5
		c0.5,1.1,1,2.3,1.5,3.4c0.4,0.9,0.7,1.8,1.2,2.7c0.1,0.1,0,0.2,0,0.2c-0.1,0.1,0,0.1,0.1,0.1C83.7,22.9,83.6,22.9,83.6,23z"/>
	<path id="XMLID_139_" fill="#55D8A5" d="M72,21.2c0.4,0.7,0.7,1.4,1,2c0.4,0.9,0.8,1.8,1.2,2.7c0,0.1,0.1,0.2,0.1,0.4
		c-0.4,0.1-0.7-0.1-1.1,0.1c-0.1,0.1-0.2,0.1-0.3,0.1c-0.7,0-1.3,0-2,0c-0.2-0.1-0.1-0.2,0.1-0.2c0.2-0.1,0.5,0,0.7,0
		c0.4,0,0.5,0,0.3-0.4c-0.4-1-0.7-2-1.3-2.9c-0.2-0.3,0.2-0.3,0.2-0.5C71.1,22,71.6,21.6,72,21.2z"/>
	<path id="XMLID_138_" fill="#77DD9F" d="M87.8,28.5c0.7,0.1,1.2,0.5,1.5,1.1c1,2.3,2,4.7,3,7c0.3,0.6,0.1,1-0.5,1.2
		c-0.2,0-0.5,0-0.7,0c-0.1-0.2,0.1-0.2,0.2-0.2c0.2,0,0.2-0.1,0.2-0.3C91,36.2,90.6,35.1,90,34c-0.3-0.5-0.4-1-0.6-1.5
		c-0.4-0.9-0.8-1.7-1.1-2.6c-0.1-0.2-0.1-0.4-0.2-0.6c-0.1-0.3-0.3-0.6-0.6-0.6c-0.1,0-0.1-0.1-0.1-0.1
		C87.4,28.5,87.6,28.5,87.8,28.5z"/>
	<path id="XMLID_137_" fill="#50D7A6" d="M70.8,22.5c0,0.2,0,0.5,0.1,0.7c0.5,0.9,0.9,1.9,1.3,2.9c0.1,0.2,0,0.3-0.2,0.3
		c-0.4,0-0.8-0.1-1.1,0.1c-0.4,0.2-0.9,0-1.3,0.1c-0.1,0-0.1,0-0.1-0.1c0-0.1,0.1-0.1,0.1-0.1c0.1,0,0.3,0,0.4,0
		c0.2,0,0.3-0.1,0.2-0.3c-0.2-0.5-0.4-0.9-0.6-1.4c0-0.1-0.1-0.1-0.2-0.1c-0.1,0-0.2,0-0.2-0.1C69.6,23.7,70.2,23.1,70.8,22.5z"/>
	<path id="XMLID_136_" fill="#4CD5A8" d="M68.9,24.3C69,24.4,69,24.4,68.9,24.3c0.5-0.2,0.6,0.2,0.7,0.5c0.2,0.4,0.4,0.8,0.6,1.2
		c0.1,0.2,0,0.3-0.2,0.3c-0.2,0-0.4,0-0.6,0.1c0.5,0,0.9,0,1.4,0c0.8,0,1.6,0,2.3,0c0.2,0,0.4,0,0.6,0c0,0.1,0,0.1,0,0.1
		c-1.4,0-2.8,0-4.2,0c-0.1,0-0.1,0-0.2,0c-0.1,0-0.1,0-0.2,0c-0.9-0.2-1.2-0.8-0.7-1.5C68.6,24.8,68.8,24.6,68.9,24.3z"/>
	<path id="XMLID_135_" fill="#69DA9A" d="M91.1,37.8c0.2,0,0.5-0.1,0.7,0.1c-0.1,0.1-0.3,0.1-0.4,0.1c-6.2,0-12.4,0-18.6,0
		c-0.1,0-0.3,0-0.4-0.1c0.5-0.2,1.1-0.1,1.7-0.1c1.1,0,2.1,0,3.2,0c1.3,0,2.6,0,3.9,0c1.1,0,2.3,0,3.4,0c1.1,0,2.1,0,3.2,0
		c0.2,0,0.3,0,0.5,0c0.5-0.1,1,0,1.5,0c0.3,0,0.6,0,0.9,0C90.8,37.7,90.9,37.6,91.1,37.8z"/>
	<path id="XMLID_134_" fill="#6CDBA1" d="M87.8,28.5c-0.2,0.1-0.3,0-0.5,0.1c-0.2,0.2-0.4,0.1-0.5,0.1c-0.3,0-0.6,0-0.9,0
		c-0.5,0-1.1,0-1.6,0c-0.7-0.1-1.5,0-2.2,0c-0.1,0-0.1,0-0.2,0c-1.1,0-2.1,0-3.2,0c-1.5,0-3,0-4.4,0c-1.2,0-2.5,0-3.7,0
		c-0.2,0-0.3,0-0.5,0c0,0-0.1-0.1-0.1-0.1c1.6,0,3.1,0,4.7,0c4.3,0,8.5,0,12.8,0C87.4,28.4,87.6,28.4,87.8,28.5z"/>
	<path id="XMLID_133_" fill="#5BD8A0" d="M69.2,26.5c1.5,0,3,0,4.5,0c0.7-0.1,1.4,0,2.1,0c0.1,0,0.3,0,0.4,0c0.6,0,1.3,0,1.9,0
		c0.6,0,1.1,0,1.7,0c0.1,0,0.2,0,0.3,0.1c-0.1,0.1-0.2,0.1-0.3,0.1c-3.4,0-6.7,0-10.1,0C69.6,26.6,69.4,26.6,69.2,26.5z"/>
	<path id="XMLID_132_" fill="#42D4A2" d="M77.2,37.8c-1.6,0-3.2,0-4.8,0c0,0,0,0,0,0s0,0,0,0c0.1-0.1,0.2-0.1,0.4-0.1
		c0.4-0.1,0.8,0,1.2-0.1c0.5,0,1,0,1.4,0c0.4,0,0.8,0,1.1,0c0.2,0,0.4,0,0.7,0.1C77.2,37.8,77.2,37.8,77.2,37.8z"/>
	<path id="XMLID_131_" fill="#66DAA2" d="M69.8,28.5C69.8,28.5,69.8,28.5,69.8,28.5c-0.3,0.2-0.6,0.1-0.9,0.1c-0.1,0-0.2,0-0.2,0
		C69,28.4,69.4,28.5,69.8,28.5z"/>
	<path id="XMLID_130_" fill="#050505" d="M107.5,21.2c0.5,0,1,0,1.5,0c0.2,0,0.2,0.1,0.2,0.3c0,1.4,0,2.8,0,4.3
		c-0.1-0.1-0.1-0.2-0.1-0.3c0-1.2,0-2.5,0-3.7c0-0.5,0-0.5-0.5-0.5C108.3,21.3,107.9,21.3,107.5,21.2
		C107.5,21.3,107.5,21.2,107.5,21.2z"/>
	<path id="XMLID_128_" d="M132,28.4c-1,1.4-2.3,1.8-3.8,1.5c-1.7-0.4-2.8-1.5-3.2-3.1c-0.7-2.7,0.8-5.3,3.4-5.8
		c2.6-0.6,5,0.9,5.5,3.4c0.1,0.3,0.1,0.7,0.1,1c0,1.4,0,2.8,0,4.2c0,0.3,0,0.4-0.3,0.4c-0.4,0-0.9,0-1.3,0c-0.2,0-0.3-0.1-0.3-0.3
		C132,29.2,132,28.8,132,28.4z M129.4,27.9c1.5,0,2.5-1.1,2.5-2.5c0-1.5-1.1-2.5-2.5-2.5c-1.4,0-2.5,1.1-2.5,2.5
		C126.9,26.8,127.9,27.9,129.4,27.9z"/>
	<path id="XMLID_127_" fill="#050505" d="M106.2,28.1c-1.9,0-3.8,0-5.6,0c0,0,0,0,0,0C102.5,28,104.3,28,106.2,28.1
		C106.2,28,106.2,28,106.2,28.1z"/>
	<path id="XMLID_126_" fill="#060606" d="M98,16.8c0.6,0,1.3,0,1.9,0c0,0,0,0,0,0C99.2,16.8,98.6,16.8,98,16.8
		C98,16.8,98,16.8,98,16.8z"/>
	<path id="XMLID_125_" fill="#55D8A5" d="M76.2,26.5c-0.1,0.1-0.2,0.1-0.4,0.1c-0.7,0-1.5,0-2.2,0c0,0,0,0,0-0.1c0.6,0,1.2,0,1.8,0
		C75.7,26.5,76,26.5,76.2,26.5z"/>
	<path id="XMLID_124_" fill="#4CD5A7" d="M73.9,37.8c-0.4,0-0.8,0-1.2,0c0.2-0.1,0.4-0.1,0.6-0.1c0.3,0,0.4-0.1,0.3-0.4
		c-0.2-0.6-0.5-1.1-0.7-1.6c-0.2-0.5-0.4-0.9-0.6-1.4c-0.3-0.6-0.6-1.2-0.9-1.9c-0.2-0.4-0.4-0.9-0.6-1.3c-0.4-0.7-0.6-1.4-0.9-2.1
		c-0.1-0.3-0.4-0.3-0.6-0.4c0.3-0.1,0.6,0,0.9,0c0.1,0,0.2,0,0.3,0.1c0.4,0.3,0.5,0.8,0.7,1.2c0.3,0.9,0.8,1.7,1.2,2.6
		c0.3,0.7,0.6,1.4,0.9,2.1c0.2,0.6,0.5,1.1,0.8,1.7c0.2,0.4,0.3,0.8,0.5,1.2c0,0.1,0.1,0.2,0,0.3C74.3,37.8,74.1,37.7,73.9,37.8z"/>
	<path id="XMLID_123_" fill="#46D5A3" d="M70.3,28.6c-0.3,0-0.7,0-1,0c-0.1,0-0.2,0-0.4,0c0,0,0,0,0-0.1c0.3,0,0.6,0,0.9,0
		c1.4,0,2.9,0,4.3,0c0,0.2-0.2,0.2-0.4,0.2c-0.3,0-0.5,0-0.8,0c-0.4,0-0.8,0-1.2,0C71.2,28.7,70.7,28.7,70.3,28.6z"/>
	<path id="XMLID_122_" fill="#74DC9F" d="M85.8,28.6c0.5,0,1,0,1.5,0c0.6,0.1,0.7,0.6,0.9,1c0.3,0.7,0.5,1.3,0.8,1.9
		c0.3,0.7,0.6,1.4,0.9,2.2c0.4,0.9,0.8,1.7,1.2,2.6c0.2,0.4,0.3,0.8,0.5,1.1c0.1,0.2,0.1,0.3-0.2,0.3c-0.1,0-0.2,0-0.3,0.1
		c-0.5,0-0.9,0-1.4,0c0.3-0.2,0.2-0.4,0.1-0.7c-0.6-1.2-1-2.5-1.7-3.7c-0.4-0.8-0.7-1.6-1.1-2.4c-0.3-0.6-0.6-1.2-0.8-1.9
		C86.1,28.8,85.8,28.8,85.8,28.6z"/>
	<path id="XMLID_121_" fill="#70DCA0" d="M85.8,28.6c0.4,0.1,0.5,0.4,0.6,0.7c0.2,0.6,0.5,1.1,0.7,1.7c0.4,0.8,0.7,1.6,1.1,2.4
		c0.5,1,0.9,2,1.3,3c0.1,0.3,0.2,0.5,0.4,0.8c0.2,0.3,0.2,0.5-0.2,0.6c-0.5,0-1,0-1.5,0c-0.2,0.1-0.4,0-0.5,0
		c-0.1-0.2,0.1-0.2,0.2-0.2c0.4-0.1,0.4-0.1,0.3-0.5c-0.4-1-0.9-2-1.3-3c-0.3-0.6-0.6-1.3-0.8-1.9c-0.2-0.5-0.4-1-0.7-1.5
		c-0.3-0.5-0.5-1-0.7-1.6c-0.1-0.2-0.2-0.4-0.5-0.5c-0.1,0-0.1-0.1-0.1-0.2c0.1,0,0.2,0,0.3,0C84.7,28.6,85.3,28.6,85.8,28.6z"/>
	<path id="XMLID_120_" fill="#4ED6A0" d="M77.2,37.8C77.2,37.8,77.2,37.8,77.2,37.8c0.3-0.3,0.7-0.2,1-0.2c0.8,0,1.6,0,2.4,0
		c0.1,0,0.3,0,0.4,0.1c0,0,0.1,0.1,0,0.1C79.8,37.8,78.5,37.8,77.2,37.8z"/>
	<path id="XMLID_119_" fill="#5FD99C" d="M87.6,37.8c0.2,0,0.4,0,0.6,0c-0.1,0.1-0.2,0.1-0.3,0.1c-1.1,0-2.2,0-3.3,0
		c0-0.1,0-0.1,0-0.1c0.4-0.1,0.9,0,1.4-0.1c0.4,0,0.8,0,1.2,0C87.3,37.7,87.4,37.6,87.6,37.8z"/>
	<path id="XMLID_118_" fill="#56D89E" d="M84.5,37.8C84.5,37.8,84.5,37.8,84.5,37.8c-1.1,0.1-2.3,0.1-3.4,0.1c0,0,0,0,0-0.1
		c0.1-0.1,0.2-0.1,0.4-0.1c0.3,0,0.6,0,0.9,0c0.5,0,1,0,1.5,0C84.1,37.7,84.3,37.6,84.5,37.8z"/>
	<path id="XMLID_117_" fill="#66DAA2" d="M84.5,37.8c-0.2,0-0.4,0-0.6,0c0-0.1,0-0.1,0.1-0.1c0.3-0.1,0.2-0.2,0.1-0.4
		c-0.3-0.8-0.7-1.6-1.1-2.4c-0.6-1.5-1.3-3-1.9-4.4c-0.2-0.5-0.4-0.9-0.6-1.4c-0.1-0.1-0.2-0.2-0.3-0.3c-0.1,0-0.2-0.1,0-0.2
		c0.5,0,1.1,0,1.6,0c0.7,0,1.4,0,2.1,0c0.1,0,0.2,0,0.3,0.1c-0.1,0-0.2,0-0.3,0c-0.5,0.2-1,0.1-1.4,0.1c-0.1,0-0.1,0-0.2,0
		c0.2,0,0.3,0.1,0.3,0.3c1,2,1.8,4.1,2.7,6.2c0.3,0.6,0.6,1.3,0.9,1.9c0,0.1,0.1,0.2,0.1,0.3c0.1,0.3,0.1,0.4-0.3,0.4
		c-0.1,0-0.1,0-0.2,0C85.4,37.8,85,37.8,84.5,37.8z"/>
	<path id="XMLID_116_" fill="#56D8A5" d="M78.2,37.8c-0.3,0-0.7,0-1,0c-0.2,0-0.4,0-0.7,0c0.1-0.2,0.3-0.1,0.5-0.2
		c0.3,0,0.3-0.1,0.2-0.4c-0.2-0.6-0.5-1.1-0.7-1.6c-0.4-0.9-0.8-1.8-1.2-2.7c-0.6-1.2-1.1-2.5-1.7-3.8c-0.1-0.2-0.2-0.4-0.5-0.5
		c-0.1,0-0.2,0-0.2-0.1c0.4,0,0.8,0.1,1.2-0.1c1.5,0,3,0,4.5,0c0,0,0,0.1,0,0.1c-0.3,0.1-0.5,0-0.8,0.1c-0.3,0-0.7,0-1,0
		c-0.5,0-1.1,0.1-1.6-0.1c0.3-0.1,0.3,0.2,0.4,0.4c0.7,1.4,1.2,2.9,1.9,4.3c0.6,1.2,1.1,2.5,1.7,3.8c0,0.1,0.1,0.2,0.1,0.2
		c0.1,0.3,0,0.4-0.3,0.4C78.7,37.8,78.4,37.7,78.2,37.8z"/>
	<path id="XMLID_115_" fill="#5ED9A4" d="M78.6,28.6C78.6,28.6,78.6,28.5,78.6,28.6c1.1-0.1,2.1-0.1,3.2-0.1c-0.3,0.2-0.7,0-1.1,0.1
		c-0.2,0-0.4,0-0.6,0c-0.2,0.2-0.5,0.1-0.7,0.1c-0.2,0-0.4,0-0.6,0C78.7,28.7,78.6,28.6,78.6,28.6z"/>
	<path id="XMLID_114_" fill="#52D7A6" d="M73,28.6c0.7,0,0.8,0.5,1,1c0.7,1.6,1.5,3.3,2.2,4.9c0.4,0.9,0.8,1.8,1.2,2.8
		c0.1,0.3,0.1,0.4-0.3,0.4c-0.2,0-0.4-0.1-0.6,0.1c-0.4,0-0.8,0-1.2,0c0-0.2,0.2-0.2,0.4-0.2c0.2,0,0.3-0.1,0.2-0.3
		c-0.3-0.5-0.4-1-0.6-1.4c-0.2-0.5-0.4-1-0.7-1.5c-0.4-0.9-0.7-1.8-1.2-2.6c-0.3-0.5-0.4-1-0.6-1.5c-0.2-0.4-0.4-0.9-0.6-1.3
		c-0.1-0.1-0.2-0.2-0.3-0.3c-0.1,0-0.2,0-0.2-0.2C72.1,28.6,72.5,28.6,73,28.6z"/>
	<path id="XMLID_113_" fill="#4FD6A6" d="M71.7,28.6c0.6,0.1,0.7,0.6,0.9,1.1c0.4,0.9,0.8,1.9,1.3,2.8c0.2,0.4,0.3,0.8,0.5,1.1
		c0.2,0.6,0.5,1.1,0.8,1.7c0.3,0.7,0.6,1.4,0.9,2.1c0.1,0.3,0,0.3-0.2,0.3c-0.2,0-0.3-0.1-0.5,0.1c-0.5,0-1,0-1.5,0
		c0.2-0.1,0.4,0,0.6-0.1c0.5-0.2,0.5-0.2,0.3-0.7c-0.4-0.8-0.6-1.6-1.1-2.3c-0.1-0.2-0.1-0.4-0.2-0.5C73,33.1,72.6,32,72.1,31
		c-0.3-0.6-0.5-1.2-0.7-1.7c-0.1-0.3-0.3-0.5-0.7-0.5c-0.1,0-0.1,0-0.2-0.1c-0.1,0-0.2,0-0.2-0.1C70.7,28.6,71.2,28.6,71.7,28.6z"/>
	<path id="XMLID_112_" fill="#4DD5A7" d="M70.5,28.7c0.2,0,0.3,0,0.5,0c0.1,0,0.2,0,0.3,0.2c0,0.1,0.1,0.1,0.1,0.2
		c0.5,1.1,1,2.2,1.5,3.2c0.3,0.7,0.6,1.4,0.9,2.1c0.1,0.4,0.5,0.8,0.6,1.3c0.2,0.6,0.6,1,0.7,1.6c0.1,0.4,0.1,0.4-0.3,0.4
		c-0.1,0-0.1,0-0.2,0c-0.3-0.7-0.6-1.4-0.9-2.1c-0.4-0.9-0.7-1.8-1.1-2.6c-0.3-0.6-0.6-1.3-0.9-1.9c-0.3-0.7-0.6-1.4-0.9-2.1
		C70.6,28.9,70.5,28.8,70.5,28.7z"/>
	<path id="XMLID_111_" fill="#6CDBA1" d="M85.9,37.8c0.5-0.2,0.5-0.2,0.3-0.7c-0.5-1.2-1.1-2.4-1.6-3.6c-0.7-1.5-1.3-3-2-4.4
		c-0.1-0.2-0.1-0.5-0.5-0.4c0.6,0,1.2,0,1.8,0c0.1,0.1,0.2,0.1,0.3,0.1c0.1,0,0.2,0,0.2,0.1c0.2,0.6,0.5,1.1,0.7,1.7
		c0.2,0.3,0.3,0.7,0.5,1c0.3,0.7,0.6,1.3,0.9,2c0.3,0.7,0.6,1.3,0.9,2c0.2,0.6,0.6,1.2,0.8,1.9c0.1,0.3,0.1,0.4-0.2,0.4
		c-0.1,0-0.3-0.1-0.4,0.1C87,37.8,86.4,37.8,85.9,37.8z"/>
	<path id="XMLID_110_" fill="#5AD8A4" d="M78.2,37.8c0.2-0.1,0.4-0.1,0.7-0.1c0.3,0,0.3-0.1,0.2-0.3c-0.3-0.7-0.6-1.4-0.9-2.1
		c-0.5-1.2-1-2.3-1.5-3.5c-0.4-1-0.8-2-1.3-2.9c-0.1-0.2-0.2-0.2-0.4-0.3c0.6,0,1.1,0,1.7,0c0.4,0,0.6,0.3,0.8,0.7
		c0.5,1.2,1,2.3,1.5,3.5c0.7,1.5,1.3,3,2,4.5c0.2,0.4,0.1,0.5-0.3,0.6C79.9,37.8,79,37.8,78.2,37.8z"/>
	<path id="XMLID_109_" fill="#5ED9A4" d="M80.7,37.8c0.3-0.1,0.3-0.3,0.2-0.6c-0.5-1-1-2.1-1.4-3.2c-0.4-0.9-0.8-1.7-1.1-2.5
		c-0.3-0.8-0.8-1.5-1-2.4c-0.1-0.3-0.3-0.4-0.6-0.5c0.4,0,0.7,0,1.1,0c0.5-0.1,0.8,0.3,1,0.7c0.1,0.2,0.2,0.3,0.2,0.5
		c0.4,1,0.9,1.9,1.2,2.8c0.2,0.7,0.6,1.3,0.9,2c0.3,0.8,0.7,1.7,1.1,2.5c0.2,0.6,0.2,0.6-0.4,0.6c-0.1,0-0.3,0-0.4,0
		c-0.1,0-0.2,0-0.4,0C80.9,37.8,80.8,37.8,80.7,37.8z"/>
	<path id="XMLID_108_" fill="#62DAA3" d="M78.7,28.6c0.5,0,0.9,0,1.4,0c0.3,0,0.4,0.3,0.5,0.5c0.6,1.2,1.1,2.5,1.6,3.7
		c0.5,1.3,1.2,2.5,1.7,3.8c0.1,0.3,0.2,0.5,0.3,0.8c0.1,0.1,0,0.2-0.1,0.2c-0.1,0-0.2,0-0.3,0.1c-0.5,0-1,0-1.5,0
		c0-0.2,0.2-0.1,0.3-0.2c0.3,0,0.4-0.1,0.2-0.4c-0.3-0.6-0.5-1.3-0.8-1.9c-0.2-0.4-0.3-0.8-0.5-1.2c-0.4-0.8-0.7-1.7-1.1-2.5
		c-0.3-0.5-0.4-1.1-0.7-1.7c-0.1-0.3-0.3-0.6-0.4-0.9c-0.1-0.2-0.2-0.4-0.5-0.4C78.8,28.7,78.7,28.7,78.7,28.6z"/>
	<path id="XMLID_107_" fill="#60D9A3" d="M78.7,28.6c0.8,0.1,0.8,0.8,1.1,1.3c0.3,0.5,0.4,1.1,0.6,1.6c0.3,0.5,0.6,1.1,0.8,1.7
		c0.2,0.6,0.6,1.2,0.8,1.8c0.1,0.4,0.4,0.8,0.5,1.2c0.2,0.4,0.4,0.9,0.6,1.3c0.1,0.3,0.1,0.4-0.3,0.4c-0.2,0-0.3-0.1-0.5,0.1
		c-0.3,0-0.6,0-0.9,0c0.3-0.2,0.5,0,0.9-0.1c-0.1-0.4-0.3-0.8-0.4-1.1c-0.4-0.6-0.6-1.3-0.9-2c-0.5-1.1-0.9-2.2-1.4-3.3
		c-0.4-0.8-0.7-1.7-1.1-2.5c-0.1-0.1-0.2-0.2-0.3-0.2c-0.1,0-0.2,0-0.3-0.1c0.3,0,0.5,0,0.8,0C78.6,28.6,78.7,28.6,78.7,28.6z"/>
</g>
</svg>
