<?xml version="1.0" encoding="utf-8"?>
<!-- Generator: Adobe Illustrator 19.0.0, SVG Export Plug-In . SVG Version: 6.00 Build 0)  -->
<svg version="1.1" id="Layer_1" xmlns="http://www.w3.org/2000/svg" xmlns:xlink="http://www.w3.org/1999/xlink" x="0px" y="0px"
	 viewBox="-379 256 200 50" enable-background="new -379 256 200 50" xml:space="preserve">
<g id="optimism-logo" transform="translate(-219 -213)">
	<g id="text">
		<path id="Path_238" d="M-73.9,490.1c0.7,0,1.4,0.1,2.1,0.5c0.6,0.3,1,0.8,1.3,1.3c0.3,0.6,0.5,1.3,0.5,2c0,0.3,0,0.7-0.1,1
			c-0.1,0.8-0.4,1.5-0.9,2.2c-0.4,0.6-1,1.1-1.7,1.5c-0.7,0.4-1.5,0.5-2.3,0.5c-0.7,0-1.4-0.1-2.1-0.5c-0.6-0.3-1-0.8-1.3-1.3
			c-0.3-0.6-0.5-1.3-0.5-2c0-0.4,0-0.7,0.1-1.1c0.1-0.8,0.4-1.5,0.9-2.2c0.4-0.6,1-1.1,1.7-1.5C-75.5,490.3-74.7,490.1-73.9,490.1z
			 M-74.1,491.8c-0.7,0-1.4,0.3-2,0.8c-0.6,0.5-1,1.3-1.1,2c0,0.2-0.1,0.5-0.1,0.7c0,0.7,0.2,1.2,0.6,1.7c0.4,0.4,0.9,0.6,1.6,0.6
			c0.5,0,1-0.1,1.4-0.3c0.4-0.2,0.8-0.6,1.1-1c0.3-0.4,0.5-1,0.6-1.5c0-0.2,0.1-0.5,0.1-0.7c0-0.7-0.2-1.2-0.6-1.6
			C-72.8,492-73.4,491.8-74.1,491.8z M-64.1,492.1c0.8,0,1.4,0.2,1.8,0.7c0.5,0.5,0.7,1.1,0.7,2c0,0.3,0,0.6-0.1,0.9
			c-0.1,0.7-0.4,1.3-0.7,1.9c-0.3,0.5-0.8,0.9-1.3,1.2c-0.5,0.3-1.1,0.4-1.6,0.4c-0.5,0-1-0.1-1.4-0.4c-0.4-0.3-0.6-0.7-0.7-1.1
			l-0.8,4.7H-70l1.8-10.2h1.8l-0.3,1.4c0.3-0.5,0.6-0.8,1.1-1.1C-65.2,492.2-64.6,492.1-64.1,492.1z M-65.6,497.6
			c0.5,0,1-0.2,1.4-0.5c0.4-0.4,0.7-0.9,0.8-1.5c0-0.2,0-0.3,0-0.5c0-0.4-0.1-0.8-0.4-1.1c-0.3-0.3-0.7-0.4-1.1-0.4
			c-0.5,0-1,0.2-1.4,0.5c-0.4,0.4-0.7,0.9-0.8,1.5c0,0.1,0,0.3,0,0.4c0,0.4,0.1,0.8,0.4,1.1C-66.4,497.5-66,497.6-65.6,497.6z
			 M-58.6,496.7c0,0.1,0,0.2,0,0.3c0,0.2,0,0.3,0.2,0.5c0.2,0.1,0.4,0.1,0.6,0.1h0.7l-0.3,1.5h-0.9c-0.7,0-1.2-0.1-1.5-0.4
			s-0.5-0.7-0.5-1.3c0-0.2,0-0.5,0.1-0.7l0.5-3h-1l0.3-1.5h1l0.3-1.7h1.8l-0.3,1.7h1.5l-0.3,1.5h-1.5L-58.6,496.7z M-54.7,490.4
			c0-0.3,0.1-0.6,0.4-0.8c0.3-0.2,0.6-0.3,0.9-0.3c0.2,0,0.5,0.1,0.7,0.2c0.2,0.1,0.2,0.4,0.2,0.6c0,0.3-0.1,0.6-0.4,0.8
			c-0.3,0.2-0.6,0.3-0.9,0.3c-0.2,0-0.5-0.1-0.7-0.2C-54.6,490.8-54.7,490.6-54.7,490.4L-54.7,490.4z M-53.1,492.2l-1.2,6.9h-1.8
			l1.2-6.9L-53.1,492.2z M-42.7,492.1c0.7,0,1.3,0.2,1.7,0.6c0.4,0.4,0.6,0.9,0.6,1.7c0,0.3,0,0.5-0.1,0.7l-0.7,4H-43l0.7-3.8
			c0-0.1,0-0.3,0-0.4c0-0.3-0.1-0.7-0.3-0.9c-0.3-0.2-0.6-0.3-0.9-0.3c-0.5,0-0.9,0.1-1.2,0.4c-0.4,0.3-0.6,0.8-0.7,1.3l-0.7,3.7
			h-1.8l0.7-3.8c0-0.1,0-0.3,0-0.4c0-0.3-0.1-0.7-0.3-0.9c-0.3-0.2-0.6-0.3-0.9-0.3c-0.5,0-0.9,0.2-1.3,0.5
			c-0.4,0.4-0.6,0.8-0.7,1.3v-0.1l-0.6,3.7h-1.8l1.2-6.9h1.8l-0.2,1.3c0.2-0.4,0.6-0.8,1-1c0.4-0.2,0.9-0.4,1.4-0.4
			c0.5,0,1,0.1,1.4,0.4c0.4,0.3,0.6,0.7,0.7,1.1c0.3-0.5,0.7-0.9,1.2-1.1C-43.7,492.2-43.2,492.1-42.7,492.1L-42.7,492.1z
			 M-38.3,490.4c0-0.3,0.1-0.6,0.4-0.8c0.3-0.2,0.6-0.3,0.9-0.3c0.2,0,0.5,0.1,0.7,0.2c0.2,0.1,0.2,0.4,0.2,0.6
			c0,0.3-0.1,0.6-0.4,0.8c-0.3,0.2-0.6,0.3-0.9,0.3c-0.2,0-0.5-0.1-0.7-0.2C-38.2,490.8-38.3,490.6-38.3,490.4L-38.3,490.4z
			 M-36.7,492.2l-1.2,6.9h-1.8l1.2-6.9L-36.7,492.2z M-33,492.1c0.9,0,1.6,0.2,2.1,0.6c0.5,0.4,0.8,1,0.8,1.7h-1.7
			c0-0.3-0.1-0.6-0.4-0.8c-0.3-0.2-0.6-0.3-1-0.3c-0.3,0-0.5,0.1-0.8,0.2c-0.2,0.1-0.3,0.3-0.3,0.6c0,0.2,0.1,0.5,0.4,0.5
			c0.4,0.2,0.7,0.3,1.1,0.4c0.4,0.1,0.8,0.2,1.2,0.4c0.3,0.1,0.6,0.3,0.8,0.6c0.2,0.3,0.3,0.6,0.3,1c0,0.2,0,0.3,0,0.5
			c-0.1,0.5-0.4,1-0.9,1.2c-0.5,0.3-1.1,0.5-1.9,0.5c-0.9,0-1.6-0.2-2.2-0.6c-0.5-0.4-0.9-1-0.8-1.7h1.7c0,0.3,0.1,0.6,0.4,0.8
			c0.3,0.2,0.7,0.3,1.1,0.3c0.3,0,0.5-0.1,0.8-0.2c0.2-0.1,0.3-0.4,0.3-0.6c0-0.2-0.1-0.3-0.2-0.5c-0.1-0.1-0.3-0.2-0.5-0.3
			c-0.2-0.1-0.5-0.2-0.8-0.3c-0.4-0.1-0.8-0.2-1.1-0.4c-0.3-0.1-0.5-0.3-0.7-0.5c-0.2-0.3-0.3-0.6-0.3-0.9c0-0.2,0-0.3,0-0.4
			c0.1-0.5,0.4-1,0.9-1.3C-34.5,492.2-33.8,492.1-33,492.1L-33,492.1z M-19.6,492.1c0.7,0,1.3,0.2,1.7,0.6c0.4,0.4,0.6,0.9,0.6,1.7
			c0,0.3,0,0.5-0.1,0.7l-0.7,4h-1.8l0.7-3.8c0-0.1,0-0.3,0-0.4c0-0.3-0.1-0.7-0.3-0.9c-0.3-0.2-0.6-0.3-0.9-0.3
			c-0.5,0-0.9,0.1-1.2,0.4c-0.4,0.3-0.6,0.8-0.7,1.3l-0.7,3.7h-1.8l0.7-3.8c0-0.1,0-0.3,0-0.4c0-0.3-0.1-0.7-0.3-0.9
			c-0.3-0.2-0.6-0.3-0.9-0.3c-0.5,0-0.9,0.2-1.3,0.5c-0.4,0.4-0.6,0.8-0.7,1.3v-0.1l-0.6,3.7h-1.8l1.2-6.9h1.8l-0.2,1.3
			c0.2-0.4,0.6-0.8,1-1c0.4-0.2,0.9-0.4,1.4-0.4c0.5,0,1,0.1,1.4,0.4c0.4,0.3,0.6,0.7,0.7,1.1c0.3-0.5,0.7-0.9,1.2-1.1
			C-20.7,492.2-20.2,492.1-19.6,492.1L-19.6,492.1z"/>
	</g>
	<g id="optimism-logo-circle" transform="translate(219 213)">
		<circle id="Ellipse_11" fill="#FF0420" cx="-311.5" cy="281.6" r="10.6"/>
		<path id="Path_139" fill="#FFFFFF" d="M-314.6,284.4c-0.5,0-1.1-0.1-1.5-0.4c-0.4-0.3-0.6-0.8-0.6-1.3c0-0.1,0-0.3,0-0.4
			c0.1-0.4,0.2-0.8,0.3-1.4c0.4-1.5,1.3-2.2,2.8-2.2c0.4,0,0.7,0.1,1.1,0.2c0.3,0.1,0.6,0.3,0.8,0.6c0.2,0.3,0.3,0.6,0.3,1
			c0,0.1,0,0.3,0,0.4c-0.1,0.5-0.2,0.9-0.3,1.4c-0.2,0.7-0.5,1.3-1,1.6C-313.2,284.2-313.8,284.4-314.6,284.4z M-314.5,283.2
			c0.3,0,0.5-0.1,0.8-0.3c0.2-0.2,0.4-0.5,0.5-0.8c0.1-0.5,0.2-0.9,0.3-1.3c0-0.1,0-0.2,0-0.3c0-0.5-0.3-0.7-0.8-0.7
			c-0.3,0-0.5,0.1-0.8,0.3c-0.2,0.2-0.4,0.5-0.4,0.8c-0.1,0.4-0.2,0.8-0.3,1.3c0,0.1,0,0.2,0,0.3C-315.3,283-315,283.2-314.5,283.2z
			"/>
		<path id="Path_140" fill="#FFFFFF" d="M-311.1,284.3c-0.1,0-0.1,0-0.1-0.1c0,0,0-0.1,0-0.1l1.1-5.2c0-0.1,0-0.1,0.1-0.1
			c0,0,0.1-0.1,0.2-0.1h2.1c0.5,0,1,0.1,1.4,0.4c0.4,0.2,0.6,0.6,0.5,1.1c0,0.1,0,0.3,0,0.4c-0.1,0.5-0.4,1-0.8,1.3
			c-0.4,0.3-0.9,0.4-1.6,0.4h-1.1l-0.4,1.7c0,0.1,0,0.1-0.1,0.1c0,0-0.1,0.1-0.2,0.1L-311.1,284.3z M-308.3,281.3
			c0.2,0,0.4-0.1,0.6-0.2c0.2-0.1,0.3-0.3,0.3-0.5c0-0.1,0-0.2,0-0.2c0-0.1,0-0.3-0.1-0.3c-0.1-0.1-0.3-0.1-0.5-0.1h-1l-0.3,1.4
			H-308.3z"/>
	</g>
</g>
</svg>
