<?xml version="1.0" encoding="utf-8"?>
<!-- Generator: Adobe Illustrator 19.0.0, SVG Export Plug-In . SVG Version: 6.00 Build 0)  -->
<svg version="1.1" id="Layer_1" xmlns="http://www.w3.org/2000/svg" xmlns:xlink="http://www.w3.org/1999/xlink" x="0px" y="0px"
	 viewBox="0 0 200 50" enable-background="new 0 0 200 50" xml:space="preserve">
<g id="optimism-logo" transform="translate(-219 -213)">
	<g id="text">
		<path id="Path_238" d="M297.6,230.6c1.1,0,2.2,0.2,3.2,0.7c0.9,0.5,1.6,1.2,2.1,2.1c0.5,0.9,0.8,2,0.7,3.1c0,0.5-0.1,1.1-0.2,1.6
			c-0.2,1.2-0.7,2.4-1.4,3.4c-0.7,1-1.6,1.8-2.7,2.3c-1.1,0.6-2.3,0.9-3.6,0.8c-1.1,0-2.2-0.2-3.2-0.7c-0.9-0.5-1.6-1.2-2.1-2.1
			c-0.5-0.9-0.7-2-0.7-3.1c0-0.6,0.1-1.1,0.2-1.7c0.2-1.2,0.7-2.4,1.4-3.4c0.7-1,1.6-1.8,2.7-2.3
			C295.1,230.9,296.3,230.6,297.6,230.6z M297.4,233.2c-1.1,0-2.2,0.4-3.1,1.2c-0.9,0.8-1.5,2-1.7,3.2c-0.1,0.4-0.1,0.7-0.1,1.1
			c0,1.1,0.3,1.9,0.9,2.6s1.5,0.9,2.6,0.9c0.8,0,1.5-0.2,2.2-0.5c0.7-0.4,1.2-0.9,1.7-1.5c0.5-0.7,0.8-1.5,0.9-2.3
			c0.1-0.4,0.1-0.7,0.1-1.1c0-1.1-0.3-1.9-0.9-2.6C299.3,233.5,298.4,233.2,297.4,233.2z M312.9,233.6c1.2,0,2.1,0.4,2.8,1.1
			s1.1,1.8,1.1,3.1c0,0.4,0,0.9-0.1,1.3c-0.2,1-0.6,2.1-1.1,2.9c-0.5,0.8-1.2,1.5-2,1.9c-0.8,0.4-1.7,0.7-2.6,0.7
			c-0.8,0-1.6-0.2-2.2-0.7c-0.6-0.4-0.9-1-1.1-1.7l-1.3,7.4h-2.7l2.8-15.9h2.7l-0.4,2.2c0.4-0.7,1-1.3,1.7-1.7
			C311.2,233.9,312.1,233.6,312.9,233.6z M310.5,242.3c0.8,0,1.6-0.3,2.2-0.8c0.6-0.6,1.1-1.4,1.2-2.3c0-0.2,0.1-0.5,0.1-0.7
			c0-0.7-0.2-1.3-0.6-1.8c-0.5-0.4-1.1-0.7-1.7-0.6c-0.8,0-1.6,0.3-2.2,0.8c-0.7,0.6-1.1,1.4-1.2,2.3c0,0.2-0.1,0.5-0.1,0.7
			c0,0.7,0.2,1.3,0.7,1.8C309.3,242.1,309.9,242.3,310.5,242.3z M321.4,240.8c0,0.2,0,0.3,0,0.5c0,0.3,0.1,0.5,0.3,0.7
			c0.3,0.2,0.6,0.2,0.9,0.2h1.1l-0.4,2.4h-1.4c-1,0-1.8-0.2-2.4-0.6s-0.8-1.1-0.8-2c0-0.4,0-0.8,0.1-1.1l0.8-4.7H318l0.4-2.3h1.5
			l0.5-2.7h2.8l-0.5,2.7h2.4l-0.4,2.3h-2.4L321.4,240.8z M327.5,231c0-0.5,0.2-0.9,0.6-1.3c0.4-0.3,0.9-0.5,1.4-0.5
			c0.4,0,0.7,0.1,1,0.3c0.3,0.2,0.4,0.5,0.4,0.9c0,0.5-0.2,0.9-0.6,1.3c-0.4,0.3-0.9,0.5-1.4,0.5c-0.4,0-0.8-0.1-1.1-0.3
			C327.6,231.6,327.5,231.3,327.5,231L327.5,231z M330,233.8l-1.9,10.8h-2.7l1.9-10.8L330,233.8z M346.2,233.6c1.1,0,2,0.3,2.6,0.9
			s0.9,1.5,0.9,2.6c0,0.4,0,0.8-0.1,1.2l-1.1,6.3h-2.7l1.1-5.9c0-0.2,0.1-0.4,0.1-0.7c0-0.5-0.2-1-0.5-1.4c-0.4-0.3-0.9-0.5-1.5-0.5
			c-0.7,0-1.4,0.2-1.9,0.7c-0.6,0.5-0.9,1.3-1,2l-1,5.8h-2.7l1.1-5.9c0-0.2,0.1-0.4,0.1-0.7c0-0.5-0.2-1-0.5-1.4
			c-0.4-0.3-0.9-0.5-1.5-0.5c-0.7,0-1.4,0.2-2,0.7c-0.6,0.6-0.9,1.3-1,2.1v-0.1l-1,5.8h-2.8l1.9-10.8h2.7l-0.4,2
			c0.4-0.7,0.9-1.2,1.6-1.6c0.7-0.4,1.5-0.6,2.2-0.6c0.8,0,1.5,0.2,2.2,0.6c0.6,0.4,1,1.1,1.1,1.8c0.5-0.7,1.1-1.3,1.8-1.8
			C344.6,233.9,345.4,233.6,346.2,233.6L346.2,233.6z M353,231c0-0.5,0.2-0.9,0.6-1.3c0.4-0.3,0.9-0.5,1.4-0.5c0.4,0,0.7,0.1,1,0.3
			c0.3,0.2,0.4,0.5,0.4,0.9c0,0.5-0.2,0.9-0.6,1.3c-0.4,0.3-0.9,0.5-1.4,0.5c-0.4,0-0.8-0.1-1.1-0.3C353.2,231.6,353,231.3,353,231
			L353,231z M355.6,233.8l-1.9,10.8h-2.7l1.9-10.8L355.6,233.8z M361.3,233.6c1.5,0,2.6,0.3,3.3,1c0.8,0.7,1.2,1.6,1.2,2.7h-2.7
			c0-0.5-0.2-0.9-0.6-1.3c-0.4-0.3-1-0.5-1.5-0.5c-0.4,0-0.8,0.1-1.2,0.3c-0.3,0.2-0.5,0.5-0.5,0.9c0,0.4,0.2,0.7,0.6,0.9
			c0.6,0.3,1.1,0.5,1.7,0.6c0.6,0.2,1.2,0.4,1.8,0.6c0.5,0.2,0.9,0.5,1.2,0.9c0.4,0.4,0.5,1,0.5,1.5c0,0.2,0,0.5-0.1,0.7
			c-0.2,0.8-0.6,1.5-1.3,1.9c-0.7,0.5-1.7,0.7-3,0.7c-1.4,0-2.5-0.3-3.4-1c-0.8-0.6-1.3-1.6-1.3-2.7h2.7c-0.1,0.5,0.2,1,0.6,1.2
			c0.5,0.3,1.1,0.5,1.7,0.5c0.4,0,0.8-0.1,1.2-0.4c0.3-0.2,0.4-0.5,0.4-0.9c0-0.3-0.1-0.5-0.3-0.7c-0.2-0.2-0.5-0.3-0.7-0.4
			c-0.3-0.1-0.7-0.2-1.3-0.4c-0.6-0.2-1.2-0.4-1.8-0.6c-0.4-0.2-0.8-0.5-1.2-0.8c-0.3-0.4-0.5-0.9-0.5-1.5c0-0.2,0-0.5,0.1-0.7
			c0.1-0.8,0.6-1.5,1.3-1.9C359,233.9,360,233.6,361.3,233.6L361.3,233.6z M382.1,233.6c1.1,0,2,0.3,2.6,0.9
			c0.6,0.6,0.9,1.5,0.9,2.6c0,0.4,0,0.8-0.1,1.2l-1.1,6.3h-2.7l1.1-5.9c0-0.2,0.1-0.4,0.1-0.7c0-0.5-0.2-1-0.5-1.4
			c-0.4-0.3-0.9-0.5-1.5-0.5c-0.7,0-1.4,0.2-1.9,0.7c-0.6,0.5-0.9,1.3-1,2l-1,5.8h-2.7l1.1-5.9c0-0.2,0.1-0.4,0.1-0.7
			c0-0.5-0.2-1-0.5-1.4c-0.4-0.3-0.9-0.5-1.5-0.5c-0.7,0-1.4,0.2-2,0.7c-0.6,0.6-0.9,1.3-1,2.1v-0.1l-1,5.8h-2.8l1.9-10.8h2.7
			l-0.4,2c0.4-0.7,0.9-1.2,1.6-1.6c0.7-0.4,1.5-0.6,2.2-0.6c0.8,0,1.5,0.2,2.2,0.6c0.6,0.4,1,1.1,1.1,1.8c0.5-0.7,1.1-1.3,1.8-1.8
			C380.5,233.9,381.3,233.6,382.1,233.6L382.1,233.6z"/>
	</g>
	<g id="optimism-logo-circle" transform="translate(219 213)">
		<circle id="Ellipse_11" fill="#FF0420" cx="49.6" cy="24.5" r="16.5"/>
		<path id="Path_139" fill="#FFFFFF" d="M44.8,28.9c-0.9,0-1.7-0.2-2.4-0.7c-0.6-0.5-1-1.2-0.9-2c0-0.2,0-0.4,0.1-0.7
			c0.1-0.6,0.3-1.3,0.5-2.1c0.6-2.3,2-3.4,4.3-3.4c0.6,0,1.2,0.1,1.7,0.3c0.5,0.2,0.9,0.5,1.2,0.9c0.3,0.4,0.4,1,0.4,1.5
			c0,0.2,0,0.4-0.1,0.7c-0.1,0.7-0.3,1.4-0.4,2.1c-0.3,1.1-0.8,2-1.5,2.5C46.9,28.6,46,28.9,44.8,28.9z M45,27.1
			c0.4,0,0.8-0.1,1.2-0.4c0.4-0.3,0.6-0.8,0.7-1.2c0.2-0.8,0.3-1.4,0.4-2c0-0.2,0-0.4,0-0.5c0-0.7-0.4-1.1-1.2-1.1
			c-0.4,0-0.9,0.1-1.2,0.4c-0.4,0.3-0.6,0.8-0.7,1.2c-0.1,0.6-0.3,1.2-0.4,2c0,0.2-0.1,0.3,0,0.5C43.8,26.7,44.2,27.1,45,27.1z"/>
		<path id="Path_140" fill="#FFFFFF" d="M50.2,28.8c-0.1,0-0.2,0-0.2-0.1c0-0.1-0.1-0.1,0-0.2l1.7-8c0-0.1,0.1-0.2,0.1-0.2
			c0.1-0.1,0.1-0.1,0.2-0.1h3.3c0.8,0,1.5,0.2,2.2,0.6c0.6,0.4,0.9,1,0.8,1.6c0,0.2,0,0.4-0.1,0.6c-0.1,0.8-0.6,1.6-1.2,2.1
			c-0.6,0.5-1.5,0.7-2.5,0.7h-1.7l-0.6,2.7c0,0.1-0.1,0.2-0.1,0.2c-0.1,0.1-0.1,0.1-0.2,0.1L50.2,28.8z M54.6,24.1
			c0.3,0,0.6-0.1,0.9-0.3c0.3-0.2,0.5-0.5,0.5-0.8c0-0.1,0-0.2,0-0.4c0-0.2-0.1-0.4-0.2-0.5c-0.2-0.2-0.5-0.2-0.7-0.2h-1.5l-0.5,2.2
			L54.6,24.1z"/>
	</g>
</g>
</svg>
