<?xml version="1.0" encoding="utf-8"?>
<!-- Generator: Adobe Illustrator 19.0.0, SVG Export Plug-In . SVG Version: 6.00 Build 0)  -->
<svg version="1.1" id="Layer_1" xmlns="http://www.w3.org/2000/svg" xmlns:xlink="http://www.w3.org/1999/xlink" x="0px" y="0px"
	 viewBox="-379 256 200 50" style="enable-background:new -379 256 200 50;" xml:space="preserve">
<style type="text/css">
	.st0{fill:#FF0420;}
	.st1{fill:#FFFFFF;}
</style>
<g id="optimism-logo" transform="translate(-219 -213)">
	<g id="text">
		<path id="Path_238" d="M-81.5,487.5c1.1,0,2.2,0.2,3.2,0.8c0.9,0.5,1.5,1.2,2,2c0.5,0.9,0.8,2,0.8,3.1c0,0.5,0,1.1-0.2,1.5
			c-0.2,1.2-0.6,2.3-1.4,3.4c-0.6,0.9-1.5,1.7-2.6,2.3s-2.3,0.8-3.5,0.8c-1.1,0-2.2-0.2-3.2-0.8c-0.9-0.5-1.5-1.2-2-2
			c-0.5-0.9-0.8-2-0.8-3.1c0-0.6,0-1.1,0.2-1.7c0.2-1.2,0.6-2.3,1.4-3.4c0.6-0.9,1.5-1.7,2.6-2.3C-84,487.8-82.7,487.5-81.5,487.5z
			 M-81.8,490.1c-1.1,0-2.2,0.5-3.1,1.2c-0.9,0.8-1.5,2-1.7,3.1c0,0.3-0.2,0.8-0.2,1.1c0,1.1,0.3,1.8,0.9,2.6
			c0.6,0.6,1.4,0.9,2.5,0.9c0.8,0,1.5-0.2,2.2-0.5c0.6-0.3,1.2-0.9,1.7-1.5c0.5-0.6,0.8-1.5,0.9-2.3c0-0.3,0.2-0.8,0.2-1.1
			c0-1.1-0.3-1.8-0.9-2.5C-79.8,490.4-80.7,490.1-81.8,490.1z M-66.5,490.6c1.2,0,2.2,0.3,2.8,1.1c0.8,0.8,1.1,1.7,1.1,3.1
			c0,0.5,0,0.9-0.2,1.4c-0.2,1.1-0.6,2-1.1,2.9c-0.5,0.8-1.2,1.4-2,1.8c-0.8,0.5-1.7,0.6-2.5,0.6s-1.5-0.2-2.2-0.6s-0.9-1.1-1.1-1.7
			l-1.2,7.2h-2.8l2.8-15.7h2.8l-0.5,2.2c0.5-0.8,0.9-1.2,1.7-1.7C-68.1,490.7-67.2,490.6-66.5,490.6z M-68.8,499
			c0.8,0,1.5-0.3,2.2-0.8c0.6-0.6,1.1-1.4,1.2-2.3c0-0.3,0-0.5,0-0.8c0-0.6-0.2-1.2-0.6-1.7c-0.5-0.5-1.1-0.6-1.7-0.6
			c-0.8,0-1.5,0.3-2.2,0.8c-0.6,0.6-1.1,1.4-1.2,2.3c0,0.2,0,0.5,0,0.6c0,0.6,0.2,1.2,0.6,1.7C-70,498.9-69.4,499-68.8,499z
			 M-58,497.6c0,0.2,0,0.3,0,0.5c0,0.3,0,0.5,0.3,0.8c0.3,0.2,0.6,0.2,0.9,0.2h1.1l-0.5,2.3h-1.4c-1.1,0-1.8-0.2-2.3-0.6
			s-0.8-1.1-0.8-2c0-0.3,0-0.8,0.2-1.1l0.8-4.6h-1.5l0.5-2.3h1.5l0.5-2.6h2.8l-0.5,2.6h2.3l-0.5,2.3h-2.3L-58,497.6z M-52,488
			c0-0.5,0.2-0.9,0.6-1.2c0.5-0.3,0.9-0.5,1.4-0.5c0.3,0,0.8,0.2,1.1,0.3c0.3,0.2,0.3,0.6,0.3,0.9c0,0.5-0.2,0.9-0.6,1.2
			c-0.5,0.3-0.9,0.5-1.4,0.5c-0.3,0-0.8-0.2-1.1-0.3C-51.9,488.6-52,488.3-52,488L-52,488z M-49.6,490.7l-1.8,10.6h-2.8l1.8-10.6
			H-49.6z M-33.6,490.6c1.1,0,2,0.3,2.6,0.9s0.9,1.4,0.9,2.6c0,0.5,0,0.8-0.2,1.1l-1.1,6.1H-34l1.1-5.8c0-0.2,0-0.5,0-0.6
			c0-0.5-0.2-1.1-0.5-1.4c-0.5-0.3-0.9-0.5-1.4-0.5c-0.8,0-1.4,0.2-1.8,0.6c-0.6,0.5-0.9,1.2-1.1,2l-1.1,5.7h-2.8l1.1-5.8
			c0-0.2,0-0.5,0-0.6c0-0.5-0.2-1.1-0.5-1.4c-0.5-0.3-0.9-0.5-1.4-0.5c-0.8,0-1.4,0.3-2,0.8c-0.6,0.6-0.9,1.2-1.1,2v-0.2l-0.9,5.7
			h-2.8l1.8-10.6h2.8l-0.3,2c0.3-0.6,0.9-1.2,1.5-1.5c0.6-0.3,1.4-0.6,2.2-0.6s1.5,0.2,2.2,0.6c0.6,0.5,0.9,1.1,1.1,1.7
			c0.5-0.8,1.1-1.4,1.8-1.7C-35.1,490.7-34.3,490.6-33.6,490.6L-33.6,490.6z M-26.8,488c0-0.5,0.2-0.9,0.6-1.2
			c0.5-0.3,0.9-0.5,1.4-0.5c0.3,0,0.8,0.2,1.1,0.3c0.3,0.2,0.3,0.6,0.3,0.9c0,0.5-0.2,0.9-0.6,1.2c-0.5,0.3-0.9,0.5-1.4,0.5
			c-0.3,0-0.8-0.2-1.1-0.3C-26.7,488.6-26.8,488.3-26.8,488L-26.8,488z M-24.4,490.7l-1.8,10.6H-29l1.8-10.6H-24.4z M-18.7,490.6
			c1.4,0,2.5,0.3,3.2,0.9c0.8,0.6,1.2,1.5,1.2,2.6h-2.6c0-0.5-0.2-0.9-0.6-1.2c-0.5-0.3-0.9-0.5-1.5-0.5c-0.5,0-0.8,0.2-1.2,0.3
			c-0.3,0.2-0.5,0.5-0.5,0.9c0,0.3,0.2,0.8,0.6,0.8c0.6,0.3,1.1,0.5,1.7,0.6c0.6,0.2,1.2,0.3,1.8,0.6c0.5,0.2,0.9,0.5,1.2,0.9
			c0.3,0.5,0.5,0.9,0.5,1.5c0,0.3,0,0.5,0,0.8c-0.2,0.8-0.6,1.5-1.4,1.8c-0.8,0.5-1.7,0.8-2.9,0.8c-1.4,0-2.5-0.3-3.4-0.9
			c-0.8-0.6-1.4-1.5-1.2-2.6h2.6c0,0.5,0.2,0.9,0.6,1.2c0.5,0.3,1.1,0.5,1.7,0.5c0.5,0,0.8-0.2,1.2-0.3c0.3-0.2,0.5-0.6,0.5-0.9
			c0-0.3-0.2-0.5-0.3-0.8c-0.2-0.2-0.5-0.3-0.8-0.5c-0.3-0.2-0.8-0.3-1.2-0.5c-0.6-0.2-1.2-0.3-1.7-0.6c-0.5-0.2-0.8-0.5-1.1-0.8
			c-0.3-0.5-0.5-0.9-0.5-1.4c0-0.3,0-0.5,0-0.6c0.2-0.8,0.6-1.5,1.4-2C-21,490.7-19.9,490.6-18.7,490.6L-18.7,490.6z M1.9,490.6
			c1.1,0,2,0.3,2.6,0.9c0.6,0.6,0.9,1.4,0.9,2.6c0,0.5,0,0.8-0.2,1.1l-1.1,6.1H1.4l1.1-5.8c0-0.2,0-0.5,0-0.6c0-0.5-0.2-1.1-0.5-1.4
			c-0.5-0.3-0.9-0.5-1.4-0.5c-0.8,0-1.4,0.2-1.8,0.6c-0.6,0.5-0.9,1.2-1.1,2l-1.1,5.7h-2.8l1.1-5.8c0-0.2,0-0.5,0-0.6
			c0-0.5-0.2-1.1-0.5-1.4c-0.5-0.3-0.9-0.5-1.4-0.5c-0.8,0-1.4,0.3-2,0.8c-0.6,0.6-0.9,1.2-1.1,2v-0.2l-0.9,5.7h-2.8l1.8-10.6H-9
			l-0.3,2c0.3-0.6,0.9-1.2,1.5-1.5c0.6-0.3,1.4-0.6,2.2-0.6s1.5,0.2,2.2,0.6s0.9,1.1,1.1,1.7c0.5-0.8,1.1-1.4,1.8-1.7
			C0.2,490.7,1,490.6,1.9,490.6L1.9,490.6z"/>
	</g>
	<g id="optimism-logo-circle" transform="translate(219 213)">
		<circle id="Ellipse_11" class="st0" cx="-329.1" cy="281.4" r="16.3"/>
		<path id="Path_139" class="st1" d="M-333.8,285.7c-0.8,0-1.7-0.2-2.3-0.6c-0.6-0.5-0.9-1.2-0.9-2c0-0.2,0-0.5,0-0.6
			c0.2-0.6,0.3-1.2,0.5-2.2c0.6-2.3,2-3.4,4.3-3.4c0.6,0,1.1,0.2,1.7,0.3c0.5,0.2,0.9,0.5,1.2,0.9c0.3,0.5,0.5,0.9,0.5,1.5
			c0,0.2,0,0.5,0,0.6c-0.2,0.8-0.3,1.4-0.5,2.2c-0.3,1.1-0.8,2-1.5,2.5C-331.7,285.4-332.6,285.7-333.8,285.7z M-333.7,283.9
			c0.5,0,0.8-0.2,1.2-0.5c0.3-0.3,0.6-0.8,0.8-1.2c0.2-0.8,0.3-1.4,0.5-2c0-0.2,0-0.3,0-0.5c0-0.8-0.5-1.1-1.2-1.1
			c-0.5,0-0.8,0.2-1.2,0.5c-0.3,0.3-0.6,0.8-0.6,1.2c-0.2,0.6-0.3,1.2-0.5,2c0,0.2,0,0.3,0,0.5
			C-334.9,283.6-334.5,283.9-333.7,283.9z"/>
		<path id="Path_140" class="st1" d="M-328.5,285.6c-0.2,0-0.2,0-0.2-0.2v-0.2l1.7-8c0-0.2,0-0.2,0.2-0.2c0,0,0.2-0.2,0.3-0.2h3.2
			c0.8,0,1.5,0.2,2.2,0.6c0.6,0.3,0.9,0.9,0.8,1.7c0,0.2,0,0.5,0,0.6c-0.2,0.8-0.6,1.5-1.2,2c-0.6,0.5-1.4,0.6-2.5,0.6h-1.7
			l-0.6,2.6c0,0.2,0,0.2-0.2,0.2c0,0-0.2,0.2-0.3,0.2L-328.5,285.6z M-324.2,281c0.3,0,0.6-0.2,0.9-0.3c0.3-0.2,0.5-0.5,0.5-0.8
			c0-0.2,0-0.3,0-0.3c0-0.2,0-0.5-0.2-0.5c-0.2-0.2-0.5-0.2-0.8-0.2h-1.5l-0.5,2.2h1.5V281z"/>
	</g>
</g>
</svg>
