<?xml version="1.0" encoding="utf-8"?>
<!-- Generator: Adobe Illustrator 19.0.0, SVG Export Plug-In . SVG Version: 6.00 Build 0)  -->
<svg version="1.1" id="Layer_1" xmlns="http://www.w3.org/2000/svg" xmlns:xlink="http://www.w3.org/1999/xlink" x="0px" y="0px"
	 viewBox="0 0 200 50" enable-background="new 0 0 200 50" xml:space="preserve">
<g id="XMLID_133_">
	<g id="XMLID_30_">
		<g id="XMLID_31_">
			<defs>
				<rect id="XMLID_40_" x="0.8" y="10.4" width="29.3" height="29.3"/>
			</defs>
			<clipPath id="XMLID_2_">
				<use xlink:href="#XMLID_40_"  overflow="visible"/>
			</clipPath>
			<g id="XMLID_134_" clip-path="url(#XMLID_2_)">
				<path id="XMLID_139_" fill="#3CEAAA" d="M10.3,16c1.3-1.2,3.3-1.2,4.7,0l3.1,3c1.3,1.3,1.3,3.4,0,4.8L12.8,29l3.9,3.8
					c0.8,0.7,0.8,1.9,0,2.7c-0.7,0.8-1.9,0.8-2.7,0l-9.3-9.1c-1.3-1.3-1.3-3.4,0-4.8L10.3,16z M10.1,26.4l5.1-5L12.7,19l-5.1,5
					L10.1,26.4z"/>
				<path id="XMLID_136_" fill="#03BCE4" d="M18.1,18.5c1.3-1.2,3.3-1.2,4.7,0l3.1,3c1.3,1.3,1.3,3.4,0,4.8l-9.3,9.1
					c-0.8,0.7-1.9,0.7-2.7,0c-0.7-0.8-0.7-1.9,0-2.7l3.9-3.8l-2.7-2.7c-1.3-1.3-1.3-3.4,0-4.8L18.1,18.5z M20.4,26.4l2.5-2.4
					l-2.5-2.4L17.9,24L20.4,26.4z"/>
				<path id="XMLID_135_" opacity="0.95" fill="#00A4E1" enable-background="new    " d="M17.9,23.9l-2.7-2.7l-2.5,2.5l2.7,2.7
					L17.9,23.9z"/>
			</g>
		</g>
	</g>
</g>
<path id="XMLID_106_" d="M35.7,33h2.7v-5.1h3.3c2.8,0,4.7-1.7,4.7-4.2c0-2.4-1.9-4.2-4.7-4.2h-6V33z M38.3,25.6v-3.7h3.3
	c1.2,0,2,0.8,2,1.8c0,1.1-0.8,1.9-2,1.9C41.7,25.6,38.3,25.6,38.3,25.6z M51.4,33.2c2.4,0,4.4-1.4,5.1-3.7h-2.4
	c-0.4,1-1.6,1.7-2.7,1.7c-1.6,0-2.7-1-2.9-2.5h8.1l0.2-0.2v-0.4c0-3.1-2.1-5.2-5.3-5.2s-5.3,2.1-5.3,5.2S48.2,33.2,51.4,33.2z
	 M48.6,26.8c0.4-1.1,1.6-1.9,2.8-1.9c1.2,0,2.3,0.8,2.8,1.9H48.6z M58.1,33h2.3v-5.8c0-1.3,1-2.2,2.7-2.2h0.8v-1.8
	c-0.2-0.1-0.7-0.2-1-0.2c-0.9,0-1.9,0.6-2.3,1.3v-1.1h-2.3v9.7h-0.2V33z M70.8,22.9c-1.2,0-2.5,0.6-3.2,1.3v-1.1h-2.3v13.4h2.3v-4.8
	c0.8,0.8,2.1,1.3,3.2,1.3c3.1,0,5.2-2.1,5.2-5.2S73.9,22.9,70.8,22.9z M70.5,25c1.8,0,3.1,1.2,3.1,3.1s-1.2,3.1-3.1,3.1
	c-1.8,0-3-1.2-3-3.1S68.7,25,70.5,25z M82.2,33.2c2.4,0,4.4-1.4,5.1-3.7h-2.4c-0.4,1-1.6,1.7-2.7,1.7c-1.6,0-2.7-1-2.9-2.5h8.1
	l0.2-0.2v-0.4c0-3.1-2.1-5.2-5.3-5.2S77,25,77,28.1S79,33.2,82.2,33.2z M79.4,26.8c0.4-1.1,1.6-1.9,2.8-1.9c1.2,0,2.3,0.8,2.8,1.9
	H79.4z M92.5,33.2c0.7,0,1.3-0.1,1.7-0.2v-1.7h-1.7c-0.6,0-0.9-0.3-0.9-0.8v-5.4H94v-2h-2.4v-3.7h-2.3v3.7h-1.6v2h1.6v5.3
	C89.2,32.1,90.5,33.2,92.5,33.2z M104.9,23.1h-2.3V29c0,1.3-1,2.2-2.4,2.2s-2.4-0.9-2.4-2.2v-5.9h-2.3v6.1c0,2.4,1.8,4,4.4,4
	c1,0,2-0.4,2.7-1V33h2.3L104.9,23.1L104.9,23.1z M111.3,33.2c1.1,0,2.4-0.6,3.2-1.3V33h2.3v-9.7h-2.3v1.1c-0.8-0.8-2-1.3-3.2-1.3
	c-3.1,0-5.1,2.1-5.1,5.2S108.3,33.2,111.3,33.2z M111.5,31.1c-1.8,0-3-1.2-3-3.1s1.2-3.1,3-3.1s3,1.2,3,3.1S113.3,31.1,111.5,31.1z
	 M118.6,33h2.3V19.5h-2.3V33z M127.7,33h2.7v-5.1h3.3c2.8,0,4.7-1.7,4.7-4.2c0-2.4-1.9-4.2-4.7-4.2h-6V33z M130.2,25.6v-3.7h3.3
	c1.2,0,2,0.8,2,1.8c0,1.1-0.8,1.9-2,1.9C133.6,25.6,130.2,25.6,130.2,25.6z M139.2,33h2.3v-5.8c0-1.3,1-2.2,2.7-2.2h0.8v-1.8
	c-0.2-0.1-0.7-0.2-1-0.2c-0.9,0-1.9,0.6-2.3,1.3v-1.1h-2.4V33H139.2z M150.3,33.2c3.2,0,5.3-2.1,5.3-5.2s-2.1-5.1-5.3-5.1
	S145,25,145,28.1S147.1,33.2,150.3,33.2z M150.3,31.1c-1.8,0-3-1.2-3-3.1s1.2-3.1,3-3.1s3,1.2,3,3.1S152.1,31.1,150.3,31.1z
	 M160.8,33.2c0.7,0,1.3-0.1,1.7-0.2v-1.7h-1.7c-0.6,0-0.9-0.3-0.9-0.8v-5.4h2.4v-2h-2.4v-3.7h-2.3v3.7H156v2h1.6v5.3
	C157.5,32.1,158.8,33.2,160.8,33.2z M168.3,33.2c3.2,0,5.3-2.1,5.3-5.2s-2.1-5.2-5.3-5.2S163,24.9,163,28S165.1,33.2,168.3,33.2z
	 M168.3,31.1c-1.8,0-3-1.2-3-3.1s1.2-3.1,3-3.1s3,1.2,3,3.1S170.1,31.1,168.3,31.1z M179.8,33.2c2.7,0,4.8-1.7,5.1-4.2h-2.2
	c-0.3,1.3-1.4,2.2-2.9,2.2c-1.8,0-3-1.2-3-3.1s1.2-3.1,3-3.1c1.4,0,2.5,0.9,2.9,2.1h2.2c-0.4-2.4-2.4-4.2-5.1-4.2
	c-3.2,0-5.3,2.1-5.3,5.2S176.6,33.2,179.8,33.2z M191.2,33.2c3.2,0,5.3-2.1,5.3-5.2s-2.2-5.1-5.3-5.1s-5.3,2.1-5.3,5.2
	S188,33.2,191.2,33.2z M191.2,31.1c-1.8,0-3-1.2-3-3.1s1.2-3.1,3-3.1s3,1.2,3,3.1S193,31.1,191.2,31.1z M197.7,33h2.3V19.5h-2.3V33z
	"/>
</svg>
