<?xml version="1.0" encoding="utf-8"?>
<!-- Generator: Adobe Illustrator 19.0.0, SVG Export Plug-In . SVG Version: 6.00 Build 0)  -->
<svg version="1.1" id="Layer_1" xmlns="http://www.w3.org/2000/svg" xmlns:xlink="http://www.w3.org/1999/xlink" x="0px" y="0px"
	 viewBox="-379 256 200 50" style="enable-background:new -379 256 200 50;" xml:space="preserve">
<style type="text/css">
	.st0{fill:#3CEAAA;}
	.st1{fill:#03BCE4;}
	.st2{opacity:0.95;fill:#00A4E1;enable-background:new    ;}
</style>
<g id="XMLID_30_">
	<g id="XMLID_31_">
		<g>
			<g id="XMLID_134_">
				<path id="XMLID_139_" class="st0" d="M-372.3,271c1.3-1.2,3.4-1.2,4.8,0l3.2,3.1c1.3,1.3,1.3,3.5,0,4.9l-5.4,5.3l4,3.9
					c0.8,0.7,0.8,1.9,0,2.7c-0.7,0.8-1.9,0.8-2.7,0l-9.5-9.3c-1.3-1.3-1.3-3.5,0-4.9L-372.3,271z M-372.5,281.6l5.2-5.1l-2.5-2.4
					l-5.2,5.1L-372.5,281.6z"/>
				<path id="XMLID_136_" class="st1" d="M-364.3,273.5c1.3-1.2,3.4-1.2,4.8,0l3.2,3.1c1.3,1.3,1.3,3.5,0,4.9l-9.5,9.3
					c-0.8,0.7-1.9,0.7-2.7,0c-0.7-0.8-0.7-1.9,0-2.7l4-3.9l-2.7-2.7c-1.3-1.3-1.3-3.5,0-4.9L-364.3,273.5z M-362,281.6l2.5-2.4
					l-2.5-2.4l-2.5,2.4L-362,281.6z"/>
				<path id="XMLID_135_" class="st2" d="M-364.5,279l-2.7-2.7l-2.5,2.5l2.7,2.7L-364.5,279z"/>
			</g>
		</g>
	</g>
</g>
<path id="XMLID_106_" d="M-346.4,288.3h2.7v-5.2h3.4c2.9,0,4.8-1.7,4.8-4.3c0-2.4-1.9-4.3-4.8-4.3h-6.1V288.3z M-343.8,280.8V277
	h3.4c1.2,0,2,0.8,2,1.8c0,1.1-0.8,1.9-2,1.9C-340.3,280.8-343.8,280.8-343.8,280.8z M-330.4,288.5c2.4,0,4.5-1.4,5.2-3.8h-2.4
	c-0.4,1-1.6,1.7-2.7,1.7c-1.6,0-2.7-1-3-2.5h8.2l0.2-0.2v-0.4c0-3.2-2.1-5.3-5.4-5.3s-5.4,2.1-5.4,5.3
	C-335.7,286.5-333.7,288.5-330.4,288.5z M-333.3,282c0.4-1.1,1.6-1.9,2.9-1.9c1.2,0,2.3,0.8,2.9,1.9H-333.3z M-323.6,288.3h2.3v-5.9
	c0-1.3,1-2.2,2.7-2.2h0.8v-1.8c-0.2-0.1-0.7-0.2-1-0.2c-0.9,0-1.9,0.6-2.3,1.3v-1.1h-2.3v9.9h-0.2V288.3z M-310.7,278
	c-1.2,0-2.5,0.6-3.3,1.3v-1.1h-2.3v13.6h2.3V287c0.8,0.8,2.1,1.3,3.3,1.3c3.2,0,5.3-2.1,5.3-5.3S-307.5,278-310.7,278z M-311,280.1
	c1.8,0,3.2,1.2,3.2,3.2c0,1.9-1.2,3.2-3.2,3.2c-1.8,0-3.1-1.2-3.1-3.2C-314,281.4-312.8,280.1-311,280.1z M-299.1,288.5
	c2.4,0,4.5-1.4,5.2-3.8h-2.4c-0.4,1-1.6,1.7-2.7,1.7c-1.6,0-2.7-1-3-2.5h8.2l0.2-0.2v-0.4c0-3.2-2.1-5.3-5.4-5.3s-5.4,2.1-5.4,5.3
	C-304.4,286.5-302.3,288.5-299.1,288.5z M-301.9,282c0.4-1.1,1.6-1.9,2.9-1.9s2.3,0.8,2.9,1.9H-301.9z M-288.6,288.5
	c0.7,0,1.3-0.1,1.7-0.2v-1.7h-1.7c-0.6,0-0.9-0.3-0.9-0.8v-5.5h2.4v-2h-2.4v-3.8h-2.3v3.8h-1.6v2h1.6v5.4
	C-291.9,287.4-290.6,288.5-288.6,288.5z M-276,278.2h-2.3v6c0,1.3-1,2.2-2.4,2.2c-1.4,0-2.4-0.9-2.4-2.2v-6h-2.3v6.2
	c0,2.4,1.8,4.1,4.5,4.1c1,0,2-0.4,2.7-1v0.8h2.3V278.2L-276,278.2z M-269.4,288.5c1.1,0,2.4-0.6,3.3-1.3v1.1h2.3v-9.9h-2.3v1.1
	c-0.8-0.8-2-1.3-3.3-1.3c-3.2,0-5.2,2.1-5.2,5.3S-272.5,288.5-269.4,288.5z M-269.2,286.4c-1.8,0-3.1-1.2-3.1-3.2s1.2-3.2,3.1-3.2
	s3.1,1.2,3.1,3.2S-267.4,286.4-269.2,286.4z M-262,288.3h2.3v-13.7h-2.3V288.3z M-252.7,288.3h2.7v-5.2h3.4c2.9,0,4.8-1.7,4.8-4.3
	c0-2.4-1.9-4.3-4.8-4.3h-6.1V288.3z M-250.2,280.8V277h3.4c1.2,0,2,0.8,2,1.8c0,1.1-0.8,1.9-2,1.9
	C-246.7,280.8-250.2,280.8-250.2,280.8z M-241,288.3h2.3v-5.9c0-1.3,1-2.2,2.7-2.2h0.8v-1.8c-0.2-0.1-0.7-0.2-1-0.2
	c-0.9,0-1.9,0.6-2.3,1.3v-1.1h-2.4v10H-241z M-229.7,288.5c3.3,0,5.4-2.1,5.4-5.3s-2.1-5.2-5.4-5.2s-5.4,2.1-5.4,5.3
	C-235.1,286.5-233,288.5-229.7,288.5z M-229.7,286.4c-1.8,0-3.1-1.2-3.1-3.2s1.2-3.2,3.1-3.2s3.1,1.2,3.1,3.2
	S-227.9,286.4-229.7,286.4z M-219,288.5c0.7,0,1.3-0.1,1.7-0.2v-1.7h-1.7c-0.6,0-0.9-0.3-0.9-0.8v-5.5h2.4v-2h-2.4v-3.8h-2.3v3.8
	h-1.6v2h1.6v5.4C-222.4,287.4-221.1,288.5-219,288.5z M-211.4,288.5c3.3,0,5.4-2.1,5.4-5.3s-2.1-5.3-5.4-5.3c-3.3,0-5.4,2.1-5.4,5.3
	S-214.7,288.5-211.4,288.5z M-211.4,286.4c-1.8,0-3.1-1.2-3.1-3.2s1.2-3.2,3.1-3.2s3.1,1.2,3.1,3.2S-209.6,286.4-211.4,286.4z
	 M-199.7,288.5c2.7,0,4.9-1.7,5.2-4.3h-2.2c-0.3,1.3-1.4,2.2-3,2.2c-1.8,0-3.1-1.2-3.1-3.2c0-1.9,1.2-3.2,3.1-3.2
	c1.4,0,2.5,0.9,3,2.1h2.2c-0.4-2.4-2.4-4.3-5.2-4.3c-3.3,0-5.4,2.1-5.4,5.3C-205.1,286.5-203,288.5-199.7,288.5z M-188.1,288.5
	c3.3,0,5.4-2.1,5.4-5.3s-2.2-5.2-5.4-5.2s-5.4,2.1-5.4,5.3C-193.5,286.5-191.4,288.5-188.1,288.5z M-188.1,286.4
	c-1.8,0-3.1-1.2-3.1-3.2s1.2-3.2,3.1-3.2c1.8,0,3.1,1.2,3.1,3.2S-186.3,286.4-188.1,286.4z M-181.5,288.3h2.3v-13.7h-2.3V288.3z"/>
</svg>
