<?xml version="1.0" encoding="utf-8"?>
<!-- Generator: Adobe Illustrator 19.0.0, SVG Export Plug-In . SVG Version: 6.00 Build 0)  -->
<svg version="1.1" id="Layer_1" xmlns="http://www.w3.org/2000/svg" xmlns:xlink="http://www.w3.org/1999/xlink" x="0px" y="0px"
	 viewBox="0 0 200 50" enable-background="new 0 0 200 50" xml:space="preserve">
<g id="XMLID_133_">
	<defs>
		<rect id="XMLID_142_" x="10" y="11.7" width="26.5" height="26.5"/>
	</defs>
	<clipPath id="XMLID_145_">
		<use xlink:href="#XMLID_142_"  overflow="visible"/>
	</clipPath>
	<g id="XMLID_134_" clip-path="url(#XMLID_145_)">
		<path id="XMLID_139_" fill="#3CEAAA" d="M18.6,16.7c1.2-1.1,3-1.1,4.2,0l2.8,2.7c1.2,1.2,1.2,3.1,0,4.3l-4.8,4.7l3.5,3.4
			c0.7,0.6,0.7,1.7,0,2.4c-0.6,0.7-1.7,0.7-2.4,0L13.5,26c-1.2-1.2-1.2-3.1,0-4.3L18.6,16.7z M18.4,26.1l4.6-4.5l-2.3-2.2l-4.6,4.5
			L18.4,26.1z"/>
		<path id="XMLID_136_" fill="#03BCE4" d="M25.6,19c1.2-1.1,3-1.1,4.2,0l2.8,2.7c1.2,1.2,1.2,3.1,0,4.3l-8.4,8.2
			c-0.7,0.6-1.7,0.6-2.4,0c-0.6-0.7-0.6-1.7,0-2.4l3.5-3.4L22.9,26c-1.2-1.2-1.2-3.1,0-4.3L25.6,19z M27.7,26.1l2.3-2.2l-2.3-2.2
			l-2.3,2.2L27.7,26.1z"/>
		<path id="XMLID_135_" opacity="0.95" fill="#00A4E1" enable-background="new    " d="M25.4,23.9L23,21.5l-2.3,2.3l2.4,2.4
			L25.4,23.9z"/>
	</g>
</g>
<path id="XMLID_106_" d="M41.5,32.1h2.4v-4.6h3c2.5,0,4.2-1.5,4.2-3.8c0-2.2-1.7-3.8-4.2-3.8h-5.4V32.1z M43.9,25.4v-3.3h3
	c1.1,0,1.8,0.7,1.8,1.6c0,1-0.7,1.7-1.8,1.7H43.9z M55.7,32.3c2.2,0,4-1.3,4.6-3.3h-2.2c-0.4,0.9-1.4,1.5-2.4,1.5
	c-1.4,0-2.4-0.9-2.6-2.3h7.3l0.2-0.2v-0.4c0-2.8-1.9-4.7-4.8-4.7c-2.9,0-4.8,1.9-4.8,4.7S52.8,32.3,55.7,32.3z M53.2,26.5
	c0.4-1,1.4-1.7,2.5-1.7c1.1,0,2.1,0.7,2.5,1.7H53.2z M61.7,32.1h2.1v-5.2c0-1.2,0.9-2,2.4-2h0.7v-1.6c-0.2-0.1-0.6-0.2-0.9-0.2
	c-0.8,0-1.7,0.5-2.1,1.2v-1h-2.1V32.1z M73.2,23c-1.1,0-2.3,0.5-2.9,1.2v-1h-2.1v12.1h2.1v-4.3c0.7,0.7,1.9,1.2,2.9,1.2
	c2.8,0,4.7-1.9,4.7-4.7S76,23,73.2,23z M72.9,24.9c1.6,0,2.8,1.1,2.8,2.8s-1.1,2.8-2.8,2.8c-1.6,0-2.7-1.1-2.7-2.8
	S71.3,24.9,72.9,24.9z M83.5,32.3c2.2,0,4-1.3,4.6-3.3h-2.2c-0.4,0.9-1.4,1.5-2.4,1.5c-1.4,0-2.4-0.9-2.6-2.3h7.3l0.2-0.2v-0.4
	c0-2.8-1.9-4.7-4.8-4.7c-2.9,0-4.8,1.9-4.8,4.7S80.6,32.3,83.5,32.3z M81,26.5c0.4-1,1.4-1.7,2.5-1.7c1.1,0,2.1,0.7,2.5,1.7H81z
	 M92.8,32.3c0.6,0,1.2-0.1,1.5-0.2v-1.5h-1.5c-0.5,0-0.8-0.3-0.8-0.7V25h2.2v-1.8h-2.2v-3.3h-2.1v3.3h-1.4V25h1.4v4.8
	C89.8,31.3,91,32.3,92.8,32.3z M104,23.2h-2.1v5.3c0,1.2-0.9,2-2.2,2s-2.2-0.8-2.2-2v-5.3h-2.1v5.5c0,2.2,1.6,3.6,4,3.6
	c0.9,0,1.8-0.4,2.4-0.9v0.7h2.1V23.2z M109.8,32.3c1,0,2.2-0.5,2.9-1.2v1h2.1v-8.8h-2.1v1c-0.7-0.7-1.8-1.2-2.9-1.2
	c-2.8,0-4.6,1.9-4.6,4.7S107.1,32.3,109.8,32.3z M110,30.4c-1.6,0-2.7-1.1-2.7-2.8s1.1-2.8,2.7-2.8c1.6,0,2.7,1.1,2.7,2.8
	S111.6,30.4,110,30.4z M116.4,32.1h2.1V19.9h-2.1V32.1z M124.6,32.1h2.4v-4.6h3c2.5,0,4.2-1.5,4.2-3.8c0-2.2-1.7-3.8-4.2-3.8h-5.4
	V32.1z M126.9,25.4v-3.3h3c1.1,0,1.8,0.7,1.8,1.6c0,1-0.7,1.7-1.8,1.7H126.9z M135,32.1h2.1v-5.2c0-1.2,0.9-2,2.4-2h0.7v-1.6
	c-0.2-0.1-0.6-0.2-0.9-0.2c-0.8,0-1.7,0.5-2.1,1.2v-1H135V32.1z M145,32.3c2.9,0,4.8-1.9,4.8-4.7S147.9,23,145,23
	c-2.9,0-4.8,1.9-4.8,4.7S142.1,32.3,145,32.3z M145,30.4c-1.6,0-2.7-1.1-2.7-2.8s1.1-2.8,2.7-2.8s2.7,1.1,2.7,2.8
	S146.6,30.4,145,30.4z M154.5,32.3c0.6,0,1.2-0.1,1.5-0.2v-1.5h-1.5c-0.5,0-0.8-0.3-0.8-0.7V25h2.2v-1.8h-2.2v-3.3h-2.1v3.3h-1.4V25
	h1.4v4.8C151.5,31.3,152.7,32.3,154.5,32.3z M161.3,32.3c2.9,0,4.8-1.9,4.8-4.7s-1.9-4.7-4.8-4.7c-2.9,0-4.8,1.9-4.8,4.7
	S158.4,32.3,161.3,32.3z M161.3,30.4c-1.6,0-2.7-1.1-2.7-2.8s1.1-2.8,2.7-2.8s2.7,1.1,2.7,2.8S162.9,30.4,161.3,30.4z M171.7,32.3
	c2.4,0,4.3-1.5,4.6-3.8h-2c-0.3,1.2-1.3,2-2.6,2c-1.6,0-2.7-1.1-2.7-2.8s1.1-2.8,2.7-2.8c1.3,0,2.3,0.8,2.6,1.9h2
	c-0.4-2.2-2.2-3.8-4.6-3.8c-2.9,0-4.8,1.9-4.8,4.7S168.8,32.3,171.7,32.3z M182,32.3c2.9,0,4.8-1.9,4.8-4.7S184.8,23,182,23
	s-4.8,1.9-4.8,4.7S179.1,32.3,182,32.3z M182,30.4c-1.6,0-2.7-1.1-2.7-2.8s1.1-2.8,2.7-2.8s2.7,1.1,2.7,2.8S183.6,30.4,182,30.4z
	 M187.8,32.1h2.1V19.9h-2.1V32.1z"/>
</svg>
