<?xml version="1.0" encoding="utf-8"?>
<!-- Generator: Adobe Illustrator 19.0.0, SVG Export Plug-In . SVG Version: 6.00 Build 0)  -->
<svg version="1.1" id="Layer_1" xmlns="http://www.w3.org/2000/svg" xmlns:xlink="http://www.w3.org/1999/xlink" x="0px" y="0px"
	 viewBox="-379 256 200 50" style="enable-background:new -379 256 200 50;" xml:space="preserve">
<style type="text/css">
	.st0{fill:url(#SVGID_1_);}
	.st1{fill:#00D1FF;}
</style>
<g transform="translate(257.63 -97.669)">
	<g transform="matrix(.26458 0 0 .26458 -257.63 97.669)">
		
			<linearGradient id="SVGID_1_" gradientUnits="userSpaceOnUse" x1="383469.4375" y1="123282.4844" x2="383469.4375" y2="123304.2734" gradientTransform="matrix(1.388851e-002 0 0 1.388851e-002 -6689.8291 -679.2108)">
			<stop  offset="0" style="stop-color:#090220"/>
			<stop  offset="1" style="stop-color:#170659"/>
		</linearGradient>
		<circle class="st0" cx="-1364" cy="1063.9" r="30.9"/>
		<g>
			<path class="st1" d="M-1374.2,1056.2c-0.3-0.3-0.6-0.4-1-0.4h-8.3c-0.1,0-0.1,0-0.2-0.1c0,0-0.1-0.1-0.1-0.2v-5.6
				c0-0.1,0-0.1,0.1-0.2s0.1-0.1,0.2-0.1h8.7c2.2,0,4.1,0.9,5.7,2.7l2.2,2.6l-4.1,5L-1374.2,1056.2z M-1359,1052.4
				c1.6-1.8,3.5-2.7,5.7-2.7h8.7c0.1,0,0.1,0,0.2,0.1c0,0,0.1,0.1,0.1,0.2v5.6c0,0.1,0,0.1-0.1,0.2c0,0.1-0.1,0.1-0.2,0.1h-8.3
				c-0.4,0-0.8,0.2-1,0.4l-6.1,7.4l6.1,7.4c0.3,0.3,0.6,0.4,1,0.4h8.3c0.1,0,0.1,0,0.2,0.1c0,0.1,0.1,0.1,0.1,0.2v5.6
				c0,0.1,0,0.1-0.1,0.2c0,0.1-0.1,0.1-0.2,0.1h-8.7c-2.2,0-4.1-0.9-5.7-2.7l-5-6.2l-5,6.2c-1.6,1.8-3.5,2.7-5.7,2.7h-8.7
				c-0.1,0-0.1,0-0.2-0.1c0-0.1-0.1-0.1-0.1-0.2v-5.6c0-0.1,0-0.1,0.1-0.2c0-0.1,0.1-0.1,0.2-0.1h8.3c0.4,0,0.8-0.2,1-0.4l5.9-7.3
				L-1359,1052.4z"/>
		</g>
	</g>
</g>
<g>
	<path class="st1" d="M-331.9,281.2c-0.6-0.6-1.5-1-2.4-1h-9.3c-0.2,0-0.4-0.1-0.4-0.2c-0.1-0.1-0.2-0.3-0.2-0.4v-0.7
		c0-0.2,0.1-0.3,0.2-0.4c0.1-0.1,0.3-0.2,0.4-0.2h12h0.1c0,0,0,0,0-0.1v-2.2v-0.1c0,0,0,0-0.1,0h-12c-1,0-1.8,0.4-2.4,1
		c-0.6,0.6-1,1.4-1,2.4v0.2c0,0.9,0.4,1.7,1,2.4s1.5,1,2.4,1h9.3c0.2,0,0.4,0.1,0.4,0.2c0.1,0.1,0.2,0.3,0.2,0.4v0.7
		c0,0.2-0.1,0.4-0.2,0.4c-0.1,0.1-0.3,0.2-0.4,0.2h-12.1c0,0,0,0-0.1,0c0,0,0,0,0,0.1v2.2c0,0,0,0,0,0.1c0,0,0,0,0.1,0h12.1
		c1,0,1.8-0.4,2.4-1c0.6-0.6,1-1.4,1-2.4v-0.2C-330.9,282.6-331.3,281.9-331.9,281.2z"/>
	<path class="st1" d="M-311.6,275.8h-2.6c0,0,0,0-0.1,0c0,0,0,0,0,0.1v2.9c0,0.3-0.1,0.4-0.4,0.5l-5.2,2.2l-5.2-2.2
		c-0.3-0.1-0.4-0.4-0.4-0.5v-2.9v-0.1c0,0,0,0-0.1,0h-2.6c0,0,0,0-0.1,0c0,0,0,0,0,0.1v3.3c0,0.5,0.2,1,0.4,1.3
		c0.3,0.4,0.6,0.7,1.1,0.9l5.5,2.3v3.3v0.1c0,0,0,0,0.1,0h2.6c0,0,0,0,0.1,0c0,0,0,0,0-0.1v-3.3l5.5-2.3c0.4-0.2,0.8-0.5,1.1-0.9
		c0.3-0.4,0.4-0.8,0.4-1.3L-311.6,275.8C-311.5,275.8-311.5,275.8-311.6,275.8C-311.5,275.8-311.6,275.8-311.6,275.8z"/>
	<path class="st1" d="M-292.2,275.8h-2.6h-0.1c0,0,0,0,0,0.1v8.8h-1.1c-0.2,0-0.4-0.1-0.5-0.3l-5.1-7.4c-0.5-0.8-1.3-1.2-2.2-1.2
		h-4.4h-0.1c0,0,0,0,0,0.1V287c0,0,0,0,0,0.1c0,0,0,0,0.1,0h2.6c0,0,0,0,0.1,0c0,0,0,0,0-0.1v-8.8h1.1c0.2,0,0.4,0.1,0.5,0.3
		l5.1,7.4c0.5,0.8,1.3,1.2,2.2,1.2h4.4h0.1c0,0,0,0,0-0.1L-292.2,275.8C-292.1,275.9-292.1,275.8-292.2,275.8L-292.2,275.8z"/>
	<path class="st1" d="M-273.2,275.8h-16.1h-0.1c0,0,0,0,0,0.1v2.2c0,0,0,0,0,0.1c0,0,0,0,0.1,0h6.6v8.8c0,0,0,0,0,0.1s0,0,0.1,0h2.6
		h0.1c0,0,0,0,0-0.1v-8.8h6.6h0.1c0,0,0,0,0-0.1L-273.2,275.8C-273.1,275.9-273.1,275.8-273.2,275.8L-273.2,275.8z"/>
	<path class="st1" d="M-253.8,275.8h-2.6c0,0,0,0-0.1,0c0,0,0,0,0,0.1v4.4h-10.6V276c0,0,0,0,0-0.1c0,0,0,0-0.1,0h-2.6
		c0,0,0,0-0.1,0c0,0,0,0,0,0.1v11c0,0,0,0,0,0.1c0,0,0,0,0.1,0h2.6h0.1c0,0,0,0,0-0.1v-4.3h10.6v4.3c0,0,0,0,0,0.1c0,0,0,0,0.1,0
		h2.6h0.1c0,0,0,0,0-0.1L-253.8,275.8C-253.8,275.9-253.8,275.8-253.8,275.8C-253.8,275.8-253.8,275.8-253.8,275.8z"/>
	<path class="st1" d="M-234.5,275.8h-12.7c-1,0-1.8,0.4-2.4,1c-0.6,0.6-1,1.4-1,2.4v4.6c0,0.9,0.4,1.7,1,2.4c0.6,0.6,1.5,1,2.4,1
		h12.7c0,0,0,0,0.1,0c0,0,0,0,0-0.1v-2.2v-0.1c0,0,0,0-0.1,0h-12.7c-0.2,0-0.4-0.1-0.4-0.2c-0.1-0.1-0.2-0.3-0.2-0.4v-1.3h13.3h0.1
		c0,0,0,0,0-0.1v-2.2v-0.1c0,0,0,0-0.1,0h-13.4V279c0-0.2,0.1-0.3,0.2-0.4c0.1-0.1,0.3-0.2,0.4-0.2h12.7c0,0,0,0,0.1,0
		c0,0,0,0,0-0.1V276C-234.4,275.9-234.4,275.9-234.5,275.8C-234.4,275.8-234.5,275.8-234.5,275.8z"/>
	<path class="st1" d="M-215.1,275.8h-16.1h-0.1c0,0,0,0,0,0.1v2.2c0,0,0,0,0,0.1c0,0,0,0,0.1,0h6.6v8.8c0,0,0,0,0,0.1s0,0,0.1,0h2.6
		h0.1c0,0,0,0,0-0.1v-8.8h6.6h0.1c0,0,0,0,0-0.1L-215.1,275.8C-215,275.9-215,275.8-215.1,275.8L-215.1,275.8z"/>
	<path class="st1" d="M-209,275.8C-209.1,275.8-209.1,275.8-209,275.8h-2.7h-0.1c0,0,0,0,0,0.1V287c0,0,0,0,0,0.1c0,0,0,0,0.1,0h2.6
		h0.1c0,0,0,0,0-0.1V275.8L-209,275.8z"/>
	<path class="st1" d="M-201.8,278.6c-0.1-0.1-0.3-0.2-0.4-0.2h-3.4h-0.1c0,0,0,0,0-0.1V276c0,0,0,0,0-0.1c0,0,0,0,0.1,0h3.6
		c0.9,0,1.7,0.4,2.3,1.1l0.9,1.1l-1.7,2.1L-201.8,278.6z M-195.5,276.9c0.6-0.7,1.4-1.1,2.3-1.1h3.6h0.1c0,0,0,0,0,0.1v2.2
		c0,0,0,0,0,0.1c0,0,0,0-0.1,0h-3.4c-0.2,0-0.3,0.1-0.4,0.2l-2.5,3.1l2.5,3.1c0.1,0.1,0.3,0.2,0.4,0.2h3.4h0.1c0,0,0,0,0,0.1v2.2
		c0,0,0,0,0,0.1c0,0,0,0-0.1,0h-3.6c-0.9,0-1.7-0.4-2.3-1.1l-2.1-2.5l-2.1,2.5c-0.6,0.7-1.4,1.1-2.3,1.1h-3.6h-0.1c0,0,0,0,0-0.1
		v-2.2c0,0,0,0,0-0.1c0,0,0,0,0.1,0h3.4c0.2,0,0.3-0.1,0.4-0.2l2.4-3L-195.5,276.9z"/>
</g>
</svg>
