<?xml version="1.0" encoding="utf-8"?>
<!-- Generator: Adobe Illustrator 19.0.0, SVG Export Plug-In . SVG Version: 6.00 Build 0)  -->
<svg version="1.1" id="Layer_1" xmlns="http://www.w3.org/2000/svg" xmlns:xlink="http://www.w3.org/1999/xlink" x="0px" y="0px"
	 viewBox="-379 256 200 50" style="enable-background:new -379 256 200 50;" xml:space="preserve">
<style type="text/css">
	.st0{fill:url(#SVGID_1_);}
	.st1{fill:#00D1FF;}
</style>
<g transform="translate(257.63 -97.669)">
	<g transform="matrix(.26458 0 0 .26458 -257.63 97.669)">
		
			<linearGradient id="SVGID_1_" gradientUnits="userSpaceOnUse" x1="46990.4023" y1="-32087.7656" x2="46990.4023" y2="-32112.0469" gradientTransform="matrix(5.249267e-002 0 0 -5.249267e-002 -3864.7004 -657.269)">
			<stop  offset="0" style="stop-color:#090220"/>
			<stop  offset="1" style="stop-color:#170659"/>
		</linearGradient>
		<circle class="st0" cx="-1398" cy="1061.5" r="34.4"/>
		<g>
			<path class="st1" d="M-1409.4,1053c-0.3-0.3-0.7-0.5-1.1-0.5h-9.2c-0.1,0-0.1,0-0.2-0.1c0,0-0.1-0.1-0.1-0.2v-6.2
				c0-0.1,0-0.1,0.1-0.2c0.1-0.1,0.1-0.1,0.2-0.1h9.7c2.4,0,4.6,1,6.3,3l2.4,2.9l-4.6,5.6L-1409.4,1053z M-1392.4,1048.7
				c1.8-2,3.9-3,6.4-3h9.7c0.1,0,0.1,0,0.2,0.1c0,0,0.1,0.1,0.1,0.2v6.2c0,0.1,0,0.1-0.1,0.2c0,0.1-0.1,0.1-0.2,0.1h-9.2
				c-0.4,0-0.9,0.2-1.1,0.5l-6.8,8.2l6.8,8.3c0.3,0.3,0.7,0.5,1.1,0.5h9.2c0.1,0,0.1,0,0.2,0.1c0,0.1,0.1,0.1,0.1,0.2v6.2
				c0,0.1,0,0.1-0.1,0.2c0,0.1-0.1,0.1-0.2,0.1h-9.7c-2.5,0-4.6-1-6.3-3l-5.6-6.9l-5.6,6.9c-1.8,2-3.9,3-6.4,3h-9.7
				c-0.1,0-0.1,0-0.2-0.1c0-0.1-0.1-0.1-0.1-0.2v-6.2c0-0.1,0-0.1,0.1-0.2c0-0.1,0.1-0.1,0.2-0.1h9.2c0.4,0,0.9-0.2,1.1-0.5l6.6-8.1
				L-1392.4,1048.7z"/>
		</g>
	</g>
</g>
<g>
	<path class="st1" d="M-337.6,280.5c-0.7-0.7-1.7-1.1-2.7-1.1h-10.4c-0.2,0-0.4-0.1-0.5-0.2s-0.2-0.3-0.2-0.5v-0.8
		c0-0.2,0.1-0.3,0.2-0.5c0.1-0.1,0.3-0.2,0.5-0.2h13.4c0,0,0.1,0,0.1,0c0,0,0,0,0-0.1v-2.5c0,0,0-0.1,0-0.1c0,0,0,0-0.1,0h-13.4
		c-1.1,0-2,0.4-2.7,1.1c-0.7,0.7-1.1,1.6-1.1,2.7v0.2c0,1,0.4,1.9,1.1,2.7s1.7,1.1,2.7,1.1h10.4c0.2,0,0.4,0.1,0.5,0.2
		c0.1,0.1,0.2,0.3,0.2,0.5v0.8c0,0.2-0.1,0.4-0.2,0.5c-0.1,0.1-0.3,0.2-0.5,0.2h-13.5c0,0,0,0-0.1,0c0,0,0,0,0,0.1v2.5
		c0,0,0,0,0,0.1c0,0,0,0,0.1,0h13.5c1.1,0,2-0.4,2.7-1.1c0.7-0.7,1.1-1.6,1.1-2.7v-0.2C-336.5,282.1-336.9,281.3-337.6,280.5z"/>
	<path class="st1" d="M-315,274.5h-2.9c0,0,0,0-0.1,0c0,0,0,0,0,0.1v3.2c0,0.3-0.1,0.5-0.4,0.6l-5.8,2.4l-5.8-2.4
		c-0.3-0.1-0.4-0.4-0.4-0.6v-3.2c0,0,0-0.1,0-0.1c0,0,0,0-0.1,0h-2.9c0,0,0,0-0.1,0c0,0,0,0,0,0.1v3.7c0,0.6,0.2,1.1,0.5,1.5
		c0.3,0.5,0.7,0.8,1.2,1l6.1,2.6v3.7c0,0,0,0.1,0,0.1c0,0,0,0,0.1,0h2.9c0,0,0,0,0.1,0c0,0,0,0,0-0.1v-3.7l6.1-2.6
		c0.5-0.2,0.9-0.6,1.2-1c0.3-0.4,0.5-0.9,0.5-1.5L-315,274.5C-314.9,274.5-314.9,274.5-315,274.5C-314.9,274.5-315,274.5-315,274.5z
		"/>
	<path class="st1" d="M-293.3,274.5h-2.9c0,0-0.1,0-0.1,0c0,0,0,0,0,0.1v9.8h-1.2c-0.2,0-0.4-0.1-0.6-0.3l-5.7-8.3
		c-0.6-0.9-1.4-1.3-2.5-1.3h-4.9c0,0-0.1,0-0.1,0c0,0,0,0,0,0.1V287c0,0,0,0,0,0.1c0,0,0,0,0.1,0h2.9c0,0,0,0,0.1,0c0,0,0,0,0-0.1
		v-9.8h1.2c0.2,0,0.4,0.1,0.6,0.3l5.7,8.3c0.6,0.9,1.4,1.3,2.5,1.3h4.9c0,0,0.1,0,0.1,0c0,0,0,0,0-0.1v-12.4
		C-293.2,274.6-293.2,274.5-293.3,274.5C-293.3,274.5-293.3,274.5-293.3,274.5z"/>
	<path class="st1" d="M-272.2,274.5h-17.9c0,0-0.1,0-0.1,0c0,0,0,0,0,0.1v2.5c0,0,0,0,0,0.1c0,0,0,0,0.1,0h7.4v9.8c0,0,0,0,0,0.1
		s0,0,0.1,0h2.9c0,0,0.1,0,0.1,0c0,0,0,0,0-0.1v-9.8h7.4c0,0,0.1,0,0.1,0c0,0,0,0,0-0.1v-2.5C-272.1,274.6-272.1,274.5-272.2,274.5
		C-272.2,274.5-272.2,274.5-272.2,274.5z"/>
	<path class="st1" d="M-250.6,274.5h-2.9c0,0,0,0-0.1,0c0,0,0,0,0,0.1v4.9h-11.8v-4.8c0,0,0,0,0-0.1c0,0,0,0-0.1,0h-2.9
		c0,0,0,0-0.1,0c0,0,0,0,0,0.1V287c0,0,0,0,0,0.1c0,0,0,0,0.1,0h2.9c0,0,0.1,0,0.1,0c0,0,0,0,0-0.1v-4.8h11.8v4.8c0,0,0,0,0,0.1
		c0,0,0,0,0.1,0h2.9c0,0,0.1,0,0.1,0c0,0,0,0,0-0.1v-12.4C-250.5,274.6-250.5,274.5-250.6,274.5
		C-250.5,274.5-250.5,274.5-250.6,274.5z"/>
	<path class="st1" d="M-229,274.5h-14.2c-1.1,0-2,0.4-2.7,1.1c-0.7,0.7-1.1,1.6-1.1,2.7v5.1c0,1,0.4,1.9,1.1,2.7
		c0.7,0.7,1.7,1.1,2.7,1.1h14.2c0,0,0,0,0.1,0c0,0,0,0,0-0.1v-2.5c0,0,0-0.1,0-0.1c0,0,0,0-0.1,0h-14.2c-0.2,0-0.4-0.1-0.5-0.2
		s-0.2-0.3-0.2-0.5v-1.5h14.8c0,0,0.1,0,0.1,0c0,0,0,0,0-0.1v-2.5c0,0,0-0.1,0-0.1c0,0,0,0-0.1,0h-14.9v-1.5c0-0.2,0.1-0.3,0.2-0.5
		c0.1-0.1,0.3-0.2,0.5-0.2h14.2c0,0,0,0,0.1,0c0,0,0,0,0-0.1v-2.5C-228.9,274.6-228.9,274.6-229,274.5
		C-228.9,274.5-229,274.5-229,274.5z"/>
	<path class="st1" d="M-207.4,274.5h-17.9c0,0-0.1,0-0.1,0c0,0,0,0,0,0.1v2.5c0,0,0,0,0,0.1c0,0,0,0,0.1,0h7.4v9.8c0,0,0,0,0,0.1
		s0,0,0.1,0h2.9c0,0,0.1,0,0.1,0c0,0,0,0,0-0.1v-9.8h7.4c0,0,0.1,0,0.1,0c0,0,0,0,0-0.1v-2.5C-207.3,274.6-207.3,274.5-207.4,274.5
		C-207.4,274.5-207.4,274.5-207.4,274.5z"/>
	<path class="st1" d="M-200.6,274.5C-200.7,274.5-200.7,274.5-200.6,274.5l-3,0c0,0-0.1,0-0.1,0c0,0,0,0,0,0.1V287c0,0,0,0,0,0.1
		c0,0,0,0,0.1,0h2.9c0,0,0.1,0,0.1,0c0,0,0,0,0-0.1L-200.6,274.5C-200.6,274.5-200.6,274.5-200.6,274.5z"/>
	<path class="st1" d="M-192.6,277.6c-0.1-0.1-0.3-0.2-0.5-0.2h-3.8c0,0-0.1,0-0.1,0c0,0,0,0,0-0.1v-2.5c0,0,0,0,0-0.1c0,0,0,0,0.1,0
		h4c1,0,1.9,0.4,2.6,1.2l1,1.2l-1.9,2.3L-192.6,277.6z M-185.6,275.8c0.7-0.8,1.6-1.2,2.6-1.2h4c0,0,0.1,0,0.1,0s0,0,0,0.1v2.5
		c0,0,0,0,0,0.1c0,0,0,0-0.1,0h-3.8c-0.2,0-0.3,0.1-0.5,0.2l-2.8,3.4l2.8,3.4c0.1,0.1,0.3,0.2,0.5,0.2h3.8c0,0,0.1,0,0.1,0
		c0,0,0,0,0,0.1v2.5c0,0,0,0,0,0.1c0,0,0,0-0.1,0h-4c-1,0-1.9-0.4-2.6-1.2l-2.3-2.8l-2.3,2.8c-0.7,0.8-1.6,1.2-2.6,1.2h-4
		c0,0-0.1,0-0.1,0c0,0,0,0,0-0.1v-2.5c0,0,0,0,0-0.1c0,0,0,0,0.1,0h3.8c0.2,0,0.3-0.1,0.5-0.2l2.7-3.3L-185.6,275.8z"/>
</g>
</svg>
