<?xml version="1.0" encoding="utf-8"?>
<!-- Generator: Adobe Illustrator 19.0.0, SVG Export Plug-In . SVG Version: 6.00 Build 0)  -->
<svg version="1.1" id="Layer_1" xmlns="http://www.w3.org/2000/svg" xmlns:xlink="http://www.w3.org/1999/xlink" x="0px" y="0px"
	 viewBox="0 0 200 50" enable-background="new 0 0 200 50" xml:space="preserve">
<g id="XMLID_136_">
	<path id="XMLID_134_" fill="#FE007A" d="M134.3,22.8c-0.4,0.7-0.6,1.4-0.9,2.1c-1,2.6-2,5.2-3,7.8c-0.1,0.3,0,0.8-0.5,0.7
		c-0.5-0.1-1,0.1-1.3-0.6c-1.4-3.7-2.8-7.4-4.3-11c-0.3-0.8-0.7-1.5-1-2.3c-0.2-0.5-0.6-0.8-1.1-0.8c-0.2,0-0.3-0.1-0.4-0.2
		c-0.1-0.1-0.2-0.2-0.1-0.4c0-0.1,0.2-0.1,0.3-0.2c0,0,0,0,0.1,0c1.7-0.1,3.3-0.1,5,0c0.2,0,0.4,0.1,0.4,0.3c0,0.3-0.2,0.4-0.4,0.4
		c-1.1,0.2-1.2,0.3-0.8,1.4c0.7,2.5,1.7,4.9,2.6,7.3c0.4,1,0.7,1.9,1.2,3.1c1.1-3.2,2.4-6.1,3.2-9.1c0.4-1.4-0.1-2.2-1.6-2.6
		c-0.2-0.1-0.4-0.2-0.4-0.4c0-0.3,0.2-0.3,0.4-0.3c1.7-0.1,3.5-0.1,5.2,0c0.2,0,0.5,0.1,0.5,0.4c0,0.3-0.2,0.4-0.5,0.4
		c-0.8,0-1.3,0.5-1,1.4c1,3.4,2.2,6.7,3.5,10c0.3-0.1,0.3-0.3,0.3-0.4c1.3-3.2,2.5-6.5,3.6-9.8c0.3-0.8,0.1-1.1-0.8-1.2
		c-0.3,0-0.6,0-0.6-0.4c0-0.4,0.3-0.3,0.6-0.4c1.2-0.1,2.5-0.1,3.7,0c0.2,0,0.4,0,0.4,0.2c0.1,0.2-0.1,0.4-0.3,0.4
		c-0.9,0.3-1.2,1.1-1.6,1.9c-1.6,4.1-3.2,8.2-4.8,12.3c-0.2,0.4-0.4,0.6-0.8,0.7c-0.5,0.1-0.8-0.1-0.9-0.6c-1.1-3.1-2.3-6.1-3.5-9.2
		C134.6,23.3,134.5,23,134.3,22.8z"/>
	<path id="XMLID_133_" fill="#FE007A" d="M94.4,28.9c0.1-1.7,0.1-3.2,0.1-4.8c0-1.3,0-2.5-0.1-3.8c0-1-0.5-1.6-1.5-1.8
		c-0.1,0-0.2,0-0.2,0c-0.2,0-0.3-0.2-0.3-0.4c0-0.2,0.2-0.3,0.4-0.3c0,0,0.1,0,0.1,0c1.5,0,2.9,0,4.4,0.1c0.2,0,0.5,0,0.5,0.2
		c0,0.3-0.2,0.3-0.4,0.4c-0.2,0.1-0.3,0.1-0.5,0.1c-0.5,0.1-0.7,0.4-0.7,0.9C96,22.6,96,25.7,96,28.7c0,1.3,0,2.6,0,3.9
		c0,0.5-0.2,0.5-0.6,0.5c-0.4,0-0.7-0.3-1-0.6c-1.7-1.7-3.3-3.5-4.9-5.3c-1.5-1.7-3-3.3-4.5-5c-0.2-0.3-0.5-0.5-0.8-0.9
		c0,0.7-0.1,1.3-0.1,1.9c-0.1,2.4,0,4.7,0.1,7.1c0.1,1.3,0.2,1.5,1.4,1.9c0.2,0.1,0.3,0.1,0.4,0.2c0.1,0.1,0.2,0.2,0.2,0.3
		c0,0.2-0.2,0.2-0.3,0.3c-0.1,0-0.3,0.1-0.4,0.1c-1.4,0-2.7,0-4.1,0c-0.3,0-0.6,0.1-0.7-0.3c0-0.4,0.3-0.4,0.6-0.5
		c0.8-0.1,1-0.7,1.1-1.4c0.2-1.4,0.2-2.8,0.2-4.2c0.1-2.1,0.1-4.2-0.1-6.3c-0.1-1.3-0.5-1.8-1.9-1.9c-0.3,0-0.6,0-0.6-0.4
		c0-0.4,0.3-0.4,0.6-0.4c1.1,0,2.1,0,3.2,0c0.3,0,0.4,0.2,0.6,0.4c3.1,3.4,6.1,6.8,9.2,10.2C93.8,28.5,94.1,28.7,94.4,28.9z"/>
	<path id="XMLID_132_" fill="#FE007A" d="M73.9,24.3c0-1.8,0-3.1-0.1-4.4c-0.1-1.1-0.2-1.2-1.2-1.5c-0.2-0.1-0.4-0.2-0.4-0.4
		c0-0.3,0.2-0.3,0.5-0.3c1.3-0.1,2.5-0.1,3.8,0c0.2,0,0.5,0,0.5,0.4c0,0.3-0.2,0.4-0.4,0.4c-0.5,0-0.6,0.3-0.7,0.7
		c-0.1,0.8-0.2,1.5-0.2,2.3c-0.1,2.3-0.1,4.6-0.3,6.9c-0.2,3-2.3,5-5.3,5c-0.9,0-1.9,0.1-2.8-0.1c-1.7-0.4-3.8-2-3.8-4.5
		c0-2.5-0.1-4.9-0.2-7.4c0-0.6-0.1-1.3-0.1-1.9c-0.1-0.6-0.2-1.1-0.9-1c-0.2,0-0.4-0.1-0.4-0.4c0-0.3,0.2-0.3,0.4-0.4
		c1.6-0.1,3.1-0.1,4.7,0c0.1,0,0.3,0,0.4,0.2c0,0.2-0.1,0.3-0.2,0.3c-0.1,0.1-0.3,0.2-0.4,0.2c-0.7,0.1-0.8,0.6-0.8,1.2
		c0,2.9-0.1,5.9,0,8.8c0,1.8,1.1,3.4,3.5,3.6c2.3,0.2,4.6-1.2,4.7-4.1C73.9,26.7,74,25.3,73.9,24.3z"/>
	<path id="XMLID_131_" fill="#FE007A" d="M115.9,17.4c0.7,0,1.5,0.1,2.2,0.1c0.6,0,0.8,0.3,0.8,0.8c0,0.6,0.1,1.1,0.1,1.6
		c0.1,0.5-0.2,0.5-0.5,0.4c-0.4-0.1-0.5-0.4-0.7-0.7c-0.9-1.6-3.1-2-4.5-0.7c-0.9,0.8-1,1.9-0.3,2.8c0.6,0.8,1.4,1.3,2.2,1.8
		c1.1,0.7,2.1,1.3,3,2.2c2,1.9,1.9,4.7-0.3,6.4c-2,1.5-4.2,1.6-6.5,0.9c-1.1-0.3-1.1-0.3-1.1-1.5c0-0.6,0-1.1,0-1.7
		c0-0.2,0-0.5,0.3-0.5c0.3,0,0.4,0.2,0.5,0.4c0,0.1,0,0.2,0.1,0.3c0.4,1.7,1.5,2.5,3.3,2.4c1.5-0.1,2.7-1.2,2.8-2.7
		c0.1-0.9-0.3-1.6-0.9-2.2c-0.7-0.7-1.6-1.2-2.5-1.7c-0.7-0.4-1.5-0.9-2.1-1.5c-1.2-1.3-1.6-2.8-1-4.4c0.6-1.7,2-2.4,3.7-2.5
		C115,17.4,115.5,17.4,115.9,17.4z"/>
	<path id="XMLID_130_" fill="#FE007A" d="M103.9,17.7c0.8,0,1.6,0,2.4,0c0.2,0,0.5,0,0.5,0.3c0,0.3-0.3,0.4-0.5,0.4
		c-0.9,0.2-1.2,0.5-1.2,1.4c-0.1,3.7-0.1,7.5,0.1,11.2c0,0.9,0.2,1,1.1,1.2c0.2,0,0.5,0,0.5,0.4c0,0.4-0.3,0.4-0.6,0.4
		c-1.6,0.1-3.2,0.1-4.8,0c-0.2,0-0.5,0-0.5-0.3c0-0.3,0.2-0.4,0.5-0.5c1.2-0.3,1.3-0.5,1.4-1.7c0.1-1,0.1-2,0.1-3.1
		c0-2.6,0-5.2-0.2-7.9c-0.1-0.9-0.3-1.1-1.2-1.2c-0.3,0-0.6,0-0.6-0.4c0-0.4,0.3-0.4,0.6-0.4C102.3,17.7,103.1,17.7,103.9,17.7
		C103.9,17.7,103.9,17.7,103.9,17.7z"/>
	<path id="XMLID_129_" fill="#FE007A" d="M44.6,19.8c1.5,1.2,3.2,1.1,4.9,1.4c1.2,0.2,2.4,0.6,3.3,1.4c1.8,1.4,2.2,4.2,1,6.1
		c-0.2-1.7-1.3-2.4-2.6-3c-1-0.5-2.1-0.9-3.1-1.4c-0.8-0.4-1.6-0.8-2.3-1.3C44.8,22.1,44.4,21.1,44.6,19.8z"/>
	<path id="XMLID_128_" fill="#FE007A" d="M50.6,35.4c0.9-1.7,0.2-3.1-0.7-4.5c-0.5-0.8-1-1.6-1.5-2.4c-0.5-0.9-0.8-1.9-0.6-2.9
		c0.1-0.3,0.1-0.5,0.5-0.2c1.1,0.7,2.2,1.2,3.2,2c2.9,2.1,2.2,6.4-0.4,8.1C51,35.3,50.9,35.5,50.6,35.4z"/>
	<path id="XMLID_127_" fill="#FE007A" d="M38,12.7c1.6,0.1,2.9,1,4,2.2c0.4,0.5,0.8,0.6,1.4,0.5c1.7-0.3,3.4,0,5,0.7
		c1.5,0.6,1.4,1.4,1.1,2.8c-0.1,0.3-0.2,0.6,0,0.9C49.4,20.2,49.2,20,49,20c-2.5,0.1-4.6-0.7-6.1-2.8c-0.6-0.8-1.2-1.6-1.9-2.3
		c-0.9-1-2-1.8-3.4-2C37.7,12.5,37.9,12.7,38,12.7z"/>
	<path id="XMLID_126_" fill="#FE007A" d="M48.1,37.2c-1.1,0.9-2.3,0.9-3.2,0.1c-0.4-0.4-0.7-0.9-0.9-1.4c-0.3-0.6-0.5-1.2-0.9-1.7
		c-0.6-0.9-1.7-1.3-2.5-1.1c-0.7,0.2-1,0.8-0.9,1.5c0.1,0.6,0.7,1.1,1.3,1.1c0.5,0,1-0.4,1.1-1c0-0.5-0.4-0.9-1-0.9
		c-0.1,0-0.2,0-0.5,0.1c0.4-0.3,0.7-0.3,1-0.2c0.4,0.1,0.7,0.4,0.8,0.8c0.2,1-0.6,1.9-1.7,1.8c-0.6-0.1-1-0.4-1.4-0.8
		c-1.6-1.6-1.6-1.6-3.9-2.1c1.9-1.6,4-2.7,6.5-2.2c1.5,0.3,2.5,1.2,2.8,2.8c0.1,0.5,0.2,1.1,0.3,1.6c0.3,1.7,1.1,2.2,2.7,1.8
		C47.8,37.3,47.9,37.3,48.1,37.2z"/>
	<path id="XMLID_125_" fill="#FE017A" d="M40.2,18.8c-0.8-0.1-1.4-0.6-1.9-1.2c-0.9-1.1-1.2-2.3-1.3-3.6c0-0.4,0.1-0.6,0.6-0.5
		c0.8,0.3,1.4,0.8,1.7,1.6c0.3,1.1,0.5,2.3,1.2,3.3C40.7,18.8,40.3,18.8,40.2,18.8z"/>
	<path id="XMLID_124_" fill="#FE027A" d="M40.1,29.9c1.1-0.8,2.4-0.9,3.7-1.1c1.7-0.3,2.6-1.1,2.9-2.5c0.1-0.6-0.1-1.2-0.2-1.8
		c1,1,1,2.6,0.1,3.7c-0.5,0.6-1.2,1-2,1.2C43.1,29.7,41.6,29.6,40.1,29.9z"/>
	<path id="XMLID_123_" fill="#FE027B" d="M49,20c0.2,0,0.4,0,0.5-0.1c0.4,0.2,0.7,0,0.9-0.3c0.3-0.4,0.4-0.9,0.5-1.4
		c0.9,0.9,1.4,1.9,1.7,3.2c-0.1,0-0.2,0-0.2-0.1c-0.6-0.8-1.5-1.1-2.5-1.1C49.6,20.1,49.3,20.1,49,20z"/>
	<path id="XMLID_122_" fill="#FE007A" d="M50.1,14.8c0,1.1,0.9,1.6,1.4,2.3c-0.1,0.1-0.2,0.1-0.2,0c-0.2-0.2-0.5-0.5-0.7-0.4
		c-0.3,0.1-0.2,0.5-0.2,0.8c0,0.4,0,0.7-0.3,1.1c0.1-1.5-0.1-2.8-1.7-3.4c0-0.2,0.1-0.1,0.2-0.1c1.1,0.3,1.1,0.3,1.2-0.8
		c0-0.1,0-0.2,0-0.3C50.3,14.3,50,14.6,50.1,14.8z"/>
	<path id="XMLID_121_" fill="#FE208B" d="M39.1,21.3c-0.1,0-0.2-0.1-0.3-0.1c0.4-0.2,0.8-0.1,1.1,0.1c0,0-0.1,0.1-0.1,0.1
		C39.6,21.5,39.3,21.5,39.1,21.3z"/>
	<path id="XMLID_120_" fill="#FE007A" d="M50.1,14.8c-0.2-0.2,0-0.5-0.2-0.7c0-0.2,0-0.3,0.2-0.5C50.1,14.1,50.1,14.4,50.1,14.8z"/>
	<path id="XMLID_119_" fill="#FE007A" d="M38,12.7c-0.1,0.1-0.3,0-0.4,0.1c-0.2,0-0.3,0-0.4-0.2C37.5,12.6,37.7,12.5,38,12.7z"/>
	<path id="XMLID_118_" fill="#FE218B" d="M28.7,7.8c0,0-0.1,0.1-0.1,0.1c-0.2-0.2-0.3-0.4-0.5-0.6C28.4,7.4,28.5,7.6,28.7,7.8z"/>
	<path id="XMLID_117_" fill="#FE007A" d="M48.7,15.2c-0.1,0-0.2,0.1-0.2,0.1c-0.2-0.1-0.3-0.1-0.5-0.3C48.2,15,48.5,15,48.7,15.2z"
		/>
	<path id="XMLID_116_" fill="#FE007A" d="M26.7,5.6C26.9,5.8,27,5.8,27,6C26.8,6,26.7,5.9,26.7,5.6z"/>
	<path id="XMLID_115_" fill="#FE007A" d="M27.4,6.4c0.3,0.1,0.3,0.2,0.4,0.4C27.5,6.8,27.5,6.7,27.4,6.4z"/>
	<path id="XMLID_114_" fill="#FE007A" d="M31.4,13.9c0-0.1-0.1-0.1-0.1-0.2c0-0.1,0.1-0.1,0.1-0.1c0.1,0.1,0.1,0.1,0.2,0.2
		C31.6,13.9,31.5,13.9,31.4,13.9z"/>
	<path id="XMLID_147_" fill="#FE007A" d="M157.2,33.3c-0.8,0-1.7,0-2.5,0c-0.2,0-0.4,0-0.5-0.3c0-0.3,0.1-0.4,0.4-0.4
		c1.2-0.3,1.6-1,1.2-2.2c-0.3-0.7-0.6-1.5-0.9-2.2c-0.1-0.3-0.3-0.4-0.6-0.4c-1.5,0-3.1,0-4.6,0c-0.3,0-0.4,0.1-0.5,0.3
		c-0.3,0.9-0.6,1.8-0.9,2.7c-0.3,1,0,1.5,1,1.8c0.3,0.1,0.6,0.1,0.5,0.5c0,0.4-0.3,0.3-0.6,0.3c-1.5,0-2.9,0-4.4,0
		c-0.2,0-0.4,0.1-0.5-0.2c0-0.3,0.2-0.4,0.4-0.5c0.9-0.1,1.3-0.8,1.6-1.5c0.7-1.6,1.3-3.2,1.9-4.8c1-2.5,2-5.1,3-7.6
		c0.3-0.7,0.9-0.8,1.5-1c0.4-0.1,0.4,0.3,0.5,0.5c1.1,2.9,2.2,5.8,3.4,8.7c0.5,1.3,1,2.7,1.6,4c0.3,0.8,0.7,1.6,1.7,1.7
		c0.2,0,0.3,0.2,0.3,0.4c0,0.3-0.2,0.2-0.4,0.2C159,33.3,158.1,33.3,157.2,33.3C157.2,33.3,157.2,33.3,157.2,33.3z M150,25.9
		c-0.1,0.2,0,0.3,0.2,0.3c1.3,0,2.6,0,4,0c-0.8-1.9-1.5-3.7-2.3-5.6C151.2,22.5,150.6,24.2,150,25.9z"/>
	<path id="XMLID_144_" fill="#FE007A" d="M165.8,26.8c0,1.6,0,3,0,4.5c0,0.6,0.3,1,0.9,1.1c0.2,0.1,0.5,0.2,0.7,0.2
		c0.2,0.1,0.4,0.2,0.3,0.4c0,0.3-0.2,0.3-0.5,0.3c-1.7,0-3.4,0-5,0c-0.2,0-0.3,0-0.4-0.2c0-0.2,0-0.3,0.2-0.4
		c0.2-0.1,0.4-0.2,0.6-0.2c0.8-0.3,1-0.6,1-1.4c0.1-3.7,0.1-7.4,0-11.2c0-0.6-0.3-0.9-0.9-1.1c-0.3-0.1-0.5-0.1-0.8-0.2
		c-0.2,0-0.3-0.2-0.3-0.4c0-0.2,0.1-0.3,0.3-0.3c2.5-0.2,5-0.5,7.5-0.1c2.9,0.4,4.1,2.4,4,5.2c-0.1,2.7-2,4.5-4.7,4.5
		C167.8,27.6,166.8,27.5,165.8,26.8z M165.8,22.8c0,0.9,0,1.8,0,2.6c0,0.3,0.1,0.5,0.4,0.6c0.8,0.4,1.6,0.3,2.5,0.2
		c1.3-0.2,2.3-0.8,2.6-2.2c0.1-0.5,0.2-1,0.1-1.5c-0.1-2.7-2-4.3-4.6-3.7c-0.8,0.2-1,0.5-1,1.3C165.8,21.1,165.8,22,165.8,22.8
		C165.8,22.8,165.8,22.8,165.8,22.8z"/>
	<path id="XMLID_140_" fill="#FE007A" d="M28.7,7.8c2.3,2.6,4.6,5.1,7,7.7c0.8,0.9,1.5,1.7,2.3,2.6c0.5,0.6,0.5,1.3,0,1.9
		c-0.5,0.6-1.3,0.8-2,0.9c-0.8,0.1-1.1,0.4-1.2,1.2c-0.1,1.2-0.4,2.3-0.9,3.4c-0.7,1.5-0.4,2.3,0.9,3.3c0.3,0.2,0.6,0.4,0.8,0.6
		c0.8,0.8,0.9,1.9,0.1,2.6c-1,1-2.3,1.4-3.6,1.7c-0.2,0-0.3,0-0.3-0.2c-0.2-0.6-0.6-1.1-0.9-1.6c-0.8-1.5-1.2-3.5,0.3-5.2
		c1-1.1,1.9-2.2,2.1-3.7c0.1-0.4,0.1-0.8,0.2-1.2c0.1-0.6,0.3-1.2,0.7-1.6c0.3-0.4,0.3-0.7,0.1-1.1c-0.8-1.5-1.6-2.9-2.3-4.4
		c-0.1-0.2-0.2-0.4-0.3-0.6c0.3,0,0.3,0.2,0.4,0.3c1,1.4,1.9,2.9,2.8,4.3c0.3,0.5,0.7,0.8,1.3,0.7c0.2,0,0.5,0,0.6-0.3
		c0.1-0.2-0.1-0.4-0.2-0.6c-1.1-1.5-2.2-3.1-3.4-4.6c-1.5-2-3.1-4.1-4.6-6.1C28.5,7.8,28.5,7.8,28.7,7.8z M32.2,29.9
		c0.1-0.3,0.1-0.5-0.2-0.7c-0.2-0.2-0.4-0.3-0.6-0.2c-0.1,0-0.2,0.2-0.2,0.2c0.2,0.2,0.1,0.5,0.1,0.8c0,0.2,0.1,0.3,0.3,0.3
		C31.9,30.3,32.1,30.1,32.2,29.9z"/>
	<path id="XMLID_137_" fill="#FE027B" d="M40,21.3c0.4,0.2,0.7,0.6,0.7,1.1c-0.1,0.5-0.5,0.7-1,0.8c-0.1,0-0.2,0.1-0.3,0.1
		c-0.5,0-1.1,0.3-1.4-0.4c-0.2-0.7,0.1-1.3,0.8-1.7c0.1-0.1,0.2-0.1,0.3,0.1c0,0,0,0.1,0,0.1c-0.1,0.2-0.3,0.3-0.2,0.5
		c0.1,0.2,0.3,0.2,0.5,0.1c0.3-0.1,0.3-0.3,0.3-0.5c0,0,0-0.1,0-0.1C39.8,21.3,39.8,21.3,40,21.3z M38.7,21.9c0.2,0.4,0.6,0.4,1,0.2
		c0.4-0.1,0.4-0.4,0.2-0.7c-0.2-0.1-0.5-0.1-0.7-0.1C38.8,21.4,38.5,21.6,38.7,21.9z"/>
</g>
</svg>
